<svg width="362" height="542" viewBox="0 0 362 542" fill="none" xmlns="http://www.w3.org/2000/svg">
<path d="M330.741 1.5H31.63C15.0921 1.5 1.68555 14.9066 1.68555 31.4445V510.556C1.68555 527.093 15.0921 540.5 31.63 540.5H330.741C347.279 540.5 360.686 527.093 360.686 510.556V31.4445C360.686 14.9066 347.279 1.5 330.741 1.5Z" stroke="black" stroke-width="2.5"/>
<path d="M31.1855 30.9999C25.6455 30.9999 21.1855 35.4599 21.1855 40.9999V45.9999H26.1855V40.9999C26.1855 38.2299 28.4155 35.9999 31.1855 35.9999C33.9555 35.9999 36.1855 38.2299 36.1855 40.9999V45.9999C36.1855 47.1274 35.8105 49.0653 35.1855 49.8999C30.7223 59.0041 25.9073 67.0285 21.1855 75.9999V80.9999H31.1855H41.1855V75.9999V70.9999H36.1855V75.9999H31.1855H26.6855C31.1743 68.0844 34.9039 60.4281 39.1855 52.3999C40.4357 50.7306 41.1855 48.2551 41.1855 45.9999V40.9999C41.1855 35.4599 36.7255 30.9999 31.1855 30.9999Z" fill="black"/>
<path d="M331.186 511C336.726 511 341.186 506.54 341.186 501V496H336.186V501C336.186 503.77 333.956 506 331.186 506C328.416 506 326.186 503.77 326.186 501V496C326.186 494.873 326.561 492.935 327.186 492.1C331.649 482.996 336.464 474.971 341.186 466V461H331.186H321.186V466V471H326.186V466H331.186H335.686C331.197 473.916 327.467 481.572 323.186 489.6C321.935 491.269 321.186 493.745 321.186 496V501C321.186 506.54 325.646 511 331.186 511Z" fill="black"/>
<path d="M33.6855 119C34.6855 121 37.1855 124 39.6855 124C44.1855 124 46.1855 120 46.1855 115C46.1855 110 44.1855 105.5 39.6855 105.5C37.1855 105.5 35.6855 108 34.1855 109.5C33.6855 110 33.1855 109.5 33.6855 109C35.1855 107.5 37.6855 103.5 37.6855 100C37.6855 96 35.1855 91 31.1855 91C27.1855 91 24.6855 96 24.6855 100C24.6855 103.5 27.1855 107.5 28.6855 109C29.1855 109.5 28.6855 110 28.1855 109.5C26.6855 108 25.1855 105.5 22.6855 105.5C18.1855 105.5 16.1855 110 16.1855 115C16.1855 120 18.1855 124 22.6855 124C25.1855 124 27.6855 121 28.6855 119C29.1855 118.5 29.1855 119 29.1855 119.5C28.6855 123.5 28.6855 124.5 28.1855 127.5C27.6855 130.5 26.1855 136 26.1855 136C28.6855 135 33.6855 135 36.1855 136C36.1855 136 34.6855 130.5 34.1855 127.5C33.6855 124.5 33.6855 123.5 33.1855 119.5C33.1855 119 33.1855 118.5 33.6855 119Z" fill="black"/>
<path d="M333.686 423C334.686 421 337.186 418 339.686 418C344.186 418 346.186 422 346.186 427C346.186 432 344.186 436.5 339.686 436.5C337.186 436.5 335.686 434 334.186 432.5C333.686 432 333.186 432.5 333.686 433C335.186 434.5 337.686 438.5 337.686 442C337.686 446 335.186 451 331.186 451C327.186 451 324.686 446 324.686 442C324.686 438.5 327.186 434.5 328.686 433C329.186 432.5 328.686 432 328.186 432.5C326.686 434 325.186 436.5 322.686 436.5C318.186 436.5 316.186 432 316.186 427C316.186 422 318.186 418 322.686 418C325.186 418 327.686 421 328.686 423C329.186 423.5 329.186 423 329.186 422.5C328.686 418.5 328.686 417.5 328.186 414.5C327.686 411.5 326.186 406 326.186 406C328.686 407 333.686 407 336.186 406C336.186 406 334.686 411.5 334.186 414.5C333.686 417.5 333.686 418.5 333.186 422.5C333.186 423 333.186 423.5 333.686 423Z" fill="black"/>
<path d="M186.186 102C188.186 106 193.186 112 198.186 112C207.186 112 211.186 104 211.186 94C211.186 84 207.186 75 198.186 75C193.186 75 190.186 80 187.186 83C186.186 84 185.186 83 186.186 82C189.186 79 194.186 71 194.186 64C194.186 56 189.186 46 181.186 46C173.186 46 168.186 56 168.186 64C168.186 71 173.186 79 176.186 82C177.186 83 176.186 84 175.186 83C172.186 80 169.186 75 164.186 75C155.186 75 151.186 84 151.186 94C151.186 104 155.186 112 164.186 112C169.186 112 174.186 106 176.186 102C177.186 101 177.186 102 177.186 103C176.186 111 176.186 113 175.186 119C174.186 125 171.186 136 171.186 136C176.186 134 186.186 134 191.186 136C191.186 136 188.186 125 187.186 119C186.186 113 186.186 111 185.186 103C185.186 102 185.186 101 186.186 102Z" fill="black"/>
<path d="M186.186 440C188.186 436 193.186 430 198.186 430C207.186 430 211.186 438 211.186 448C211.186 458 207.186 467 198.186 467C193.186 467 190.186 462 187.186 459C186.186 458 185.186 459 186.186 460C189.186 463 194.186 471 194.186 478C194.186 486 189.186 496 181.186 496C173.186 496 168.186 486 168.186 478C168.186 471 173.186 463 176.186 460C177.186 459 176.186 458 175.186 459C172.186 462 169.186 467 164.186 467C155.186 467 151.186 458 151.186 448C151.186 438 155.186 430 164.186 430C169.186 430 174.186 436 176.186 440C177.186 441 177.186 440 177.186 439C176.186 431 176.186 429 175.186 423C174.186 417 171.186 406 171.186 406C176.186 408 186.186 408 191.186 406C191.186 406 188.186 417 187.186 423C186.186 429 186.186 431 185.186 439C185.186 440 185.186 441 186.186 440Z" fill="black"/>
</svg>
