<svg width="362" height="542" viewBox="0 0 362 542" fill="none" xmlns="http://www.w3.org/2000/svg">
<path d="M330.741 1.5H31.63C15.0921 1.5 1.68555 14.9066 1.68555 31.4445V510.556C1.68555 527.093 15.0921 540.5 31.63 540.5H330.741C347.279 540.5 360.686 527.093 360.686 510.556V31.4445C360.686 14.9066 347.279 1.5 330.741 1.5Z" stroke="black" stroke-width="2.5"/>
<path d="M31.1855 30.9999C25.6455 30.9999 21.1855 35.4599 21.1855 40.9999V45.9999H26.1855V40.9999C26.1855 38.2299 28.4155 35.9999 31.1855 35.9999C33.9555 35.9999 36.1855 38.2299 36.1855 40.9999V45.9999C36.1855 48.7699 33.9555 50.9999 31.1855 50.9999H26.1855V55.9999H31.1855C33.9555 55.9999 36.1855 58.2299 36.1855 60.9999V70.9999C36.1855 73.7699 33.9555 75.9999 31.1855 75.9999C28.4155 75.9999 26.1855 73.7699 26.1855 70.9999V65.9999H21.1855V70.9999C21.1855 76.5399 25.6455 80.9999 31.1855 80.9999C36.7255 80.9999 41.1855 76.5399 41.1855 70.9999V60.9999C41.1855 57.9963 39.8626 55.3299 37.7793 53.4999C39.8626 51.6699 41.1855 49.0035 41.1855 45.9999V40.9999C41.1855 35.4599 36.7255 30.9999 31.1855 30.9999Z" fill="black"/>
<path d="M331.186 511C336.726 511 341.186 506.54 341.186 501V496H336.186V501C336.186 503.77 333.956 506 331.186 506C328.416 506 326.186 503.77 326.186 501V496C326.186 493.23 328.416 491 331.186 491H336.186V486H331.186C328.416 486 326.186 483.77 326.186 481V471C326.186 468.23 328.416 466 331.186 466C333.956 466 336.186 468.23 336.186 471V476H341.186V471C341.186 465.46 336.726 461 331.186 461C325.646 461 321.186 465.46 321.186 471V481C321.186 484.004 322.508 486.67 324.592 488.5C322.508 490.33 321.186 492.996 321.186 496V501C321.186 506.54 325.646 511 331.186 511Z" fill="black"/>
<path d="M186.186 102C188.186 106 193.186 112 198.186 112C207.186 112 211.186 104 211.186 94C211.186 84 207.186 75 198.186 75C193.186 75 190.186 80 187.186 83C186.186 84 185.186 83 186.186 82C189.186 79 194.186 71 194.186 64C194.186 56 189.186 46 181.186 46C173.186 46 168.186 56 168.186 64C168.186 71 173.186 79 176.186 82C177.186 83 176.186 84 175.186 83C172.186 80 169.186 75 164.186 75C155.186 75 151.186 84 151.186 94C151.186 104 155.186 112 164.186 112C169.186 112 174.186 106 176.186 102C177.186 101 177.186 102 177.186 103C176.186 111 176.186 113 175.186 119C174.186 125 171.186 136 171.186 136C176.186 134 186.186 134 191.186 136C191.186 136 188.186 125 187.186 119C186.186 113 186.186 111 185.186 103C185.186 102 185.186 101 186.186 102Z" fill="black"/>
<path d="M186.186 282C188.186 286 193.186 292 198.186 292C207.186 292 211.186 284 211.186 274C211.186 264 207.186 255 198.186 255C193.186 255 190.186 260 187.186 263C186.186 264 185.186 263 186.186 262C189.186 259 194.186 251 194.186 244C194.186 236 189.186 226 181.186 226C173.186 226 168.186 236 168.186 244C168.186 251 173.186 259 176.186 262C177.186 263 176.186 264 175.186 263C172.186 260 169.186 255 164.186 255C155.186 255 151.186 264 151.186 274C151.186 284 155.186 292 164.186 292C169.186 292 174.186 286 176.186 282C177.186 281 177.186 282 177.186 283C176.186 291 176.186 293 175.186 299C174.186 305 171.186 316 171.186 316C176.186 314 186.186 314 191.186 316C191.186 316 188.186 305 187.186 299C186.186 293 186.186 291 185.186 283C185.186 282 185.186 281 186.186 282Z" fill="black"/>
<path d="M186.186 440C188.186 436 193.186 430 198.186 430C207.186 430 211.186 438 211.186 448C211.186 458 207.186 467 198.186 467C193.186 467 190.186 462 187.186 459C186.186 458 185.186 459 186.186 460C189.186 463 194.186 471 194.186 478C194.186 486 189.186 496 181.186 496C173.186 496 168.186 486 168.186 478C168.186 471 173.186 463 176.186 460C177.186 459 176.186 458 175.186 459C172.186 462 169.186 467 164.186 467C155.186 467 151.186 458 151.186 448C151.186 438 155.186 430 164.186 430C169.186 430 174.186 436 176.186 440C177.186 441 177.186 440 177.186 439C176.186 431 176.186 429 175.186 423C174.186 417 171.186 406 171.186 406C176.186 408 186.186 408 191.186 406C191.186 406 188.186 417 187.186 423C186.186 429 186.186 431 185.186 439C185.186 440 185.186 441 186.186 440Z" fill="black"/>
<path d="M33.6855 119C34.6855 121 37.1855 124 39.6855 124C44.1855 124 46.1855 120 46.1855 115C46.1855 110 44.1855 105.5 39.6855 105.5C37.1855 105.5 35.6855 108 34.1855 109.5C33.6855 110 33.1855 109.5 33.6855 109C35.1855 107.5 37.6855 103.5 37.6855 100C37.6855 96 35.1855 91 31.1855 91C27.1855 91 24.6855 96 24.6855 100C24.6855 103.5 27.1855 107.5 28.6855 109C29.1855 109.5 28.6855 110 28.1855 109.5C26.6855 108 25.1855 105.5 22.6855 105.5C18.1855 105.5 16.1855 110 16.1855 115C16.1855 120 18.1855 124 22.6855 124C25.1855 124 27.6855 121 28.6855 119C29.1855 118.5 29.1855 119 29.1855 119.5C28.6855 123.5 28.6855 124.5 28.1855 127.5C27.6855 130.5 26.1855 136 26.1855 136C28.6855 135 33.6855 135 36.1855 136C36.1855 136 34.6855 130.5 34.1855 127.5C33.6855 124.5 33.6855 123.5 33.1855 119.5C33.1855 119 33.1855 118.5 33.6855 119Z" fill="black"/>
<path d="M333.686 423C334.686 421 337.186 418 339.686 418C344.186 418 346.186 422 346.186 427C346.186 432 344.186 436.5 339.686 436.5C337.186 436.5 335.686 434 334.186 432.5C333.686 432 333.186 432.5 333.686 433C335.186 434.5 337.686 438.5 337.686 442C337.686 446 335.186 451 331.186 451C327.186 451 324.686 446 324.686 442C324.686 438.5 327.186 434.5 328.686 433C329.186 432.5 328.686 432 328.186 432.5C326.686 434 325.186 436.5 322.686 436.5C318.186 436.5 316.186 432 316.186 427C316.186 422 318.186 418 322.686 418C325.186 418 327.686 421 328.686 423C329.186 423.5 329.186 423 329.186 422.5C328.686 418.5 328.686 417.5 328.186 414.5C327.686 411.5 326.186 406 326.186 406C328.686 407 333.686 407 336.186 406C336.186 406 334.686 411.5 334.186 414.5C333.686 417.5 333.686 418.5 333.186 422.5C333.186 423 333.186 423.5 333.686 423Z" fill="black"/>
</svg>
