<svg width="362" height="542" viewBox="0 0 362 542" fill="none" xmlns="http://www.w3.org/2000/svg">
<path d="M330.741 1.5H31.63C15.0921 1.5 1.68555 14.9066 1.68555 31.4445V510.556C1.68555 527.093 15.0921 540.5 31.63 540.5H330.741C347.279 540.5 360.686 527.093 360.686 510.556V31.4445C360.686 14.9066 347.279 1.5 330.741 1.5Z" stroke="black" stroke-width="2.5"/>
<path d="M31.1855 30.9999C25.6455 30.9999 21.1855 35.4599 21.1855 40.9999V45.9999H26.1855V40.9999C26.1855 38.2299 28.4155 35.9999 31.1855 35.9999C33.9555 35.9999 36.1855 38.2299 36.1855 40.9999V45.9999C36.1855 48.7699 33.9555 50.9999 31.1855 50.9999H26.1855V55.9999H31.1855C33.9555 55.9999 36.1855 58.2299 36.1855 60.9999V70.9999C36.1855 73.7699 33.9555 75.9999 31.1855 75.9999C28.4155 75.9999 26.1855 73.7699 26.1855 70.9999V65.9999H21.1855V70.9999C21.1855 76.5399 25.6455 80.9999 31.1855 80.9999C36.7255 80.9999 41.1855 76.5399 41.1855 70.9999V60.9999C41.1855 57.9963 39.8626 55.3299 37.7793 53.4999C39.8626 51.6699 41.1855 49.0035 41.1855 45.9999V40.9999C41.1855 35.4599 36.7255 30.9999 31.1855 30.9999Z" fill="#FF5555"/>
<path d="M331.186 511C336.726 511 341.186 506.54 341.186 501V496H336.186V501C336.186 503.77 333.956 506 331.186 506C328.416 506 326.186 503.77 326.186 501V496C326.186 493.23 328.416 491 331.186 491H336.186V486H331.186C328.416 486 326.186 483.77 326.186 481V471C326.186 468.23 328.416 466 331.186 466C333.956 466 336.186 468.23 336.186 471V476H341.186V471C341.186 465.46 336.726 461 331.186 461C325.646 461 321.186 465.46 321.186 471V481C321.186 484.004 322.508 486.67 324.592 488.5C322.508 490.33 321.186 492.996 321.186 496V501C321.186 506.54 325.646 511 331.186 511Z" fill="#FF5555"/>
<path d="M31.1855 91C31.1855 91 34.1855 98.5 37.6855 103.5C41.1855 108.5 46.1855 113.5 46.1855 113.5C46.1855 113.5 41.1855 118.5 37.6855 123.5C34.1855 128.5 31.1855 136 31.1855 136C31.1855 136 28.1855 128.5 24.6855 123.5C21.1855 118.5 16.1855 113.5 16.1855 113.5C16.1855 113.5 21.1855 108.5 24.6855 103.5C28.1855 98.5 31.1855 91 31.1855 91Z" fill="#FF5555"/>
<path d="M331.186 406C331.186 406 334.186 413.5 337.686 418.5C341.186 423.5 346.186 428.5 346.186 428.5C346.186 428.5 341.186 433.5 337.686 438.5C334.186 443.5 331.186 451 331.186 451C331.186 451 328.186 443.5 324.686 438.5C321.186 433.5 316.186 428.5 316.186 428.5C316.186 428.5 321.186 423.5 324.686 418.5C328.186 413.5 331.186 406 331.186 406Z" fill="#FF5555"/>
<path d="M181.186 46C181.186 46 187.186 61 194.186 71C201.186 81 211.186 91 211.186 91C211.186 91 201.186 101 194.186 111C187.186 121 181.186 136 181.186 136C181.186 136 175.186 121 168.186 111C161.186 101 151.186 91 151.186 91C151.186 91 161.186 81 168.186 71C175.186 61 181.186 46 181.186 46Z" fill="#FF5555"/>
<path d="M181.186 226C181.186 226 187.186 241 194.186 251C201.186 261 211.186 271 211.186 271C211.186 271 201.186 281 194.186 291C187.186 301 181.186 316 181.186 316C181.186 316 175.186 301 168.186 291C161.186 281 151.186 271 151.186 271C151.186 271 161.186 261 168.186 251C175.186 241 181.186 226 181.186 226Z" fill="#FF5555"/>
<path d="M181.186 406C181.186 406 187.186 421 194.186 431C201.186 441 211.186 451 211.186 451C211.186 451 201.186 461 194.186 471C187.186 481 181.186 496 181.186 496C181.186 496 175.186 481 168.186 471C161.186 461 151.186 451 151.186 451C151.186 451 161.186 441 168.186 431C175.186 421 181.186 406 181.186 406Z" fill="#FF5555"/>
</svg>
