<svg width="362" height="542" viewBox="0 0 362 542" fill="none" xmlns="http://www.w3.org/2000/svg">
<path d="M330.741 1.5H31.63C15.0921 1.5 1.68555 14.9066 1.68555 31.4445V510.556C1.68555 527.093 15.0921 540.5 31.63 540.5H330.741C347.279 540.5 360.686 527.093 360.686 510.556V31.4445C360.686 14.9066 347.279 1.5 330.741 1.5Z" stroke="black" stroke-width="2.5"/>
<path d="M31.1855 30.9999C25.6455 30.9999 21.1855 35.4599 21.1855 40.9999V45.9999H26.1855V40.9999C26.1855 38.2299 28.4155 35.9999 31.1855 35.9999C33.9555 35.9999 36.1855 38.2299 36.1855 40.9999V45.9999C36.1855 48.7699 33.9555 50.9999 31.1855 50.9999H26.1855V55.9999H31.1855C33.9555 55.9999 36.1855 58.2299 36.1855 60.9999V70.9999C36.1855 73.7699 33.9555 75.9999 31.1855 75.9999C28.4155 75.9999 26.1855 73.7699 26.1855 70.9999V65.9999H21.1855V70.9999C21.1855 76.5399 25.6455 80.9999 31.1855 80.9999C36.7255 80.9999 41.1855 76.5399 41.1855 70.9999V60.9999C41.1855 57.9963 39.8626 55.3299 37.7793 53.4999C39.8626 51.6699 41.1855 49.0035 41.1855 45.9999V40.9999C41.1855 35.4599 36.7255 30.9999 31.1855 30.9999Z" fill="#FF5555"/>
<path d="M331.186 511C336.726 511 341.186 506.54 341.186 501V496H336.186V501C336.186 503.77 333.956 506 331.186 506C328.416 506 326.186 503.77 326.186 501V496C326.186 493.23 328.416 491 331.186 491H336.186V486H331.186C328.416 486 326.186 483.77 326.186 481V471C326.186 468.23 328.416 466 331.186 466C333.956 466 336.186 468.23 336.186 471V476H341.186V471C341.186 465.46 336.726 461 331.186 461C325.646 461 321.186 465.46 321.186 471V481C321.186 484.004 322.508 486.67 324.592 488.5C322.508 490.33 321.186 492.996 321.186 496V501C321.186 506.54 325.646 511 331.186 511Z" fill="#FF5555"/>
<path d="M180.186 64C180.186 52.9543 174.47 46 166.186 46C157.901 46 151.186 54.9543 151.186 66C151.22 66.9556 151.204 67.8912 151.186 68.8125C151.186 76.111 153.862 83.1893 156.186 89.8125C158.575 96.6235 162.019 102.593 165.248 108.688C170.249 118.127 181.186 136 181.186 136C181.186 136 192.122 118.127 197.123 108.688C200.352 102.593 203.797 96.6235 206.186 89.8125C208.509 83.1893 211.186 76.111 211.186 68.8125C211.157 67.8381 211.167 66.8979 211.186 66C211.186 54.9543 204.47 46 196.186 46C187.901 46 182.186 52.9543 182.186 64C182.186 66 180.186 66 180.186 64Z" fill="#FF5555"/>
<path d="M180.186 244C180.186 232.954 174.47 226 166.186 226C157.901 226 151.186 234.954 151.186 246C151.22 246.956 151.204 247.891 151.186 248.812C151.186 256.111 153.862 263.189 156.186 269.812C158.575 276.623 162.019 282.593 165.248 288.688C170.249 298.127 181.186 316 181.186 316C181.186 316 192.122 298.127 197.123 288.688C200.352 282.593 203.797 276.623 206.186 269.812C208.509 263.189 211.186 256.111 211.186 248.812C211.157 247.838 211.167 246.898 211.186 246C211.186 234.954 204.47 226 196.186 226C187.901 226 182.186 232.954 182.186 244C182.186 246 180.186 246 180.186 244Z" fill="#FF5555"/>
<path d="M180.186 478C180.186 489.046 174.47 496 166.186 496C157.901 496 151.186 487.046 151.186 476C151.22 475.044 151.204 474.109 151.186 473.188C151.186 465.889 153.862 458.811 156.186 452.188C158.575 445.377 162.019 439.407 165.248 433.312C170.249 423.873 181.186 406 181.186 406C181.186 406 192.122 423.873 197.123 433.312C200.352 439.407 203.797 445.377 206.186 452.188C208.509 458.811 211.186 465.889 211.186 473.188C211.157 474.162 211.167 475.102 211.186 476C211.186 487.046 204.47 496 196.186 496C187.901 496 182.186 489.046 182.186 478C182.186 476 180.186 476 180.186 478Z" fill="#FF5555"/>
<path d="M30.6855 100C30.6855 94.4771 27.8277 91 23.6855 91C19.5434 91 16.1855 95.4771 16.1855 101C16.203 101.478 16.1946 101.946 16.1855 102.406C16.1855 106.055 17.524 109.595 18.6855 112.906C19.8801 116.312 21.6023 119.297 23.2168 122.344C25.7174 127.063 31.1855 136 31.1855 136C31.1855 136 36.6537 127.063 39.1543 122.344C40.7688 119.297 42.491 116.312 43.6855 112.906C44.8471 109.595 46.1855 106.055 46.1855 102.406C46.1713 101.919 46.1762 101.449 46.1855 101C46.1855 95.4771 42.8277 91 38.6855 91C34.5434 91 31.6855 94.4771 31.6855 100C31.6855 101 30.6855 101 30.6855 100Z" fill="#FF5555"/>
<path d="M330.686 442C330.686 447.523 327.828 451 323.686 451C319.543 451 316.186 446.523 316.186 441C316.203 440.522 316.195 440.054 316.186 439.594C316.186 435.945 317.524 432.405 318.686 429.094C319.88 425.688 321.602 422.703 323.217 419.656C325.717 414.937 331.186 406 331.186 406C331.186 406 336.654 414.937 339.154 419.656C340.769 422.703 342.491 425.688 343.686 429.094C344.847 432.405 346.186 435.945 346.186 439.594C346.171 440.081 346.177 440.551 346.186 441C346.186 446.523 342.828 451 338.686 451C334.543 451 331.686 447.523 331.686 442C331.686 441 330.686 441 330.686 442Z" fill="#FF5555"/>
</svg>
