<svg width="362" height="542" viewBox="0 0 362 542" fill="none" xmlns="http://www.w3.org/2000/svg">
<path d="M330.741 1.5H31.63C15.0921 1.5 1.68555 14.9066 1.68555 31.4445V510.556C1.68555 527.093 15.0921 540.5 31.63 540.5H330.741C347.279 540.5 360.686 527.093 360.686 510.556V31.4445C360.686 14.9066 347.279 1.5 330.741 1.5Z" stroke="black" stroke-width="2.5"/>
<path d="M31.1855 30.9999C25.6455 30.9999 21.1855 35.4599 21.1855 40.9999V45.9999H26.1855V40.9999C26.1855 38.2299 28.4155 35.9999 31.1855 35.9999C33.9555 35.9999 36.1855 38.2299 36.1855 40.9999V45.9999C36.1855 48.7699 33.9555 50.9999 31.1855 50.9999H26.1855V55.9999H31.1855C33.9555 55.9999 36.1855 58.2299 36.1855 60.9999V70.9999C36.1855 73.7699 33.9555 75.9999 31.1855 75.9999C28.4155 75.9999 26.1855 73.7699 26.1855 70.9999V65.9999H21.1855V70.9999C21.1855 76.5399 25.6455 80.9999 31.1855 80.9999C36.7255 80.9999 41.1855 76.5399 41.1855 70.9999V60.9999C41.1855 57.9963 39.8626 55.3299 37.7793 53.4999C39.8626 51.6699 41.1855 49.0035 41.1855 45.9999V40.9999C41.1855 35.4599 36.7255 30.9999 31.1855 30.9999Z" fill="black"/>
<path d="M331.186 511C336.726 511 341.186 506.54 341.186 501V496H336.186V501C336.186 503.77 333.956 506 331.186 506C328.416 506 326.186 503.77 326.186 501V496C326.186 493.23 328.416 491 331.186 491H336.186V486H331.186C328.416 486 326.186 483.77 326.186 481V471C326.186 468.23 328.416 466 331.186 466C333.956 466 336.186 468.23 336.186 471V476H341.186V471C341.186 465.46 336.726 461 331.186 461C325.646 461 321.186 465.46 321.186 471V481C321.186 484.004 322.508 486.67 324.592 488.5C322.508 490.33 321.186 492.996 321.186 496V501C321.186 506.54 325.646 511 331.186 511Z" fill="black"/>
<path d="M186.186 102C187.186 106 191.186 116 198.186 116C207.186 116 211.186 108 211.186 98C211.186 91 208.607 86.3877 206.186 81C203.608 75.2633 199.806 70.1426 196.186 65C191.54 58.4021 181.186 46 181.186 46C181.186 46 170.831 58.4021 166.186 65C162.565 70.1426 158.763 75.2633 156.186 81C153.764 86.3877 151.186 91 151.186 98C151.186 108 155.186 116 164.186 116C171.186 116 175.186 106 176.186 102C177.186 101 177.186 102 177.186 103C176.186 111 176.186 113 175.186 119C174.186 125 171.186 136 171.186 136C176.186 134 186.186 134 191.186 136C191.186 136 188.186 125 187.186 119C186.186 113 186.186 111 185.186 103C185.186 102 185.186 101 186.186 102Z" fill="black"/>
<path d="M186.186 282C187.186 286 191.186 296 198.186 296C207.186 296 211.186 288 211.186 278C211.186 271 208.607 266.388 206.186 261C203.608 255.263 199.806 250.143 196.186 245C191.54 238.402 181.186 226 181.186 226C181.186 226 170.831 238.402 166.186 245C162.565 250.143 158.763 255.263 156.186 261C153.764 266.388 151.186 271 151.186 278C151.186 288 155.186 296 164.186 296C171.186 296 175.186 286 176.186 282C177.186 281 177.186 282 177.186 283C176.186 291 176.186 293 175.186 299C174.186 305 171.186 316 171.186 316C176.186 314 186.186 314 191.186 316C191.186 316 188.186 305 187.186 299C186.186 293 186.186 291 185.186 283C185.186 282 185.186 281 186.186 282Z" fill="black"/>
<path d="M186.186 440C187.186 436 191.186 426 198.186 426C207.186 426 211.186 434 211.186 444C211.186 451 208.607 455.612 206.186 461C203.608 466.737 199.806 471.857 196.186 477C191.54 483.598 181.186 496 181.186 496C181.186 496 170.831 483.598 166.186 477C162.565 471.857 158.763 466.737 156.186 461C153.764 455.612 151.186 451 151.186 444C151.186 434 155.186 426 164.186 426C171.186 426 175.186 436 176.186 440C177.186 441 177.186 440 177.186 439C176.186 431 176.186 429 175.186 423C174.186 417 171.186 406 171.186 406C176.186 408 186.186 408 191.186 406C191.186 406 188.186 417 187.186 423C186.186 429 186.186 431 185.186 439C185.186 440 185.186 441 186.186 440Z" fill="black"/>
<path d="M33.6855 119C34.1855 121 36.1855 126 39.6855 126C44.1855 126 46.1855 122 46.1855 117C46.1855 113.5 44.8961 111.194 43.6855 108.5C42.3966 105.632 40.4959 103.071 38.6855 100.5C36.3629 97.201 31.1855 91 31.1855 91C31.1855 91 26.0082 97.201 23.6855 100.5C21.8752 103.071 19.9745 105.632 18.6855 108.5C17.475 111.194 16.1855 113.5 16.1855 117C16.1855 122 18.1855 126 22.6855 126C26.1855 126 28.1855 121 28.6855 119C29.1855 118.5 29.1855 119 29.1855 119.5C28.6855 123.5 28.6855 124.5 28.1855 127.5C27.6855 130.5 26.1855 136 26.1855 136C28.6855 135 33.6855 135 36.1855 136C36.1855 136 34.6855 130.5 34.1855 127.5C33.6855 124.5 33.6855 123.5 33.1855 119.5C33.1855 119 33.1855 118.5 33.6855 119Z" fill="black"/>
<path d="M333.686 423C334.186 421 336.186 416 339.686 416C344.186 416 346.186 420 346.186 425C346.186 428.5 344.896 430.806 343.686 433.5C342.397 436.368 340.496 438.929 338.686 441.5C336.363 444.799 331.186 451 331.186 451C331.186 451 326.008 444.799 323.686 441.5C321.875 438.929 319.974 436.368 318.686 433.5C317.475 430.806 316.186 428.5 316.186 425C316.186 420 318.186 416 322.686 416C326.186 416 328.186 421 328.686 423C329.186 423.5 329.186 423 329.186 422.5C328.686 418.5 328.686 417.5 328.186 414.5C327.686 411.5 326.186 406 326.186 406C328.686 407 333.686 407 336.186 406C336.186 406 334.686 411.5 334.186 414.5C333.686 417.5 333.686 418.5 333.186 422.5C333.186 423 333.186 423.5 333.686 423Z" fill="black"/>
</svg>
