<svg width="362" height="542" viewBox="0 0 362 542" fill="none" xmlns="http://www.w3.org/2000/svg">
<path d="M330.741 1.5H31.63C15.0921 1.5 1.68555 14.9066 1.68555 31.4445V510.556C1.68555 527.093 15.0921 540.5 31.63 540.5H330.741C347.279 540.5 360.686 527.093 360.686 510.556V31.4445C360.686 14.9066 347.279 1.5 330.741 1.5Z" stroke="black" stroke-width="2.5"/>
<path d="M31.1855 30.9999L21.1855 65.9999V70.9999H33.1855V80.9999H38.1855V70.9999H41.1855V65.9999H38.1855V50.9999H33.1855V65.9999H26.3855L36.3855 30.9999H31.1855Z" fill="black"/>
<path d="M331.186 511L341.186 476V471H329.186V461H324.186V471H321.186V476H324.186V491H329.186V476H335.986L325.986 511H331.186Z" fill="black"/>
<path d="M33.6855 119C34.6855 121 37.1855 124 39.6855 124C44.1855 124 46.1855 120 46.1855 115C46.1855 110 44.1855 105.5 39.6855 105.5C37.1855 105.5 35.6855 108 34.1855 109.5C33.6855 110 33.1855 109.5 33.6855 109C35.1855 107.5 37.6855 103.5 37.6855 100C37.6855 96 35.1855 91 31.1855 91C27.1855 91 24.6855 96 24.6855 100C24.6855 103.5 27.1855 107.5 28.6855 109C29.1855 109.5 28.6855 110 28.1855 109.5C26.6855 108 25.1855 105.5 22.6855 105.5C18.1855 105.5 16.1855 110 16.1855 115C16.1855 120 18.1855 124 22.6855 124C25.1855 124 27.6855 121 28.6855 119C29.1855 118.5 29.1855 119 29.1855 119.5C28.6855 123.5 28.6855 124.5 28.1855 127.5C27.6855 130.5 26.1855 136 26.1855 136C28.6855 135 33.6855 135 36.1855 136C36.1855 136 34.6855 130.5 34.1855 127.5C33.6855 124.5 33.6855 123.5 33.1855 119.5C33.1855 119 33.1855 118.5 33.6855 119Z" fill="black"/>
<path d="M333.686 423C334.686 421 337.186 418 339.686 418C344.186 418 346.186 422 346.186 427C346.186 432 344.186 436.5 339.686 436.5C337.186 436.5 335.686 434 334.186 432.5C333.686 432 333.186 432.5 333.686 433C335.186 434.5 337.686 438.5 337.686 442C337.686 446 335.186 451 331.186 451C327.186 451 324.686 446 324.686 442C324.686 438.5 327.186 434.5 328.686 433C329.186 432.5 328.686 432 328.186 432.5C326.686 434 325.186 436.5 322.686 436.5C318.186 436.5 316.186 432 316.186 427C316.186 422 318.186 418 322.686 418C325.186 418 327.686 421 328.686 423C329.186 423.5 329.186 423 329.186 422.5C328.686 418.5 328.686 417.5 328.186 414.5C327.686 411.5 326.186 406 326.186 406C328.686 407 333.686 407 336.186 406C336.186 406 334.686 411.5 334.186 414.5C333.686 417.5 333.686 418.5 333.186 422.5C333.186 423 333.186 423.5 333.686 423Z" fill="black"/>
<path d="M96.1855 102C98.1855 106 103.186 112 108.186 112C117.186 112 121.186 104 121.186 94C121.186 84 117.186 75 108.186 75C103.186 75 100.186 80 97.1855 83C96.1855 84 95.1855 83 96.1855 82C99.1855 79 104.186 71 104.186 64C104.186 56 99.1855 46 91.1855 46C83.1855 46 78.1855 56 78.1855 64C78.1855 71 83.1855 79 86.1855 82C87.1855 83 86.1855 84 85.1855 83C82.1855 80 79.1855 75 74.1855 75C65.1855 75 61.1855 84 61.1855 94C61.1855 104 65.1855 112 74.1855 112C79.1855 112 84.1855 106 86.1855 102C87.1855 101 87.1855 102 87.1855 103C86.1855 111 86.1855 113 85.1855 119C84.1855 125 81.1855 136 81.1855 136C86.1855 134 96.1855 134 101.186 136C101.186 136 98.1855 125 97.1855 119C96.1855 113 96.1855 111 95.1855 103C95.1855 102 95.1855 101 96.1855 102Z" fill="black"/>
<path d="M276.186 102C278.186 106 283.186 112 288.186 112C297.186 112 301.186 104 301.186 94C301.186 84 297.186 75 288.186 75C283.186 75 280.186 80 277.186 83C276.186 84 275.186 83 276.186 82C279.186 79 284.186 71 284.186 64C284.186 56 279.186 46 271.186 46C263.186 46 258.186 56 258.186 64C258.186 71 263.186 79 266.186 82C267.186 83 266.186 84 265.186 83C262.186 80 259.186 75 254.186 75C245.186 75 241.186 84 241.186 94C241.186 104 245.186 112 254.186 112C259.186 112 264.186 106 266.186 102C267.186 101 267.186 102 267.186 103C266.186 111 266.186 113 265.186 119C264.186 125 261.186 136 261.186 136C266.186 134 276.186 134 281.186 136C281.186 136 278.186 125 277.186 119C276.186 113 276.186 111 275.186 103C275.186 102 275.186 101 276.186 102Z" fill="black"/>
<path d="M96.1855 440C98.1855 436 103.186 430 108.186 430C117.186 430 121.186 438 121.186 448C121.186 458 117.186 467 108.186 467C103.186 467 100.186 462 97.1855 459C96.1855 458 95.1855 459 96.1855 460C99.1855 463 104.186 471 104.186 478C104.186 486 99.1855 496 91.1855 496C83.1855 496 78.1855 486 78.1855 478C78.1855 471 83.1855 463 86.1855 460C87.1855 459 86.1855 458 85.1855 459C82.1855 462 79.1855 467 74.1855 467C65.1855 467 61.1855 458 61.1855 448C61.1855 438 65.1855 430 74.1855 430C79.1855 430 84.1855 436 86.1855 440C87.1855 441 87.1855 440 87.1855 439C86.1855 431 86.1855 429 85.1855 423C84.1855 417 81.1855 406 81.1855 406C86.1855 408 96.1855 408 101.186 406C101.186 406 98.1855 417 97.1855 423C96.1855 429 96.1855 431 95.1855 439C95.1855 440 95.1855 441 96.1855 440Z" fill="black"/>
<path d="M276.186 440C278.186 436 283.186 430 288.186 430C297.186 430 301.186 438 301.186 448C301.186 458 297.186 467 288.186 467C283.186 467 280.186 462 277.186 459C276.186 458 275.186 459 276.186 460C279.186 463 284.186 471 284.186 478C284.186 486 279.186 496 271.186 496C263.186 496 258.186 486 258.186 478C258.186 471 263.186 463 266.186 460C267.186 459 266.186 458 265.186 459C262.186 462 259.186 467 254.186 467C245.186 467 241.186 458 241.186 448C241.186 438 245.186 430 254.186 430C259.186 430 264.186 436 266.186 440C267.186 441 267.186 440 267.186 439C266.186 431 266.186 429 265.186 423C264.186 417 261.186 406 261.186 406C266.186 408 276.186 408 281.186 406C281.186 406 278.186 417 277.186 423C276.186 429 276.186 431 275.186 439C275.186 440 275.186 441 276.186 440Z" fill="black"/>
</svg>
