<svg width="362" height="542" viewBox="0 0 362 542" fill="none" xmlns="http://www.w3.org/2000/svg">
<path d="M330.741 1.5H31.63C15.0921 1.5 1.68555 14.9066 1.68555 31.4445V510.556C1.68555 527.093 15.0921 540.5 31.63 540.5H330.741C347.279 540.5 360.686 527.093 360.686 510.556V31.4445C360.686 14.9066 347.279 1.5 330.741 1.5Z" stroke="black" stroke-width="2.5"/>
<path d="M31.1855 30.9999L21.1855 65.9999V70.9999H33.1855V80.9999H38.1855V70.9999H41.1855V65.9999H38.1855V50.9999H33.1855V65.9999H26.3855L36.3855 30.9999H31.1855Z" fill="#FF5555"/>
<path d="M331.186 511L341.186 476V471H329.186V461H324.186V471H321.186V476H324.186V491H329.186V476H335.986L325.986 511H331.186Z" fill="#FF5555"/>
<path d="M91.1855 46C91.1855 46 97.1855 61 104.186 71C111.186 81 121.186 91 121.186 91C121.186 91 111.186 101 104.186 111C97.1855 121 91.1855 136 91.1855 136C91.1855 136 85.1855 121 78.1855 111C71.1855 101 61.1855 91 61.1855 91C61.1855 91 71.1855 81 78.1855 71C85.1855 61 91.1855 46 91.1855 46Z" fill="#FF5555"/>
<path d="M271.186 46C271.186 46 277.186 61 284.186 71C291.186 81 301.186 91 301.186 91C301.186 91 291.186 101 284.186 111C277.186 121 271.186 136 271.186 136C271.186 136 265.186 121 258.186 111C251.186 101 241.186 91 241.186 91C241.186 91 251.186 81 258.186 71C265.186 61 271.186 46 271.186 46Z" fill="#FF5555"/>
<path d="M91.1855 406C91.1855 406 97.1855 421 104.186 431C111.186 441 121.186 451 121.186 451C121.186 451 111.186 461 104.186 471C97.1855 481 91.1855 496 91.1855 496C91.1855 496 85.1855 481 78.1855 471C71.1855 461 61.1855 451 61.1855 451C61.1855 451 71.1855 441 78.1855 431C85.1855 421 91.1855 406 91.1855 406Z" fill="#FF5555"/>
<path d="M271.186 406C271.186 406 277.186 421 284.186 431C291.186 441 301.186 451 301.186 451C301.186 451 291.186 461 284.186 471C277.186 481 271.186 496 271.186 496C271.186 496 265.186 481 258.186 471C251.186 461 241.186 451 241.186 451C241.186 451 251.186 441 258.186 431C265.186 421 271.186 406 271.186 406Z" fill="#FF5555"/>
<path d="M31.1855 91C31.1855 91 34.1855 98.5 37.6855 103.5C41.1855 108.5 46.1855 113.5 46.1855 113.5C46.1855 113.5 41.1855 118.5 37.6855 123.5C34.1855 128.5 31.1855 136 31.1855 136C31.1855 136 28.1855 128.5 24.6855 123.5C21.1855 118.5 16.1855 113.5 16.1855 113.5C16.1855 113.5 21.1855 108.5 24.6855 103.5C28.1855 98.5 31.1855 91 31.1855 91Z" fill="#FF5555"/>
<path d="M331.186 406C331.186 406 334.186 413.5 337.686 418.5C341.186 423.5 346.186 428.5 346.186 428.5C346.186 428.5 341.186 433.5 337.686 438.5C334.186 443.5 331.186 451 331.186 451C331.186 451 328.186 443.5 324.686 438.5C321.186 433.5 316.186 428.5 316.186 428.5C316.186 428.5 321.186 423.5 324.686 418.5C328.186 413.5 331.186 406 331.186 406Z" fill="#FF5555"/>
</svg>
