<svg width="362" height="542" viewBox="0 0 362 542" fill="none" xmlns="http://www.w3.org/2000/svg">
<path d="M330.741 1.5H31.63C15.0921 1.5 1.68555 14.9066 1.68555 31.4445V510.556C1.68555 527.093 15.0921 540.5 31.63 540.5H330.741C347.279 540.5 360.686 527.093 360.686 510.556V31.4445C360.686 14.9066 347.279 1.5 330.741 1.5Z" stroke="black" stroke-width="2.5"/>
<path d="M31.1855 30.9999L21.1855 65.9999V70.9999H33.1855V80.9999H38.1855V70.9999H41.1855V65.9999H38.1855V50.9999H33.1855V65.9999H26.3855L36.3855 30.9999H31.1855Z" fill="#FF5555"/>
<path d="M331.186 511L341.186 476V471H329.186V461H324.186V471H321.186V476H324.186V491H329.186V476H335.986L325.986 511H331.186Z" fill="#FF5555"/>
<path d="M30.6855 100C30.6855 94.4771 27.8277 91 23.6855 91C19.5434 91 16.1855 95.4771 16.1855 101C16.203 101.478 16.1946 101.946 16.1855 102.406C16.1855 106.055 17.524 109.595 18.6855 112.906C19.8801 116.312 21.6023 119.297 23.2168 122.344C25.7174 127.063 31.1855 136 31.1855 136C31.1855 136 36.6537 127.063 39.1543 122.344C40.7688 119.297 42.491 116.312 43.6855 112.906C44.8471 109.595 46.1855 106.055 46.1855 102.406C46.1713 101.919 46.1762 101.449 46.1855 101C46.1855 95.4771 42.8277 91 38.6855 91C34.5434 91 31.6855 94.4771 31.6855 100C31.6855 101 30.6855 101 30.6855 100Z" fill="#FF5555"/>
<path d="M330.686 442C330.686 447.523 327.828 451 323.686 451C319.543 451 316.186 446.523 316.186 441C316.203 440.522 316.195 440.054 316.186 439.594C316.186 435.945 317.524 432.405 318.686 429.094C319.88 425.688 321.602 422.703 323.217 419.656C325.717 414.937 331.186 406 331.186 406C331.186 406 336.654 414.937 339.154 419.656C340.769 422.703 342.491 425.688 343.686 429.094C344.847 432.405 346.186 435.945 346.186 439.594C346.171 440.081 346.177 440.551 346.186 441C346.186 446.523 342.828 451 338.686 451C334.543 451 331.686 447.523 331.686 442C331.686 441 330.686 441 330.686 442Z" fill="#FF5555"/>
<path d="M90.1855 64C90.1855 52.9543 84.4698 46 76.1855 46C67.9013 46 61.1855 54.9543 61.1855 66C61.2204 66.9556 61.2037 67.8912 61.1855 68.8125C61.1855 76.111 63.8624 83.1893 66.1855 89.8125C68.5746 96.6235 72.0191 102.593 75.248 108.688C80.2493 118.127 91.1855 136 91.1855 136C91.1855 136 102.122 118.127 107.123 108.688C110.352 102.593 113.797 96.6235 116.186 89.8125C118.509 83.1893 121.186 76.111 121.186 68.8125C121.157 67.8381 121.167 66.8979 121.186 66C121.186 54.9543 114.47 46 106.186 46C97.9013 46 92.1855 52.9543 92.1855 64C92.1855 66 90.1855 66 90.1855 64Z" fill="#FF5555"/>
<path d="M270.186 64C270.186 52.9543 264.47 46 256.186 46C247.901 46 241.186 54.9543 241.186 66C241.22 66.9556 241.204 67.8912 241.186 68.8125C241.186 76.111 243.862 83.1893 246.186 89.8125C248.575 96.6235 252.019 102.593 255.248 108.688C260.249 118.127 271.186 136 271.186 136C271.186 136 282.122 118.127 287.123 108.688C290.352 102.593 293.797 96.6235 296.186 89.8125C298.509 83.1893 301.186 76.111 301.186 68.8125C301.157 67.8381 301.167 66.8979 301.186 66C301.186 54.9543 294.47 46 286.186 46C277.901 46 272.186 52.9543 272.186 64C272.186 66 270.186 66 270.186 64Z" fill="#FF5555"/>
<path d="M90.1855 478C90.1855 489.046 84.4698 496 76.1855 496C67.9013 496 61.1855 487.046 61.1855 476C61.2204 475.044 61.2037 474.109 61.1855 473.188C61.1855 465.889 63.8624 458.811 66.1855 452.188C68.5746 445.377 72.0191 439.407 75.248 433.312C80.2493 423.873 91.1855 406 91.1855 406C91.1855 406 102.122 423.873 107.123 433.312C110.352 439.407 113.797 445.377 116.186 452.188C118.509 458.811 121.186 465.889 121.186 473.188C121.157 474.162 121.167 475.102 121.186 476C121.186 487.046 114.47 496 106.186 496C97.9013 496 92.1855 489.046 92.1855 478C92.1855 476 90.1855 476 90.1855 478Z" fill="#FF5555"/>
<path d="M270.186 478C270.186 489.046 264.47 496 256.186 496C247.901 496 241.186 487.046 241.186 476C241.22 475.044 241.204 474.109 241.186 473.188C241.186 465.889 243.862 458.811 246.186 452.188C248.575 445.377 252.019 439.407 255.248 433.312C260.249 423.873 271.186 406 271.186 406C271.186 406 282.122 423.873 287.123 433.312C290.352 439.407 293.797 445.377 296.186 452.188C298.509 458.811 301.186 465.889 301.186 473.188C301.157 474.162 301.167 475.102 301.186 476C301.186 487.046 294.47 496 286.186 496C277.901 496 272.186 489.046 272.186 478C272.186 476 270.186 476 270.186 478Z" fill="#FF5555"/>
</svg>
