<svg width="362" height="542" viewBox="0 0 362 542" fill="none" xmlns="http://www.w3.org/2000/svg">
<path d="M330.741 1.5H31.63C15.0921 1.5 1.68555 14.9066 1.68555 31.4445V510.556C1.68555 527.093 15.0921 540.5 31.63 540.5H330.741C347.279 540.5 360.686 527.093 360.686 510.556V31.4445C360.686 14.9066 347.279 1.5 330.741 1.5Z" stroke="black" stroke-width="2.5"/>
<path d="M31.1855 30.9999L21.1855 65.9999V70.9999H33.1855V80.9999H38.1855V70.9999H41.1855V65.9999H38.1855V50.9999H33.1855V65.9999H26.3855L36.3855 30.9999H31.1855Z" fill="black"/>
<path d="M331.186 511L341.186 476V471H329.186V461H324.186V471H321.186V476H324.186V491H329.186V476H335.986L325.986 511H331.186Z" fill="black"/>
<path d="M33.6855 119C34.1855 121 36.1855 126 39.6855 126C44.1855 126 46.1855 122 46.1855 117C46.1855 113.5 44.8961 111.194 43.6855 108.5C42.3966 105.632 40.4959 103.071 38.6855 100.5C36.3629 97.201 31.1855 91 31.1855 91C31.1855 91 26.0082 97.201 23.6855 100.5C21.8752 103.071 19.9745 105.632 18.6855 108.5C17.475 111.194 16.1855 113.5 16.1855 117C16.1855 122 18.1855 126 22.6855 126C26.1855 126 28.1855 121 28.6855 119C29.1855 118.5 29.1855 119 29.1855 119.5C28.6855 123.5 28.6855 124.5 28.1855 127.5C27.6855 130.5 26.1855 136 26.1855 136C28.6855 135 33.6855 135 36.1855 136C36.1855 136 34.6855 130.5 34.1855 127.5C33.6855 124.5 33.6855 123.5 33.1855 119.5C33.1855 119 33.1855 118.5 33.6855 119Z" fill="black"/>
<path d="M333.686 423C334.186 421 336.186 416 339.686 416C344.186 416 346.186 420 346.186 425C346.186 428.5 344.896 430.806 343.686 433.5C342.397 436.368 340.496 438.929 338.686 441.5C336.363 444.799 331.186 451 331.186 451C331.186 451 326.008 444.799 323.686 441.5C321.875 438.929 319.974 436.368 318.686 433.5C317.475 430.806 316.186 428.5 316.186 425C316.186 420 318.186 416 322.686 416C326.186 416 328.186 421 328.686 423C329.186 423.5 329.186 423 329.186 422.5C328.686 418.5 328.686 417.5 328.186 414.5C327.686 411.5 326.186 406 326.186 406C328.686 407 333.686 407 336.186 406C336.186 406 334.686 411.5 334.186 414.5C333.686 417.5 333.686 418.5 333.186 422.5C333.186 423 333.186 423.5 333.686 423Z" fill="black"/>
<path d="M96.1934 101.984C97.1855 105.988 101.189 116.016 108.17 116.016C117.17 116.016 121.174 108.008 121.174 98.0157C121.174 91 118.623 86.3937 116.178 81.0079C113.591 75.2677 109.8 70.1299 106.186 64.9921C101.544 58.4016 91.1974 46 91.1974 46C91.1974 46 80.8155 58.4016 76.1737 64.9921C72.5596 70.1299 68.7682 75.2677 66.1816 81.0079C63.7722 86.3937 61.1855 91 61.1855 98.0157C61.1855 108.008 65.1895 116.016 74.1895 116.016C81.1698 116.016 85.1737 105.988 86.2013 101.984C87.1934 100.992 87.1934 101.984 87.1934 103.012C86.2013 110.984 86.2013 113.004 85.1737 118.992C84.1816 125.016 81.1698 136 81.1698 136C86.2013 134.016 96.1934 134.016 101.189 136C101.189 136 98.1777 125.016 97.1855 118.992C96.1934 113.004 96.1934 110.984 95.2013 103.012C95.2013 101.984 95.2013 100.992 96.1934 101.984Z" fill="black"/>
<path d="M276.193 101.984C277.186 105.988 281.189 116.016 288.17 116.016C297.17 116.016 301.174 108.008 301.174 98.0157C301.174 91 298.623 86.3937 296.178 81.0079C293.591 75.2677 289.8 70.1299 286.186 64.9921C281.544 58.4016 271.197 46 271.197 46C271.197 46 260.815 58.4016 256.174 64.9921C252.56 70.1299 248.768 75.2677 246.182 81.0079C243.772 86.3937 241.186 91 241.186 98.0157C241.186 108.008 245.189 116.016 254.189 116.016C261.17 116.016 265.174 105.988 266.201 101.984C267.193 100.992 267.193 101.984 267.193 103.012C266.201 110.984 266.201 113.004 265.174 118.992C264.182 125.016 261.17 136 261.17 136C266.201 134.016 276.193 134.016 281.189 136C281.189 136 278.178 125.016 277.186 118.992C276.193 113.004 276.193 110.984 275.201 103.012C275.201 101.984 275.201 100.992 276.193 101.984Z" fill="black"/>
<path d="M96.1934 440.016C97.1855 436.012 101.189 425.984 108.17 425.984C117.17 425.984 121.174 433.992 121.174 443.984C121.174 451 118.623 455.606 116.178 460.992C113.591 466.732 109.8 471.87 106.186 477.008C101.544 483.598 91.1974 496 91.1974 496C91.1974 496 80.8155 483.598 76.1737 477.008C72.5596 471.87 68.7682 466.732 66.1816 460.992C63.7722 455.606 61.1855 451 61.1855 443.984C61.1855 433.992 65.1895 425.984 74.1895 425.984C81.1698 425.984 85.1737 436.012 86.2013 440.016C87.1934 441.008 87.1934 440.016 87.1934 438.988C86.2013 431.016 86.2013 428.996 85.1737 423.008C84.1816 416.984 81.1698 406 81.1698 406C86.2013 407.984 96.1934 407.984 101.189 406C101.189 406 98.1777 416.984 97.1855 423.008C96.1934 428.996 96.1934 431.016 95.2013 438.988C95.2013 440.016 95.2013 441.008 96.1934 440.016Z" fill="black"/>
<path d="M276.193 440.016C277.186 436.012 281.189 425.984 288.17 425.984C297.17 425.984 301.174 433.992 301.174 443.984C301.174 451 298.623 455.606 296.178 460.992C293.591 466.732 289.8 471.87 286.186 477.008C281.544 483.598 271.197 496 271.197 496C271.197 496 260.815 483.598 256.174 477.008C252.56 471.87 248.768 466.732 246.182 460.992C243.772 455.606 241.186 451 241.186 443.984C241.186 433.992 245.189 425.984 254.189 425.984C261.17 425.984 265.174 436.012 266.201 440.016C267.193 441.008 267.193 440.016 267.193 438.988C266.201 431.016 266.201 428.996 265.174 423.008C264.182 416.984 261.17 406 261.17 406C266.201 407.984 276.193 407.984 281.189 406C281.189 406 278.178 416.984 277.186 423.008C276.193 428.996 276.193 431.016 275.201 438.988C275.201 440.016 275.201 441.008 276.193 440.016Z" fill="black"/>
</svg>
