<svg width="363" height="542" viewBox="0 0 363 542" fill="none" xmlns="http://www.w3.org/2000/svg">
<path d="M331.105 1.5H31.994C15.4561 1.5 2.04956 14.9066 2.04956 31.4445V510.556C2.04956 527.093 15.4561 540.5 31.994 540.5H331.105C347.643 540.5 361.05 527.093 361.05 510.556V31.4445C361.05 14.9066 347.643 1.5 331.105 1.5Z" stroke="black" stroke-width="2.5"/>
<path d="M21.5496 30.9999V45.9999V50.9999H31.5496C34.3196 50.9999 36.5496 53.2299 36.5496 55.9999V70.9999C36.5496 73.7699 34.3196 75.9999 31.5496 75.9999C28.7796 75.9999 26.5496 73.7699 26.5496 70.9999V65.9999H21.5496V70.9999C21.5496 76.5399 26.0096 80.9999 31.5496 80.9999C37.0896 80.9999 41.5496 76.5399 41.5496 70.9999V55.9999C41.5496 50.4599 37.0896 45.9999 31.5496 45.9999H26.5496V35.9999H31.5496H41.5496V30.9999H31.5496H26.5496H21.5496Z" fill="#FF5555"/>
<path d="M341.55 511V496V491H331.55C328.78 491 326.55 488.77 326.55 486V471C326.55 468.23 328.78 466 331.55 466C334.32 466 336.55 468.23 336.55 471V476H341.55V471C341.55 465.46 337.09 461 331.55 461C326.01 461 321.55 465.46 321.55 471V486C321.55 491.54 326.01 496 331.55 496H336.55V506H331.55H321.55V511H331.55H336.55H341.55Z" fill="#FF5555"/>
<path d="M31.5496 91C31.5496 91 34.5496 98.5 38.0496 103.5C41.5496 108.5 46.5496 113.5 46.5496 113.5C46.5496 113.5 41.5496 118.5 38.0496 123.5C34.5496 128.5 31.5496 136 31.5496 136C31.5496 136 28.5496 128.5 25.0496 123.5C21.5496 118.5 16.5496 113.5 16.5496 113.5C16.5496 113.5 21.5496 108.5 25.0496 103.5C28.5496 98.5 31.5496 91 31.5496 91Z" fill="#FF5555"/>
<path d="M331.55 406C331.55 406 334.55 413.5 338.05 418.5C341.55 423.5 346.55 428.5 346.55 428.5C346.55 428.5 341.55 433.5 338.05 438.5C334.55 443.5 331.55 451 331.55 451C331.55 451 328.55 443.5 325.05 438.5C321.55 433.5 316.55 428.5 316.55 428.5C316.55 428.5 321.55 423.5 325.05 418.5C328.55 413.5 331.55 406 331.55 406Z" fill="#FF5555"/>
<path d="M91.5496 46C91.5496 46 97.5496 61 104.55 71C111.55 81 121.55 91 121.55 91C121.55 91 111.55 101 104.55 111C97.5496 121 91.5496 136 91.5496 136C91.5496 136 85.5496 121 78.5496 111C71.5496 101 61.5496 91 61.5496 91C61.5496 91 71.5496 81 78.5496 71C85.5496 61 91.5496 46 91.5496 46Z" fill="#FF5555"/>
<path d="M271.55 46C271.55 46 277.55 61 284.55 71C291.55 81 301.55 91 301.55 91C301.55 91 291.55 101 284.55 111C277.55 121 271.55 136 271.55 136C271.55 136 265.55 121 258.55 111C251.55 101 241.55 91 241.55 91C241.55 91 251.55 81 258.55 71C265.55 61 271.55 46 271.55 46Z" fill="#FF5555"/>
<path d="M181.55 226C181.55 226 187.55 241 194.55 251C201.55 261 211.55 271 211.55 271C211.55 271 201.55 281 194.55 291C187.55 301 181.55 316 181.55 316C181.55 316 175.55 301 168.55 291C161.55 281 151.55 271 151.55 271C151.55 271 161.55 261 168.55 251C175.55 241 181.55 226 181.55 226Z" fill="#FF5555"/>
<path d="M91.5496 406C91.5496 406 97.5496 421 104.55 431C111.55 441 121.55 451 121.55 451C121.55 451 111.55 461 104.55 471C97.5496 481 91.5496 496 91.5496 496C91.5496 496 85.5496 481 78.5496 471C71.5496 461 61.5496 451 61.5496 451C61.5496 451 71.5496 441 78.5496 431C85.5496 421 91.5496 406 91.5496 406Z" fill="#FF5555"/>
<path d="M271.55 406C271.55 406 277.55 421 284.55 431C291.55 441 301.55 451 301.55 451C301.55 451 291.55 461 284.55 471C277.55 481 271.55 496 271.55 496C271.55 496 265.55 481 258.55 471C251.55 461 241.55 451 241.55 451C241.55 451 251.55 441 258.55 431C265.55 421 271.55 406 271.55 406Z" fill="#FF5555"/>
</svg>
