<svg width="362" height="542" viewBox="0 0 362 542" fill="none" xmlns="http://www.w3.org/2000/svg">
<path d="M330.741 1.5H31.63C15.0921 1.5 1.68555 14.9066 1.68555 31.4445V510.556C1.68555 527.093 15.0921 540.5 31.63 540.5H330.741C347.279 540.5 360.686 527.093 360.686 510.556V31.4445C360.686 14.9066 347.279 1.5 330.741 1.5Z" stroke="black" stroke-width="2.5"/>
<path d="M31.1855 30.9999C25.6455 30.9999 21.1855 35.4599 21.1855 40.9999V45.9999C21.1855 49.0035 22.5085 51.6699 24.5918 53.4999C22.5085 55.3299 21.1855 57.9963 21.1855 60.9999V70.9999C21.1855 76.5399 25.6455 80.9999 31.1855 80.9999C36.7255 80.9999 41.1855 76.5399 41.1855 70.9999V60.9999C41.1855 57.9963 39.8625 55.3299 37.7793 53.4999C39.8625 51.6699 41.1855 49.0035 41.1855 45.9999V40.9999C41.1855 35.4599 36.7255 30.9999 31.1855 30.9999ZM31.1855 35.9999C33.9555 35.9999 36.1855 38.2299 36.1855 40.9999V45.9999C36.1855 48.7699 33.9555 50.9999 31.1855 50.9999C28.4155 50.9999 26.1855 48.7699 26.1855 45.9999V40.9999C26.1855 38.2299 28.4155 35.9999 31.1855 35.9999ZM31.1855 55.9999C33.9555 55.9999 36.1855 58.2299 36.1855 60.9999V70.9999C36.1855 73.7699 33.9555 75.9999 31.1855 75.9999C28.4155 75.9999 26.1855 73.7699 26.1855 70.9999V60.9999C26.1855 58.2299 28.4155 55.9999 31.1855 55.9999Z" fill="#FF5555"/>
<path d="M331.186 511C325.646 511 321.186 506.54 321.186 501V496C321.186 492.996 322.509 490.33 324.592 488.5C322.509 486.67 321.186 484.003 321.186 481V471C321.186 465.46 325.646 461 331.186 461C336.726 461 341.186 465.46 341.186 471V481C341.186 484.003 339.863 486.67 337.779 488.5C339.863 490.33 341.186 492.996 341.186 496V501C341.186 506.54 336.726 511 331.186 511ZM331.186 506C333.956 506 336.186 503.77 336.186 501V496C336.186 493.23 333.956 491 331.186 491C328.416 491 326.186 493.23 326.186 496V501C326.186 503.77 328.416 506 331.186 506ZM331.186 486C333.956 486 336.186 483.77 336.186 481V471C336.186 468.23 333.956 466 331.186 466C328.416 466 326.186 468.23 326.186 471V481C326.186 483.77 328.416 486 331.186 486Z" fill="#FF5555"/>
<path d="M330.686 442C330.686 447.523 327.828 451 323.686 451C319.543 451 316.186 446.523 316.186 441C316.203 440.522 316.195 440.054 316.186 439.594C316.186 435.945 317.524 432.405 318.686 429.094C319.88 425.688 321.602 422.703 323.217 419.656C325.717 414.937 331.186 406 331.186 406C331.186 406 336.654 414.937 339.154 419.656C340.769 422.703 342.491 425.688 343.686 429.094C344.847 432.405 346.186 435.945 346.186 439.594C346.171 440.081 346.177 440.551 346.186 441C346.186 446.523 342.828 451 338.686 451C334.543 451 331.686 447.523 331.686 442C331.686 441 330.686 441 330.686 442Z" fill="#FF5555"/>
<path d="M90.1855 64C90.1855 52.9543 84.4698 46 76.1855 46C67.9013 46 61.1855 54.9543 61.1855 66C61.2204 66.9556 61.2037 67.8912 61.1855 68.8125C61.1855 76.111 63.8624 83.1893 66.1855 89.8125C68.5746 96.6235 72.0191 102.593 75.248 108.688C80.2493 118.127 91.1855 136 91.1855 136C91.1855 136 102.122 118.127 107.123 108.688C110.352 102.593 113.797 96.6235 116.186 89.8125C118.509 83.1893 121.186 76.111 121.186 68.8125C121.157 67.8381 121.167 66.8979 121.186 66C121.186 54.9543 114.47 46 106.186 46C97.9013 46 92.1855 52.9543 92.1855 64C92.1855 66 90.1855 66 90.1855 64Z" fill="#FF5555"/>
<path d="M270.186 64C270.186 52.9543 264.47 46 256.186 46C247.901 46 241.186 54.9543 241.186 66C241.22 66.9556 241.204 67.8912 241.186 68.8125C241.186 76.111 243.862 83.1893 246.186 89.8125C248.575 96.6235 252.019 102.593 255.248 108.688C260.249 118.127 271.186 136 271.186 136C271.186 136 282.122 118.127 287.123 108.688C290.352 102.593 293.797 96.6235 296.186 89.8125C298.509 83.1893 301.186 76.111 301.186 68.8125C301.157 67.8381 301.167 66.8979 301.186 66C301.186 54.9543 294.47 46 286.186 46C277.901 46 272.186 52.9543 272.186 64C272.186 66 270.186 66 270.186 64Z" fill="#FF5555"/>
<path d="M180.186 154C180.186 142.954 174.47 136 166.186 136C157.901 136 151.186 144.954 151.186 156C151.22 156.956 151.204 157.891 151.186 158.812C151.186 166.111 153.862 173.189 156.186 179.812C158.575 186.623 162.019 192.593 165.248 198.688C170.249 208.127 181.186 226 181.186 226C181.186 226 192.122 208.127 197.123 198.688C200.352 192.593 203.797 186.623 206.186 179.812C208.509 173.189 211.186 166.111 211.186 158.812C211.157 157.838 211.167 156.898 211.186 156C211.186 144.954 204.47 136 196.186 136C187.901 136 182.186 142.954 182.186 154C182.186 156 180.186 156 180.186 154Z" fill="#FF5555"/>
<path d="M90.1855 244C90.1855 232.954 84.4698 226 76.1855 226C67.9013 226 61.1855 234.954 61.1855 246C61.2204 246.956 61.2037 247.891 61.1855 248.812C61.1855 256.111 63.8624 263.189 66.1855 269.812C68.5746 276.623 72.0191 282.593 75.248 288.688C80.2493 298.127 91.1855 316 91.1855 316C91.1855 316 102.122 298.127 107.123 288.688C110.352 282.593 113.797 276.623 116.186 269.812C118.509 263.189 121.186 256.111 121.186 248.812C121.157 247.838 121.167 246.898 121.186 246C121.186 234.954 114.47 226 106.186 226C97.9013 226 92.1855 232.954 92.1855 244C92.1855 246 90.1855 246 90.1855 244Z" fill="#FF5555"/>
<path d="M270.186 244C270.186 232.954 264.47 226 256.186 226C247.901 226 241.186 234.954 241.186 246C241.22 246.956 241.204 247.891 241.186 248.812C241.186 256.111 243.862 263.189 246.186 269.812C248.575 276.623 252.019 282.593 255.248 288.688C260.249 298.127 271.186 316 271.186 316C271.186 316 282.122 298.127 287.123 288.688C290.352 282.593 293.797 276.623 296.186 269.812C298.509 263.189 301.186 256.111 301.186 248.812C301.157 247.838 301.167 246.898 301.186 246C301.186 234.954 294.47 226 286.186 226C277.901 226 272.186 232.954 272.186 244C272.186 246 270.186 246 270.186 244Z" fill="#FF5555"/>
<path d="M180.186 388C180.186 399.046 174.47 406 166.186 406C157.901 406 151.186 397.046 151.186 386C151.22 385.044 151.204 384.109 151.186 383.188C151.186 375.889 153.862 368.811 156.186 362.188C158.575 355.377 162.019 349.407 165.248 343.312C170.249 333.873 181.186 316 181.186 316C181.186 316 192.122 333.873 197.123 343.312C200.352 349.407 203.797 355.377 206.186 362.188C208.509 368.811 211.186 375.889 211.186 383.188C211.157 384.162 211.167 385.102 211.186 386C211.186 397.046 204.47 406 196.186 406C187.901 406 182.186 399.046 182.186 388C182.186 386 180.186 386 180.186 388Z" fill="#FF5555"/>
<path d="M90.1855 478C90.1855 489.046 84.4698 496 76.1855 496C67.9013 496 61.1855 487.046 61.1855 476C61.2204 475.044 61.2037 474.109 61.1855 473.188C61.1855 465.889 63.8624 458.811 66.1855 452.188C68.5746 445.377 72.0191 439.407 75.248 433.312C80.2493 423.873 91.1855 406 91.1855 406C91.1855 406 102.122 423.873 107.123 433.312C110.352 439.407 113.797 445.377 116.186 452.188C118.509 458.811 121.186 465.889 121.186 473.188C121.157 474.162 121.167 475.102 121.186 476C121.186 487.046 114.47 496 106.186 496C97.9013 496 92.1855 489.046 92.1855 478C92.1855 476 90.1855 476 90.1855 478Z" fill="#FF5555"/>
<path d="M270.186 478C270.186 489.046 264.47 496 256.186 496C247.901 496 241.186 487.046 241.186 476C241.22 475.044 241.204 474.109 241.186 473.188C241.186 465.889 243.862 458.811 246.186 452.188C248.575 445.377 252.019 439.407 255.248 433.312C260.249 423.873 271.186 406 271.186 406C271.186 406 282.122 423.873 287.123 433.312C290.352 439.407 293.797 445.377 296.186 452.188C298.509 458.811 301.186 465.889 301.186 473.188C301.157 474.162 301.167 475.102 301.186 476C301.186 487.046 294.47 496 286.186 496C277.901 496 272.186 489.046 272.186 478C272.186 476 270.186 476 270.186 478Z" fill="#FF5555"/>
<path d="M30.6855 100C30.6855 94.4771 27.8277 91 23.6855 91C19.5434 91 16.1855 95.4771 16.1855 101C16.203 101.478 16.1946 101.946 16.1855 102.406C16.1855 106.055 17.524 109.595 18.6855 112.906C19.8801 116.312 21.6023 119.297 23.2168 122.344C25.7174 127.063 31.1855 136 31.1855 136C31.1855 136 36.6537 127.063 39.1543 122.344C40.7688 119.297 42.491 116.312 43.6855 112.906C44.8471 109.595 46.1855 106.055 46.1855 102.406C46.1713 101.919 46.1762 101.449 46.1855 101C46.1855 95.4771 42.8277 91 38.6855 91C34.5434 91 31.6855 94.4771 31.6855 100C31.6855 101 30.6855 101 30.6855 100Z" fill="#FF5555"/>
</svg>
