<svg width="362" height="542" viewBox="0 0 362 542" fill="none" xmlns="http://www.w3.org/2000/svg">
<path d="M330.741 1.5H31.63C15.0921 1.5 1.68555 14.9066 1.68555 31.4445V510.556C1.68555 527.093 15.0921 540.5 31.63 540.5H330.741C347.279 540.5 360.686 527.093 360.686 510.556V31.4445C360.686 14.9066 347.279 1.5 330.741 1.5Z" stroke="black" stroke-width="2.5"/>
<path d="M31.1855 30.9999C25.6455 30.9999 21.1855 35.4599 21.1855 40.9999V45.9999C21.1855 49.0035 22.5085 51.6699 24.5918 53.4999C22.5085 55.3299 21.1855 57.9963 21.1855 60.9999V70.9999C21.1855 76.5399 25.6455 80.9999 31.1855 80.9999C36.7255 80.9999 41.1855 76.5399 41.1855 70.9999V60.9999C41.1855 57.9963 39.8625 55.3299 37.7793 53.4999C39.8625 51.6699 41.1855 49.0035 41.1855 45.9999V40.9999C41.1855 35.4599 36.7255 30.9999 31.1855 30.9999ZM31.1855 35.9999C33.9555 35.9999 36.1855 38.2299 36.1855 40.9999V45.9999C36.1855 48.7699 33.9555 50.9999 31.1855 50.9999C28.4155 50.9999 26.1855 48.7699 26.1855 45.9999V40.9999C26.1855 38.2299 28.4155 35.9999 31.1855 35.9999ZM31.1855 55.9999C33.9555 55.9999 36.1855 58.2299 36.1855 60.9999V70.9999C36.1855 73.7699 33.9555 75.9999 31.1855 75.9999C28.4155 75.9999 26.1855 73.7699 26.1855 70.9999V60.9999C26.1855 58.2299 28.4155 55.9999 31.1855 55.9999Z" fill="black"/>
<path d="M331.186 511C325.646 511 321.186 506.54 321.186 501V496C321.186 492.996 322.509 490.33 324.592 488.5C322.509 486.67 321.186 484.003 321.186 481V471C321.186 465.46 325.646 461 331.186 461C336.726 461 341.186 465.46 341.186 471V481C341.186 484.003 339.863 486.67 337.779 488.5C339.863 490.33 341.186 492.996 341.186 496V501C341.186 506.54 336.726 511 331.186 511ZM331.186 506C333.956 506 336.186 503.77 336.186 501V496C336.186 493.23 333.956 491 331.186 491C328.416 491 326.186 493.23 326.186 496V501C326.186 503.77 328.416 506 331.186 506ZM331.186 486C333.956 486 336.186 483.77 336.186 481V471C336.186 468.23 333.956 466 331.186 466C328.416 466 326.186 468.23 326.186 471V481C326.186 483.77 328.416 486 331.186 486Z" fill="black"/>
<path d="M33.6855 119C34.1855 121 36.1855 126 39.6855 126C44.1855 126 46.1855 122 46.1855 117C46.1855 113.5 44.8961 111.194 43.6855 108.5C42.3966 105.632 40.4959 103.071 38.6855 100.5C36.3629 97.201 31.1855 91 31.1855 91C31.1855 91 26.0082 97.201 23.6855 100.5C21.8752 103.071 19.9745 105.632 18.6855 108.5C17.475 111.194 16.1855 113.5 16.1855 117C16.1855 122 18.1855 126 22.6855 126C26.1855 126 28.1855 121 28.6855 119C29.1855 118.5 29.1855 119 29.1855 119.5C28.6855 123.5 28.6855 124.5 28.1855 127.5C27.6855 130.5 26.1855 136 26.1855 136C28.6855 135 33.6855 135 36.1855 136C36.1855 136 34.6855 130.5 34.1855 127.5C33.6855 124.5 33.6855 123.5 33.1855 119.5C33.1855 119 33.1855 118.5 33.6855 119Z" fill="black"/>
<path d="M333.686 423C334.186 421 336.186 416 339.686 416C344.186 416 346.186 420 346.186 425C346.186 428.5 344.896 430.806 343.686 433.5C342.397 436.368 340.496 438.929 338.686 441.5C336.363 444.799 331.186 451 331.186 451C331.186 451 326.008 444.799 323.686 441.5C321.875 438.929 319.974 436.368 318.686 433.5C317.475 430.806 316.186 428.5 316.186 425C316.186 420 318.186 416 322.686 416C326.186 416 328.186 421 328.686 423C329.186 423.5 329.186 423 329.186 422.5C328.686 418.5 328.686 417.5 328.186 414.5C327.686 411.5 326.186 406 326.186 406C328.686 407 333.686 407 336.186 406C336.186 406 334.686 411.5 334.186 414.5C333.686 417.5 333.686 418.5 333.186 422.5C333.186 423 333.186 423.5 333.686 423Z" fill="black"/>
<path d="M96.1855 102C97.1855 106 101.186 116 108.186 116C117.186 116 121.186 108 121.186 98C121.186 91 118.607 86.3877 116.186 81C113.608 75.2633 109.806 70.1426 106.186 65C101.54 58.4021 91.1855 46 91.1855 46C91.1855 46 80.8308 58.4021 76.1855 65C72.5649 70.1426 68.7634 75.2633 66.1855 81C63.7645 86.3877 61.1855 91 61.1855 98C61.1855 108 65.1855 116 74.1855 116C81.1855 116 85.1855 106 86.1855 102C87.1855 101 87.1855 102 87.1855 103C86.1855 111 86.1855 113 85.1855 119C84.1855 125 81.1855 136 81.1855 136C86.1855 134 96.1855 134 101.186 136C101.186 136 98.1855 125 97.1855 119C96.1855 113 96.1855 111 95.1855 103C95.1855 102 95.1855 101 96.1855 102Z" fill="black"/>
<path d="M276.186 102C277.186 106 281.186 116 288.186 116C297.186 116 301.186 108 301.186 98C301.186 91 298.607 86.3877 296.186 81C293.608 75.2633 289.806 70.1426 286.186 65C281.54 58.4021 271.186 46 271.186 46C271.186 46 260.831 58.4021 256.186 65C252.565 70.1426 248.763 75.2633 246.186 81C243.764 86.3877 241.186 91 241.186 98C241.186 108 245.186 116 254.186 116C261.186 116 265.186 106 266.186 102C267.186 101 267.186 102 267.186 103C266.186 111 266.186 113 265.186 119C264.186 125 261.186 136 261.186 136C266.186 134 276.186 134 281.186 136C281.186 136 278.186 125 277.186 119C276.186 113 276.186 111 275.186 103C275.186 102 275.186 101 276.186 102Z" fill="black"/>
<path d="M186.186 192C187.186 196 191.186 206 198.186 206C207.186 206 211.186 198 211.186 188C211.186 181 208.607 176.388 206.186 171C203.608 165.263 199.806 160.143 196.186 155C191.54 148.402 181.186 136 181.186 136C181.186 136 170.831 148.402 166.186 155C162.565 160.143 158.763 165.263 156.186 171C153.764 176.388 151.186 181 151.186 188C151.186 198 155.186 206 164.186 206C171.186 206 175.186 196 176.186 192C177.186 191 177.186 192 177.186 193C176.186 201 176.186 203 175.186 209C174.186 215 171.186 226 171.186 226C176.186 224 186.186 224 191.186 226C191.186 226 188.186 215 187.186 209C186.186 203 186.186 201 185.186 193C185.186 192 185.186 191 186.186 192Z" fill="black"/>
<path d="M96.1855 282C97.1855 286 101.186 296 108.186 296C117.186 296 121.186 288 121.186 278C121.186 271 118.607 266.388 116.186 261C113.608 255.263 109.806 250.143 106.186 245C101.54 238.402 91.1855 226 91.1855 226C91.1855 226 80.8308 238.402 76.1855 245C72.5649 250.143 68.7634 255.263 66.1855 261C63.7645 266.388 61.1855 271 61.1855 278C61.1855 288 65.1855 296 74.1855 296C81.1855 296 85.1855 286 86.1855 282C87.1855 281 87.1855 282 87.1855 283C86.1855 291 86.1855 293 85.1855 299C84.1855 305 81.1855 316 81.1855 316C86.1855 314 96.1855 314 101.186 316C101.186 316 98.1855 305 97.1855 299C96.1855 293 96.1855 291 95.1855 283C95.1855 282 95.1855 281 96.1855 282Z" fill="black"/>
<path d="M276.186 282C277.186 286 281.186 296 288.186 296C297.186 296 301.186 288 301.186 278C301.186 271 298.607 266.388 296.186 261C293.608 255.263 289.806 250.143 286.186 245C281.54 238.402 271.186 226 271.186 226C271.186 226 260.831 238.402 256.186 245C252.565 250.143 248.763 255.263 246.186 261C243.764 266.388 241.186 271 241.186 278C241.186 288 245.186 296 254.186 296C261.186 296 265.186 286 266.186 282C267.186 281 267.186 282 267.186 283C266.186 291 266.186 293 265.186 299C264.186 305 261.186 316 261.186 316C266.186 314 276.186 314 281.186 316C281.186 316 278.186 305 277.186 299C276.186 293 276.186 291 275.186 283C275.186 282 275.186 281 276.186 282Z" fill="black"/>
<path d="M186.186 350C187.186 346 191.186 336 198.186 336C207.186 336 211.186 344 211.186 354C211.186 361 208.607 365.612 206.186 371C203.608 376.737 199.806 381.857 196.186 387C191.54 393.598 181.186 406 181.186 406C181.186 406 170.831 393.598 166.186 387C162.565 381.857 158.763 376.737 156.186 371C153.764 365.612 151.186 361 151.186 354C151.186 344 155.186 336 164.186 336C171.186 336 175.186 346 176.186 350C177.186 351 177.186 350 177.186 349C176.186 341 176.186 339 175.186 333C174.186 327 171.186 316 171.186 316C176.186 318 186.186 318 191.186 316C191.186 316 188.186 327 187.186 333C186.186 339 186.186 341 185.186 349C185.186 350 185.186 351 186.186 350Z" fill="black"/>
<path d="M96.1855 440C97.1855 436 101.186 426 108.186 426C117.186 426 121.186 434 121.186 444C121.186 451 118.607 455.612 116.186 461C113.608 466.737 109.806 471.857 106.186 477C101.54 483.598 91.1855 496 91.1855 496C91.1855 496 80.8308 483.598 76.1855 477C72.5649 471.857 68.7634 466.737 66.1855 461C63.7645 455.612 61.1855 451 61.1855 444C61.1855 434 65.1855 426 74.1855 426C81.1855 426 85.1855 436 86.1855 440C87.1855 441 87.1855 440 87.1855 439C86.1855 431 86.1855 429 85.1855 423C84.1855 417 81.1855 406 81.1855 406C86.1855 408 96.1855 408 101.186 406C101.186 406 98.1855 417 97.1855 423C96.1855 429 96.1855 431 95.1855 439C95.1855 440 95.1855 441 96.1855 440Z" fill="black"/>
<path d="M276.186 440C277.186 436 281.186 426 288.186 426C297.186 426 301.186 434 301.186 444C301.186 451 298.607 455.612 296.186 461C293.608 466.737 289.806 471.857 286.186 477C281.54 483.598 271.186 496 271.186 496C271.186 496 260.831 483.598 256.186 477C252.565 471.857 248.763 466.737 246.186 461C243.764 455.612 241.186 451 241.186 444C241.186 434 245.186 426 254.186 426C261.186 426 265.186 436 266.186 440C267.186 441 267.186 440 267.186 439C266.186 431 266.186 429 265.186 423C264.186 417 261.186 406 261.186 406C266.186 408 276.186 408 281.186 406C281.186 406 278.186 417 277.186 423C276.186 429 276.186 431 275.186 439C275.186 440 275.186 441 276.186 440Z" fill="black"/>
</svg>
