<svg width="362" height="542" viewBox="0 0 362 542" fill="none" xmlns="http://www.w3.org/2000/svg">
<path d="M330.741 1.5H31.63C15.0921 1.5 1.68555 14.9066 1.68555 31.4445V510.556C1.68555 527.093 15.0921 540.5 31.63 540.5H330.741C347.279 540.5 360.686 527.093 360.686 510.556V31.4445C360.686 14.9066 347.279 1.5 330.741 1.5Z" stroke="black" stroke-width="2.5"/>
<path d="M31.1855 80.9999C36.7255 80.9999 41.1855 76.5399 41.1855 70.9999V50.9999V40.9999C41.1855 35.4599 36.7255 30.9999 31.1855 30.9999C25.6455 30.9999 21.1855 35.4599 21.1855 40.9999V50.9999C21.1855 56.5399 25.6455 60.9999 31.1855 60.9999C33.0081 60.9999 34.717 60.5013 36.1855 59.6561V70.9999C36.1855 73.7699 33.9555 75.9999 31.1855 75.9999C28.4155 75.9999 26.1855 73.7699 26.1855 70.9999V69.9999H21.1855V70.9999C21.1855 76.5399 25.6455 80.9999 31.1855 80.9999ZM31.1855 55.9999C28.4155 55.9999 26.1855 53.7699 26.1855 50.9999V40.9999C26.1855 38.2299 28.4155 35.9999 31.1855 35.9999C33.9555 35.9999 36.1855 38.2299 36.1855 40.9999V50.9999C36.1855 53.7699 33.9555 55.9999 31.1855 55.9999Z" fill="#FF5555"/>
<path d="M331.186 461C325.646 461 321.186 465.46 321.186 471V491V501C321.186 506.54 325.646 511 331.186 511C336.726 511 341.186 506.54 341.186 501V491C341.186 485.46 336.726 481 331.186 481C329.363 481 327.654 481.498 326.186 482.344V471C326.186 468.23 328.416 466 331.186 466C333.956 466 336.186 468.23 336.186 471V472H341.186V471C341.186 465.46 336.726 461 331.186 461ZM331.186 486C333.956 486 336.186 488.23 336.186 491V501C336.186 503.77 333.956 506 331.186 506C328.416 506 326.186 503.77 326.186 501V491C326.186 488.23 328.416 486 331.186 486Z" fill="#FF5555"/>
<path d="M31.1855 91C31.1855 91 34.1855 98.5 37.6855 103.5C41.1855 108.5 46.1855 113.5 46.1855 113.5C46.1855 113.5 41.1855 118.5 37.6855 123.5C34.1855 128.5 31.1855 136 31.1855 136C31.1855 136 28.1855 128.5 24.6855 123.5C21.1855 118.5 16.1855 113.5 16.1855 113.5C16.1855 113.5 21.1855 108.5 24.6855 103.5C28.1855 98.5 31.1855 91 31.1855 91Z" fill="#FF5555"/>
<path d="M331.186 406C331.186 406 334.186 413.5 337.686 418.5C341.186 423.5 346.186 428.5 346.186 428.5C346.186 428.5 341.186 433.5 337.686 438.5C334.186 443.5 331.186 451 331.186 451C331.186 451 328.186 443.5 324.686 438.5C321.186 433.5 316.186 428.5 316.186 428.5C316.186 428.5 321.186 423.5 324.686 418.5C328.186 413.5 331.186 406 331.186 406Z" fill="#FF5555"/>
<path d="M91.1855 46C91.1855 46 97.1855 61 104.186 71C111.186 81 121.186 91 121.186 91C121.186 91 111.186 101 104.186 111C97.1855 121 91.1855 136 91.1855 136C91.1855 136 85.1855 121 78.1855 111C71.1855 101 61.1855 91 61.1855 91C61.1855 91 71.1855 81 78.1855 71C85.1855 61 91.1855 46 91.1855 46Z" fill="#FF5555"/>
<path d="M91.1855 166C91.1855 166 97.1855 181 104.186 191C111.186 201 121.186 211 121.186 211C121.186 211 111.186 221 104.186 231C97.1855 241 91.1855 256 91.1855 256C91.1855 256 85.1855 241 78.1855 231C71.1855 221 61.1855 211 61.1855 211C61.1855 211 71.1855 201 78.1855 191C85.1855 181 91.1855 166 91.1855 166Z" fill="#FF5555"/>
<path d="M91.1855 286C91.1855 286 97.1855 301 104.186 311C111.186 321 121.186 331 121.186 331C121.186 331 111.186 341 104.186 351C97.1855 361 91.1855 376 91.1855 376C91.1855 376 85.1855 361 78.1855 351C71.1855 341 61.1855 331 61.1855 331C61.1855 331 71.1855 321 78.1855 311C85.1855 301 91.1855 286 91.1855 286Z" fill="#FF5555"/>
<path d="M91.1855 406C91.1855 406 97.1855 421 104.186 431C111.186 441 121.186 451 121.186 451C121.186 451 111.186 461 104.186 471C97.1855 481 91.1855 496 91.1855 496C91.1855 496 85.1855 481 78.1855 471C71.1855 461 61.1855 451 61.1855 451C61.1855 451 71.1855 441 78.1855 431C85.1855 421 91.1855 406 91.1855 406Z" fill="#FF5555"/>
<path d="M181.186 226C181.186 226 187.186 241 194.186 251C201.186 261 211.186 271 211.186 271C211.186 271 201.186 281 194.186 291C187.186 301 181.186 316 181.186 316C181.186 316 175.186 301 168.186 291C161.186 281 151.186 271 151.186 271C151.186 271 161.186 261 168.186 251C175.186 241 181.186 226 181.186 226Z" fill="#FF5555"/>
<path d="M271.186 46C271.186 46 277.186 61 284.186 71C291.186 81 301.186 91 301.186 91C301.186 91 291.186 101 284.186 111C277.186 121 271.186 136 271.186 136C271.186 136 265.186 121 258.186 111C251.186 101 241.186 91 241.186 91C241.186 91 251.186 81 258.186 71C265.186 61 271.186 46 271.186 46Z" fill="#FF5555"/>
<path d="M271.186 166C271.186 166 277.186 181 284.186 191C291.186 201 301.186 211 301.186 211C301.186 211 291.186 221 284.186 231C277.186 241 271.186 256 271.186 256C271.186 256 265.186 241 258.186 231C251.186 221 241.186 211 241.186 211C241.186 211 251.186 201 258.186 191C265.186 181 271.186 166 271.186 166Z" fill="#FF5555"/>
<path d="M271.186 286C271.186 286 277.186 301 284.186 311C291.186 321 301.186 331 301.186 331C301.186 331 291.186 341 284.186 351C277.186 361 271.186 376 271.186 376C271.186 376 265.186 361 258.186 351C251.186 341 241.186 331 241.186 331C241.186 331 251.186 321 258.186 311C265.186 301 271.186 286 271.186 286Z" fill="#FF5555"/>
<path d="M271.186 406C271.186 406 277.186 421 284.186 431C291.186 441 301.186 451 301.186 451C301.186 451 291.186 461 284.186 471C277.186 481 271.186 496 271.186 496C271.186 496 265.186 481 258.186 471C251.186 461 241.186 451 241.186 451C241.186 451 251.186 441 258.186 431C265.186 421 271.186 406 271.186 406Z" fill="#FF5555"/>
</svg>
