<svg width="362" height="542" viewBox="0 0 362 542" fill="none" xmlns="http://www.w3.org/2000/svg">
<path d="M330.741 1.5H31.63C15.0921 1.5 1.68555 14.9066 1.68555 31.4445V510.556C1.68555 527.093 15.0921 540.5 31.63 540.5H330.741C347.279 540.5 360.686 527.093 360.686 510.556V31.4445C360.686 14.9066 347.279 1.5 330.741 1.5Z" stroke="black" stroke-width="2.5"/>
<path d="M28.6855 31L19.6855 81H24.6855L27.0293 68H35.3418L37.6855 81H42.6855L33.6855 31H28.6855ZM31.1855 44.9062L34.4355 63H27.9355L31.1855 44.9062Z" fill="black"/>
<path d="M328.686 511L319.686 461H324.686L327.029 474H335.342L337.686 461H342.686L333.686 511H328.686ZM331.186 497.094L334.436 479H327.936L331.186 497.094Z" fill="black"/>
<path d="M186.186 282C188.186 286 193.186 292 198.186 292C207.186 292 211.186 284 211.186 274C211.186 264 207.186 255 198.186 255C193.186 255 190.186 260 187.186 263C186.186 264 185.186 263 186.186 262C189.186 259 194.186 251 194.186 244C194.186 236 189.186 226 181.186 226C173.186 226 168.186 236 168.186 244C168.186 251 173.186 259 176.186 262C177.186 263 176.186 264 175.186 263C172.186 260 169.186 255 164.186 255C155.186 255 151.186 264 151.186 274C151.186 284 155.186 292 164.186 292C169.186 292 174.186 286 176.186 282C177.186 281 177.186 282 177.186 283C176.186 291 176.186 293 175.186 299C174.186 305 171.186 316 171.186 316C176.186 314 186.186 314 191.186 316C191.186 316 188.186 305 187.186 299C186.186 293 186.186 291 185.186 283C185.186 282 185.186 281 186.186 282Z" fill="black"/>
<path d="M33.6855 119C34.6855 121 37.1855 124 39.6855 124C44.1855 124 46.1855 120 46.1855 115C46.1855 110 44.1855 105.5 39.6855 105.5C37.1855 105.5 35.6855 108 34.1855 109.5C33.6855 110 33.1855 109.5 33.6855 109C35.1855 107.5 37.6855 103.5 37.6855 100C37.6855 96 35.1855 91 31.1855 91C27.1855 91 24.6855 96 24.6855 100C24.6855 103.5 27.1855 107.5 28.6855 109C29.1855 109.5 28.6855 110 28.1855 109.5C26.6855 108 25.1855 105.5 22.6855 105.5C18.1855 105.5 16.1855 110 16.1855 115C16.1855 120 18.1855 124 22.6855 124C25.1855 124 27.6855 121 28.6855 119C29.1855 118.5 29.1855 119 29.1855 119.5C28.6855 123.5 28.6855 124.5 28.1855 127.5C27.6855 130.5 26.1855 136 26.1855 136C28.6855 135 33.6855 135 36.1855 136C36.1855 136 34.6855 130.5 34.1855 127.5C33.6855 124.5 33.6855 123.5 33.1855 119.5C33.1855 119 33.1855 118.5 33.6855 119Z" fill="black"/>
<path d="M333.686 423C334.686 421 337.186 418 339.686 418C344.186 418 346.186 422 346.186 427C346.186 432 344.186 436.5 339.686 436.5C337.186 436.5 335.686 434 334.186 432.5C333.686 432 333.186 432.5 333.686 433C335.186 434.5 337.686 438.5 337.686 442C337.686 446 335.186 451 331.186 451C327.186 451 324.686 446 324.686 442C324.686 438.5 327.186 434.5 328.686 433C329.186 432.5 328.686 432 328.186 432.5C326.686 434 325.186 436.5 322.686 436.5C318.186 436.5 316.186 432 316.186 427C316.186 422 318.186 418 322.686 418C325.186 418 327.686 421 328.686 423C329.186 423.5 329.186 423 329.186 422.5C328.686 418.5 328.686 417.5 328.186 414.5C327.686 411.5 326.186 406 326.186 406C328.686 407 333.686 407 336.186 406C336.186 406 334.686 411.5 334.186 414.5C333.686 417.5 333.686 418.5 333.186 422.5C333.186 423 333.186 423.5 333.686 423Z" fill="black"/>
</svg>
