<svg width="362" height="542" viewBox="0 0 362 542" fill="none" xmlns="http://www.w3.org/2000/svg">
<path d="M330.741 1.5H31.63C15.0921 1.5 1.68555 14.9066 1.68555 31.4445V510.556C1.68555 527.093 15.0921 540.5 31.63 540.5H330.741C347.279 540.5 360.686 527.093 360.686 510.556V31.4445C360.686 14.9066 347.279 1.5 330.741 1.5Z" stroke="black" stroke-width="2.5"/>
<path d="M181.186 226C181.186 226 187.186 241 194.186 251C201.186 261 211.186 271 211.186 271C211.186 271 201.186 281 194.186 291C187.186 301 181.186 316 181.186 316C181.186 316 175.186 301 168.186 291C161.186 281 151.186 271 151.186 271C151.186 271 161.186 261 168.186 251C175.186 241 181.186 226 181.186 226Z" fill="#FF5555"/>
<path d="M28.6855 31L19.6855 81H24.6855L27.0293 68H35.3418L37.6855 81H42.6855L33.6855 31H28.6855ZM31.1855 44.9062L34.4355 63H27.9355L31.1855 44.9062Z" fill="#FF5555"/>
<path d="M328.686 511L319.686 461H324.686L327.029 474H335.342L337.686 461H342.686L333.686 511H328.686ZM331.186 497.094L334.436 479H327.936L331.186 497.094Z" fill="#FF5555"/>
<path d="M31.1855 91C31.1855 91 34.1855 98.5 37.6855 103.5C41.1855 108.5 46.1855 113.5 46.1855 113.5C46.1855 113.5 41.1855 118.5 37.6855 123.5C34.1855 128.5 31.1855 136 31.1855 136C31.1855 136 28.1855 128.5 24.6855 123.5C21.1855 118.5 16.1855 113.5 16.1855 113.5C16.1855 113.5 21.1855 108.5 24.6855 103.5C28.1855 98.5 31.1855 91 31.1855 91Z" fill="#FF5555"/>
<path d="M331.186 406C331.186 406 334.186 413.5 337.686 418.5C341.186 423.5 346.186 428.5 346.186 428.5C346.186 428.5 341.186 433.5 337.686 438.5C334.186 443.5 331.186 451 331.186 451C331.186 451 328.186 443.5 324.686 438.5C321.186 433.5 316.186 428.5 316.186 428.5C316.186 428.5 321.186 423.5 324.686 418.5C328.186 413.5 331.186 406 331.186 406Z" fill="#FF5555"/>
</svg>
