<svg width="362" height="542" viewBox="0 0 362 542" fill="none" xmlns="http://www.w3.org/2000/svg">
<path d="M330.741 1.5H31.63C15.0921 1.5 1.68555 14.9066 1.68555 31.4445V510.556C1.68555 527.093 15.0921 540.5 31.63 540.5H330.741C347.279 540.5 360.686 527.093 360.686 510.556V31.4445C360.686 14.9066 347.279 1.5 330.741 1.5Z" stroke="black" stroke-width="2.5"/>
<path d="M28.6855 31L19.6855 81H24.6855L27.0293 68H35.3418L37.6855 81H42.6855L33.6855 31H28.6855ZM31.1855 44.9062L34.4355 63H27.9355L31.1855 44.9062Z" fill="#FF5555"/>
<path d="M328.686 511L319.686 461H324.686L327.029 474H335.342L337.686 461H342.686L333.686 511H328.686ZM331.186 497.094L334.436 479H327.936L331.186 497.094Z" fill="#FF5555"/>
<path d="M180.186 244C180.186 232.954 174.47 226 166.186 226C157.901 226 151.186 234.954 151.186 246C151.22 246.956 151.204 247.891 151.186 248.812C151.186 256.111 153.862 263.189 156.186 269.812C158.575 276.623 162.019 282.593 165.248 288.688C170.249 298.127 181.186 316 181.186 316C181.186 316 192.122 298.127 197.123 288.688C200.352 282.593 203.797 276.623 206.186 269.812C208.509 263.189 211.186 256.111 211.186 248.812C211.157 247.838 211.167 246.898 211.186 246C211.186 234.954 204.47 226 196.186 226C187.901 226 182.186 232.954 182.186 244C182.186 246 180.186 246 180.186 244Z" fill="#FF5555"/>
<path d="M30.6855 100C30.6855 94.4771 27.8277 91 23.6855 91C19.5434 91 16.1855 95.4771 16.1855 101C16.203 101.478 16.1946 101.946 16.1855 102.406C16.1855 106.055 17.524 109.595 18.6855 112.906C19.8801 116.312 21.6023 119.297 23.2168 122.344C25.7174 127.063 31.1855 136 31.1855 136C31.1855 136 36.6537 127.063 39.1543 122.344C40.7688 119.297 42.491 116.312 43.6855 112.906C44.8471 109.595 46.1855 106.055 46.1855 102.406C46.1713 101.919 46.1762 101.449 46.1855 101C46.1855 95.4771 42.8277 91 38.6855 91C34.5434 91 31.6855 94.4771 31.6855 100C31.6855 101 30.6855 101 30.6855 100Z" fill="#FF5555"/>
<path d="M330.686 442C330.686 447.523 327.828 451 323.686 451C319.543 451 316.186 446.523 316.186 441C316.203 440.522 316.195 440.054 316.186 439.594C316.186 435.945 317.524 432.405 318.686 429.094C319.88 425.688 321.602 422.703 323.217 419.656C325.717 414.937 331.186 406 331.186 406C331.186 406 336.654 414.937 339.154 419.656C340.769 422.703 342.491 425.688 343.686 429.094C344.847 432.405 346.186 435.945 346.186 439.594C346.171 440.081 346.177 440.551 346.186 441C346.186 446.523 342.828 451 338.686 451C334.543 451 331.686 447.523 331.686 442C331.686 441 330.686 441 330.686 442Z" fill="#FF5555"/>
</svg>
