<svg width="362" height="542" viewBox="0 0 362 542" fill="none" xmlns="http://www.w3.org/2000/svg">
<path d="M330.741 1.5H31.63C15.0921 1.5 1.68555 14.9066 1.68555 31.4445V510.556C1.68555 527.093 15.0921 540.5 31.63 540.5H330.741C347.279 540.5 360.686 527.093 360.686 510.556V31.4445C360.686 14.9066 347.279 1.5 330.741 1.5Z" stroke="black" stroke-width="2.5"/>
<path d="M28.6855 31L19.6855 81H24.6855L27.0293 68H35.3418L37.6855 81H42.6855L33.6855 31H28.6855ZM31.1855 44.9062L34.4355 63H27.9355L31.1855 44.9062Z" fill="black"/>
<path d="M328.686 511L319.686 461H324.686L327.029 474H335.342L337.686 461H342.686L333.686 511H328.686ZM331.186 497.094L334.436 479H327.936L331.186 497.094Z" fill="black"/>
<path d="M186.186 282C187.186 286 191.186 296 198.186 296C207.186 296 211.186 288 211.186 278C211.186 271 208.607 266.388 206.186 261C203.608 255.263 199.806 250.143 196.186 245C191.54 238.402 181.186 226 181.186 226C181.186 226 170.831 238.402 166.186 245C162.565 250.143 158.763 255.263 156.186 261C153.764 266.388 151.186 271 151.186 278C151.186 288 155.186 296 164.186 296C171.186 296 175.186 286 176.186 282C177.186 281 177.186 282 177.186 283C176.186 291 176.186 293 175.186 299C174.186 305 171.186 316 171.186 316C176.186 314 186.186 314 191.186 316C191.186 316 188.186 305 187.186 299C186.186 293 186.186 291 185.186 283C185.186 282 185.186 281 186.186 282Z" fill="black"/>
<path d="M33.6855 119C34.1855 121 36.1855 126 39.6855 126C44.1855 126 46.1855 122 46.1855 117C46.1855 113.5 44.8961 111.194 43.6855 108.5C42.3966 105.632 40.4959 103.071 38.6855 100.5C36.3629 97.201 31.1855 91 31.1855 91C31.1855 91 26.0082 97.201 23.6855 100.5C21.8752 103.071 19.9745 105.632 18.6855 108.5C17.475 111.194 16.1855 113.5 16.1855 117C16.1855 122 18.1855 126 22.6855 126C26.1855 126 28.1855 121 28.6855 119C29.1855 118.5 29.1855 119 29.1855 119.5C28.6855 123.5 28.6855 124.5 28.1855 127.5C27.6855 130.5 26.1855 136 26.1855 136C28.6855 135 33.6855 135 36.1855 136C36.1855 136 34.6855 130.5 34.1855 127.5C33.6855 124.5 33.6855 123.5 33.1855 119.5C33.1855 119 33.1855 118.5 33.6855 119Z" fill="black"/>
<path d="M333.686 423C334.186 421 336.186 416 339.686 416C344.186 416 346.186 420 346.186 425C346.186 428.5 344.896 430.806 343.686 433.5C342.397 436.368 340.496 438.929 338.686 441.5C336.363 444.799 331.186 451 331.186 451C331.186 451 326.008 444.799 323.686 441.5C321.875 438.929 319.974 436.368 318.686 433.5C317.475 430.806 316.186 428.5 316.186 425C316.186 420 318.186 416 322.686 416C326.186 416 328.186 421 328.686 423C329.186 423.5 329.186 423 329.186 422.5C328.686 418.5 328.686 417.5 328.186 414.5C327.686 411.5 326.186 406 326.186 406C328.686 407 333.686 407 336.186 406C336.186 406 334.686 411.5 334.186 414.5C333.686 417.5 333.686 418.5 333.186 422.5C333.186 423 333.186 423.5 333.686 423Z" fill="black"/>
</svg>
