<svg width="362" height="543" viewBox="0 0 362 543" fill="none" xmlns="http://www.w3.org/2000/svg">
<path d="M330.487 2.2124H31.3755C14.8376 2.2124 1.43103 15.6191 1.43103 32.157V511.268C1.43103 527.806 14.8376 541.212 31.3755 541.212H330.487C347.024 541.212 360.431 527.806 360.431 511.268V32.157C360.431 15.6191 347.024 2.2124 330.487 2.2124Z" stroke="black" stroke-width="2.5"/>
<path fill-rule="evenodd" clip-rule="evenodd" d="M340.529 103.553V19.508H260.598V103.553H340.529Z" fill="#190C80"/>
<path fill-rule="evenodd" clip-rule="evenodd" d="M260.598 187.598V103.553H180.623V187.598H260.598Z" fill="#190C80"/>
<path fill-rule="evenodd" clip-rule="evenodd" d="M180.623 271.64V187.598H100.689V271.64H180.623Z" fill="#190C80"/>
<path fill-rule="evenodd" clip-rule="evenodd" d="M340.529 271.64V187.598H260.598V271.64H340.529Z" fill="#190C80"/>
<path fill-rule="evenodd" clip-rule="evenodd" d="M100.689 187.598V103.553H20.7582V187.598H100.689Z" fill="#190C80"/>
<path fill-rule="evenodd" clip-rule="evenodd" d="M180.623 103.553V19.508H100.689V103.553H180.623Z" fill="#190C80"/>
<path fill-rule="evenodd" clip-rule="evenodd" d="M100.689 523.819V439.752H20.7582V523.819H100.689Z" fill="#190C80"/>
<path fill-rule="evenodd" clip-rule="evenodd" d="M180.623 439.752V355.707H100.689V439.752H180.623Z" fill="#190C80"/>
<path fill-rule="evenodd" clip-rule="evenodd" d="M260.598 355.707V271.64H180.623V355.707H260.598Z" fill="#190C80"/>
<path fill-rule="evenodd" clip-rule="evenodd" d="M100.689 355.707V271.64H20.7582V355.707H100.689Z" fill="#190C80"/>
<path fill-rule="evenodd" clip-rule="evenodd" d="M340.529 439.752V355.707H260.598V439.752H340.529Z" fill="#190C80"/>
<path fill-rule="evenodd" clip-rule="evenodd" d="M260.598 523.819V439.752H180.623V523.819H260.598Z" fill="#190C80"/>
<path fill-rule="evenodd" clip-rule="evenodd" d="M250.592 19.508L260.598 29.9817L190.627 103.553L180.623 93.0329L250.592 19.508Z" fill="#190C80"/>
<path fill-rule="evenodd" clip-rule="evenodd" d="M270.605 103.553L260.598 114.073L330.525 187.598L340.529 177.076L270.605 103.553Z" fill="#190C80"/>
<path fill-rule="evenodd" clip-rule="evenodd" d="M90.6859 187.598L100.689 198.092L30.7417 271.64L20.7582 261.168L90.6859 187.598Z" fill="#190C80"/>
<path fill-rule="evenodd" clip-rule="evenodd" d="M250.592 187.598L260.598 198.092L190.627 271.64L180.623 261.168L250.592 187.598Z" fill="#190C80"/>
<path fill-rule="evenodd" clip-rule="evenodd" d="M110.695 103.553L100.689 114.073L170.661 187.598L180.623 177.076L110.695 103.553Z" fill="#190C80"/>
<path fill-rule="evenodd" clip-rule="evenodd" d="M90.6859 19.508L100.689 29.9817L30.7417 103.553L20.7582 93.0329L90.6859 19.508Z" fill="#190C80"/>
<path fill-rule="evenodd" clip-rule="evenodd" d="M110.695 523.819L100.689 513.298L170.661 439.752L180.623 450.271L110.695 523.819Z" fill="#190C80"/>
<path fill-rule="evenodd" clip-rule="evenodd" d="M90.6859 439.752L100.689 429.231L30.7417 355.707L20.7582 366.228L90.6859 439.752Z" fill="#190C80"/>
<path fill-rule="evenodd" clip-rule="evenodd" d="M270.605 355.707L260.598 345.21L330.525 271.64L340.529 282.161L270.605 355.707Z" fill="#190C80"/>
<path fill-rule="evenodd" clip-rule="evenodd" d="M110.695 355.707L100.689 345.21L170.661 271.64L180.623 282.161L110.695 355.707Z" fill="#190C80"/>
<path fill-rule="evenodd" clip-rule="evenodd" d="M250.592 439.752L260.598 429.231L190.627 355.707L180.623 366.228L250.592 439.752Z" fill="#190C80"/>
<path fill-rule="evenodd" clip-rule="evenodd" d="M270.605 523.819L260.598 513.298L330.525 439.752L340.529 450.271L270.605 523.819Z" fill="#190C80"/>
<path fill-rule="evenodd" clip-rule="evenodd" d="M190.627 19.508L180.623 29.9817L250.592 103.553L260.598 93.0329L190.627 19.508Z" fill="#190C80"/>
<path fill-rule="evenodd" clip-rule="evenodd" d="M220.599 19.508L180.623 61.5414L220.599 103.553L260.598 61.5414L220.599 19.508Z" fill="#190C80"/>
<path fill-rule="evenodd" clip-rule="evenodd" d="M330.525 103.553L340.529 114.073L270.605 187.598L260.598 177.076L330.525 103.553Z" fill="#190C80"/>
<path fill-rule="evenodd" clip-rule="evenodd" d="M300.532 103.553L340.529 145.586L300.532 187.598L260.598 145.586L300.532 103.553Z" fill="#190C80"/>
<path fill-rule="evenodd" clip-rule="evenodd" d="M30.7417 187.598L20.7582 198.092L90.6859 271.64L100.689 261.168L30.7417 187.598Z" fill="#190C80"/>
<path fill-rule="evenodd" clip-rule="evenodd" d="M60.7576 187.598L20.7582 229.629L60.7576 271.64L100.689 229.629L60.7576 187.598Z" fill="#190C80"/>
<path fill-rule="evenodd" clip-rule="evenodd" d="M190.627 187.598L180.623 198.092L250.592 271.64L260.598 261.168L190.627 187.598Z" fill="#190C80"/>
<path fill-rule="evenodd" clip-rule="evenodd" d="M220.599 187.598L180.623 229.629L220.599 271.64L260.598 229.629L220.599 187.598Z" fill="#190C80"/>
<path fill-rule="evenodd" clip-rule="evenodd" d="M170.661 103.553L180.623 114.073L110.695 187.598L100.689 177.076L170.661 103.553Z" fill="#190C80"/>
<path fill-rule="evenodd" clip-rule="evenodd" d="M140.69 103.553L180.623 145.586L140.69 187.598L100.689 145.586L140.69 103.553Z" fill="#190C80"/>
<path fill-rule="evenodd" clip-rule="evenodd" d="M30.7417 19.508L20.7582 29.9817L90.6859 103.553L100.689 93.0329L30.7417 19.508Z" fill="#190C80"/>
<path fill-rule="evenodd" clip-rule="evenodd" d="M60.7576 19.508L20.7582 61.5414L60.7576 103.553L100.689 61.5414L60.7576 19.508Z" fill="#190C80"/>
<path fill-rule="evenodd" clip-rule="evenodd" d="M170.661 523.819L180.623 513.298L110.695 439.752L100.689 450.271L170.661 523.819Z" fill="#190C80"/>
<path fill-rule="evenodd" clip-rule="evenodd" d="M140.69 523.819L180.623 481.761L140.69 439.752L100.689 481.761L140.69 523.819Z" fill="#190C80"/>
<path fill-rule="evenodd" clip-rule="evenodd" d="M60.7576 439.752L20.7582 397.741L60.7576 355.707L100.689 397.741L60.7576 439.752Z" fill="#190C80"/>
<path fill-rule="evenodd" clip-rule="evenodd" d="M330.525 355.707L340.529 345.21L270.605 271.64L260.598 282.161L330.525 355.707Z" fill="#190C80"/>
<path fill-rule="evenodd" clip-rule="evenodd" d="M300.532 355.707L340.529 313.674L300.532 271.64L260.598 313.674L300.532 355.707Z" fill="#190C80"/>
<path fill-rule="evenodd" clip-rule="evenodd" d="M170.661 355.707L180.623 345.21L110.695 271.64L100.689 282.161L170.661 355.707Z" fill="#190C80"/>
<path fill-rule="evenodd" clip-rule="evenodd" d="M140.69 355.707L180.623 313.674L140.69 271.64L100.689 313.674L140.69 355.707Z" fill="#190C80"/>
<path fill-rule="evenodd" clip-rule="evenodd" d="M190.627 439.752L180.623 429.231L250.592 355.707L260.598 366.228L190.627 439.752Z" fill="#190C80"/>
<path fill-rule="evenodd" clip-rule="evenodd" d="M220.599 439.752L180.623 397.741L220.599 355.707L260.598 397.741L220.599 439.752Z" fill="#190C80"/>
<path fill-rule="evenodd" clip-rule="evenodd" d="M330.525 523.819L340.529 513.298L270.605 439.752L260.598 450.271L330.525 523.819Z" fill="#190C80"/>
<path fill-rule="evenodd" clip-rule="evenodd" d="M300.532 523.819L340.529 481.761L300.532 439.752L260.598 481.761L300.532 523.819Z" fill="#190C80"/>
<path fill-rule="evenodd" clip-rule="evenodd" d="M320.541 82.5131V39.1989H280.586V82.5131H320.541Z" fill="#190C80"/>
<path fill-rule="evenodd" clip-rule="evenodd" d="M220.599 45.7621L205.614 61.5414L220.599 77.2525L235.607 61.5414L220.599 45.7621Z" fill="#190C80"/>
<path fill-rule="evenodd" clip-rule="evenodd" d="M240.61 166.58V123.266H200.611V166.58H240.61Z" fill="#190C80"/>
<path fill-rule="evenodd" clip-rule="evenodd" d="M300.532 129.829L315.538 145.586L300.532 161.319L285.569 145.586L300.532 129.829Z" fill="#190C80"/>
<path fill-rule="evenodd" clip-rule="evenodd" d="M160.657 250.647V207.31H120.68V250.647H160.657Z" fill="#190C80"/>
<path fill-rule="evenodd" clip-rule="evenodd" d="M60.7576 213.85L45.7486 229.629L60.7576 245.409L75.6991 229.629L60.7576 213.85Z" fill="#190C80"/>
<path fill-rule="evenodd" clip-rule="evenodd" d="M320.541 250.647V207.31H280.586V250.647H320.541Z" fill="#190C80"/>
<path fill-rule="evenodd" clip-rule="evenodd" d="M220.599 213.85L205.614 229.629L220.599 245.409L235.607 229.629L220.599 213.85Z" fill="#190C80"/>
<path fill-rule="evenodd" clip-rule="evenodd" d="M80.7024 166.58V123.266H40.7463V166.58H80.7024Z" fill="#190C80"/>
<path fill-rule="evenodd" clip-rule="evenodd" d="M140.69 129.829L155.653 145.586L140.69 161.319L125.682 145.586L140.69 129.829Z" fill="#190C80"/>
<path fill-rule="evenodd" clip-rule="evenodd" d="M160.657 82.5131V39.1989H120.68V82.5131H160.657Z" fill="#190C80"/>
<path fill-rule="evenodd" clip-rule="evenodd" d="M60.7576 45.7621L45.7486 61.5414L60.7576 77.2525L75.6991 61.5414L60.7576 45.7621Z" fill="#190C80"/>
<path fill-rule="evenodd" clip-rule="evenodd" d="M80.7024 504.082V460.792H40.7463V504.082H80.7024Z" fill="#190C80"/>
<path fill-rule="evenodd" clip-rule="evenodd" d="M140.69 497.542L155.653 481.761L140.69 466.029L125.682 481.761L140.69 497.542Z" fill="#190C80"/>
<path fill-rule="evenodd" clip-rule="evenodd" d="M160.657 420.061V376.725H120.68V420.061H160.657Z" fill="#190C80"/>
<path fill-rule="evenodd" clip-rule="evenodd" d="M240.61 335.994V292.636H200.611V335.994H240.61Z" fill="#190C80"/>
<path fill-rule="evenodd" clip-rule="evenodd" d="M300.532 329.452L315.538 313.674L300.532 297.896L285.569 313.674L300.532 329.452Z" fill="#190C80"/>
<path fill-rule="evenodd" clip-rule="evenodd" d="M80.7024 335.994V292.636H40.7463V335.994H80.7024Z" fill="#190C80"/>
<path fill-rule="evenodd" clip-rule="evenodd" d="M140.69 329.452L155.653 313.674L140.69 297.896L125.682 313.674L140.69 329.452Z" fill="#190C80"/>
<path fill-rule="evenodd" clip-rule="evenodd" d="M320.541 420.061V376.725H280.586V420.061H320.541Z" fill="#190C80"/>
<path fill-rule="evenodd" clip-rule="evenodd" d="M220.599 413.497L205.614 397.741L220.599 381.962L235.607 397.741L220.599 413.497Z" fill="#190C80"/>
<path fill-rule="evenodd" clip-rule="evenodd" d="M240.61 504.082V460.792H200.611V504.082H240.61Z" fill="#190C80"/>
<path fill-rule="evenodd" clip-rule="evenodd" d="M300.532 497.542L315.538 481.761L300.532 466.029L285.569 481.761L300.532 497.542Z" fill="#190C80"/>
<path fill-rule="evenodd" clip-rule="evenodd" d="M30.7417 439.752L20.7582 429.231L90.6859 355.707L100.689 366.228L30.7417 439.752Z" fill="#190C80"/>
<path fill-rule="evenodd" clip-rule="evenodd" d="M60.7576 413.497L45.7486 397.741L60.7576 381.962L75.6991 397.741L60.7576 413.497Z" fill="#190C80"/>
<path d="M331.551 5.77686H29.7371C15.9484 5.77686 4.77039 17.8814 4.77039 32.813V510.513C4.77039 525.445 15.9484 537.55 29.7371 537.55H331.551C345.339 537.55 356.517 525.445 356.517 510.513V32.813C356.517 17.8814 345.339 5.77686 331.551 5.77686Z" stroke="#1E0C7D" stroke-width="6.88232"/>
</svg>
