<svg width="362" height="543" viewBox="0 0 362 543" fill="none" xmlns="http://www.w3.org/2000/svg">
<path d="M330.797 2.05859H31.6859C15.1481 2.05859 1.74146 15.4651 1.74146 32.0029V511.114C1.74146 527.652 15.1481 541.059 31.6859 541.059H330.797C347.335 541.059 360.741 527.652 360.741 511.114V32.0029C360.741 15.4651 347.335 2.05859 330.797 2.05859Z" stroke="black" stroke-width="2.5"/>
<path d="M23.2415 71.5586V76.5586L21.2415 101.559H18.2415V106.559V111.559H23.2415V106.559H39.2415V111.559H44.2415V106.559V101.559H41.2415V71.5586H23.2415ZM28.2415 76.5586H36.2415V101.559H26.2415L28.2415 76.5586Z" fill="black"/>
<path d="M13.7415 116.559V121.559C16.3983 121.559 18.7415 123.566 18.7415 126.559C18.7415 130.967 18.796 134.69 22.7415 136.027L13.7415 151.559H19.2415L27.7415 136.559H28.7415V151.559H33.7415V136.559H34.7415L43.2415 151.559H48.7415L39.7415 136.027C43.6869 134.69 43.7415 130.967 43.7415 126.559C43.7415 123.566 46.0846 121.559 48.7415 121.559V116.559C43.7415 116.559 38.7415 121.559 38.7415 126.559C38.7415 129.329 38.7415 131.559 35.7415 131.559H33.7415V126.559V116.559H28.7415V126.559V131.559H26.7415C23.9715 131.559 23.7415 129.329 23.7415 126.559C23.7415 121.559 18.7415 116.559 13.7415 116.559Z" fill="black"/>
<path d="M31.2415 156.559C25.7015 156.559 21.2415 161.019 21.2415 166.559V181.559C21.2415 187.099 25.7015 191.559 31.2415 191.559C36.7815 191.559 41.2415 187.099 41.2415 181.559V166.559C41.2415 161.019 36.7815 156.559 31.2415 156.559ZM31.2415 161.559C34.0115 161.559 36.2415 163.789 36.2415 166.559V181.559C36.2415 184.329 34.0115 186.559 31.2415 186.559C28.4715 186.559 26.2415 184.329 26.2415 181.559V166.559C26.2415 163.789 28.4715 161.559 31.2415 161.559Z" fill="black"/>
<path d="M21.2415 231.559H26.2415V216.559H27.2415L35.7415 231.559H41.2415L32.2415 216.027C36.1869 214.69 36.2415 210.967 36.2415 206.559C36.2415 203.566 38.5846 201.559 41.2415 201.559V196.559C36.2415 196.559 31.2415 201.559 31.2415 206.559C31.2415 209.329 31.2415 211.559 28.2415 211.559H26.2415V206.559V196.559H21.2415C21.2415 211.559 21.2415 221.559 21.2415 231.559Z" fill="black"/>
<path d="M21.2415 276.559V286.559V301.559V321.559H26.2415V310.215C27.7099 311.06 29.4188 311.559 31.2415 311.559C36.7815 311.559 41.2415 307.099 41.2415 301.559V286.559C41.2415 281.019 36.7815 276.559 31.2415 276.559C29.4188 276.559 27.7099 277.057 26.2415 277.902V276.559H21.2415ZM31.2415 281.559C34.0115 281.559 36.2415 283.789 36.2415 286.559V301.559C36.2415 304.329 34.0115 306.559 31.2415 306.559C28.4715 306.559 26.2415 304.329 26.2415 301.559V286.559C26.2415 283.789 28.4715 281.559 31.2415 281.559Z" fill="black"/>
<path fill-rule="evenodd" clip-rule="evenodd" d="M31.2415 31.5586C22.9572 31.5586 16.2415 38.2743 16.2415 46.5586C16.2415 54.8429 22.9572 61.5586 31.2415 61.5586C39.5257 61.5586 46.2415 54.8429 46.2415 46.5586C46.2415 38.2743 39.5257 31.5586 31.2415 31.5586ZM31.2415 36.5586C36.7643 36.5586 41.2415 41.0357 41.2415 46.5586C41.2415 52.0814 36.7643 56.5586 31.2415 56.5586C25.7186 56.5586 21.2415 52.0814 21.2415 46.5586C21.2415 41.0357 25.7186 36.5586 31.2415 36.5586Z" fill="black"/>
<path fill-rule="evenodd" clip-rule="evenodd" d="M31.2415 36.5586L33.5927 43.3225L40.7521 43.4685L35.0458 47.7949L37.1194 54.6489L31.2415 50.5586L25.3637 54.6489L27.4373 47.7949L21.731 43.4685L28.8904 43.3225L31.2415 36.5586Z" fill="black"/>
<path d="M339.241 471.559V466.559L341.241 441.559H344.241V436.559V431.559H339.241V436.559H323.241V431.559H318.241V436.559V441.559H321.241V471.559H339.241ZM334.241 466.559H326.241V441.559H336.241L334.241 466.559Z" fill="black"/>
<path d="M348.741 426.559V421.559C346.085 421.559 343.741 419.551 343.741 416.559C343.741 412.15 343.687 408.427 339.741 407.09L348.741 391.559H343.241L334.741 406.559H333.741V391.559H328.741V406.559H327.741L319.241 391.559H313.741L322.741 407.09C318.796 408.427 318.741 412.15 318.741 416.559C318.741 419.551 316.398 421.559 313.741 421.559V426.559C318.741 426.559 323.741 421.559 323.741 416.559C323.741 413.789 323.741 411.559 326.741 411.559H328.741V416.559V426.559H333.741V416.559V411.559H335.741C338.511 411.559 338.741 413.789 338.741 416.559C338.741 421.559 343.741 426.559 348.741 426.559Z" fill="black"/>
<path d="M140.991 232.059C140.991 232.059 137.933 238.449 136.241 241.559C134.438 244.873 132.274 247.983 130.491 251.309C129.047 254.002 128.226 257.043 126.491 259.559C124.216 262.859 121.1 265.498 118.241 268.309C114.624 271.865 106.991 278.559 106.991 278.559C106.991 278.559 115.66 282.012 120.241 282.559C124.717 283.093 129.307 281.004 133.741 281.809C135.981 282.215 137.752 284.154 139.991 284.559C142.866 285.078 146.007 285.087 148.741 284.059C153.687 282.198 156.584 276.805 161.241 274.309C163.796 272.939 166.89 272.838 169.491 271.559C172.24 270.207 174.385 267.818 177.115 266.429C179.286 265.325 181.675 264.712 183.982 263.931C186.094 263.216 188.25 262.639 190.363 261.929C192.588 261.183 196.991 259.559 196.991 259.559C196.991 259.559 199.674 256.908 200.991 255.559C202.679 253.829 204.34 252.073 205.991 250.309C208.852 247.251 214.491 241.059 214.491 241.059L213.241 239.309C213.241 239.309 209.304 242.629 207.077 243.894C205.001 245.074 202.607 245.596 200.461 246.644C198.234 247.733 196.129 249.055 193.991 250.309C191.637 251.69 186.991 254.559 186.991 254.559L185.741 252.809C185.741 252.809 188.835 249.841 189.991 248.059C191.683 245.45 192.994 242.548 193.802 239.546C194.738 236.071 195.156 232.401 194.936 228.809C194.718 225.252 192.522 218.394 192.522 218.394C192.522 218.394 187.944 223.787 184.931 225.498C181.329 227.543 176.963 227.763 172.991 228.937C170.653 229.628 168.299 230.271 165.991 231.059C164.219 231.664 162.598 232.812 160.741 233.059C157.421 233.5 154.087 232.225 150.741 232.059C147.495 231.897 140.991 232.059 140.991 232.059Z" fill="black" stroke="black" stroke-linecap="round" stroke-linejoin="round"/>
<path d="M237.611 217.404C237.611 217.404 245.308 224.845 249.058 228.664C250.786 230.424 251.808 233.257 254.149 234.034C255.587 234.511 257.412 234.164 258.628 233.26C261.59 231.06 263.578 223.361 263.578 223.361C263.578 223.361 266.99 227.383 269.235 228.664C271.794 230.124 274.804 230.722 277.72 231.139C279.82 231.439 281.97 231.314 284.084 231.139C284.799 231.08 286.206 230.785 286.206 230.785C286.206 230.785 280.177 240.139 277.562 245.044C275.382 249.133 274.501 253.956 271.71 257.655C269.646 260.39 267.191 263.319 263.932 264.373C261.343 265.21 258.401 264.465 255.8 263.666C251.412 262.317 247.765 259.224 243.779 256.948C238.092 253.701 232.594 250.118 226.809 247.049C223.922 245.517 220.761 244.506 217.97 242.806C216.163 241.706 212.904 238.984 212.904 238.984C212.904 238.984 217.052 232.335 218.323 228.664C219.382 225.606 220.091 219.118 220.091 219.118C220.091 219.118 226.549 219.963 229.753 219.605C232.456 219.302 237.611 217.404 237.611 217.404Z" fill="black" stroke="black" stroke-linecap="round" stroke-linejoin="round"/>
<path d="M187.991 177.059C186.408 176.892 184.813 176.304 183.241 176.559C182.248 176.72 181.319 177.235 180.491 177.809C180.007 178.144 179.658 178.642 179.241 179.059C177.158 178.475 174.879 178.366 172.991 177.309C170.214 175.752 167.986 173.29 165.991 170.809C164.962 169.528 164.607 167.766 163.491 166.559C162.111 165.064 160.301 163.989 158.491 163.059C157.155 162.372 155.658 162.059 154.241 161.559C155.741 164.309 157.634 166.879 158.741 169.809C159.406 171.567 159.258 173.577 159.991 175.309C160.884 177.416 162.491 179.142 163.741 181.059C160.491 181.892 157.225 182.664 153.991 183.559C150.891 184.417 147.689 185.021 144.741 186.309C142.345 187.356 140.18 188.876 137.991 190.309C135.843 191.714 133.825 193.309 131.741 194.809C131.908 195.475 132.075 196.142 132.241 196.809C135.075 196.642 137.903 196.306 140.741 196.309C143.496 196.311 146.353 196.017 148.991 196.809C152.031 197.721 154.293 200.385 157.241 201.559C159.232 202.351 161.414 202.536 163.491 203.059C165.079 203.458 166.658 203.892 168.241 204.309C165.825 207.142 163.325 209.907 160.991 212.809C158.829 215.497 157.09 218.531 154.741 221.059C152.852 223.092 150.838 225.077 148.491 226.559C146.345 227.914 143.932 228.86 141.491 229.559C140.438 229.86 139.325 229.892 138.241 230.059C138.408 230.559 138.575 231.059 138.741 231.559C141.241 231.559 143.744 231.438 146.241 231.559C148.834 231.684 151.409 232.045 153.991 232.309C156.326 232.547 158.652 233.242 160.991 233.059C163.228 232.884 165.305 231.814 167.491 231.309C170.055 230.716 172.678 230.401 175.241 229.809C177.428 229.303 179.669 228.918 181.741 228.059C184.052 227.1 186.327 225.918 188.241 224.309C189.821 222.981 190.711 221.142 192.211 219.559C192.544 223.142 193.686 226.69 193.741 230.309C193.788 233.327 193.193 236.324 192.741 239.309C192.411 241.49 192.395 243.796 191.491 245.809C190.201 248.682 187.658 250.809 185.741 253.309C186.158 253.725 186.575 254.142 186.991 254.559C189.825 252.809 192.452 250.669 195.491 249.309C197.634 248.35 200.065 248.185 202.241 247.309C204.765 246.293 207.409 245.31 209.491 243.559C211.494 241.875 212.916 239.565 214.241 237.309C215.716 234.799 216.811 232.067 217.741 229.309C218.756 226.302 219.241 223.142 219.991 220.059C222.825 220.225 225.68 220.945 228.491 220.559C231.024 220.21 233.254 218.647 235.741 218.059C236.969 217.768 238.241 217.725 239.491 217.559C237.908 215.975 236.235 214.477 234.741 212.809C233.318 211.218 232.144 209.417 230.741 207.809C229.23 206.076 227.569 204.481 225.991 202.809C224.737 201.479 223.491 200.142 222.241 198.809" stroke="black" stroke-linecap="round" stroke-linejoin="round"/>
<path d="M207.893 138.861C207.893 138.861 210.298 136.071 211.429 134.619C212.414 133.354 213.796 132.265 214.257 130.73C215.004 128.244 214.087 125.54 213.904 122.951C213.687 119.881 214.24 116.585 213.02 113.759C212.276 112.034 210.68 110.801 209.308 109.516C208.387 108.655 206.302 107.218 206.302 107.218L209.308 105.097C209.308 105.097 210.869 106.526 211.783 107.042C214.251 108.434 217.344 108.528 219.738 110.047C221.954 111.453 223.407 113.811 225.394 115.527C227.812 117.614 230.723 119.116 232.996 121.36C234.757 123.1 236.202 125.145 237.592 127.194C239.044 129.335 240.444 131.541 241.481 133.912C242.84 137.02 243.98 140.28 244.486 143.634C244.961 146.781 244.928 150.029 244.486 153.18C244.248 154.88 243.411 156.448 243.072 158.13C242.779 159.584 242.542 162.549 242.542 162.549L236.885 163.787C236.885 163.787 236.347 158.595 236.001 156.009C235.693 153.704 235.595 151.345 234.94 149.114C234.45 147.444 232.819 144.341 232.819 144.341C232.819 144.341 231.752 148.171 230.698 149.821C229.419 151.823 227.805 153.76 225.748 154.948C224.696 155.556 222.212 155.832 222.212 155.832C222.212 155.832 218.853 153.078 217.793 151.236C216.723 149.376 216.258 147.181 216.025 145.049C215.814 143.112 216.379 139.215 216.379 139.215C216.379 139.215 214.288 140.393 213.374 141.159C211.584 142.659 208.601 146.286 208.601 146.286C208.601 146.286 208.012 143.354 207.893 141.867C207.814 140.868 207.893 138.861 207.893 138.861Z" fill="black" stroke="black" stroke-linecap="round" stroke-linejoin="round"/>
<path d="M291.741 158.309C295.773 158.811 299.781 160.776 302.741 163.559C305.867 166.497 307.816 170.683 308.991 174.809C310.503 180.117 310.249 185.849 309.782 191.349C309.221 197.968 308.28 204.78 305.491 210.809C303.12 215.937 299.565 220.671 295.241 224.309C291.077 227.812 286.172 231.468 280.741 231.809C276.4 232.081 272.102 229.734 268.491 227.309C265.588 225.358 263.06 222.647 261.417 219.559C259.806 216.53 259.363 212.968 258.991 209.559C258.558 205.581 258.806 201.536 259.241 197.559C259.704 193.335 260.419 189.097 261.741 185.059C262.971 181.303 264.776 177.737 266.741 174.309C268.355 171.495 269.995 168.608 272.282 166.309C274.638 163.94 277.42 161.873 280.491 160.559C284.008 159.055 287.947 157.836 291.741 158.309Z" fill="#AAAAAA" stroke="black" stroke-linecap="round" stroke-linejoin="round"/>
<path d="M287.491 179.809C290.024 180.377 292.308 182.637 293.241 185.059C294.506 188.339 293.117 192.153 292.241 195.559C291.405 198.812 290.322 202.171 288.241 204.809C286.693 206.772 284.711 208.922 282.241 209.309C279.976 209.663 277.229 208.803 275.741 207.059C273.875 204.869 274.153 201.434 274.241 198.559C274.35 195.032 275.314 191.503 276.721 188.268C277.751 185.901 278.925 183.355 280.991 181.809C282.806 180.45 285.28 179.312 287.491 179.809Z" fill="black" stroke="black" stroke-linecap="round" stroke-linejoin="round"/>
<path d="M288.114 183.699C288.114 183.699 285.138 183.802 282.721 189.916C281.521 192.953 280.862 196.673 280.795 200.14C280.713 204.403 282.316 205.099 282.316 205.099" stroke="#AAAAAA" stroke-linecap="round" stroke-linejoin="round"/>
<path d="M287.925 181.682C287.925 181.682 284.464 181.361 280.911 188.845C279.859 191.06 278.898 196.316 278.714 200.15C278.428 206.142 281.992 206.867 281.992 206.867" stroke="#AAAAAA" stroke-linecap="round" stroke-linejoin="round"/>
<path d="M284.553 180.993C284.553 180.993 281.129 183.313 278.62 189.066C276.458 194.023 276.559 196.397 276.424 200.007C276.151 207.263 279.701 207.711 279.701 207.711" stroke="#AAAAAA" stroke-linecap="round" stroke-linejoin="round"/>
<path d="M278.638 164.937C278.638 164.937 275.815 166.678 274.583 167.776C273.772 168.497 272.42 170.209 272.42 170.209" stroke="black" stroke-linecap="round" stroke-linejoin="round"/>
<path d="M278.503 168.181C278.503 168.181 276.347 169.707 275.394 170.615C274.446 171.518 272.826 173.589 272.826 173.589" stroke="black" stroke-linecap="round" stroke-linejoin="round"/>
<path d="M280.396 170.074C280.396 170.074 277.218 172.376 275.8 173.724C274.712 174.758 272.826 177.103 272.826 177.103" stroke="black" stroke-linecap="round" stroke-linejoin="round"/>
<path d="M280.936 172.913C280.936 172.913 278.458 174.562 277.422 175.616C276.203 176.857 274.312 179.807 274.312 179.807" stroke="black" stroke-linecap="round" stroke-linejoin="round"/>
<path d="M281.072 176.022C281.072 176.022 278.79 177.602 277.827 178.59C277.198 179.236 276.205 180.753 276.205 180.753" stroke="black" stroke-linecap="round" stroke-linejoin="round"/>
<path d="M281.748 178.861C281.748 178.861 280.188 180.275 279.45 181.024C278.934 181.546 277.963 182.646 277.963 182.646" stroke="black" stroke-linecap="round" stroke-linejoin="round"/>
<path d="M261.065 207.79C261.245 210.133 261.066 212.564 261.741 214.82C262.266 216.577 263.408 218.064 264.309 219.686" stroke="black" stroke-linecap="round" stroke-linejoin="round"/>
<path d="M263.228 206.033C263.363 208.196 263.334 210.811 264.039 213.062C264.466 214.428 265.255 215.586 266.066 216.847" stroke="black" stroke-linecap="round" stroke-linejoin="round"/>
<path d="M265.39 203.87C265.526 205.852 265.326 207.887 265.796 209.818C266.144 211.249 266.968 212.522 267.553 213.873" stroke="black" stroke-linecap="round" stroke-linejoin="round"/>
<path d="M267.418 202.247C267.508 203.825 267.327 205.441 267.689 206.979C268.003 208.315 268.77 209.502 269.311 210.764" stroke="black" stroke-linecap="round" stroke-linejoin="round"/>
<path d="M269.446 200.896C269.536 202.428 269.288 204.018 269.716 205.492C269.975 206.383 270.618 207.114 271.068 207.925" stroke="black" stroke-linecap="round" stroke-linejoin="round"/>
<path d="M272.15 198.868C272.15 200.355 271.825 201.878 272.15 203.329C272.334 204.155 272.871 204.861 273.231 205.627" stroke="black" stroke-linecap="round" stroke-linejoin="round"/>
<path d="M301.079 214.414C299.547 216.217 298.164 218.157 296.483 219.821C294.732 221.555 292.698 222.976 290.805 224.553" stroke="black" stroke-linecap="round" stroke-linejoin="round"/>
<path d="M298.375 213.333C297.339 214.91 296.353 216.507 295.063 217.861C293.804 219.184 292.292 220.227 290.805 221.308" stroke="black" stroke-linecap="round" stroke-linejoin="round"/>
<path d="M297.023 211.846C295.987 213.468 295.036 214.711 293.779 215.901C292.935 216.701 291.932 217.343 290.94 217.929" stroke="black" stroke-linecap="round" stroke-linejoin="round"/>
<path d="M295.536 210.223C294.861 211.215 294.256 211.997 293.509 212.792C292.722 213.629 291.796 214.459 290.94 215.09" stroke="black" stroke-linecap="round" stroke-linejoin="round"/>
<path d="M294.049 208.534C293.599 209.39 293.27 209.898 292.765 210.494C292.27 211.077 291.436 211.778 291.075 212.048" stroke="black" stroke-linecap="round" stroke-linejoin="round"/>
<path d="M293.103 206.033C292.743 206.709 292.493 207.248 292.089 207.79C291.756 208.237 291.301 208.691 290.94 209.007" stroke="black" stroke-linecap="round" stroke-linejoin="round"/>
<path d="M291.548 203.937C291.413 204.433 291.101 204.913 290.805 205.357C290.61 205.649 290.49 205.807 290.129 206.168" stroke="black" stroke-linecap="round" stroke-linejoin="round"/>
<path d="M182.487 74.2959C178.841 69.1481 169.523 71.5911 163.572 73.6853C156.118 76.3086 148.858 80.3312 142.338 85.0024C136.246 89.3667 130.453 94.644 125.945 100.387C122.013 105.396 118.187 112.999 121.893 117.569C125.866 122.467 134.898 119.323 140.809 117.122C148.203 114.368 154.821 111.212 160.92 106.782C167.176 102.238 173.361 97.0463 177.387 90.4451C180.326 85.6254 185.751 78.9024 182.487 74.2959Z" fill="#AAAAAA" stroke="black" stroke-linecap="round" stroke-linejoin="round"/>
<path d="M166.992 84.8963C165.177 82.4136 160.678 84.3264 157.78 85.3909C154.15 86.7244 150.784 88.6725 147.707 90.9648C144.753 93.1648 142.008 95.7764 139.813 98.6957C137.898 101.242 135.742 104.648 137.482 106.893C139.363 109.321 143.815 107.785 146.694 106.666C150.295 105.266 153.319 102.805 156.309 100.426C159.057 98.2404 161.951 96.0378 163.882 93.1054C165.491 90.6613 168.718 87.2588 166.992 84.8963Z" fill="black" stroke="black" stroke-linecap="round" stroke-linejoin="round"/>
<path d="M165.059 86.5449C161.731 87.7628 158.82 90.067 155.906 92.1393C152.556 94.5214 149.372 97.1501 146.378 99.9669C144.059 102.149 141.352 104.493 139.878 106.965" stroke="#AAAAAA" stroke-linecap="round" stroke-linejoin="round"/>
<path d="M165.389 85.7199C161.193 86.3628 157.578 88.9651 154.049 91.2527C150.767 93.3794 147.808 96.0065 145.048 98.7758C142.711 101.12 139.956 103.668 138.704 106.414" stroke="#AAAAAA" stroke-linecap="round" stroke-linejoin="round"/>
<path d="M165.703 84.6535C162.311 84.7123 156.936 87.3583 153.031 89.6815C149.564 91.7433 146.462 94.4575 143.741 97.4344C141.292 100.113 138.469 103.169 137.542 106.383" stroke="#AAAAAA" stroke-linecap="round" stroke-linejoin="round"/>
<path d="M199.055 156.716C199.055 156.716 199.826 148.737 200.822 144.872C201.623 141.766 202.448 138.554 204.181 135.856C205.262 134.173 208.424 131.613 208.424 131.613C208.424 131.613 207.493 136.664 207.54 139.215C207.583 141.54 208.6 146.109 208.6 146.109C208.6 146.109 211.201 143.279 212.666 142.043C213.991 140.926 216.909 139.038 216.909 139.038C216.909 139.038 216.142 144.254 216.555 146.816C216.897 148.934 217.662 151.043 218.854 152.827C219.71 154.109 222.212 156.009 222.212 156.009C222.212 156.009 225.923 154.937 227.339 153.711C228.92 152.341 229.695 150.244 230.698 148.407C231.569 146.811 232.996 143.458 232.996 143.458C232.996 143.458 235.399 149.603 236.001 152.827C236.369 154.8 236.185 156.837 236.354 158.837C236.49 160.432 236.885 163.61 236.885 163.61C236.885 163.61 241.262 162.865 243.426 162.373C245.209 161.967 247.207 161.974 248.729 160.958C250.581 159.722 251.657 157.57 252.795 155.655C253.684 154.158 254.916 150.882 254.916 150.882C254.916 150.882 255.974 157.021 255.623 160.075C255.355 162.407 254.932 164.93 253.502 166.792C251.63 169.229 248.264 170.012 245.724 171.742C243.736 173.095 241.678 174.377 239.89 175.984C238.649 177.1 236.531 179.697 236.531 179.697C236.531 179.697 230.901 177.034 228.223 175.454C225.773 174.009 223.436 172.375 221.152 170.681C219.2 169.234 217.493 167.467 215.495 166.085C213.475 164.688 211.282 163.558 209.131 162.373C207.677 161.571 206.162 160.882 204.711 160.075C202.795 159.008 199.055 156.716 199.055 156.716V156.716Z" stroke="black" stroke-linecap="round" stroke-linejoin="round"/>
<path d="M212.49 129.05C212.49 130.954 211.105 132.497 209.396 132.497C207.688 132.497 206.302 130.954 206.302 129.05C206.302 127.146 207.688 125.603 209.396 125.603C211.105 125.603 212.49 127.146 212.49 129.05Z" fill="#FFFFFB" stroke="black" stroke-linecap="round" stroke-linejoin="round"/>
<path d="M222.212 137.801C222.212 139.265 220.906 140.452 219.295 140.452C217.685 140.452 216.379 139.265 216.379 137.801C216.379 136.336 217.685 135.149 219.295 135.149C220.906 135.149 222.212 136.336 222.212 137.801Z" fill="#FFFFFB" stroke="black" stroke-linecap="round" stroke-linejoin="round"/>
<path d="M236.708 140.629C236.708 142.484 235.204 143.988 233.349 143.988C231.494 143.988 229.99 142.484 229.99 140.629C229.99 138.774 231.494 137.27 233.349 137.27C235.204 137.27 236.708 138.774 236.708 140.629Z" fill="#FFFFFB" stroke="black" stroke-linecap="round" stroke-linejoin="round"/>
<path d="M259.159 148.054C259.159 150.202 257.655 151.943 255.8 151.943C253.945 151.943 252.441 150.202 252.441 148.054C252.441 145.906 253.945 144.165 255.8 144.165C257.655 144.165 259.159 145.906 259.159 148.054Z" fill="#FFFFFB" stroke="black" stroke-linecap="round" stroke-linejoin="round"/>
<path d="M198.741 156.809C198.741 156.809 195.592 156.283 194.241 155.496C193.338 154.97 191.991 153.309 191.991 153.309C191.991 153.309 193.088 156.287 194.179 157.371C194.714 157.903 196.179 158.434 196.179 158.434C196.179 158.434 193.236 157.306 191.741 156.809C190.916 156.534 189.241 156.059 189.241 156.059C189.241 156.059 190.584 158.391 191.644 159.156C192.631 159.87 195.089 160.374 195.089 160.374L189.241 159.809C189.241 159.809 190.442 160.241 190.991 160.559C192.074 161.184 193.991 162.809 193.991 162.809C193.991 162.809 192.677 163.267 191.991 163.309C190.65 163.39 187.991 162.809 187.991 162.809C187.991 162.809 189.066 163.942 189.741 164.309C191.039 165.013 193.991 165.559 193.991 165.559C193.991 165.559 193.978 166.435 193.676 166.678C193.108 167.136 192.221 166.832 191.491 166.809C190.148 166.765 188.74 166.806 187.491 166.309C186.051 165.736 183.741 163.559 183.741 163.559C183.741 163.559 185.026 167.614 186.679 168.684C187.751 169.377 189.23 168.857 190.491 169.059C191.819 169.271 194.429 169.934 194.429 169.934C194.429 169.934 190.635 170.152 188.741 170.309C187.907 170.378 186.241 170.559 186.241 170.559L191.241 172.809L187.491 173.559L191.241 174.309L189.241 175.309C189.241 175.309 191.021 176.407 191.991 176.309C193.257 176.18 195.241 174.309 195.241 174.309C195.241 174.309 194.915 171.142 194.991 169.559C195.073 167.875 194.9 166.019 195.741 164.559C196.54 163.171 197.891 161.595 199.491 161.559C200.625 161.533 201.469 162.73 202.241 163.559C202.778 164.134 203.309 164.794 203.491 165.559C203.705 166.454 202.56 167.69 203.241 168.309C204.561 169.114 206.768 167.758 208.491 167.309C209.766 166.976 211.283 166.963 212.241 166.059C212.568 165.751 212.741 164.809 212.741 164.809L207.491 161.559L203.241 159.559L198.741 156.809Z" fill="#AAAAAA" stroke="black" stroke-linecap="round" stroke-linejoin="round"/>
<path d="M189.885 176.446C189.885 176.446 187.814 178.234 186.934 179.274C186.229 180.107 185.359 180.922 185.089 181.98C184.683 183.576 185.222 185.29 185.581 186.899C185.903 188.341 186.401 189.755 187.057 191.08C187.687 192.353 188.51 193.532 189.393 194.646C190.132 195.577 191.023 196.378 191.853 197.228C192.501 197.892 193.253 198.462 193.821 199.196C194.81 200.475 195.302 202.089 196.28 203.377C197.244 204.647 198.585 205.591 199.6 206.82C200.462 207.864 200.807 209.396 201.937 210.141C202.601 210.579 203.478 210.644 204.273 210.633C205.356 210.618 206.599 210.566 207.433 209.875C208.391 209.084 208.568 207.655 208.967 206.479C209.235 205.689 209.114 204.761 209.539 204.042C209.971 203.312 210.732 202.819 211.431 202.338C211.992 201.952 212.634 201.698 213.251 201.41C214.334 200.904 215.443 200.45 216.553 200.007C217.854 199.487 219.262 199.207 220.488 198.531C221.795 197.81 223.091 196.965 224.055 195.825C224.682 195.083 225.004 194.127 225.407 193.243C226.021 191.898 227.024 189.112 227.024 189.112L228.377 188.989L228.499 187.513C228.499 187.513 230.17 186.578 230.959 186.038C231.345 185.773 231.79 185.554 232.066 185.177C232.556 184.507 232.362 183.448 232.927 182.84C233.264 182.477 233.909 182.554 234.279 182.225C235.105 181.493 236.001 179.397 236.001 179.397C236.001 179.397 231.144 177.292 228.868 175.954C226.967 174.835 225.268 173.402 223.458 172.141C222.151 171.232 220.784 170.406 219.522 169.436C218.324 168.515 217.308 167.364 216.079 166.485C215.227 165.875 213.374 164.886 213.374 164.886C213.374 164.886 212.706 166.182 212.144 166.608C211.275 167.265 210.107 167.383 209.069 167.714C208.056 168.038 207.026 168.31 205.995 168.575C205.302 168.754 204.593 169.263 203.904 169.067C203.403 168.924 202.942 168.462 202.798 167.96C202.647 167.435 203.193 166.908 203.167 166.362C203.13 165.585 202.812 164.825 202.429 164.148C202.056 163.49 201.601 162.815 200.953 162.426C200.305 162.038 199.481 161.787 198.74 161.935C197.758 162.129 196.902 162.872 196.28 163.656C195.731 164.348 195.479 165.252 195.296 166.116C195.067 167.199 195.219 168.329 195.173 169.436C195.136 170.338 195.011 171.24 195.05 172.141C195.077 172.761 195.458 173.387 195.296 173.986C195.052 174.888 194.375 175.717 193.575 176.2C192.968 176.565 192.191 176.534 191.484 176.569C190.95 176.595 189.885 176.446 189.885 176.446V176.446Z" stroke="black" stroke-linecap="round" stroke-linejoin="round"/>
<path d="M213.005 177.798C213.005 177.798 215.26 178.819 216.448 179.151C217.61 179.476 218.839 179.494 220.014 179.766C221.013 179.997 222.47 179.73 222.966 180.627C223.254 181.149 222.474 182.348 222.474 182.348" stroke="black" stroke-linecap="round" stroke-linejoin="round"/>
<path d="M214.603 181.611C215.3 182.143 215.863 182.928 216.694 183.209C217.354 183.433 218.141 182.943 218.784 183.209C219.159 183.365 219.358 183.783 219.645 184.07" stroke="black" stroke-linecap="round" stroke-linejoin="round"/>
<path d="M215.833 182.954C215.915 183.446 215.679 184.261 216.079 184.685C216.366 184.989 216.933 185.115 217.309 184.931C217.805 184.687 217.801 183.856 218.047 183.446L215.833 182.954Z" stroke="black" stroke-linecap="round" stroke-linejoin="round"/>
<path d="M225.179 183.824C225.179 183.824 224.221 185.238 223.949 186.038C223.59 187.097 223.517 188.241 223.457 189.358C223.403 190.382 223.724 191.417 223.58 192.432C223.471 193.202 223.372 194.077 222.843 194.646C222.301 195.228 221.433 195.603 220.639 195.561C219.748 195.513 218.853 194.97 218.293 194.277C218.055 193.983 218.277 193.41 217.968 193.191C217.54 192.888 216.916 193.329 216.394 193.268C215.692 193.186 214.888 193.145 214.357 192.678C213.901 192.278 213.506 191.604 213.629 191.01C213.734 190.508 214.204 190.091 214.756 189.962" stroke="black" stroke-linecap="round" stroke-linejoin="round"/>
<path d="M227.147 182.963C227.147 182.963 228.647 182.646 229.36 182.84C229.788 182.957 230.174 183.246 230.467 183.578C230.77 183.922 231.082 184.808 231.082 184.808" stroke="black" stroke-linecap="round" stroke-linejoin="round"/>
<path d="M225.2 185.995C225.569 186.282 225.865 186.705 226.307 186.856C226.772 187.016 227.312 186.714 227.783 186.856C228.066 186.942 228.275 187.184 228.521 187.348" stroke="black" stroke-linecap="round" stroke-linejoin="round"/>
<path d="M225.932 187.233C225.97 187.714 225.688 188.344 226.046 188.677C226.587 189.181 227.796 188.775 228.288 188.738L227.485 187.061L225.932 187.233Z" stroke="black" stroke-linecap="round" stroke-linejoin="round"/>
<path d="M213.877 199.362C212.699 198.948 212.625 198.132 212.03 197.489C211.709 197.142 211.355 196.813 211.101 196.418C210.77 195.902 209.64 194.244 210.343 194.749C211.399 195.417 212.403 195.927 213.737 196.389C214.275 196.576 214.392 197.344 214.891 197.614C215.485 197.935 216.512 197.444 216.899 197.985C217.354 198.621 218.951 198.675 219.556 199.097C218.909 199.284 218.879 199.315 217.618 199.683C216.706 199.2 215.053 199.776 213.877 199.362Z" fill="#AAAAAA" stroke="black" stroke-linecap="round" stroke-linejoin="round"/>
<path d="M192.577 181.652C192.577 181.652 190.848 184.131 190.49 185.565C190.208 186.69 190.259 187.907 190.49 189.044C190.815 190.648 191.85 192.025 192.403 193.565C192.781 194.619 193.023 195.716 193.359 196.783C193.524 197.307 193.881 198.348 193.881 198.348" stroke="black" stroke-linecap="round" stroke-linejoin="round"/>
<path d="M200.72 166.08C200.314 165.704 200.051 165.028 199.502 164.95C198.925 164.867 198.294 165.271 197.937 165.733C197.429 166.389 197.447 167.338 197.415 168.167C197.391 168.81 197.576 169.445 197.676 170.08C197.804 170.895 198.188 171.694 198.111 172.515C198.05 173.164 197.647 173.733 197.415 174.341" stroke="black" stroke-linecap="round" stroke-linejoin="round"/>
<path d="M200.198 168.602C200.198 168.602 199.57 167.925 199.241 168.08C198.815 168.283 198.969 169 198.981 169.472C198.996 170.097 199.415 171.298 199.415 171.298" stroke="black" stroke-linecap="round" stroke-linejoin="round"/>
<path d="M211.741 190.934C211.741 190.934 208.281 189.815 206.491 189.809C205.257 189.805 203.911 189.902 202.866 190.559C202.111 191.033 201.056 191.811 201.241 192.684C201.35 193.194 202.616 193.434 202.616 193.434" stroke="black" stroke-linecap="round" stroke-linejoin="round"/>
<path d="M202.315 199.13C203.392 199.465 201.505 201.322 202.255 201.801C203.587 202.649 204.964 199.349 206.503 199.703C207.484 199.929 207.418 201.717 208.354 202.088C209.326 202.474 210.029 201.131 211.454 201.601C211.537 204.567 209.089 206.651 208.533 210.608C208.091 211.447 207.723 211.781 207.209 211.588C206.092 211.168 206.503 209.769 206.448 208.091C205.565 208.697 206.325 212.75 204.578 212.49C202.317 212.155 204.394 207.579 204.394 206.414C203.843 207.392 204.24 211.035 202.51 210.764C200.272 210.414 202.518 206.274 202.408 204.736C201.801 205.528 201.394 209.276 199.862 208.81C198.385 208.36 200.07 205.343 200.014 204.178C199.407 204.55 199.134 206.208 198.372 205.949C196.872 205.439 197.149 202.593 197.932 201.216C198.732 199.809 200.568 198.587 202.315 199.13H202.315Z" fill="#AAAAAA" stroke="black" stroke-linecap="round" stroke-linejoin="round"/>
<path d="M202.226 199.53C199.363 201.184 199.771 202.952 199.99 203.921" stroke="black" stroke-linecap="round" stroke-linejoin="round"/>
<path d="M203.333 202.004C202.059 202.921 202.115 203.764 202.296 204.6" stroke="black" stroke-linecap="round" stroke-linejoin="round"/>
<path d="M206.426 200.423L204.448 206.361" stroke="black" stroke-linecap="round" stroke-linejoin="round"/>
<path d="M208.451 202.254C208.396 202.879 207.892 204.433 207.552 205.505C207.286 206.342 206.495 207.234 206.662 207.984" stroke="black" stroke-linecap="round" stroke-linejoin="round"/>
<path d="M118.268 122.951C118.268 122.951 121.024 125.392 122.74 125.854C125.515 126.601 128.501 125.804 131.349 125.426C134.099 125.062 136.852 124.545 139.481 123.659C141.329 123.035 143.272 122.417 144.784 121.184C145.928 120.251 147.425 117.629 147.425 117.629C147.425 117.629 146.867 122.83 146.552 125.426C146.223 128.14 145.475 130.825 145.491 133.558C145.511 136.891 146.905 143.458 146.905 143.458C146.905 143.458 144.316 138.809 142.663 136.74C141.726 135.568 139.481 133.558 139.481 133.558C139.481 133.558 138.901 137.826 138.42 139.922C137.953 141.957 136.652 145.932 136.652 145.932C136.652 145.932 133.005 143.43 131.703 141.69C130.154 139.62 128.521 134.619 128.521 134.619C128.521 134.619 125.666 138.844 124.278 140.983C122.836 143.204 120.035 147.7 120.035 147.7C120.035 147.7 118.923 138.994 118.621 134.619C118.353 130.737 118.268 122.951 118.268 122.951V122.951Z" stroke="black" stroke-linecap="round" stroke-linejoin="round"/>
<path d="M132.01 195.853C132.01 199.244 129.261 201.994 125.869 201.994C122.477 201.994 119.728 199.244 119.728 195.853C119.728 192.461 122.477 189.712 125.869 189.712C129.261 189.712 132.01 192.461 132.01 195.853Z" fill="#FFFFFB" stroke="black" stroke-linecap="round" stroke-linejoin="round"/>
<path d="M138.512 231.856C138.512 235.314 135.655 238.118 132.131 238.118C128.606 238.118 125.749 235.314 125.749 231.856C125.749 228.398 128.606 225.595 132.131 225.595C135.655 225.595 138.512 228.398 138.512 231.856Z" fill="#FFFFFB" stroke="black" stroke-linecap="round" stroke-linejoin="round"/>
<path d="M187.4 256.661C187.4 259.587 184.974 261.959 181.982 261.959C178.989 261.959 176.563 259.587 176.563 256.661C176.563 253.735 178.989 251.363 181.982 251.363C184.974 251.363 187.4 253.735 187.4 256.661Z" fill="#FFFFFB" stroke="black" stroke-linecap="round" stroke-linejoin="round"/>
<path d="M129.602 96.0301C129.602 96.0301 126.25 90.1296 126.23 86.8787C126.214 84.2382 127.405 81.6039 128.879 79.4131C130.752 76.6298 133.585 74.5504 136.398 72.7227C138.229 71.5331 140.199 70.2936 142.366 70.0209C143.741 69.8478 145.338 69.9295 146.46 70.7434C147.564 71.5449 148.386 74.3558 148.386 74.3558C148.386 74.3558 149.414 73.2614 149.925 72.7113C150.458 72.1376 150.735 71.0231 151.517 70.9842C152.482 70.9361 153.323 72.0144 153.684 72.9108C154.076 73.8814 153.444 76.0415 153.444 76.0415L154.889 77.2457C154.889 77.2457 147.406 81.754 143.811 84.2296C141.166 86.0507 138.57 87.9526 136.104 90.0095C133.836 91.9016 129.602 96.0301 129.602 96.0301Z" stroke="black" stroke-linecap="round" stroke-linejoin="round"/>
<path d="M131.051 88.0943C130.589 87.0997 130.359 86.4582 130.399 85.5997C130.434 84.8623 130.806 84.9299 131.156 83.5186C132.601 84.4819 133.404 85.8521 134.806 85.6746C135.932 85.532 136.906 84.3591 137.214 83.2663C137.307 82.9361 137.145 82.563 136.973 82.2656C136.265 81.0336 134.935 80.1218 133.892 79.3191C135.096 80.2824 136.116 81.6387 137.553 82.2579C138.192 82.5335 139.049 82.939 139.622 82.5439C140.504 81.9362 140.528 80.4684 140.345 79.4131C140.101 78.0041 138.753 77.0049 138.031 75.8007C139.235 77.326 140.334 79.3319 142.181 80.0339C142.811 80.2733 143.66 80.3006 144.198 79.8948C144.796 79.4442 145.035 78.5286 144.962 77.7839C144.769 75.8037 143.008 74.1952 141.884 72.67C143.249 74.2755 144.091 76.8236 146.125 77.4865C146.828 77.7159 147.797 77.5545 148.292 77.0049C148.942 76.2847 148.467 75.0782 148.627 74.1149C149.109 75.1585 149.303 76.5162 150.219 77.2457C150.737 77.6582 151.503 77.5668 152.145 77.7273" stroke="black" stroke-linecap="round" stroke-linejoin="round"/>
<path d="M262.621 222.08C260.359 227.14 260.412 231.816 259.793 234.999C262.01 233.225 264.684 232.457 267.334 228.518C269.009 232.172 268.579 235.825 269.522 239.478C271.835 236.947 274.513 234.598 275.819 230.968C276.938 231.191 278.057 231.415 279.176 231.638C278.771 235.857 280.563 238.612 281.256 242.099C282.788 238.328 284.594 235.929 285.852 230.785C283.848 230.669 281.79 231.457 279.75 231.351C277.865 231.253 275.979 230.871 274.197 230.249C272.074 229.507 270.046 228.441 268.199 227.158C266.134 225.724 264.359 223.589 262.621 222.08V222.08Z" stroke="black" stroke-linecap="round" stroke-linejoin="round"/>
<path d="M252.148 234.194C252.361 236.481 252.756 238.759 252.788 241.057C252.816 242.951 252.544 244.839 252.422 246.73" fill="#AA0000" fill-opacity="0.294964"/>
<path d="M257.089 235.932C257.547 237.671 258.231 239.365 258.462 241.148C258.72 243.144 258.462 245.174 258.462 247.187" fill="#AA0000" fill-opacity="0.294964"/>
<path d="M123.571 119.062C123.571 119.062 120.481 119.821 119.328 120.83C118.737 121.348 117.985 122.099 118.143 122.869C118.401 124.133 120.074 124.638 121.242 125.184C122.386 125.719 124.929 126.059 124.929 126.059L124.992 119.621L123.571 119.062Z" fill="black" stroke="black" stroke-linecap="round" stroke-linejoin="round"/>
<path d="M124.985 119.664V126.166C124.985 126.166 127.476 126.197 128.708 126.041C131.519 125.683 134.261 124.895 137.006 124.189C138.433 123.822 139.889 123.519 141.249 122.951C142.368 122.484 143.412 121.844 144.431 121.184C144.866 120.901 145.385 120.679 145.677 120.25C146.156 119.545 146.352 117.784 146.352 117.784L146.425 114.779C146.425 114.779 140.698 117.384 137.713 118.355C135.348 119.124 132.944 119.93 130.465 120.123C128.638 120.266 124.985 119.664 124.985 119.664L124.985 119.664Z" stroke="black" stroke-linecap="round" stroke-linejoin="round"/>
<path d="M132.398 119.84L132.545 125.277L132.398 119.84Z" fill="#FFAAAA"/>
<path d="M132.398 119.84L132.545 125.277" stroke="black" stroke-linecap="round" stroke-linejoin="round"/>
<path d="M135.272 119.152L135.42 124.277L135.272 119.152Z" fill="#FFAAAA"/>
<path d="M135.272 119.152L135.42 124.277" stroke="black" stroke-linecap="round" stroke-linejoin="round"/>
<path d="M138.147 118.402L138.294 123.84L138.147 118.402Z" fill="#FFAAAA"/>
<path d="M138.147 118.402L138.294 123.84" stroke="black" stroke-linecap="round" stroke-linejoin="round"/>
<path d="M141.209 117.527L141.356 122.965L141.209 117.527Z" fill="#FFAAAA"/>
<path d="M141.209 117.527L141.356 122.965" stroke="black" stroke-linecap="round" stroke-linejoin="round"/>
<path d="M143.725 116.287L143.74 121.277L143.725 116.287Z" fill="#FFAAAA"/>
<path d="M143.725 116.287L143.74 121.277" stroke="black" stroke-linecap="round" stroke-linejoin="round"/>
<path d="M146.11 142.927C146.11 142.927 145.91 147.967 146.287 150.263C146.504 151.587 148.725 151.759 149.343 152.972C149.952 154.168 149.028 155.839 149.734 156.981C150.3 157.897 151.735 157.912 152.471 158.698C153.193 159.469 153.449 160.573 153.976 161.489C155.185 163.586 156.709 165.504 157.777 167.676C158.473 169.09 159.066 170.569 159.457 172.095C159.722 173.133 159.516 174.277 159.898 175.277C160.709 177.4 163.699 180.934 163.699 180.934C163.699 180.934 158.146 182.295 155.391 183.056C151.895 184.02 148.334 184.818 144.961 186.149C143.122 186.875 141.337 187.758 139.658 188.801C138.371 189.599 136.034 191.541 136.034 191.541C136.034 191.541 133.274 186.489 132.41 183.763C131.605 181.223 131.901 178.402 130.995 175.896C129.96 173.03 128.026 170.572 126.488 167.941C125.48 166.218 124.21 164.636 123.394 162.815C122.7 161.267 122.195 159.622 121.891 157.953C121.538 156.008 121.708 154.001 121.538 152.031C121.38 150.2 120.919 146.551 120.919 146.551C122.783 142.578 124.462 138.582 128.521 134.884C128.521 134.884 129.975 139.377 131.349 141.248C132.72 143.116 136.564 145.844 136.564 145.844C136.564 145.844 137.928 141.694 138.42 139.568C138.858 137.676 137.533 134.386 139.392 133.823C141.407 133.213 142.498 136.708 143.723 138.419C144.713 139.802 146.11 142.927 146.11 142.927Z" fill="black" stroke="black" stroke-linecap="round" stroke-linejoin="round"/>
<path d="M137.241 197.309C137.241 197.309 139.32 202.547 139.741 205.309C140.194 208.274 139.325 211.338 139.741 214.309C140.078 216.712 141.521 218.892 141.741 221.309C141.977 223.893 140.991 229.059 140.991 229.059C140.991 229.059 146.96 227.48 149.491 225.809C152.492 223.828 154.616 220.757 156.991 218.059C158.754 216.056 160.282 213.857 161.991 211.809C164.187 209.179 168.741 204.059 168.741 204.059C168.741 204.059 162.582 202.528 159.491 201.809C157.995 201.46 156.385 201.456 154.991 200.809C152.996 199.882 151.814 197.548 149.741 196.809C147.464 195.996 144.906 196.429 142.491 196.559C140.726 196.654 137.241 197.309 137.241 197.309Z" fill="black" stroke="black" stroke-linecap="round" stroke-linejoin="round"/>
<path d="M174.991 230.309L174.741 239.559L164.241 240.559L164.741 253.059L151.241 254.059L149.741 266.809L139.241 267.059V284.559H145.241L145.991 272.059L155.991 272.559L156.741 259.309H169.991L171.241 245.309L181.241 244.309V227.809L174.991 230.309Z" fill="#AAAAA8" stroke="black" stroke-linecap="round" stroke-linejoin="round"/>
<path d="M178.241 232.559V239.559V232.559Z" fill="#AA0000" fill-opacity="0.28777"/>
<path d="M178.241 232.559V239.559" stroke="black" stroke-linecap="round" stroke-linejoin="round"/>
<path d="M175.991 242.059L168.491 242.559L175.991 242.059Z" fill="#AA0000" fill-opacity="0.28777"/>
<path d="M175.991 242.059L168.491 242.559" stroke="black" stroke-linecap="round" stroke-linejoin="round"/>
<path d="M167.241 246.809L167.741 252.559L167.241 246.809Z" fill="#AA0000" fill-opacity="0.28777"/>
<path d="M167.241 246.809L167.741 252.559" stroke="black" stroke-linecap="round" stroke-linejoin="round"/>
<path d="M165.491 256.559L157.991 256.809L165.491 256.559Z" fill="#AA0000" fill-opacity="0.28777"/>
<path d="M165.491 256.559L157.991 256.809" stroke="black" stroke-linecap="round" stroke-linejoin="round"/>
<path d="M153.241 260.059V267.559V260.059Z" fill="#AA0000" fill-opacity="0.28777"/>
<path d="M153.241 260.059V267.559" stroke="black" stroke-linecap="round" stroke-linejoin="round"/>
<path d="M149.991 269.559L144.741 269.809L149.991 269.559Z" fill="#AA0000" fill-opacity="0.28777"/>
<path d="M149.991 269.559L144.741 269.809" stroke="black" stroke-linecap="round" stroke-linejoin="round"/>
<path d="M142.991 272.809L142.491 280.059L142.991 272.809Z" fill="#AA0000" fill-opacity="0.28777"/>
<path d="M142.991 272.809L142.491 280.059" stroke="black" stroke-linecap="round" stroke-linejoin="round"/>
<path d="M106.863 278.186C104.284 277.519 101.325 277.475 98.9915 276.809C96.9915 278.392 94.9054 279.872 92.9915 281.559C88.791 285.26 84.8083 289.213 80.9915 293.309C78.0088 296.509 75.1259 299.816 72.4915 303.309C71.5868 304.508 70.8248 305.809 69.9915 307.059C71.2415 306.142 72.3667 305.025 73.7415 304.309C77.6445 302.275 82.0014 301.237 86.2415 300.059C92.651 298.277 99.2178 297.112 105.741 295.809C110.31 294.896 114.919 294.199 119.491 293.309C123.919 292.447 128.288 291.277 132.741 290.559C137.752 289.75 143.187 290.77 147.866 288.805C151.472 287.29 153.946 283.882 156.991 281.428C159.114 279.717 160.961 277.587 163.366 276.304C165.214 275.318 167.531 275.095 169.364 274.429C169.447 274.095 168.908 272.392 168.991 272.059C166.325 272.975 163.462 273.058 160.991 274.311C158.821 275.411 157.132 277.276 155.241 278.809C153.128 280.522 151.483 282.965 148.991 284.059C146.606 285.105 143.811 285.485 141.241 285.059C137.968 284.516 135.594 281.132 132.309 280.667C128.264 280.094 124.314 283.129 120.241 282.809C115.538 282.439 111.431 279.367 106.863 278.186Z" fill="#AAAAAA" stroke="black" stroke-linecap="round" stroke-linejoin="round"/>
<path d="M117.491 293.935C116.658 296.268 114.967 298.713 114.991 301.309C115.034 305.816 117.943 309.829 119.576 314.03C120.725 316.986 121.741 319.975 123.241 322.809C118.991 321.725 114.588 321.125 110.491 319.559C106.453 318.014 102.988 315.207 98.9915 313.559C95.3609 312.061 91.6469 310.472 87.7415 310.059C84.9955 309.768 82.1534 311.543 79.4915 310.809C78.3988 310.507 77.8652 308.957 76.7415 308.809C75.5907 308.657 74.6429 310.205 73.4915 310.059C72.0692 309.878 69.9952 308.992 69.9915 307.559C69.9867 305.708 72.8913 305.238 74.4915 304.309C77.1038 302.792 79.8699 301.496 82.7415 300.559C87.0294 299.158 91.5631 298.667 95.9915 297.809C103.14 296.423 110.325 295.102 117.491 293.935Z" fill="black" stroke="black" stroke-linecap="round" stroke-linejoin="round"/>
<path d="M198.873 327.228C200.906 326.612 199.12 322.851 200.123 320.978C201.847 317.757 204.774 315.163 207.873 313.228C210.265 311.734 213.079 310.861 215.873 310.478C218.685 310.092 221.799 309.782 224.373 310.978C226.458 311.946 228.342 313.816 229.123 315.978C229.548 317.156 227.668 319.385 228.873 319.728C231.957 320.604 234.16 314.336 233.373 311.228C233.152 310.354 231.395 310.587 231.123 309.728C230.673 308.306 232.857 307.045 232.742 305.559C232.6 303.735 230.141 302.632 229.992 300.809C229.723 297.523 233.463 294.855 233.492 291.559C233.521 288.106 231.803 284.748 229.992 281.809C228.786 279.851 223.928 278.696 225.242 276.809C225.967 275.767 227.847 279.21 228.742 278.309C231.817 275.21 226.469 269.502 223.492 266.309C220.797 263.419 216.723 262.107 212.992 260.809C210.028 259.778 206.871 259.296 203.742 259.059C201.413 258.882 199.045 258.926 196.742 259.309C193.049 259.922 189.547 261.387 185.992 262.559C182.462 263.722 178.632 264.321 175.492 266.309C173.002 267.884 171.107 270.279 169.242 272.559C168.861 273.023 168.718 273.688 168.245 274.059C166.502 275.426 163.902 275.187 161.992 276.309C156.847 279.329 153.849 285.435 148.492 288.059C143.076 290.711 136.673 290.47 130.742 291.559C126.335 292.367 121.908 293.059 117.492 293.809C116.658 296.475 115.182 299.021 114.992 301.809C114.772 305.031 115.462 308.342 116.6 311.365C117.973 315.011 120.915 317.868 122.742 321.309C124.456 324.537 125.112 328.338 127.242 331.309C129.165 333.992 133.905 334.809 134.492 338.059C134.558 338.425 133.97 338.687 133.992 339.059C134.216 342.843 137.908 345.571 140.242 348.559C142.892 351.951 146.169 354.808 148.992 358.059C150.545 359.847 151.591 362.144 153.492 363.559C154.361 364.206 156.454 363.726 156.492 364.809C156.536 366.112 153.886 365.61 152.992 366.559C152.556 367.02 152.172 367.678 152.242 368.309C152.445 370.148 156.334 371.161 155.492 372.809C154.847 374.07 152.274 371.839 151.242 372.809C150.268 373.723 151.742 375.704 150.992 376.809C150.112 378.104 147.726 377.591 146.742 378.809C145.127 380.805 145.285 383.758 144.992 386.309C144.887 387.219 145.488 388.288 144.992 389.059C143.356 391.598 138.377 390.269 136.742 392.809C136.065 393.86 136.379 395.362 136.742 396.559C137.264 398.284 138.186 400.148 139.742 401.059C140.679 401.608 141.928 401.532 142.992 401.309C144.45 401.002 145.452 399.354 146.935 399.2C149.007 398.985 151.012 400.147 152.935 400.95C155.31 401.942 157.255 403.851 159.685 404.7C161.599 405.369 163.958 404.637 165.685 405.7C167.005 406.512 167.209 408.502 168.435 409.45C169.941 410.614 171.842 411.681 173.742 411.559C175.454 411.448 177.308 410.498 178.242 409.059C179.288 407.444 178.138 405.135 178.742 403.309C179.141 402.101 179.992 401.086 180.742 400.059C181.647 398.817 182.838 397.802 183.742 396.559C184.775 395.137 186.129 393.779 186.492 392.059C186.752 390.825 185.679 389.53 185.992 388.309C186.759 385.305 190.559 383.765 191.492 380.809C192.645 377.152 191.615 373.125 191.242 369.309C190.912 365.941 190.178 362.622 189.492 359.309C188.622 355.113 187.681 350.925 186.492 346.809C185.123 342.074 182.933 337.59 181.742 332.809C180.864 329.286 180.902 325.573 179.992 322.059C179.436 319.915 178.492 317.892 177.742 315.809C179.742 314.225 181.74 312.641 183.742 311.059C185.324 309.808 187.111 308.779 188.492 307.309C189.394 306.348 189.992 305.142 190.742 304.059C190.742 305.475 190.395 306.935 190.742 308.309C191.151 309.931 191.585 312.068 193.123 312.728C193.996 313.102 195.227 311.281 195.873 311.978C197.556 313.796 193.475 316.502 193.373 318.978C193.32 320.27 193.727 321.607 194.373 322.728C195.432 324.565 196.843 327.842 198.873 327.228Z" fill="#AAAAAA" stroke="black" stroke-linecap="round" stroke-linejoin="round"/>
<path d="M142.991 401.059C140.926 403.568 139.962 406.89 139.241 410.059C138.89 411.605 139.116 413.228 138.991 414.809C138.866 416.396 138.768 417.991 138.491 419.559C138.013 422.265 136.87 424.836 136.491 427.559C136.124 430.201 135.957 432.906 136.241 435.559C136.278 435.9 136.52 436.216 136.491 436.559C136.36 438.146 134.955 439.391 134.585 440.94C134.256 442.316 133.806 443.865 134.335 445.177C135.379 447.767 138.143 449.347 140.491 450.859C142.62 452.23 145.01 453.307 147.491 453.809C149.207 454.155 151.082 454.365 152.741 453.809C154.778 453.126 157.885 449.927 157.885 449.927C157.885 449.927 155.815 447.975 155.517 446.665C155.162 445.108 155.792 443.44 156.373 441.953C157.362 439.418 159.453 437.455 160.741 435.059C162.861 431.117 163.769 426.54 166.241 422.809C167.121 421.482 168.671 420.673 169.491 419.309C170.537 417.57 171.054 415.54 171.491 413.559C171.672 412.741 172.065 411.831 171.741 411.059C171.181 409.723 169.332 409.406 168.354 408.337C167.34 407.229 167.098 405.43 165.854 404.587C163.496 402.987 160.113 403.927 157.491 402.809C155.174 401.82 153.649 399.3 151.241 398.559C149.808 398.117 148.177 398.124 146.741 398.559C145.304 398.994 143.946 399.899 142.991 401.059Z" stroke="black" stroke-linecap="round" stroke-linejoin="round"/>
<path d="M135.173 440.084C133.673 440.417 131.091 439.532 129.491 440.559C128.204 441.385 127.583 443.067 127.241 444.559C126.943 445.861 127.09 447.285 127.491 448.559C128.02 450.235 129.109 451.714 130.241 453.059C133.096 456.446 136.855 458.953 140.241 461.809C142.868 464.024 145.495 466.244 148.241 468.309C151.161 470.503 154.025 472.828 157.241 474.559C159.612 475.835 162.097 477.049 164.741 477.559C167.278 478.047 169.908 477.559 172.491 477.559C174.741 477.559 177.011 477.851 179.241 477.559C180.524 477.391 182.141 477.534 182.991 476.559C184.316 475.04 184.803 472.272 183.741 470.559C182.811 469.058 180.314 469.612 178.741 468.809C176.662 467.747 174.735 466.362 172.991 464.809C171.581 463.552 170.387 462.061 169.241 460.559C167.49 458.261 166.102 455.707 164.491 453.309C163.59 451.965 163.143 450.116 161.741 449.309C160.8 448.766 159.52 448.709 158.491 449.059C157.43 449.42 156.947 450.723 155.991 451.309C154.012 452.522 151.807 453.642 149.491 453.809C147.616 453.944 145.685 453.375 143.991 452.559C141.107 451.169 138.598 448.969 136.491 446.559C135.532 445.461 134.395 444.258 134.241 442.809C134.14 441.854 135.257 441.167 135.173 440.084Z" fill="#AAAAAA" stroke="black" stroke-linecap="round" stroke-linejoin="round"/>
<path d="M199.241 326.809C200.21 330.088 205.057 331.101 206.241 334.309C206.906 336.108 205.58 338.185 205.991 340.059C206.655 343.08 209.592 345.284 210.241 348.309C210.907 351.409 208.886 354.755 209.741 357.809C210.1 359.09 210.685 360.851 211.991 361.106C216.015 358.623 219.014 356.837 222.241 354.309C224.47 352.563 226.953 350.935 228.491 348.559C229.494 347.01 229.586 345.033 230.241 343.309C230.692 342.122 231.741 339.809 231.741 339.809C231.741 339.809 229.941 339.09 229.491 338.309C228.825 337.151 229.206 335.644 229.241 334.309C229.299 332.128 230.291 329.969 229.991 327.809C229.781 326.291 228.504 325.068 228.241 323.559C227.926 321.751 228.586 319.891 228.491 318.059C228.404 316.376 228.673 314.463 227.741 313.059C226.77 311.594 224.924 310.816 223.241 310.309C221.086 309.659 218.722 309.753 216.491 310.059C214.324 310.356 212.246 311.183 210.241 312.059C208.224 312.94 206.204 313.925 204.491 315.309C202.93 316.569 201.367 318.003 200.491 319.809C199.457 321.941 198.57 324.535 199.241 326.809Z" stroke="black" stroke-linecap="round" stroke-linejoin="round"/>
<path d="M212.491 361.309C210.403 362.968 208.44 365.065 207.491 367.559C206.928 369.04 206.845 370.774 207.241 372.309C207.635 373.831 208.63 375.197 209.741 376.309C211.409 377.976 213.42 379.644 215.741 380.059C217.753 380.418 219.865 379.617 221.741 378.809C223.886 377.885 225.538 376.088 227.491 374.809C230.684 372.718 233.917 370.683 237.241 368.809C240.099 367.198 243.088 365.834 245.991 364.309C249.424 362.505 253.201 361.215 256.241 358.809C258.51 357.013 260.613 354.852 261.991 352.309C263.186 350.105 264.019 347.565 263.991 345.059C263.972 343.319 263.536 341.45 262.491 340.059C261.478 338.709 259.871 337.748 258.241 337.309C256.55 336.853 254.721 337.281 252.991 337.559C251.454 337.806 249.91 338.168 248.491 338.809C246.406 339.751 244.59 341.21 242.741 342.559C239.965 344.583 237.53 347.052 234.741 349.059C231.458 351.422 228.03 353.598 224.491 355.559C220.612 357.708 215.964 358.549 212.491 361.309Z" fill="#AAAAAA" stroke="black" stroke-linecap="round" stroke-linejoin="round"/>
<path d="M212.085 361.415L212.741 360.309C212.741 360.309 219.718 355.493 222.991 352.809C225.089 351.088 227.485 349.565 228.991 347.309C230.075 345.686 229.944 343.454 230.991 341.809C231.308 341.312 231.708 340.809 232.241 340.559C233.909 339.778 235.985 340.611 237.741 340.059C239.023 339.655 240.002 338.577 241.241 338.059C243.237 337.224 245.367 336.717 247.491 336.309C249.796 335.866 252.197 335.068 254.491 335.559C255.624 335.801 257.491 337.309 257.491 337.309C257.491 337.309 252.896 337.788 250.741 338.559C248.143 339.488 245.807 341.057 243.491 342.559C241.512 343.842 239.72 345.391 237.843 346.819C235.886 348.308 233.941 349.811 231.991 351.309C229.824 352.974 227.873 354.966 225.491 356.309C222.687 357.889 219.504 358.674 216.491 359.809C215.028 360.36 212.085 361.415 212.085 361.415Z" fill="#AAAAAA" stroke="black" stroke-linecap="round" stroke-linejoin="round"/>
<path d="M209.274 105.149C209.274 105.149 203.745 101.022 201.353 98.5563C198.956 96.0861 198.083 91.9321 194.989 90.4245C193.188 89.547 190.857 89.7294 188.978 90.4245C186.94 91.1785 185.065 92.7574 184.029 94.6672C183.178 96.2345 182.794 98.2668 183.321 99.9705C183.79 101.485 185.672 102.156 186.503 103.506C187.697 105.444 188.187 107.736 188.978 109.87C189.717 111.862 190.689 113.796 191.1 115.88C191.556 118.196 191.394 120.592 191.453 122.951C191.465 123.423 191.453 124.366 191.453 124.366L195.696 122.598C195.696 122.598 195.847 119.761 195.696 118.355C195.4 115.597 194.797 112.858 193.928 110.224C193.119 107.769 191.998 105.414 190.746 103.152C189.717 101.294 187.001 99.9634 187.211 97.8491C187.326 96.6882 188.561 95.6857 189.685 95.3743C192.027 94.7257 194.799 95.7036 196.756 97.142C198.76 98.6139 198.924 101.712 200.646 103.506C202.352 105.285 206.79 107.62 206.79 107.62L209.274 105.149Z" fill="#AAAAAA" stroke="black" stroke-linecap="round" stroke-linejoin="round"/>
<path d="M202.767 105.274C199.85 105.613 197.076 107.227 194.143 107.08C190.981 106.922 188.254 104.277 185.089 104.213C182.402 104.159 179.786 105.286 177.311 106.334C173.905 107.777 171.153 110.506 167.765 111.991C165.511 112.979 160.694 114.113 160.694 114.113V119.769C160.694 119.769 166.139 116.986 168.826 115.527C171.562 114.04 174.273 112.509 176.958 110.931C179.101 109.671 180.861 107.401 183.322 107.042C187.423 106.443 191.198 110.14 195.342 110.224C197.515 110.267 199.582 109.268 201.706 108.809C203.44 108.435 206.914 107.72 206.914 107.72L209.06 105.116C209.06 105.116 204.851 105.031 202.767 105.274Z" fill="#AAAAAA" stroke="black" stroke-linecap="round" stroke-linejoin="round"/>
<path d="M189.103 108.207C189.103 108.207 182.106 109.792 179.298 111.862C177.338 113.308 176.21 115.637 174.836 117.648C173.762 119.221 172.603 120.778 171.893 122.545C171.227 124.204 170.708 127.777 170.708 127.777L166.704 123.659C166.704 123.659 169.703 120.49 170.947 118.709C172.88 115.94 173.258 111.977 175.897 109.87C178.499 107.792 185.477 107.037 185.477 107.037L189.103 108.207Z" fill="#AAAAAA" stroke="black" stroke-linecap="round" stroke-linejoin="round"/>
<path d="M186.15 110.577C183.546 112.28 180.464 113.653 178.725 116.234C178.065 117.214 178.175 118.536 177.794 119.655C177.288 121.14 176.002 124.007 176.002 124.007L178.725 125.78C178.725 125.78 180.444 123.218 181.066 121.815C181.8 120.161 181.662 118.127 182.681 116.631C184.282 114.28 189.332 111.284 189.332 111.284V108.809C189.332 108.809 187.165 109.913 186.15 110.577Z" fill="#AAAAAA" stroke="black" stroke-linecap="round" stroke-linejoin="round"/>
<path d="M134.72 322.71C139.354 324.286 143.732 327.633 148.624 327.437C153.063 327.26 156.552 323.243 160.859 322.154C163.926 321.378 167.366 322.469 170.314 321.32C173.147 320.215 175.134 317.612 177.544 315.758" stroke="black" stroke-linecap="round" stroke-linejoin="round"/>
<path d="M187.277 278.773C186.443 282.666 185.193 286.493 184.774 290.453C184.471 293.31 183.605 296.448 184.774 299.073C185.789 301.352 188.482 302.41 190.336 304.079" stroke="black" stroke-linecap="round" stroke-linejoin="round"/>
<path d="M195.897 289.618C194.507 291.936 192.691 294.046 191.726 296.57C190.85 298.863 190.799 301.39 190.336 303.8" stroke="black" stroke-linecap="round" stroke-linejoin="round"/>
<path d="M177.822 301.02C178.471 302.874 178.405 305.168 179.769 306.581C181.358 308.229 184.033 308.25 186.165 309.084" stroke="black" stroke-linecap="round" stroke-linejoin="round"/>
<path d="M210.635 265.147C212.026 265.333 213.487 265.228 214.807 265.704C215.629 266 216.29 266.63 217.031 267.094" stroke="black" stroke-linecap="round" stroke-linejoin="round"/>
<path d="M212.304 270.709C214.529 270.802 216.91 270.161 218.978 270.987C220.808 271.719 221.944 273.583 223.427 274.88" stroke="black" stroke-linecap="round" stroke-linejoin="round"/>
<path d="M218.422 296.57C220.646 297.219 222.938 297.671 225.096 298.517C226.06 298.895 226.95 299.444 227.876 299.907" stroke="black" stroke-linecap="round" stroke-linejoin="round"/>
<path d="M222.315 306.025C223.983 306.303 225.765 306.194 227.32 306.859C228.172 307.224 228.803 307.972 229.545 308.528" stroke="black" stroke-linecap="round" stroke-linejoin="round"/>
<path d="M158.466 368.751C159.671 369.772 160.721 371.013 162.083 371.812C163.45 372.614 165.051 372.925 166.535 373.482" fill="#5555AA" fill-opacity="0.255396"/>
<path d="M158.466 368.751C159.671 369.772 160.721 371.013 162.083 371.812C163.45 372.614 165.051 372.925 166.535 373.482" stroke="black" stroke-linecap="round" stroke-linejoin="round"/>
<path d="M161.527 364.299C162.825 364.763 164.046 365.599 165.422 365.69C166.748 365.778 168.128 365.445 169.318 364.855C170.085 364.476 170.909 363.963 171.266 363.186C171.499 362.68 171.266 362.073 171.266 361.516" fill="#5555AA" fill-opacity="0.255396"/>
<path d="M161.527 364.299C162.825 364.763 164.046 365.599 165.422 365.69C166.748 365.778 168.128 365.445 169.318 364.855C170.085 364.476 170.909 363.963 171.266 363.186C171.499 362.68 171.266 362.073 171.266 361.516" stroke="black" stroke-linecap="round" stroke-linejoin="round"/>
<path d="M158.187 373.76C158.744 374.595 159.195 375.51 159.857 376.265C160.507 377.006 161.341 377.563 162.083 378.213" fill="#5555AA" fill-opacity="0.255396"/>
<path d="M158.187 373.76C158.744 374.595 159.195 375.51 159.857 376.265C160.507 377.006 161.341 377.563 162.083 378.213" stroke="black" stroke-linecap="round" stroke-linejoin="round"/>
<path d="M152.9 376.265C154.013 376.914 155.166 377.5 156.239 378.213C157.012 378.725 157.724 379.326 158.466 379.882" fill="#5555AA" fill-opacity="0.255396"/>
<path d="M152.9 376.265C154.013 376.914 155.166 377.5 156.239 378.213C157.012 378.725 157.724 379.326 158.466 379.882" stroke="black" stroke-linecap="round" stroke-linejoin="round"/>
<path d="M174.605 399.918C175.162 400.938 175.61 402.025 176.275 402.979C176.839 403.787 177.574 404.463 178.223 405.205" fill="#5555AA" fill-opacity="0.255396"/>
<path d="M174.605 399.918C175.162 400.938 175.61 402.025 176.275 402.979C176.839 403.787 177.574 404.463 178.223 405.205" stroke="black" stroke-linecap="round" stroke-linejoin="round"/>
<path d="M143.161 403.814C145.387 404.741 147.49 406.052 149.839 406.596C152.827 407.289 155.968 407.435 159.022 407.153C160.926 406.977 162.732 406.225 164.588 405.762" stroke="black" stroke-linecap="round" stroke-linejoin="round"/>
<path d="M142.326 410.214C144.459 414.573 146.247 419.12 148.726 423.293C150.527 426.324 152.51 429.28 154.848 431.919C155.762 432.951 156.889 433.774 157.909 434.702" stroke="black" stroke-linecap="round" stroke-linejoin="round"/>
<path d="M140.656 420.51C143.068 422.087 145.102 424.517 147.891 425.241C150.412 425.895 153.157 425.318 155.683 424.684C159.428 423.744 162.732 421.53 166.257 419.953" stroke="black" stroke-linecap="round" stroke-linejoin="round"/>
<path d="M137.873 433.311C138.801 435.629 139.193 438.243 140.656 440.267C142.006 442.135 143.962 443.544 145.943 444.72C147.484 445.634 149.283 446.018 150.952 446.668" stroke="black" stroke-linecap="round" stroke-linejoin="round"/>
<path d="M137.039 442.215C140.192 442.215 143.403 442.812 146.5 442.215C148.462 441.837 150.23 440.779 152.065 439.989C153.285 439.464 154.477 438.876 155.683 438.319" stroke="black" stroke-linecap="round" stroke-linejoin="round"/>
<path d="M207.122 332.001C209.004 329.769 210.793 327.455 212.768 325.305C214.904 322.98 217.233 320.841 219.465 318.609C220.471 317.602 221.33 316.421 222.485 315.589C223.437 314.902 224.585 314.538 225.636 314.013" stroke="black" stroke-linecap="round" stroke-linejoin="round"/>
<path d="M205.809 317.033C207.779 316.945 209.747 316.751 211.718 316.77C213.779 316.79 215.872 316.738 217.889 317.164C220.49 317.714 223.223 318.358 225.373 319.922C226.003 320.38 226.336 321.147 226.818 321.76" stroke="black" stroke-linecap="round" stroke-linejoin="round"/>
<path d="M208.829 333.052C211.061 333.096 213.311 332.902 215.526 333.183C218.917 333.613 222.419 334.074 225.505 335.547C226.603 336.071 227.43 337.035 228.393 337.779" stroke="black" stroke-linecap="round" stroke-linejoin="round"/>
<path d="M227.474 331.476C225.242 332.789 222.881 333.904 220.778 335.415C218.661 336.936 216.57 338.561 214.869 340.536C213.483 342.146 212.593 344.125 211.455 345.919" stroke="black" stroke-linecap="round" stroke-linejoin="round"/>
<path d="M132.674 445.183C132.018 445.315 131.372 445.804 130.967 446.365C130.328 447.253 130.267 448.203 130.048 449.516" stroke="black" stroke-linecap="round" stroke-linejoin="round"/>
<path d="M135.957 449.122C135.257 449.254 134.647 449.636 134.25 450.173C133.631 451.009 133.593 451.967 133.462 453.193" stroke="black" stroke-linecap="round" stroke-linejoin="round"/>
<path d="M141.34 453.324C140.64 453.587 139.706 454.258 139.239 455.031C138.778 455.795 138.889 456.475 138.714 457.657" stroke="black" stroke-linecap="round" stroke-linejoin="round"/>
<path d="M145.411 456.475C145.017 456.782 144.489 456.968 144.229 457.394C143.487 458.611 143.704 460.195 143.441 461.596" stroke="black" stroke-linecap="round" stroke-linejoin="round"/>
<path d="M150.794 461.333C150.356 461.421 149.769 462.002 149.481 462.515C148.783 463.758 148.956 465.01 148.693 466.717" stroke="black" stroke-linecap="round" stroke-linejoin="round"/>
<path d="M155.389 467.111C155.039 467.417 154.618 467.816 154.47 468.292C154.249 469.004 154.514 469.693 154.602 470.524" stroke="black" stroke-linecap="round" stroke-linejoin="round"/>
<path d="M150.925 457.263C152.982 456.825 155.05 456.434 157.096 455.95C158.109 455.71 159.084 455.295 160.116 455.162C161.158 455.029 162.217 455.162 163.268 455.162" stroke="black" stroke-linecap="round" stroke-linejoin="round"/>
<path d="M154.208 461.202C155.608 460.852 156.982 460.366 158.409 460.152C160.056 459.905 161.736 459.979 163.399 459.889C164.187 459.846 164.974 459.802 165.762 459.758" stroke="black" stroke-linecap="round" stroke-linejoin="round"/>
<path d="M157.49 465.929C158.891 465.623 160.278 465.246 161.692 465.01C163.561 464.698 165.45 464.515 167.338 464.353C168.124 464.286 168.913 464.266 169.701 464.222" stroke="black" stroke-linecap="round" stroke-linejoin="round"/>
<path d="M163.005 468.161C164.493 467.855 165.958 467.396 167.469 467.242C169.167 467.069 170.883 467.242 172.59 467.242" stroke="black" stroke-linecap="round" stroke-linejoin="round"/>
<path d="M163.005 470.656C162.874 471.137 162.625 471.601 162.611 472.1C162.594 472.727 162.874 473.326 163.005 473.938" stroke="black" stroke-linecap="round" stroke-linejoin="round"/>
<path d="M154.864 454.768C155.433 456.782 157.093 458.822 158.278 460.808C158.994 462.007 159.484 463.406 160.51 464.353C162.035 465.761 164.273 466.13 166.025 467.242C167.37 468.096 169.045 468.818 169.833 470.131" stroke="black" stroke-linecap="round" stroke-linejoin="round"/>
<path d="M158.935 453.455C160.073 454.681 161.368 455.777 162.348 457.132C163.463 458.671 163.996 460.578 165.106 462.121C165.938 463.278 166.908 464.351 167.994 465.272C168.911 466.05 169.967 466.652 171.014 467.242C172.072 467.837 173.4 468 174.297 468.818C174.485 468.989 174.559 469.255 174.691 469.474" stroke="black" stroke-linecap="round" stroke-linejoin="round"/>
<path d="M171.146 471.181C171.496 471.838 172.037 472.424 172.196 473.151C172.355 473.879 172.109 474.639 172.065 475.383" stroke="black" stroke-linecap="round" stroke-linejoin="round"/>
<path d="M177.054 470.525C177.536 471.181 178.245 471.72 178.499 472.494C178.757 473.284 178.499 474.157 178.499 474.989" stroke="black" stroke-linecap="round" stroke-linejoin="round"/>
<path d="M252.236 341.479C244.722 346.218 238.24 350.873 232.076 356.612" stroke="black" stroke-linecap="round" stroke-linejoin="round"/>
<path d="M226.991 357.559C220.385 361.642 215.818 365.725 211.741 369.809" stroke="black" stroke-linecap="round" stroke-linejoin="round"/>
<path d="M218.491 361.059C216.491 362.392 214.143 363.312 212.491 365.059C211.362 366.253 210.672 367.812 209.991 369.309C209.664 370.028 209.491 370.809 209.241 371.559" stroke="black" stroke-linecap="round" stroke-linejoin="round"/>
<path d="M256.869 340.979C254.88 341.428 252.707 343.243 250.741 344.559C248.913 345.783 247.241 347.225 245.491 348.559" stroke="black" stroke-linecap="round" stroke-linejoin="round"/>
<path d="M259.241 341.809C258.075 342.725 254.355 345.636 252.71 346.314L259.241 341.809Z" fill="#AA5500" fill-opacity="0.233813"/>
<path d="M259.241 341.809C258.075 342.725 254.355 345.636 252.71 346.314" stroke="black" stroke-linecap="round" stroke-linejoin="round"/>
<path d="M261.093 343.873C258.213 347.007 253.658 350.142 249.741 352.559" stroke="black" stroke-linecap="round" stroke-linejoin="round"/>
<path d="M260.768 346.687C258.027 350.63 254.455 352.615 250.869 355.006C248.722 356.437 244.741 358.225 243.991 358.559" stroke="black" stroke-linecap="round" stroke-linejoin="round"/>
<path d="M257.991 353.559C255.644 355.61 253.423 357.21 250.949 358.755C248.332 360.39 245.158 362.248 242.741 363.037" stroke="black" stroke-linecap="round" stroke-linejoin="round"/>
<path d="M226.741 360.559C220.744 363.748 216.318 368.116 211.991 372.559" stroke="black" stroke-linecap="round" stroke-linejoin="round"/>
<path d="M226.061 364.75C221.67 366.874 217.137 370.673 212.991 374.059" stroke="black" stroke-linecap="round" stroke-linejoin="round"/>
<path d="M224.741 368.559C221.241 370.603 218.3 372.853 214.88 375.66" stroke="black" stroke-linecap="round" stroke-linejoin="round"/>
<path d="M225.241 371.809C222.991 373.142 219.704 375.433 217.454 376.207" stroke="black" stroke-linecap="round" stroke-linejoin="round"/>
<path d="M228.209 372.192C225.959 373.757 223.431 375.654 220.741 376.809C219.237 377.454 217.415 378.599 215.991 378.059" stroke="black" stroke-linecap="round" stroke-linejoin="round"/>
<path d="M210.241 373.559C210.659 375.008 212.72 376.8 214.199 377.638" stroke="black" stroke-linecap="round" stroke-linejoin="round"/>
<path d="M252.741 339.559C254.158 339.392 255.568 338.967 256.991 339.059C258.363 339.146 259.931 339.184 260.991 340.059C262.056 340.936 262.555 342.442 262.741 343.809C262.947 345.315 262.442 346.856 261.991 348.309C261.583 349.626 260.825 350.809 260.241 352.059" stroke="black" stroke-linecap="round" stroke-linejoin="round"/>
<path d="M250.38 340.407C243.554 344.308 235.372 350.842 229.104 356.498" stroke="black" stroke-linecap="round" stroke-linejoin="round"/>
<path d="M132.113 89.4294L134.956 90.392L132.113 89.4294Z" fill="#FFAAAA"/>
<path d="M132.113 89.4294L134.956 90.392" stroke="black" stroke-linecap="round" stroke-linejoin="round"/>
<path d="M133.512 87.3211L138.066 88.5294L133.512 87.3211Z" fill="#FFAAAA"/>
<path d="M133.512 87.3211L138.066 88.5294" stroke="black" stroke-linecap="round" stroke-linejoin="round"/>
<path d="M139.19 83.1031L142.651 84.6L139.19 83.1031Z" fill="#FFAAAA"/>
<path d="M139.19 83.1031L142.651 84.6" stroke="black" stroke-linecap="round" stroke-linejoin="round"/>
<path d="M141.215 80.7878L145.732 82.9683L141.215 80.7878Z" fill="#FFAAAA"/>
<path d="M141.215 80.7878L145.732 82.9683" stroke="black" stroke-linecap="round" stroke-linejoin="round"/>
<path d="M144.759 79.0168L148.359 80.7983L144.759 79.0168Z" fill="#FFAAAA"/>
<path d="M144.759 79.0168L148.359 80.7983" stroke="black" stroke-linecap="round" stroke-linejoin="round"/>
<path d="M129.793 120.527L129.94 125.402L129.793 120.527Z" fill="#FFAAAA"/>
<path d="M129.793 120.527L129.94 125.402" stroke="black" stroke-linecap="round" stroke-linejoin="round"/>
<path d="M127.418 120.152L127.565 125.59L127.418 120.152Z" fill="#FFAAAA"/>
<path d="M127.418 120.152L127.565 125.59" stroke="black" stroke-linecap="round" stroke-linejoin="round"/>
<path d="M147.63 77.493L150.513 79.3244L147.63 77.493Z" fill="#FFAAAA"/>
<path d="M147.63 77.493L150.513 79.3244" stroke="black" stroke-linecap="round" stroke-linejoin="round"/>
<path d="M136.33 84.8277L140.372 86.344L136.33 84.8277Z" fill="#FFAAAA"/>
<path d="M136.33 84.8277L140.372 86.344" stroke="black" stroke-linecap="round" stroke-linejoin="round"/>
<path d="M31.2415 236.559C25.7015 236.559 21.2415 241.019 21.2415 246.559V261.559C21.2415 267.099 25.7015 271.559 31.2415 271.559C36.7815 271.559 41.2415 267.099 41.2415 261.559H36.2415C36.2415 264.329 34.0115 266.559 31.2415 266.559C28.4715 266.559 26.2415 264.329 26.2415 261.559V256.559H41.2415V251.559V246.559C41.2415 241.019 36.7815 236.559 31.2415 236.559ZM31.2415 241.559C34.0115 241.559 36.2415 243.789 36.2415 246.559V251.559H26.2415V246.559C26.2415 243.789 28.4715 241.559 31.2415 241.559Z" fill="black"/>
<path d="M331.241 386.559C336.781 386.559 341.241 382.099 341.241 376.559V361.559C341.241 356.019 336.781 351.559 331.241 351.559C325.701 351.559 321.241 356.019 321.241 361.559V376.559C321.241 382.099 325.701 386.559 331.241 386.559ZM331.241 381.559C328.471 381.559 326.241 379.329 326.241 376.559V361.559C326.241 358.789 328.471 356.559 331.241 356.559C334.011 356.559 336.241 358.789 336.241 361.559V376.559C336.241 379.329 334.011 381.559 331.241 381.559Z" fill="black"/>
<path d="M341.241 311.559H336.241V326.559H335.241L326.741 311.559H321.241L330.241 327.09C326.296 328.427 326.241 332.15 326.241 336.559C326.241 339.551 323.898 341.559 321.241 341.559V346.559C326.241 346.559 331.241 341.559 331.241 336.559C331.241 333.789 331.241 331.559 334.241 331.559H336.241V336.559V346.559H341.241C341.241 331.559 341.241 321.559 341.241 311.559Z" fill="black"/>
<path d="M331.241 306.559C336.781 306.559 341.241 302.099 341.241 296.559V281.559C341.241 276.019 336.781 271.559 331.241 271.559C325.701 271.559 321.241 276.019 321.241 281.559H326.241C326.241 278.789 328.471 276.559 331.241 276.559C334.011 276.559 336.241 278.789 336.241 281.559V286.559H321.241V291.559V296.559C321.241 302.099 325.701 306.559 331.241 306.559ZM331.241 301.559C328.471 301.559 326.241 299.329 326.241 296.559V291.559H336.241V296.559C336.241 299.329 334.011 301.559 331.241 301.559Z" fill="black"/>
<path d="M341.241 266.559V256.559V241.559V221.559H336.241V232.903C334.773 232.057 333.064 231.559 331.241 231.559C325.701 231.559 321.241 236.019 321.241 241.559V256.559C321.241 262.099 325.701 266.559 331.241 266.559C333.064 266.559 334.773 266.06 336.241 265.215V266.559H341.241ZM331.241 261.559C328.471 261.559 326.241 259.329 326.241 256.559V241.559C326.241 238.789 328.471 236.559 331.241 236.559C334.011 236.559 336.241 238.789 336.241 241.559V256.559C336.241 259.329 334.011 261.559 331.241 261.559Z" fill="black"/>
<path fill-rule="evenodd" clip-rule="evenodd" d="M331.241 511.559C339.526 511.559 346.241 504.843 346.241 496.559C346.241 488.274 339.526 481.559 331.241 481.559C322.957 481.559 316.241 488.274 316.241 496.559C316.241 504.843 322.957 511.559 331.241 511.559ZM331.241 506.559C325.719 506.559 321.241 502.081 321.241 496.559C321.241 491.036 325.719 486.559 331.241 486.559C336.764 486.559 341.241 491.036 341.241 496.559C341.241 502.081 336.764 506.559 331.241 506.559Z" fill="black"/>
<path fill-rule="evenodd" clip-rule="evenodd" d="M331.242 506.559L328.89 499.795L321.731 499.649L327.437 495.323L325.364 488.469L331.242 492.559L337.119 488.469L335.046 495.323L340.752 499.649L333.593 499.795L331.242 506.559Z" fill="black"/>
</svg>
