<svg width="362" height="543" viewBox="0 0 362 543" fill="none" xmlns="http://www.w3.org/2000/svg">
<path d="M330.383 1.88086H31.2722C14.7344 1.88086 1.32776 15.2876 1.32776 31.8254V510.937C1.32776 527.474 14.7344 540.881 31.2722 540.881H330.383C346.921 540.881 360.328 527.474 360.328 510.937V31.8254C360.328 15.2876 346.921 1.88086 330.383 1.88086Z" stroke="black" stroke-width="2.5"/>
<path d="M22.8278 71.3809V76.3809L20.8278 101.381H17.8278V106.381V111.381H22.8278V106.381H38.8278V111.381H43.8278V106.381V101.381H40.8278V71.3809H22.8278ZM27.8278 76.3809H35.8278V101.381H25.8278L27.8278 76.3809Z" fill="#FF5555"/>
<path d="M13.3278 116.381V121.381C15.9847 121.381 18.3278 123.388 18.3278 126.381C18.3278 130.79 18.3818 134.512 22.3278 135.85L13.3278 151.381H18.8278L27.3278 136.381H28.3278V151.381H33.3278V136.381H34.3278L42.8278 151.381H48.3278L39.3278 135.85C43.2733 134.512 43.3278 130.79 43.3278 126.381C43.3278 123.388 45.6709 121.381 48.3278 121.381V116.381C43.3278 116.381 38.3278 121.381 38.3278 126.381C38.3278 129.151 38.3278 131.381 35.3278 131.381H33.3278V126.381V116.381H28.3278V126.381V131.381H26.3278C23.5578 131.381 23.3278 129.151 23.3278 126.381C23.3278 121.381 18.3278 116.381 13.3278 116.381Z" fill="#FF5555"/>
<path d="M30.8278 156.381C25.2878 156.381 20.8278 160.841 20.8278 166.381V181.381C20.8278 186.921 25.2878 191.381 30.8278 191.381C36.3678 191.381 40.8278 186.921 40.8278 181.381V166.381C40.8278 160.841 36.3678 156.381 30.8278 156.381ZM30.8278 161.381C33.5978 161.381 35.8278 163.611 35.8278 166.381V181.381C35.8278 184.151 33.5978 186.381 30.8278 186.381C28.0578 186.381 25.8278 184.151 25.8278 181.381V166.381C25.8278 163.611 28.0578 161.381 30.8278 161.381Z" fill="#FF5555"/>
<path d="M20.8278 231.381H25.8278V216.381H26.8278L35.3278 231.381H40.8278L31.8278 215.85C35.7733 214.512 35.8278 210.79 35.8278 206.381C35.8278 203.388 38.1709 201.381 40.8278 201.381V196.381C35.8278 196.381 30.8278 201.381 30.8278 206.381C30.8278 209.151 30.8278 211.381 27.8278 211.381H25.8278V206.381V196.381H20.8278C20.8278 211.381 20.8278 221.381 20.8278 231.381Z" fill="#FF5555"/>
<path d="M20.8278 276.381V286.381V301.381V321.381H25.8278V310.037C27.2963 310.882 29.0052 311.381 30.8278 311.381C36.3678 311.381 40.8278 306.921 40.8278 301.381V286.381C40.8278 280.841 36.3678 276.381 30.8278 276.381C29.0052 276.381 27.2963 276.88 25.8278 277.725V276.381H20.8278ZM30.8278 281.381C33.5978 281.381 35.8278 283.611 35.8278 286.381V301.381C35.8278 304.151 33.5978 306.381 30.8278 306.381C28.0578 306.381 25.8278 304.151 25.8278 301.381V286.381C25.8278 283.611 28.0578 281.381 30.8278 281.381Z" fill="#FF5555"/>
<path fill-rule="evenodd" clip-rule="evenodd" d="M30.8278 31.3809C22.5435 31.3809 15.8278 38.0966 15.8278 46.3809C15.8278 54.6652 22.5435 61.3809 30.8278 61.3809C39.1121 61.3809 45.8278 54.6652 45.8278 46.3809C45.8278 38.0966 39.1121 31.3809 30.8278 31.3809ZM30.8278 36.3809C36.3507 36.3809 40.8278 40.858 40.8278 46.3809C40.8278 51.9037 36.3507 56.3809 30.8278 56.3809C25.3049 56.3809 20.8278 51.9037 20.8278 46.3809C20.8278 40.858 25.3049 36.3809 30.8278 36.3809Z" fill="#FF5555"/>
<path fill-rule="evenodd" clip-rule="evenodd" d="M30.8278 36.3809L33.1788 43.1448L40.3384 43.2905L34.632 47.6169L36.7057 54.4709L30.8278 50.3809L24.95 54.4709L27.0236 47.6169L21.3171 43.2905L28.4767 43.1448L30.8278 36.3809Z" fill="#FF5555"/>
<path d="M338.828 471.381V466.381L340.828 441.381H343.828V436.381V431.381H338.828V436.381H322.828V431.381H317.828V436.381V441.381H320.828V471.381H338.828ZM333.828 466.381H325.828V441.381H335.828L333.828 466.381Z" fill="#FF5555"/>
<path d="M348.328 426.381V421.381C345.671 421.381 343.328 419.374 343.328 416.381C343.328 411.972 343.274 408.25 339.328 406.912L348.328 391.381H342.828L334.328 406.381H333.328V391.381H328.328V406.381H327.328L318.828 391.381H313.328L322.328 406.912C318.382 408.25 318.328 411.972 318.328 416.381C318.328 419.374 315.985 421.381 313.328 421.381V426.381C318.328 426.381 323.328 421.381 323.328 416.381C323.328 413.611 323.328 411.381 326.328 411.381H328.328V416.381V426.381H333.328V416.381V411.381H335.328C338.098 411.381 338.328 413.611 338.328 416.381C338.328 421.381 343.328 426.381 348.328 426.381Z" fill="#FF5555"/>
<path d="M140.578 231.881C140.578 231.881 137.52 238.271 135.828 241.381C134.025 244.695 131.861 247.805 130.078 251.131C128.634 253.824 127.813 256.865 126.078 259.381C123.802 262.681 120.686 265.32 117.828 268.131C114.21 271.687 106.578 278.381 106.578 278.381C106.578 278.381 115.247 281.834 119.828 282.381C124.303 282.915 128.893 280.826 133.328 281.631C135.567 282.037 137.338 283.976 139.578 284.381C142.453 284.9 145.593 284.909 148.328 283.881C153.274 282.02 156.17 276.627 160.828 274.131C163.383 272.761 166.476 272.66 169.078 271.381C171.826 270.029 173.971 267.64 176.701 266.251C178.872 265.147 181.261 264.534 183.568 263.753C185.68 263.038 187.836 262.461 189.949 261.751C192.174 261.005 196.578 259.381 196.578 259.381C196.578 259.381 199.261 256.73 200.578 255.381C202.266 253.651 203.927 251.895 205.578 250.131C208.438 247.073 214.078 240.881 214.078 240.881L212.828 239.131C212.828 239.131 208.89 242.451 206.664 243.716C204.587 244.896 202.193 245.418 200.047 246.466C197.821 247.555 195.716 248.877 193.578 250.131C191.223 251.512 186.578 254.381 186.578 254.381L185.328 252.631C185.328 252.631 188.422 249.663 189.578 247.881C191.27 245.272 192.58 242.37 193.388 239.368C194.324 235.893 194.743 232.223 194.522 228.631C194.304 225.074 192.108 218.216 192.108 218.216C192.108 218.216 187.531 223.609 184.517 225.32C180.915 227.365 176.55 227.585 172.578 228.759C170.24 229.45 167.885 230.093 165.578 230.881C163.806 231.486 162.184 232.634 160.328 232.881C157.007 233.322 153.674 232.048 150.328 231.881C147.082 231.719 140.578 231.881 140.578 231.881Z" fill="#AA0000" stroke="black" stroke-linecap="round" stroke-linejoin="round"/>
<path d="M237.197 217.226C237.197 217.226 244.894 224.667 248.644 228.486C250.372 230.246 251.394 233.079 253.735 233.856C255.173 234.333 256.998 233.986 258.215 233.082C261.176 230.882 263.164 223.183 263.164 223.183C263.164 223.183 266.576 227.205 268.821 228.486C271.38 229.946 274.39 230.544 277.306 230.961C279.406 231.261 281.556 231.136 283.67 230.961C284.385 230.902 285.792 230.607 285.792 230.607C285.792 230.607 279.763 239.961 277.148 244.866C274.968 248.956 274.088 253.778 271.296 257.477C269.232 260.212 266.777 263.141 263.518 264.195C260.929 265.032 257.987 264.287 255.386 263.488C250.999 262.139 247.351 259.046 243.365 256.77C237.678 253.523 232.18 249.94 226.395 246.871C223.508 245.339 220.347 244.328 217.556 242.628C215.749 241.528 212.49 238.806 212.49 238.806C212.49 238.806 216.638 232.157 217.909 228.486C218.968 225.428 219.677 218.94 219.677 218.94C219.677 218.94 226.135 219.785 229.34 219.427C232.043 219.124 237.197 217.226 237.197 217.226Z" fill="#AA0000" stroke="black" stroke-linecap="round" stroke-linejoin="round"/>
<path d="M187.578 176.881C185.994 176.714 184.399 176.126 182.828 176.381C181.834 176.542 180.905 177.057 180.078 177.631C179.593 177.966 179.244 178.464 178.828 178.881C176.744 178.297 174.465 178.188 172.578 177.131C169.8 175.574 167.573 173.112 165.578 170.631C164.548 169.35 164.193 167.588 163.078 166.381C161.697 164.886 159.887 163.811 158.078 162.881C156.742 162.194 155.244 161.881 153.828 161.381C155.328 164.131 157.22 166.701 158.328 169.631C158.993 171.389 158.844 173.4 159.578 175.131C160.47 177.238 162.078 178.964 163.328 180.881C160.078 181.714 156.811 182.486 153.578 183.381C150.478 184.239 147.275 184.843 144.328 186.131C141.931 187.178 139.766 188.698 137.578 190.131C135.43 191.536 133.411 193.131 131.328 194.631C131.494 195.297 131.661 195.964 131.828 196.631C134.661 196.464 137.49 196.128 140.328 196.131C143.083 196.133 145.939 195.839 148.578 196.631C151.617 197.543 153.88 200.207 156.828 201.381C158.818 202.173 161 202.358 163.078 202.881C164.666 203.28 166.244 203.714 167.828 204.131C165.411 206.964 162.911 209.729 160.578 212.631C158.416 215.319 156.676 218.353 154.328 220.881C152.439 222.914 150.424 224.899 148.078 226.381C145.931 227.736 143.518 228.682 141.078 229.381C140.024 229.682 138.911 229.714 137.828 229.881C137.994 230.381 138.161 230.881 138.328 231.381C140.828 231.381 143.331 231.26 145.828 231.381C148.42 231.506 150.996 231.867 153.578 232.131C155.912 232.369 158.238 233.064 160.578 232.881C162.815 232.706 164.892 231.636 167.078 231.131C169.641 230.538 172.264 230.223 174.828 229.631C177.014 229.125 179.255 228.74 181.328 227.881C183.638 226.922 185.913 225.74 187.828 224.131C189.407 222.803 190.297 220.964 191.797 219.381C192.131 222.964 193.272 226.512 193.328 230.131C193.374 233.149 192.78 236.146 192.328 239.131C191.997 241.312 191.982 243.618 191.078 245.631C189.787 248.504 187.244 250.631 185.328 253.131C185.744 253.547 186.161 253.964 186.578 254.381C189.411 252.631 192.038 250.491 195.078 249.131C197.22 248.172 199.651 248.007 201.828 247.131C204.352 246.115 206.995 245.132 209.078 243.381C211.081 241.697 212.502 239.387 213.828 237.131C215.302 234.621 216.397 231.889 217.328 229.131C218.343 226.124 218.828 222.964 219.578 219.881C222.411 220.047 225.266 220.767 228.078 220.381C230.61 220.032 232.84 218.469 235.328 217.881C236.555 217.59 237.828 217.547 239.078 217.381C237.494 215.797 235.821 214.299 234.328 212.631C232.904 211.04 231.731 209.239 230.328 207.631C228.817 205.898 227.156 204.303 225.578 202.631C224.323 201.301 223.078 199.964 221.828 198.631" fill="#FFFF55"/>
<path d="M187.578 176.881C185.994 176.714 184.399 176.126 182.828 176.381C181.834 176.542 180.905 177.057 180.078 177.631C179.593 177.966 179.244 178.464 178.828 178.881C176.744 178.297 174.465 178.188 172.578 177.131C169.8 175.574 167.573 173.112 165.578 170.631C164.548 169.35 164.193 167.588 163.078 166.381C161.697 164.886 159.887 163.811 158.078 162.881C156.742 162.194 155.244 161.881 153.828 161.381C155.328 164.131 157.22 166.701 158.328 169.631C158.993 171.389 158.844 173.4 159.578 175.131C160.47 177.238 162.078 178.964 163.328 180.881C160.078 181.714 156.811 182.486 153.578 183.381C150.478 184.239 147.275 184.843 144.328 186.131C141.931 187.178 139.766 188.698 137.578 190.131C135.43 191.536 133.411 193.131 131.328 194.631C131.494 195.297 131.661 195.964 131.828 196.631C134.661 196.464 137.49 196.128 140.328 196.131C143.083 196.133 145.939 195.839 148.578 196.631C151.617 197.543 153.88 200.207 156.828 201.381C158.818 202.173 161 202.358 163.078 202.881C164.666 203.28 166.244 203.714 167.828 204.131C165.411 206.964 162.911 209.729 160.578 212.631C158.416 215.319 156.676 218.353 154.328 220.881C152.439 222.914 150.424 224.899 148.078 226.381C145.931 227.736 143.518 228.682 141.078 229.381C140.024 229.682 138.911 229.714 137.828 229.881C137.994 230.381 138.161 230.881 138.328 231.381C140.828 231.381 143.331 231.26 145.828 231.381C148.42 231.506 150.996 231.867 153.578 232.131C155.912 232.369 158.238 233.064 160.578 232.881C162.815 232.706 164.892 231.636 167.078 231.131C169.641 230.538 172.264 230.223 174.828 229.631C177.014 229.125 179.255 228.74 181.328 227.881C183.638 226.922 185.913 225.74 187.828 224.131C189.407 222.803 190.297 220.964 191.797 219.381C192.131 222.964 193.272 226.512 193.328 230.131C193.374 233.149 192.78 236.146 192.328 239.131C191.997 241.312 191.982 243.618 191.078 245.631C189.787 248.504 187.244 250.631 185.328 253.131C185.744 253.547 186.161 253.964 186.578 254.381C189.411 252.631 192.038 250.491 195.078 249.131C197.22 248.172 199.651 248.007 201.828 247.131C204.352 246.115 206.995 245.132 209.078 243.381C211.081 241.697 212.502 239.387 213.828 237.131C215.302 234.621 216.397 231.889 217.328 229.131C218.343 226.124 218.828 222.964 219.578 219.881C222.411 220.047 225.266 220.767 228.078 220.381C230.61 220.032 232.84 218.469 235.328 217.881C236.555 217.59 237.828 217.547 239.078 217.381C237.494 215.797 235.821 214.299 234.328 212.631C232.904 211.04 231.731 209.239 230.328 207.631C228.817 205.898 227.156 204.303 225.578 202.631C224.323 201.301 223.078 199.964 221.828 198.631" stroke="black" stroke-linecap="round" stroke-linejoin="round"/>
<path d="M207.48 138.683C207.48 138.683 209.884 135.893 211.015 134.441C212 133.176 213.383 132.087 213.844 130.552C214.59 128.066 213.673 125.362 213.49 122.773C213.273 119.703 213.826 116.407 212.606 113.581C211.862 111.856 210.266 110.623 208.894 109.338C207.973 108.477 205.889 107.04 205.889 107.04L208.894 104.919C208.894 104.919 210.455 106.348 211.369 106.864C213.838 108.256 216.93 108.35 219.324 109.869C221.541 111.275 222.993 113.633 224.981 115.349C227.398 117.436 230.309 118.938 232.582 121.182C234.344 122.922 235.788 124.967 237.178 127.016C238.631 129.157 240.03 131.363 241.067 133.734C242.426 136.842 243.566 140.102 244.072 143.456C244.548 146.603 244.514 149.851 244.072 153.002C243.834 154.702 242.997 156.27 242.658 157.952C242.365 159.406 242.128 162.371 242.128 162.371L236.471 163.609C236.471 163.609 235.933 158.417 235.587 155.831C235.279 153.526 235.181 151.167 234.526 148.936C234.036 147.266 232.405 144.163 232.405 144.163C232.405 144.163 231.339 147.993 230.284 149.644C229.005 151.645 227.391 153.582 225.334 154.77C224.282 155.378 221.799 155.654 221.799 155.654C221.799 155.654 218.439 152.9 217.379 151.058C216.31 149.199 215.844 147.003 215.611 144.871C215.4 142.934 215.965 139.037 215.965 139.037C215.965 139.037 213.874 140.215 212.96 140.981C211.171 142.481 208.187 146.108 208.187 146.108C208.187 146.108 207.598 143.176 207.48 141.689C207.4 140.69 207.48 138.683 207.48 138.683Z" fill="#AA0000" stroke="black" stroke-linecap="round" stroke-linejoin="round"/>
<path d="M291.328 158.131C295.359 158.633 299.367 160.598 302.328 163.381C305.453 166.319 307.403 170.505 308.578 174.631C310.09 179.939 309.835 185.671 309.368 191.171C308.807 197.79 307.866 204.602 305.078 210.631C302.706 215.759 299.151 220.494 294.828 224.131C290.664 227.634 285.759 231.29 280.328 231.631C275.986 231.903 271.689 229.556 268.078 227.131C265.174 225.18 262.646 222.469 261.004 219.381C259.393 216.353 258.949 212.791 258.578 209.381C258.144 205.403 258.392 201.358 258.828 197.381C259.29 193.157 260.006 188.919 261.328 184.881C262.557 181.125 264.362 177.559 266.328 174.131C267.941 171.317 269.581 168.43 271.868 166.131C274.225 163.762 277.006 161.695 280.078 160.381C283.594 158.877 287.533 157.658 291.328 158.131Z" fill="#FFAA55" stroke="black" stroke-linecap="round" stroke-linejoin="round"/>
<path d="M287.078 179.631C289.61 180.199 291.894 182.459 292.828 184.881C294.092 188.161 292.703 191.975 291.828 195.381C290.992 198.634 289.908 201.993 287.828 204.631C286.28 206.594 284.298 208.744 281.828 209.131C279.562 209.485 276.816 208.625 275.328 206.881C273.461 204.691 273.739 201.256 273.828 198.381C273.937 194.854 274.9 191.325 276.307 188.09C277.337 185.723 278.511 183.177 280.578 181.631C282.393 180.272 284.866 179.134 287.078 179.631Z" fill="#AA5500" stroke="black" stroke-linecap="round" stroke-linejoin="round"/>
<path d="M287.7 183.521C287.7 183.521 284.724 183.625 282.307 189.738C281.107 192.775 280.448 196.495 280.381 199.962C280.299 204.225 281.902 204.921 281.902 204.921" stroke="black" stroke-linecap="round" stroke-linejoin="round"/>
<path d="M287.512 181.504C287.512 181.504 284.051 181.183 280.497 188.667C279.445 190.882 278.484 196.138 278.301 199.972C278.014 205.964 281.578 206.689 281.578 206.689" stroke="black" stroke-linecap="round" stroke-linejoin="round"/>
<path d="M284.14 180.815C284.14 180.815 280.715 183.135 278.206 188.888C276.045 193.845 276.146 196.219 276.01 199.829C275.738 207.085 279.288 207.533 279.288 207.533" stroke="black" stroke-linecap="round" stroke-linejoin="round"/>
<path d="M278.225 164.759C278.225 164.759 275.402 166.5 274.169 167.598C273.359 168.319 272.006 170.031 272.006 170.031" stroke="black" stroke-linecap="round" stroke-linejoin="round"/>
<path d="M278.09 168.003C278.09 168.003 275.933 169.529 274.98 170.437C274.032 171.34 272.412 173.411 272.412 173.411" stroke="black" stroke-linecap="round" stroke-linejoin="round"/>
<path d="M279.982 169.896C279.982 169.896 276.804 172.198 275.386 173.546C274.298 174.58 272.412 176.925 272.412 176.925" stroke="black" stroke-linecap="round" stroke-linejoin="round"/>
<path d="M280.523 172.735C280.523 172.735 278.044 174.384 277.008 175.438C275.789 176.679 273.899 179.629 273.899 179.629" stroke="black" stroke-linecap="round" stroke-linejoin="round"/>
<path d="M280.658 175.844C280.658 175.844 278.376 177.424 277.414 178.412C276.785 179.058 275.792 180.575 275.792 180.575" stroke="black" stroke-linecap="round" stroke-linejoin="round"/>
<path d="M281.334 178.683C281.334 178.683 279.775 180.097 279.036 180.846C278.521 181.368 277.549 182.468 277.549 182.468" stroke="black" stroke-linecap="round" stroke-linejoin="round"/>
<path d="M260.651 207.612C260.831 209.955 260.652 212.386 261.327 214.642C261.853 216.399 262.994 217.886 263.895 219.508" stroke="black" stroke-linecap="round" stroke-linejoin="round"/>
<path d="M262.814 205.855C262.949 208.018 262.92 210.633 263.625 212.884C264.053 214.25 264.842 215.408 265.653 216.669" stroke="black" stroke-linecap="round" stroke-linejoin="round"/>
<path d="M264.977 203.692C265.112 205.674 264.913 207.709 265.382 209.64C265.73 211.071 266.554 212.344 267.14 213.695" stroke="black" stroke-linecap="round" stroke-linejoin="round"/>
<path d="M267.005 202.07C267.095 203.647 266.913 205.263 267.275 206.801C267.589 208.137 268.356 209.324 268.897 210.586" stroke="black" stroke-linecap="round" stroke-linejoin="round"/>
<path d="M269.032 200.718C269.122 202.25 268.874 203.84 269.303 205.314C269.562 206.205 270.204 206.936 270.654 207.747" stroke="black" stroke-linecap="round" stroke-linejoin="round"/>
<path d="M271.736 198.69C271.736 200.177 271.412 201.7 271.736 203.151C271.921 203.977 272.457 204.683 272.817 205.449" stroke="black" stroke-linecap="round" stroke-linejoin="round"/>
<path d="M300.665 214.236C299.133 216.039 297.75 217.979 296.069 219.643C294.318 221.377 292.284 222.798 290.391 224.375" stroke="black" stroke-linecap="round" stroke-linejoin="round"/>
<path d="M297.962 213.155C296.925 214.732 295.939 216.329 294.65 217.683C293.39 219.006 291.878 220.049 290.391 221.13" stroke="black" stroke-linecap="round" stroke-linejoin="round"/>
<path d="M296.61 211.668C295.573 213.29 294.622 214.533 293.365 215.723C292.521 216.523 291.518 217.165 290.526 217.751" stroke="black" stroke-linecap="round" stroke-linejoin="round"/>
<path d="M295.123 210.045C294.447 211.037 293.842 211.819 293.095 212.614C292.308 213.451 291.383 214.281 290.526 214.912" stroke="black" stroke-linecap="round" stroke-linejoin="round"/>
<path d="M293.636 208.356C293.185 209.212 292.857 209.72 292.351 210.316C291.856 210.899 291.022 211.6 290.662 211.87" stroke="black" stroke-linecap="round" stroke-linejoin="round"/>
<path d="M292.689 205.855C292.329 206.531 292.079 207.07 291.676 207.612C291.342 208.059 290.887 208.513 290.526 208.829" stroke="black" stroke-linecap="round" stroke-linejoin="round"/>
<path d="M291.135 203.759C291 204.255 290.688 204.735 290.391 205.179C290.196 205.471 290.076 205.629 289.715 205.99" stroke="black" stroke-linecap="round" stroke-linejoin="round"/>
<path d="M182.074 74.1179C178.427 68.9701 169.109 71.4132 163.159 73.5073C155.705 76.1306 148.444 80.1532 141.924 84.8244C135.833 89.1887 130.039 94.466 125.531 100.209C121.599 105.218 117.773 112.821 121.48 117.391C125.452 122.289 134.485 119.145 140.395 116.944C147.789 114.19 154.407 111.034 160.507 106.604C166.763 102.06 172.947 96.8684 176.973 90.2671C179.913 85.4475 185.337 78.7244 182.074 74.1179Z" fill="#FFAA55" stroke="black" stroke-linecap="round" stroke-linejoin="round"/>
<path d="M166.578 84.7184C164.764 82.2357 160.264 84.1484 157.366 85.2129C153.736 86.5464 150.371 88.4945 147.293 90.7868C144.339 92.9868 141.594 95.5984 139.399 98.5177C137.484 101.064 135.328 104.47 137.068 106.715C138.949 109.143 143.402 107.607 146.28 106.488C149.881 105.088 152.906 102.627 155.896 100.248C158.643 98.0624 161.538 95.8598 163.468 92.9274C165.077 90.4834 168.305 87.0808 166.578 84.7184Z" fill="#AA5500" stroke="black" stroke-linecap="round" stroke-linejoin="round"/>
<path d="M164.645 86.3669C161.317 87.5849 158.406 89.889 155.492 91.9613C152.143 94.3435 148.958 96.9721 145.964 99.7889C143.646 101.971 140.938 104.315 139.464 106.787" stroke="black" stroke-linecap="round" stroke-linejoin="round"/>
<path d="M164.975 85.5419C160.779 86.1848 157.164 88.7871 153.635 91.0747C150.354 93.2014 147.395 95.8285 144.634 98.5978C142.298 100.942 139.543 103.49 138.291 106.236" stroke="black" stroke-linecap="round" stroke-linejoin="round"/>
<path d="M165.29 84.4755C161.897 84.5343 156.523 87.1803 152.617 89.5035C149.15 91.5653 146.048 94.2795 143.327 97.2565C140.879 99.9346 138.055 102.991 137.128 106.205" stroke="black" stroke-linecap="round" stroke-linejoin="round"/>
<path d="M198.641 156.538C198.641 156.538 199.412 148.559 200.409 144.694C201.209 141.588 202.034 138.376 203.767 135.678C204.848 133.995 208.01 131.435 208.01 131.435C208.01 131.435 207.079 136.486 207.126 139.037C207.169 141.362 208.187 145.931 208.187 145.931C208.187 145.931 210.788 143.101 212.253 141.865C213.577 140.748 216.495 138.86 216.495 138.86C216.495 138.86 215.729 144.076 216.142 146.638C216.483 148.756 217.249 150.865 218.44 152.649C219.296 153.931 221.799 155.831 221.799 155.831C221.799 155.831 225.51 154.759 226.925 153.533C228.507 152.163 229.281 150.066 230.284 148.229C231.155 146.633 232.582 143.28 232.582 143.28C232.582 143.28 234.985 149.425 235.587 152.649C235.956 154.622 235.771 156.659 235.941 158.659C236.076 160.254 236.471 163.432 236.471 163.432C236.471 163.432 240.848 162.687 243.012 162.195C244.796 161.789 246.793 161.796 248.315 160.78C250.168 159.544 251.243 157.392 252.381 155.477C253.27 153.98 254.502 150.704 254.502 150.704C254.502 150.704 255.561 156.843 255.209 159.897C254.941 162.229 254.518 164.752 253.088 166.614C251.216 169.051 247.85 169.834 245.31 171.564C243.322 172.917 241.265 174.199 239.476 175.806C238.235 176.922 236.118 179.519 236.118 179.519C236.118 179.519 230.487 176.856 227.809 175.276C225.36 173.831 223.022 172.197 220.738 170.503C218.786 169.056 217.079 167.289 215.081 165.907C213.061 164.51 210.868 163.38 208.717 162.195C207.263 161.393 205.749 160.704 204.298 159.897C202.381 158.83 198.641 156.538 198.641 156.538Z" fill="#FFFF55" stroke="black" stroke-linecap="round" stroke-linejoin="round"/>
<path d="M212.076 128.872C212.076 130.776 210.691 132.319 208.982 132.319C207.274 132.319 205.889 130.776 205.889 128.872C205.889 126.968 207.274 125.425 208.982 125.425C210.691 125.425 212.076 126.968 212.076 128.872Z" fill="#FF5555" stroke="black" stroke-linecap="round" stroke-linejoin="round"/>
<path d="M221.799 137.623C221.799 139.087 220.493 140.274 218.882 140.274C217.271 140.274 215.965 139.087 215.965 137.623C215.965 136.158 217.271 134.971 218.882 134.971C220.493 134.971 221.799 136.158 221.799 137.623Z" fill="#FF5555" stroke="black" stroke-linecap="round" stroke-linejoin="round"/>
<path d="M236.294 140.451C236.294 142.306 234.791 143.81 232.936 143.81C231.081 143.81 229.577 142.306 229.577 140.451C229.577 138.596 231.081 137.092 232.936 137.092C234.791 137.092 236.294 138.596 236.294 140.451Z" fill="#FF5555" stroke="black" stroke-linecap="round" stroke-linejoin="round"/>
<path d="M258.745 147.876C258.745 150.024 257.241 151.765 255.386 151.765C253.531 151.765 252.027 150.024 252.027 147.876C252.027 145.728 253.531 143.987 255.386 143.987C257.241 143.987 258.745 145.728 258.745 147.876Z" fill="#FF5555" stroke="black" stroke-linecap="round" stroke-linejoin="round"/>
<path d="M198.328 156.631C198.328 156.631 195.178 156.105 193.828 155.318C192.924 154.792 191.578 153.131 191.578 153.131C191.578 153.131 192.675 156.109 193.765 157.193C194.301 157.725 195.765 158.256 195.765 158.256C195.765 158.256 192.822 157.128 191.328 156.631C190.502 156.356 188.828 155.881 188.828 155.881C188.828 155.881 190.171 158.214 191.23 158.979C192.217 159.692 194.676 160.196 194.676 160.196L188.828 159.631C188.828 159.631 190.028 160.063 190.578 160.381C191.66 161.006 193.578 162.631 193.578 162.631C193.578 162.631 192.264 163.089 191.578 163.131C190.236 163.212 187.578 162.631 187.578 162.631C187.578 162.631 188.653 163.764 189.328 164.131C190.626 164.835 193.578 165.381 193.578 165.381C193.578 165.381 193.564 166.257 193.263 166.5C192.694 166.958 191.807 166.654 191.078 166.631C189.735 166.587 188.326 166.628 187.078 166.131C185.637 165.558 183.328 163.381 183.328 163.381C183.328 163.381 184.612 167.436 186.265 168.506C187.337 169.199 188.817 168.679 190.078 168.881C191.405 169.093 194.015 169.756 194.015 169.756C194.015 169.756 190.221 169.974 188.328 170.131C187.493 170.2 185.828 170.381 185.828 170.381L190.828 172.631L187.078 173.381L190.828 174.131L188.828 175.131C188.828 175.131 190.607 176.229 191.578 176.131C192.843 176.002 194.828 174.131 194.828 174.131C194.828 174.131 194.501 170.964 194.578 169.381C194.659 167.697 194.487 165.841 195.328 164.381C196.127 162.993 197.477 161.417 199.078 161.381C200.211 161.355 201.055 162.552 201.828 163.381C202.364 163.956 202.895 164.616 203.078 165.381C203.291 166.276 202.146 167.512 202.828 168.131C204.147 168.936 206.354 167.58 208.078 167.131C209.353 166.798 210.869 166.785 211.828 165.881C212.154 165.573 212.328 164.631 212.328 164.631L207.078 161.381L202.828 159.381L198.328 156.631Z" fill="#FFAA55" stroke="black" stroke-linecap="round" stroke-linejoin="round"/>
<path d="M189.472 176.268C189.472 176.268 187.401 178.056 186.52 179.096C185.815 179.929 184.945 180.744 184.676 181.802C184.269 183.398 184.809 185.112 185.167 186.721C185.489 188.163 185.987 189.577 186.643 190.902C187.274 192.175 188.097 193.354 188.98 194.468C189.718 195.399 190.609 196.2 191.439 197.05C192.087 197.714 192.839 198.284 193.407 199.018C194.396 200.297 194.888 201.911 195.866 203.199C196.831 204.469 198.171 205.413 199.187 206.642C200.048 207.686 200.393 209.218 201.523 209.963C202.188 210.401 203.064 210.466 203.86 210.455C204.943 210.44 206.185 210.388 207.02 209.697C207.977 208.906 208.154 207.477 208.553 206.301C208.821 205.511 208.7 204.583 209.125 203.864C209.557 203.134 210.318 202.641 211.017 202.16C211.578 201.774 212.22 201.52 212.837 201.232C213.921 200.726 215.029 200.272 216.14 199.829C217.44 199.309 218.848 199.029 220.075 198.353C221.381 197.632 222.677 196.787 223.641 195.647C224.269 194.906 224.591 193.949 224.994 193.065C225.607 191.72 226.61 188.934 226.61 188.934L227.963 188.811L228.086 187.335C228.086 187.335 229.757 186.4 230.545 185.86C230.931 185.596 231.376 185.376 231.652 184.999C232.142 184.329 231.948 183.27 232.513 182.662C232.85 182.299 233.495 182.376 233.866 182.047C234.692 181.315 235.587 179.219 235.587 179.219C235.587 179.219 230.73 177.114 228.455 175.776C226.553 174.657 224.855 173.224 223.044 171.964C221.737 171.054 220.371 170.228 219.109 169.258C217.91 168.337 216.895 167.186 215.665 166.307C214.813 165.697 212.96 164.708 212.96 164.708C212.96 164.708 212.292 166.004 211.73 166.43C210.862 167.087 209.693 167.205 208.656 167.536C207.642 167.86 206.612 168.132 205.581 168.397C204.888 168.576 204.179 169.085 203.491 168.889C202.989 168.746 202.528 168.284 202.384 167.782C202.233 167.257 202.779 166.73 202.753 166.184C202.716 165.407 202.398 164.647 202.015 163.97C201.643 163.312 201.188 162.637 200.539 162.248C199.891 161.86 199.067 161.609 198.326 161.757C197.344 161.951 196.488 162.694 195.866 163.478C195.318 164.17 195.066 165.074 194.883 165.938C194.653 167.021 194.805 168.151 194.76 169.258C194.722 170.16 194.597 171.062 194.637 171.964C194.664 172.583 195.045 173.209 194.883 173.808C194.638 174.71 193.962 175.539 193.161 176.022C192.555 176.387 191.777 176.356 191.07 176.391C190.536 176.417 189.472 176.268 189.472 176.268Z" fill="#FFAAAA" stroke="black" stroke-linecap="round" stroke-linejoin="round"/>
<path d="M212.591 177.62C212.591 177.62 214.846 178.641 216.034 178.973C217.196 179.298 218.425 179.316 219.6 179.588C220.599 179.819 222.057 179.552 222.552 180.449C222.84 180.971 222.06 182.17 222.06 182.17" stroke="black" stroke-linecap="round" stroke-linejoin="round"/>
<path d="M214.19 181.433C214.886 181.965 215.449 182.75 216.28 183.031C216.94 183.255 217.727 182.765 218.371 183.031C218.746 183.187 218.945 183.605 219.232 183.892" stroke="black" stroke-linecap="round" stroke-linejoin="round"/>
<path d="M215.419 182.776C215.501 183.268 215.265 184.084 215.665 184.507C215.952 184.811 216.52 184.937 216.895 184.753C217.391 184.509 217.387 183.678 217.633 183.268L215.419 182.776Z" stroke="black" stroke-linecap="round" stroke-linejoin="round"/>
<path d="M224.765 183.646C224.765 183.646 223.807 185.06 223.536 185.86C223.176 186.919 223.104 188.063 223.044 189.18C222.989 190.204 223.311 191.239 223.167 192.254C223.058 193.024 222.959 193.899 222.429 194.468C221.887 195.05 221.019 195.425 220.225 195.383C219.335 195.335 218.439 194.792 217.879 194.099C217.641 193.805 217.863 193.232 217.555 193.013C217.126 192.71 216.502 193.151 215.98 193.09C215.278 193.008 214.475 192.967 213.944 192.5C213.488 192.1 213.092 191.426 213.215 190.832C213.32 190.33 213.79 189.913 214.343 189.784" stroke="black" stroke-linecap="round" stroke-linejoin="round"/>
<path d="M226.733 182.785C226.733 182.785 228.234 182.468 228.947 182.662C229.374 182.779 229.76 183.068 230.053 183.4C230.357 183.744 230.668 184.63 230.668 184.63" stroke="black" stroke-linecap="round" stroke-linejoin="round"/>
<path d="M224.786 185.818C225.155 186.104 225.451 186.527 225.893 186.678C226.359 186.838 226.898 186.536 227.369 186.678C227.652 186.764 227.861 187.006 228.107 187.17" stroke="black" stroke-linecap="round" stroke-linejoin="round"/>
<path d="M225.519 187.055C225.556 187.536 225.275 188.166 225.632 188.499C226.174 189.003 227.382 188.597 227.875 188.56L227.072 186.883L225.519 187.055Z" stroke="black" stroke-linecap="round" stroke-linejoin="round"/>
<path d="M213.463 199.184C212.286 198.77 212.211 197.954 211.616 197.311C211.295 196.964 210.942 196.635 210.687 196.24C210.356 195.724 209.227 194.066 209.929 194.571C210.985 195.239 211.99 195.749 213.323 196.211C213.862 196.398 213.978 197.166 214.477 197.436C215.071 197.757 216.099 197.266 216.485 197.807C216.94 198.443 218.538 198.497 219.142 198.919C218.495 199.106 218.465 199.137 217.204 199.505C216.292 199.022 214.639 199.598 213.463 199.184Z" fill="#FF5555" stroke="black" stroke-linecap="round" stroke-linejoin="round"/>
<path d="M192.163 181.474C192.163 181.474 190.434 183.953 190.076 185.387C189.795 186.512 189.845 187.729 190.076 188.866C190.401 190.47 191.436 191.847 191.989 193.387C192.367 194.441 192.609 195.538 192.945 196.605C193.111 197.129 193.467 198.17 193.467 198.17" stroke="black" stroke-linecap="round" stroke-linejoin="round"/>
<path d="M200.306 165.902C199.9 165.526 199.637 164.851 199.089 164.772C198.511 164.689 197.881 165.093 197.523 165.555C197.015 166.211 197.033 167.16 197.002 167.989C196.977 168.632 197.162 169.267 197.263 169.902C197.391 170.717 197.774 171.516 197.697 172.337C197.636 172.986 197.234 173.555 197.002 174.163" stroke="black" stroke-linecap="round" stroke-linejoin="round"/>
<path d="M199.784 168.424C199.784 168.424 199.156 167.747 198.828 167.902C198.401 168.105 198.555 168.822 198.567 169.294C198.582 169.919 199.002 171.12 199.002 171.12" stroke="black" stroke-linecap="round" stroke-linejoin="round"/>
<path d="M211.328 190.756C211.328 190.756 207.868 189.637 206.078 189.631C204.844 189.627 203.498 189.724 202.453 190.381C201.698 190.855 200.643 191.633 200.828 192.506C200.936 193.016 202.203 193.256 202.203 193.256" stroke="black" stroke-linecap="round" stroke-linejoin="round"/>
<path d="M201.902 198.952C202.978 199.287 201.091 201.144 201.842 201.623C203.174 202.471 204.551 199.171 206.09 199.525C207.07 199.751 207.005 201.539 207.94 201.91C208.913 202.296 209.615 200.953 211.041 201.423C211.124 204.389 208.675 206.473 208.119 210.43C207.678 211.269 207.309 211.603 206.795 211.41C205.678 210.99 206.089 209.591 206.034 207.913C205.151 208.519 205.912 212.572 204.164 212.312C201.903 211.977 203.981 207.401 203.981 206.236C203.429 207.214 203.827 210.857 202.097 210.586C199.858 210.236 202.105 206.096 201.994 204.558C201.387 205.35 200.98 209.098 199.449 208.632C197.971 208.182 199.656 205.165 199.601 204C198.994 204.372 198.721 206.03 197.958 205.771C196.458 205.261 196.735 202.415 197.519 201.038C198.318 199.631 200.154 198.409 201.902 198.952H201.902Z" fill="#FFAA55" stroke="black" stroke-linecap="round" stroke-linejoin="round"/>
<path d="M201.812 199.352C198.95 201.006 199.357 202.774 199.576 203.743" stroke="black" stroke-linecap="round" stroke-linejoin="round"/>
<path d="M202.919 201.826C201.645 202.743 201.701 203.586 201.882 204.422" stroke="black" stroke-linecap="round" stroke-linejoin="round"/>
<path d="M206.012 200.245L204.034 206.183" stroke="black" stroke-linecap="round" stroke-linejoin="round"/>
<path d="M208.038 202.076C207.982 202.701 207.478 204.255 207.138 205.327C206.872 206.164 206.081 207.056 206.249 207.806" stroke="black" stroke-linecap="round" stroke-linejoin="round"/>
<path d="M117.854 122.773C117.854 122.773 120.61 125.214 122.327 125.676C125.101 126.423 128.087 125.626 130.935 125.248C133.685 124.884 136.439 124.367 139.067 123.481C140.916 122.857 142.859 122.239 144.37 121.006C145.514 120.073 147.011 117.451 147.011 117.451C147.011 117.451 146.453 122.652 146.138 125.248C145.809 127.962 145.061 130.647 145.077 133.38C145.098 136.713 146.492 143.28 146.492 143.28C146.492 143.28 143.903 138.631 142.249 136.562C141.312 135.39 139.067 133.38 139.067 133.38C139.067 133.38 138.488 137.648 138.006 139.744C137.539 141.779 136.239 145.754 136.239 145.754C136.239 145.754 132.591 143.252 131.289 141.512C129.74 139.443 128.107 134.441 128.107 134.441C128.107 134.441 125.252 138.666 123.864 140.805C122.423 143.026 119.622 147.522 119.622 147.522C119.622 147.522 118.51 138.816 118.207 134.441C117.939 130.559 117.854 122.773 117.854 122.773Z" fill="#FFFF55" stroke="black" stroke-linecap="round" stroke-linejoin="round"/>
<path d="M131.596 195.675C131.596 199.066 128.847 201.816 125.455 201.816C122.064 201.816 119.314 199.066 119.314 195.675C119.314 192.283 122.064 189.534 125.455 189.534C128.847 189.534 131.596 192.283 131.596 195.675Z" fill="#FF5555" stroke="black" stroke-linecap="round" stroke-linejoin="round"/>
<path d="M138.099 231.678C138.099 235.136 135.241 237.94 131.717 237.94C128.192 237.94 125.335 235.136 125.335 231.678C125.335 228.22 128.192 225.417 131.717 225.417C135.241 225.417 138.099 228.22 138.099 231.678Z" fill="#FF5555" stroke="black" stroke-linecap="round" stroke-linejoin="round"/>
<path d="M186.986 256.483C186.986 259.409 184.56 261.781 181.568 261.781C178.575 261.781 176.149 259.409 176.149 256.483C176.149 253.557 178.575 251.185 181.568 251.185C184.56 251.185 186.986 253.557 186.986 256.483Z" fill="#FF5555" stroke="black" stroke-linecap="round" stroke-linejoin="round"/>
<path d="M129.188 95.8521C129.188 95.8521 125.836 89.9516 125.817 86.7007C125.801 84.0602 126.992 81.4259 128.466 79.2351C130.338 76.4518 133.171 74.3724 135.984 72.5447C137.815 71.3551 139.785 70.1156 141.952 69.8429C143.327 69.6698 144.924 69.7515 146.046 70.5654C147.15 71.3669 147.973 74.1778 147.973 74.1778C147.973 74.1778 149.001 73.0834 149.512 72.5333C150.044 71.9596 150.321 70.8451 151.103 70.8062C152.069 70.7581 152.909 71.8365 153.271 72.7328C153.663 73.7034 153.03 75.8636 153.03 75.8636L154.475 77.0677C154.475 77.0677 146.992 81.5761 143.397 84.0517C140.752 85.8727 138.156 87.7746 135.69 89.8315C133.422 91.7236 129.188 95.8521 129.188 95.8521Z" fill="#FFAAAA" stroke="black" stroke-linecap="round" stroke-linejoin="round"/>
<path d="M130.637 87.9164C130.175 86.9217 129.945 86.2802 129.986 85.4217C130.02 84.6844 130.392 84.752 130.742 83.3407C132.187 84.304 132.99 85.6741 134.392 85.4966C135.519 85.354 136.493 84.1811 136.801 83.0884C136.894 82.7581 136.731 82.385 136.56 82.0876C135.851 80.8556 134.521 79.9439 133.478 79.1411C134.682 80.1044 135.702 81.4607 137.139 82.0799C137.779 82.3555 138.635 82.761 139.209 82.3659C140.091 81.7582 140.114 80.2904 139.931 79.2351C139.687 77.8261 138.34 76.8269 137.617 75.6227C138.821 77.148 139.92 79.1539 141.768 79.8559C142.398 80.0953 143.247 80.1226 143.784 79.7168C144.382 79.2662 144.621 78.3507 144.548 77.6059C144.355 75.6258 142.594 74.0172 141.47 72.492C142.835 74.0975 143.677 76.6456 145.711 77.3085C146.415 77.5379 147.383 77.3765 147.879 76.8269C148.528 76.1067 148.053 74.9003 148.213 73.937C148.695 74.9805 148.889 76.3382 149.805 77.0677C150.323 77.4802 151.09 77.3888 151.732 77.5494" stroke="black" stroke-linecap="round" stroke-linejoin="round"/>
<path d="M262.208 221.902C259.945 226.962 259.998 231.638 259.379 234.821C261.596 233.047 264.271 232.279 266.92 228.34C268.595 231.994 268.165 235.647 269.108 239.3C271.421 236.769 274.1 234.42 275.406 230.79C276.525 231.013 277.643 231.237 278.762 231.46C278.358 235.679 280.149 238.434 280.842 241.921C282.374 238.15 284.181 235.751 285.438 230.607C283.435 230.491 281.376 231.279 279.336 231.173C277.452 231.075 275.565 230.693 273.783 230.071C271.66 229.329 269.633 228.263 267.785 226.98C265.72 225.546 263.945 223.411 262.208 221.902Z" fill="#FFFF55" stroke="black" stroke-linecap="round" stroke-linejoin="round"/>
<path d="M251.734 234.016C251.948 236.303 252.342 238.581 252.375 240.879C252.402 242.773 252.131 244.661 252.009 246.552" fill="#AA0000" fill-opacity="0.294964"/>
<path d="M251.734 234.016C251.948 236.303 252.342 238.581 252.375 240.879C252.402 242.773 252.131 244.661 252.009 246.552" stroke="black" stroke-linecap="round" stroke-linejoin="round"/>
<path d="M256.676 235.754C257.133 237.493 257.817 239.187 258.048 240.97C258.306 242.967 258.048 244.996 258.048 247.009" fill="#AA0000" fill-opacity="0.294964"/>
<path d="M256.676 235.754C257.133 237.493 257.817 239.187 258.048 240.97C258.306 242.967 258.048 244.996 258.048 247.009" stroke="black" stroke-linecap="round" stroke-linejoin="round"/>
<path d="M123.157 118.884C123.157 118.884 120.067 119.643 118.915 120.652C118.323 121.17 117.572 121.921 117.729 122.691C117.987 123.955 119.66 124.46 120.828 125.006C121.972 125.541 124.515 125.881 124.515 125.881L124.578 119.443L123.157 118.884Z" fill="#AA0000" stroke="black" stroke-linecap="round" stroke-linejoin="round"/>
<path d="M124.571 119.486V125.988C124.571 125.988 127.063 126.019 128.294 125.863C131.106 125.505 133.848 124.717 136.592 124.011C138.019 123.644 139.475 123.341 140.835 122.773C141.955 122.306 142.999 121.666 144.017 121.006C144.452 120.723 144.971 120.501 145.263 120.072C145.743 119.367 145.938 117.606 145.938 117.606L146.011 114.601C146.011 114.601 140.285 117.206 137.299 118.177C134.934 118.946 132.531 119.752 130.051 119.945C128.224 120.088 124.571 119.486 124.571 119.486L124.571 119.486Z" fill="#FFAAAA" stroke="black" stroke-linecap="round" stroke-linejoin="round"/>
<path d="M131.984 119.662L132.132 125.099L131.984 119.662Z" fill="#FFAAAA"/>
<path d="M131.984 119.662L132.132 125.099" stroke="black" stroke-linecap="round" stroke-linejoin="round"/>
<path d="M134.859 118.974L135.006 124.099L134.859 118.974Z" fill="#FFAAAA"/>
<path d="M134.859 118.974L135.006 124.099" stroke="black" stroke-linecap="round" stroke-linejoin="round"/>
<path d="M137.733 118.224L137.881 123.662L137.733 118.224Z" fill="#FFAAAA"/>
<path d="M137.733 118.224L137.881 123.662" stroke="black" stroke-linecap="round" stroke-linejoin="round"/>
<path d="M140.795 117.349L140.943 122.787L140.795 117.349Z" fill="#FFAAAA"/>
<path d="M140.795 117.349L140.943 122.787" stroke="black" stroke-linecap="round" stroke-linejoin="round"/>
<path d="M143.311 116.109L143.327 121.099L143.311 116.109Z" fill="#FFAAAA"/>
<path d="M143.311 116.109L143.327 121.099" stroke="black" stroke-linecap="round" stroke-linejoin="round"/>
<path d="M145.696 142.749C145.696 142.749 145.496 147.789 145.873 150.085C146.09 151.41 148.311 151.581 148.929 152.794C149.539 153.99 148.614 155.661 149.32 156.803C149.887 157.719 151.321 157.734 152.057 158.52C152.78 159.291 153.035 160.395 153.563 161.311C154.771 163.408 156.296 165.326 157.364 167.498C158.059 168.912 158.652 170.391 159.043 171.917C159.308 172.955 159.103 174.099 159.485 175.099C160.295 177.222 163.286 180.756 163.286 180.756C163.286 180.756 157.733 182.117 154.977 182.878C151.481 183.842 147.92 184.64 144.547 185.971C142.709 186.697 140.923 187.58 139.244 188.623C137.957 189.421 135.62 191.363 135.62 191.363C135.62 191.363 132.86 186.311 131.996 183.585C131.191 181.045 131.487 178.224 130.582 175.718C129.546 172.852 127.613 170.394 126.074 167.763C125.066 166.04 123.797 164.458 122.98 162.637C122.287 161.089 121.781 159.444 121.478 157.775C121.124 155.83 121.294 153.823 121.124 151.853C120.966 150.022 120.506 146.373 120.506 146.373C122.369 142.4 124.048 138.404 128.107 134.706C128.107 134.706 129.562 139.199 130.935 141.07C132.307 142.938 136.15 145.666 136.15 145.666C136.15 145.666 137.514 141.516 138.007 139.39C138.445 137.498 137.12 134.208 138.979 133.645C140.994 133.035 142.084 136.53 143.31 138.241C144.299 139.624 145.696 142.749 145.696 142.749Z" fill="#AA0000" stroke="black" stroke-linecap="round" stroke-linejoin="round"/>
<path d="M144.75 151.526C143.651 151.738 142.404 151.574 141.452 152.164C139.216 153.551 138.261 156.348 136.665 158.44" stroke="black" stroke-linecap="round" stroke-linejoin="round"/>
<path d="M147.515 153.228C145.778 154.185 143.716 155.663 142.303 157.376C139.912 160.276 138.828 164.042 137.091 167.375" stroke="black" stroke-linecap="round" stroke-linejoin="round"/>
<path d="M150.494 158.653C149.359 158.865 147.84 159.601 146.877 160.567C144.671 162.78 143.97 166.099 142.516 168.864" stroke="black" stroke-linecap="round" stroke-linejoin="round"/>
<path d="M136.828 197.131C136.828 197.131 138.906 202.369 139.328 205.131C139.78 208.096 138.912 211.16 139.328 214.131C139.664 216.534 141.107 218.714 141.328 221.131C141.563 223.715 140.578 228.881 140.578 228.881C140.578 228.881 146.546 227.302 149.078 225.631C152.078 223.65 154.202 220.579 156.578 217.881C158.341 215.878 159.868 213.679 161.578 211.631C163.773 209.001 168.328 203.881 168.328 203.881C168.328 203.881 162.168 202.35 159.078 201.631C157.581 201.282 155.971 201.278 154.578 200.631C152.582 199.704 151.4 197.37 149.328 196.631C147.05 195.818 144.492 196.251 142.078 196.381C140.313 196.476 136.828 197.131 136.828 197.131Z" fill="#AA0000" stroke="black" stroke-linecap="round" stroke-linejoin="round"/>
<path d="M174.578 230.131L174.328 239.381L163.828 240.381L164.328 252.881L150.828 253.881L149.328 266.631L138.828 266.881V284.381H144.828L145.578 271.881L155.578 272.381L156.328 259.131H169.578L170.828 245.131L180.828 244.131V227.631L174.578 230.131Z" fill="#FFAA55" stroke="black" stroke-linecap="round" stroke-linejoin="round"/>
<path d="M177.828 232.381V239.381V232.381Z" fill="#AA0000" fill-opacity="0.28777"/>
<path d="M177.828 232.381V239.381" stroke="black" stroke-linecap="round" stroke-linejoin="round"/>
<path d="M175.578 241.881L168.078 242.381L175.578 241.881Z" fill="#AA0000" fill-opacity="0.28777"/>
<path d="M175.578 241.881L168.078 242.381" stroke="black" stroke-linecap="round" stroke-linejoin="round"/>
<path d="M166.828 246.631L167.328 252.381L166.828 246.631Z" fill="#AA0000" fill-opacity="0.28777"/>
<path d="M166.828 246.631L167.328 252.381" stroke="black" stroke-linecap="round" stroke-linejoin="round"/>
<path d="M165.078 256.381L157.578 256.631L165.078 256.381Z" fill="#AA0000" fill-opacity="0.28777"/>
<path d="M165.078 256.381L157.578 256.631" stroke="black" stroke-linecap="round" stroke-linejoin="round"/>
<path d="M152.828 259.881V267.381V259.881Z" fill="#AA0000" fill-opacity="0.28777"/>
<path d="M152.828 259.881V267.381" stroke="black" stroke-linecap="round" stroke-linejoin="round"/>
<path d="M149.578 269.381L144.328 269.631L149.578 269.381Z" fill="#AA0000" fill-opacity="0.28777"/>
<path d="M149.578 269.381L144.328 269.631" stroke="black" stroke-linecap="round" stroke-linejoin="round"/>
<path d="M142.578 272.631L142.078 279.881L142.578 272.631Z" fill="#AA0000" fill-opacity="0.28777"/>
<path d="M142.578 272.631L142.078 279.881" stroke="black" stroke-linecap="round" stroke-linejoin="round"/>
<path d="M106.449 278.008C103.87 277.341 100.911 277.297 98.5778 276.631C96.5778 278.214 94.4917 279.694 92.5778 281.381C88.3773 285.082 84.3946 289.035 80.5778 293.131C77.5951 296.331 74.7122 299.638 72.0778 303.131C71.1731 304.33 70.4111 305.631 69.5778 306.881C70.8278 305.964 71.953 304.847 73.3278 304.131C77.2309 302.097 81.5877 301.059 85.8278 299.881C92.2373 298.099 98.8041 296.934 105.328 295.631C109.896 294.718 114.505 294.021 119.078 293.131C123.505 292.269 127.875 291.1 132.328 290.381C137.338 289.572 142.773 290.592 147.452 288.627C151.059 287.112 153.532 283.704 156.578 281.25C158.7 279.539 160.547 277.409 162.952 276.126C164.801 275.14 167.117 274.917 168.95 274.251C169.034 273.917 168.494 272.214 168.578 271.881C165.911 272.797 163.049 272.88 160.578 274.133C158.407 275.233 156.718 277.098 154.828 278.631C152.714 280.344 151.069 282.787 148.578 283.881C146.193 284.927 143.397 285.307 140.828 284.881C137.555 284.338 135.181 280.954 131.896 280.489C127.851 279.916 123.901 282.951 119.828 282.631C115.124 282.261 111.017 279.189 106.449 278.008Z" fill="#FFAA55" stroke="black" stroke-linecap="round" stroke-linejoin="round"/>
<path d="M117.078 293.757C116.244 296.09 114.553 298.535 114.578 301.131C114.621 305.638 117.53 309.651 119.163 313.852C120.311 316.808 121.328 319.797 122.828 322.631C118.578 321.547 114.174 320.947 110.078 319.381C106.039 317.836 102.575 315.03 98.5778 313.381C94.9473 311.883 91.2332 310.294 87.3278 309.881C84.5818 309.59 81.7397 311.365 79.0778 310.631C77.9851 310.329 77.4515 308.779 76.3278 308.631C75.177 308.479 74.2292 310.027 73.0778 309.881C71.6555 309.7 69.5815 308.814 69.5778 307.381C69.573 305.53 72.4776 305.06 74.0778 304.131C76.6901 302.614 79.4562 301.318 82.3278 300.381C86.6157 298.98 91.1494 298.489 95.5778 297.631C102.727 296.245 109.911 294.924 117.078 293.757Z" fill="#AA0000" stroke="black" stroke-linecap="round" stroke-linejoin="round"/>
<path d="M198.459 327.05C200.492 326.434 198.707 322.673 199.709 320.8C201.433 317.579 204.36 314.985 207.459 313.05C209.851 311.556 212.665 310.683 215.459 310.3C218.271 309.914 221.385 309.604 223.959 310.8C226.044 311.768 227.928 313.638 228.709 315.8C229.135 316.978 227.254 319.207 228.459 319.55C231.543 320.426 233.746 314.158 232.959 311.05C232.738 310.176 230.981 310.409 230.709 309.55C230.26 308.128 232.443 306.867 232.328 305.381C232.187 303.557 229.727 302.454 229.578 300.631C229.309 297.345 233.05 294.677 233.078 291.381C233.107 287.928 231.389 284.571 229.578 281.631C228.372 279.674 223.515 278.518 224.828 276.631C225.553 275.589 227.434 279.032 228.328 278.131C231.403 275.032 226.055 269.324 223.078 266.131C220.384 263.241 216.31 261.929 212.578 260.631C209.614 259.6 206.457 259.118 203.328 258.881C201 258.704 198.631 258.748 196.328 259.131C192.635 259.744 189.133 261.209 185.578 262.381C182.048 263.544 178.218 264.143 175.078 266.131C172.588 267.706 170.694 270.101 168.828 272.381C168.448 272.845 168.304 273.51 167.831 273.881C166.088 275.248 163.488 275.009 161.578 276.131C156.433 279.151 153.435 285.257 148.078 287.881C142.662 290.533 136.259 290.292 130.328 291.381C125.921 292.189 121.494 292.881 117.078 293.631C116.244 296.297 114.768 298.843 114.578 301.631C114.358 304.854 115.048 308.164 116.186 311.187C117.559 314.833 120.501 317.69 122.328 321.131C124.042 324.359 124.698 328.16 126.828 331.131C128.752 333.814 133.491 334.631 134.078 337.881C134.144 338.247 133.556 338.509 133.578 338.881C133.802 342.665 137.494 345.393 139.828 348.381C142.478 351.773 145.755 354.63 148.578 357.881C150.131 359.669 151.178 361.966 153.078 363.381C153.947 364.028 156.04 363.548 156.078 364.631C156.123 365.934 153.473 365.432 152.578 366.381C152.142 366.842 151.758 367.5 151.828 368.131C152.031 369.97 155.92 370.983 155.078 372.631C154.433 373.892 151.86 371.661 150.828 372.631C149.854 373.545 151.328 375.526 150.578 376.631C149.698 377.926 147.312 377.413 146.328 378.631C144.713 380.627 144.871 383.58 144.578 386.131C144.473 387.041 145.074 388.11 144.578 388.881C142.942 391.42 137.963 390.091 136.328 392.631C135.651 393.682 135.966 395.184 136.328 396.381C136.85 398.106 137.772 399.97 139.328 400.881C140.265 401.43 141.514 401.354 142.578 401.131C144.036 400.824 145.039 399.176 146.521 399.022C148.593 398.807 150.599 399.969 152.521 400.772C154.896 401.764 156.841 403.673 159.271 404.522C161.185 405.191 163.544 404.459 165.271 405.522C166.591 406.334 166.795 408.324 168.021 409.272C169.527 410.436 171.428 411.503 173.328 411.381C175.04 411.27 176.894 410.32 177.828 408.881C178.874 407.266 177.724 404.957 178.328 403.131C178.727 401.923 179.578 400.908 180.328 399.881C181.233 398.639 182.424 397.624 183.328 396.381C184.361 394.959 185.715 393.601 186.078 391.881C186.338 390.647 185.266 389.353 185.578 388.131C186.345 385.127 190.145 383.587 191.078 380.631C192.231 376.974 191.201 372.947 190.828 369.131C190.498 365.763 189.765 362.444 189.078 359.131C188.208 354.935 187.267 350.747 186.078 346.631C184.71 341.896 182.519 337.412 181.328 332.631C180.45 329.108 180.488 325.395 179.578 321.881C179.023 319.737 178.078 317.714 177.328 315.631C179.328 314.047 181.327 312.463 183.328 310.881C184.91 309.63 186.697 308.601 188.078 307.131C188.98 306.17 189.578 304.964 190.328 303.881C190.328 305.297 189.981 306.757 190.328 308.131C190.737 309.753 191.171 311.89 192.709 312.55C193.582 312.924 194.813 311.103 195.459 311.8C197.143 313.618 193.061 316.324 192.959 318.8C192.906 320.092 193.313 321.429 193.959 322.55C195.019 324.388 196.429 327.664 198.459 327.05Z" fill="#5555AA" stroke="black" stroke-linecap="round" stroke-linejoin="round"/>
<path d="M142.578 400.881C140.512 403.39 139.549 406.712 138.828 409.881C138.476 411.427 138.702 413.05 138.578 414.631C138.452 416.218 138.355 417.813 138.078 419.381C137.599 422.088 136.456 424.658 136.078 427.381C135.71 430.023 135.543 432.728 135.828 435.381C135.864 435.722 136.106 436.038 136.078 436.381C135.946 437.968 134.542 439.213 134.171 440.762C133.842 442.138 133.392 443.687 133.921 444.999C134.965 447.589 137.73 449.169 140.078 450.681C142.207 452.052 144.596 453.129 147.078 453.631C148.793 453.977 150.668 454.187 152.328 453.631C154.364 452.949 157.472 449.749 157.472 449.749C157.472 449.749 155.402 447.797 155.103 446.487C154.748 444.93 155.378 443.262 155.959 441.775C156.949 439.24 159.039 437.277 160.328 434.881C162.448 430.939 163.355 426.362 165.828 422.631C166.707 421.304 168.257 420.495 169.078 419.131C170.124 417.392 170.64 415.362 171.078 413.381C171.258 412.563 171.652 411.653 171.328 410.881C170.768 409.545 168.918 409.228 167.941 408.159C166.927 407.051 166.684 405.252 165.441 404.409C163.082 402.809 159.699 403.749 157.078 402.631C154.761 401.642 153.236 399.122 150.828 398.381C149.394 397.939 147.763 397.946 146.328 398.381C144.89 398.816 143.533 399.721 142.578 400.881Z" fill="#AAAAAA" stroke="black" stroke-linecap="round" stroke-linejoin="round"/>
<path d="M134.759 439.906C133.259 440.239 130.677 439.354 129.078 440.381C127.791 441.207 127.169 442.889 126.828 444.381C126.53 445.683 126.676 447.107 127.078 448.381C127.606 450.057 128.695 451.536 129.828 452.881C132.682 456.268 136.442 458.775 139.828 461.631C142.454 463.846 145.081 466.066 147.828 468.131C150.747 470.325 153.612 472.65 156.828 474.381C159.199 475.657 161.684 476.871 164.328 477.381C166.864 477.869 169.494 477.381 172.078 477.381C174.328 477.381 176.597 477.673 178.828 477.381C180.11 477.213 181.727 477.356 182.578 476.381C183.903 474.862 184.39 472.094 183.328 470.381C182.397 468.88 179.9 469.434 178.328 468.631C176.248 467.569 174.321 466.184 172.578 464.631C171.167 463.374 169.973 461.883 168.828 460.381C167.076 458.083 165.688 455.53 164.078 453.131C163.176 451.787 162.73 449.938 161.328 449.131C160.386 448.588 159.106 448.531 158.078 448.881C157.016 449.242 156.534 450.545 155.578 451.131C153.599 452.344 151.393 453.464 149.078 453.631C147.203 453.766 145.271 453.197 143.578 452.381C140.694 450.991 138.185 448.791 136.078 446.381C135.118 445.283 133.981 444.08 133.828 442.631C133.727 441.676 134.843 440.989 134.759 439.906Z" fill="#AA5500" stroke="black" stroke-linecap="round" stroke-linejoin="round"/>
<path d="M198.828 326.631C199.796 329.91 204.643 330.923 205.828 334.131C206.492 335.93 205.166 338.007 205.578 339.881C206.241 342.902 209.178 345.106 209.828 348.131C210.494 351.231 208.473 354.577 209.328 357.631C209.687 358.912 210.272 360.673 211.578 360.928C215.601 358.445 218.601 356.659 221.828 354.131C224.056 352.385 226.54 350.757 228.078 348.381C229.08 346.832 229.172 344.855 229.828 343.131C230.279 341.944 231.328 339.631 231.328 339.631C231.328 339.631 229.528 338.912 229.078 338.131C228.411 336.973 228.793 335.466 228.828 334.131C228.885 331.95 229.878 329.791 229.578 327.631C229.367 326.113 228.091 324.89 227.828 323.381C227.513 321.573 228.173 319.713 228.078 317.881C227.991 316.198 228.259 314.285 227.328 312.881C226.356 311.416 224.511 310.638 222.828 310.131C220.672 309.481 218.308 309.575 216.078 309.881C213.911 310.178 211.832 311.005 209.828 311.881C207.81 312.762 205.791 313.747 204.078 315.131C202.516 316.392 200.954 317.825 200.078 319.631C199.043 321.763 198.157 324.357 198.828 326.631Z" fill="#AAAAAA" stroke="black" stroke-linecap="round" stroke-linejoin="round"/>
<path d="M212.078 361.131C209.989 362.79 208.027 364.887 207.078 367.381C206.514 368.862 206.431 370.596 206.828 372.131C207.221 373.653 208.216 375.019 209.328 376.131C210.996 377.798 213.006 379.466 215.328 379.881C217.339 380.24 219.451 379.439 221.328 378.631C223.472 377.707 225.124 375.91 227.078 374.631C230.27 372.54 233.504 370.505 236.828 368.631C239.685 367.02 242.674 365.656 245.578 364.131C249.01 362.327 252.787 361.037 255.828 358.631C258.096 356.835 260.199 354.674 261.578 352.131C262.772 349.927 263.606 347.387 263.578 344.881C263.558 343.141 263.122 341.272 262.078 339.881C261.065 338.531 259.457 337.57 257.828 337.131C256.136 336.675 254.308 337.103 252.578 337.381C251.041 337.628 249.496 337.99 248.078 338.631C245.993 339.573 244.177 341.032 242.328 342.381C239.552 344.405 237.117 346.874 234.328 348.881C231.044 351.244 227.617 353.42 224.078 355.381C220.198 357.53 215.55 358.371 212.078 361.131Z" fill="#AA5500" stroke="black" stroke-linecap="round" stroke-linejoin="round"/>
<path d="M211.671 361.237L212.328 360.131C212.328 360.131 219.304 355.315 222.578 352.631C224.676 350.91 227.071 349.387 228.578 347.131C229.661 345.508 229.53 343.276 230.578 341.631C230.894 341.134 231.294 340.631 231.828 340.381C233.495 339.6 235.572 340.433 237.328 339.881C238.61 339.477 239.588 338.399 240.828 337.881C242.824 337.046 244.953 336.539 247.078 336.131C249.382 335.688 251.783 334.89 254.078 335.381C255.21 335.623 257.078 337.131 257.078 337.131C257.078 337.131 252.482 337.61 250.328 338.381C247.729 339.311 245.394 340.879 243.078 342.381C241.099 343.664 239.306 345.213 237.429 346.641C235.472 348.13 233.527 349.633 231.578 351.131C229.41 352.796 227.459 354.788 225.078 356.131C222.274 357.711 219.09 358.496 216.078 359.631C214.615 360.182 211.671 361.237 211.671 361.237Z" fill="#AA5500" stroke="black" stroke-linecap="round" stroke-linejoin="round"/>
<path d="M208.861 104.972C208.861 104.972 203.331 100.844 200.939 98.3783C198.542 95.9081 197.669 91.7541 194.575 90.2465C192.774 89.369 190.444 89.5515 188.565 90.2465C186.527 91.0005 184.652 92.5794 183.615 94.4892C182.764 96.0565 182.381 98.0888 182.908 99.7925C183.377 101.307 185.259 101.978 186.09 103.328C187.283 105.266 187.773 107.558 188.565 109.692C189.303 111.684 190.275 113.618 190.686 115.702C191.142 118.018 190.981 120.414 191.039 122.773C191.051 123.245 191.039 124.188 191.039 124.188L195.282 122.42C195.282 122.42 195.433 119.583 195.282 118.177C194.986 115.419 194.383 112.68 193.514 110.046C192.705 107.591 191.584 105.236 190.332 102.974C189.304 101.116 186.588 99.7854 186.797 97.6712C186.912 96.5102 188.147 95.5077 189.272 95.1963C191.613 94.5478 194.385 95.5256 196.343 96.9641C198.346 98.436 198.511 101.534 200.232 103.328C201.938 105.107 206.376 107.442 206.376 107.442L208.861 104.972Z" fill="#FF5555" stroke="black" stroke-linecap="round" stroke-linejoin="round"/>
<path d="M202.353 105.096C199.436 105.435 196.663 107.049 193.729 106.902C190.568 106.744 187.841 104.099 184.676 104.035C181.989 103.981 179.372 105.108 176.897 106.156C173.492 107.599 170.739 110.328 167.351 111.813C165.098 112.801 160.28 113.935 160.28 113.935V119.591C160.28 119.591 165.726 116.808 168.412 115.349C171.148 113.862 173.86 112.331 176.544 110.753C178.687 109.493 180.448 107.223 182.908 106.864C187.009 106.265 190.785 109.962 194.929 110.046C197.101 110.089 199.168 109.09 201.293 108.631C203.026 108.257 206.501 107.542 206.501 107.542L208.646 104.938C208.646 104.938 204.437 104.853 202.353 105.096Z" fill="#5555AA" stroke="black" stroke-linecap="round" stroke-linejoin="round"/>
<path d="M188.689 108.029C188.689 108.029 181.692 109.614 178.885 111.684C176.924 113.13 175.796 115.459 174.422 117.47C173.349 119.043 172.189 120.6 171.479 122.367C170.813 124.026 170.294 127.599 170.294 127.599L166.291 123.481C166.291 123.481 169.289 120.312 170.533 118.531C172.467 115.762 172.845 111.799 175.483 109.692C178.085 107.614 185.063 106.859 185.063 106.859L188.689 108.029Z" fill="#FFFF55" stroke="black" stroke-linecap="round" stroke-linejoin="round"/>
<path d="M185.736 110.399C183.132 112.102 180.05 113.475 178.312 116.056C177.651 117.036 177.761 118.358 177.38 119.477C176.874 120.962 175.588 123.829 175.588 123.829L178.312 125.602C178.312 125.602 180.03 123.04 180.653 121.637C181.387 119.983 181.248 117.949 182.267 116.453C183.868 114.102 188.918 111.106 188.918 111.106V108.631C188.918 108.631 186.752 109.735 185.736 110.399Z" fill="#FFAA55" stroke="black" stroke-linecap="round" stroke-linejoin="round"/>
<path d="M134.306 322.532C138.941 324.108 143.319 327.455 148.21 327.259C152.649 327.082 156.139 323.066 160.446 321.976C163.513 321.2 166.953 322.291 169.9 321.142C172.733 320.037 174.72 317.434 177.13 315.58" stroke="black" stroke-linecap="round" stroke-linejoin="round"/>
<path d="M186.863 278.595C186.029 282.488 184.78 286.315 184.36 290.275C184.058 293.132 183.191 296.27 184.36 298.895C185.375 301.174 188.068 302.232 189.922 303.901" stroke="black" stroke-linecap="round" stroke-linejoin="round"/>
<path d="M195.484 289.44C194.093 291.758 192.278 293.868 191.312 296.392C190.436 298.685 190.385 301.212 189.922 303.622" stroke="black" stroke-linecap="round" stroke-linejoin="round"/>
<path d="M177.408 300.842C178.057 302.696 177.992 304.99 179.355 306.403C180.944 308.051 183.619 308.072 185.751 308.906" stroke="black" stroke-linecap="round" stroke-linejoin="round"/>
<path d="M210.222 264.969C211.612 265.155 213.073 265.05 214.393 265.526C215.216 265.822 215.876 266.453 216.618 266.916" stroke="black" stroke-linecap="round" stroke-linejoin="round"/>
<path d="M211.89 270.531C214.115 270.624 216.497 269.983 218.564 270.809C220.394 271.541 221.53 273.405 223.013 274.702" stroke="black" stroke-linecap="round" stroke-linejoin="round"/>
<path d="M218.008 296.392C220.233 297.041 222.525 297.493 224.682 298.339C225.647 298.717 226.536 299.266 227.463 299.729" stroke="black" stroke-linecap="round" stroke-linejoin="round"/>
<path d="M221.901 305.847C223.57 306.125 225.351 306.016 226.907 306.681C227.759 307.046 228.39 307.794 229.131 308.35" stroke="black" stroke-linecap="round" stroke-linejoin="round"/>
<path d="M158.052 368.573C159.258 369.594 160.307 370.835 161.669 371.634C163.037 372.436 164.638 372.747 166.122 373.304" fill="#5555AA" fill-opacity="0.255396"/>
<path d="M158.052 368.573C159.258 369.594 160.307 370.835 161.669 371.634C163.037 372.436 164.638 372.747 166.122 373.304" stroke="black" stroke-linecap="round" stroke-linejoin="round"/>
<path d="M161.113 364.121C162.412 364.585 163.633 365.421 165.009 365.512C166.334 365.6 167.714 365.267 168.905 364.677C169.671 364.298 170.495 363.785 170.852 363.008C171.085 362.502 170.852 361.895 170.852 361.338" fill="#5555AA" fill-opacity="0.255396"/>
<path d="M161.113 364.121C162.412 364.585 163.633 365.421 165.009 365.512C166.334 365.6 167.714 365.267 168.905 364.677C169.671 364.298 170.495 363.785 170.852 363.008C171.085 362.502 170.852 361.895 170.852 361.338" stroke="black" stroke-linecap="round" stroke-linejoin="round"/>
<path d="M157.774 373.582C158.33 374.417 158.782 375.332 159.443 376.087C160.093 376.828 160.927 377.385 161.669 378.035" fill="#5555AA" fill-opacity="0.255396"/>
<path d="M157.774 373.582C158.33 374.417 158.782 375.332 159.443 376.087C160.093 376.828 160.927 377.385 161.669 378.035" stroke="black" stroke-linecap="round" stroke-linejoin="round"/>
<path d="M152.486 376.087C153.6 376.736 154.752 377.322 155.826 378.035C156.599 378.547 157.31 379.148 158.052 379.704" fill="#5555AA" fill-opacity="0.255396"/>
<path d="M152.486 376.087C153.6 376.736 154.752 377.322 155.826 378.035C156.599 378.547 157.31 379.148 158.052 379.704" stroke="black" stroke-linecap="round" stroke-linejoin="round"/>
<path d="M174.192 399.74C174.748 400.76 175.196 401.848 175.861 402.801C176.425 403.609 177.16 404.285 177.809 405.027" fill="#5555AA" fill-opacity="0.255396"/>
<path d="M174.192 399.74C174.748 400.76 175.196 401.848 175.861 402.801C176.425 403.609 177.16 404.285 177.809 405.027" stroke="black" stroke-linecap="round" stroke-linejoin="round"/>
<path d="M142.747 403.636C144.973 404.563 147.076 405.874 149.425 406.418C152.413 407.111 155.555 407.257 158.608 406.975C160.512 406.799 162.319 406.047 164.174 405.584" stroke="black" stroke-linecap="round" stroke-linejoin="round"/>
<path d="M141.912 410.036C144.045 414.395 145.833 418.942 148.312 423.115C150.113 426.146 152.096 429.102 154.434 431.741C155.349 432.773 156.475 433.596 157.495 434.524" stroke="black" stroke-linecap="round" stroke-linejoin="round"/>
<path d="M140.242 420.332C142.654 421.909 144.688 424.339 147.478 425.063C149.998 425.717 152.744 425.14 155.269 424.506C159.014 423.566 162.319 421.352 165.844 419.775" stroke="black" stroke-linecap="round" stroke-linejoin="round"/>
<path d="M137.46 433.133C138.387 435.452 138.78 438.065 140.242 440.089C141.592 441.957 143.548 443.366 145.53 444.542C147.07 445.456 148.869 445.84 150.539 446.49" stroke="black" stroke-linecap="round" stroke-linejoin="round"/>
<path d="M136.625 442.037C139.779 442.037 142.989 442.634 146.086 442.037C148.048 441.659 149.816 440.601 151.652 439.811C152.871 439.286 154.063 438.698 155.269 438.141" stroke="black" stroke-linecap="round" stroke-linejoin="round"/>
<path d="M206.708 331.823C208.59 329.591 210.379 327.277 212.354 325.127C214.49 322.802 216.819 320.663 219.051 318.431C220.057 317.424 220.916 316.243 222.071 315.411C223.023 314.724 224.172 314.36 225.222 313.835" stroke="black" stroke-linecap="round" stroke-linejoin="round"/>
<path d="M205.396 316.855C207.365 316.767 209.333 316.573 211.304 316.592C213.365 316.612 215.459 316.56 217.475 316.986C220.076 317.536 222.809 318.18 224.959 319.744C225.59 320.202 225.922 320.969 226.404 321.582" stroke="black" stroke-linecap="round" stroke-linejoin="round"/>
<path d="M208.416 332.874C210.648 332.918 212.897 332.724 215.112 333.005C218.503 333.435 222.006 333.896 225.091 335.369C226.189 335.893 227.017 336.857 227.979 337.601" stroke="black" stroke-linecap="round" stroke-linejoin="round"/>
<path d="M227.06 331.298C224.828 332.611 222.467 333.726 220.364 335.237C218.247 336.758 216.156 338.383 214.455 340.358C213.069 341.968 212.179 343.947 211.042 345.741" stroke="black" stroke-linecap="round" stroke-linejoin="round"/>
<path d="M132.261 445.005C131.604 445.137 130.958 445.626 130.554 446.187C129.914 447.075 129.853 448.025 129.635 449.338" stroke="black" stroke-linecap="round" stroke-linejoin="round"/>
<path d="M135.543 448.944C134.843 449.076 134.234 449.458 133.836 449.995C133.217 450.831 133.18 451.789 133.048 453.015" stroke="black" stroke-linecap="round" stroke-linejoin="round"/>
<path d="M140.927 453.146C140.226 453.409 139.292 454.08 138.826 454.853C138.365 455.617 138.476 456.297 138.301 457.479" stroke="black" stroke-linecap="round" stroke-linejoin="round"/>
<path d="M144.997 456.297C144.603 456.604 144.075 456.79 143.815 457.216C143.073 458.433 143.29 460.017 143.027 461.418" stroke="black" stroke-linecap="round" stroke-linejoin="round"/>
<path d="M150.38 461.155C149.943 461.243 149.356 461.824 149.067 462.337C148.37 463.58 148.542 464.832 148.279 466.539" stroke="black" stroke-linecap="round" stroke-linejoin="round"/>
<path d="M154.976 466.933C154.626 467.239 154.205 467.638 154.057 468.114C153.836 468.826 154.1 469.515 154.188 470.346" stroke="black" stroke-linecap="round" stroke-linejoin="round"/>
<path d="M150.511 457.085C152.569 456.647 154.636 456.256 156.683 455.772C157.695 455.532 158.671 455.117 159.703 454.984C160.744 454.851 161.803 454.984 162.854 454.984" stroke="black" stroke-linecap="round" stroke-linejoin="round"/>
<path d="M153.794 461.024C155.195 460.674 156.568 460.188 157.996 459.974C159.643 459.727 161.322 459.801 162.985 459.711C163.773 459.669 164.561 459.624 165.349 459.58" stroke="black" stroke-linecap="round" stroke-linejoin="round"/>
<path d="M157.077 465.751C158.477 465.445 159.864 465.068 161.278 464.832C163.147 464.52 165.036 464.337 166.924 464.175C167.71 464.108 168.5 464.088 169.288 464.044" stroke="black" stroke-linecap="round" stroke-linejoin="round"/>
<path d="M162.591 467.983C164.079 467.677 165.544 467.218 167.056 467.064C168.754 466.891 170.469 467.064 172.176 467.064" stroke="black" stroke-linecap="round" stroke-linejoin="round"/>
<path d="M162.591 470.478C162.46 470.959 162.211 471.423 162.197 471.922C162.18 472.549 162.46 473.148 162.591 473.76" stroke="black" stroke-linecap="round" stroke-linejoin="round"/>
<path d="M154.451 454.59C155.02 456.604 156.679 458.644 157.864 460.63C158.58 461.829 159.071 463.228 160.097 464.175C161.621 465.583 163.859 465.952 165.611 467.064C166.956 467.918 168.631 468.64 169.419 469.953" stroke="black" stroke-linecap="round" stroke-linejoin="round"/>
<path d="M158.521 453.277C159.659 454.503 160.954 455.599 161.935 456.954C163.049 458.493 163.583 460.4 164.692 461.943C165.524 463.1 166.494 464.173 167.581 465.094C168.497 465.872 169.553 466.474 170.601 467.064C171.658 467.659 172.986 467.822 173.883 468.64C174.072 468.811 174.146 469.077 174.277 469.296" stroke="black" stroke-linecap="round" stroke-linejoin="round"/>
<path d="M170.732 471.003C171.082 471.66 171.623 472.246 171.782 472.973C171.942 473.701 171.695 474.461 171.651 475.205" stroke="black" stroke-linecap="round" stroke-linejoin="round"/>
<path d="M176.641 470.347C177.122 471.003 177.832 471.542 178.085 472.316C178.344 473.106 178.085 473.979 178.085 474.811" stroke="black" stroke-linecap="round" stroke-linejoin="round"/>
<path d="M251.822 341.301C244.309 346.04 237.826 350.695 231.663 356.434" stroke="black" stroke-linecap="round" stroke-linejoin="round"/>
<path d="M226.578 357.381C219.971 361.464 215.404 365.547 211.328 369.631" stroke="black" stroke-linecap="round" stroke-linejoin="round"/>
<path d="M218.078 360.881C216.078 362.214 213.729 363.134 212.078 364.881C210.949 366.075 210.258 367.634 209.578 369.131C209.251 369.85 209.078 370.631 208.828 371.381" stroke="black" stroke-linecap="round" stroke-linejoin="round"/>
<path d="M256.455 340.801C254.466 341.25 252.294 343.065 250.328 344.381C248.5 345.605 246.828 347.047 245.078 348.381" stroke="black" stroke-linecap="round" stroke-linejoin="round"/>
<path d="M258.828 341.631C257.661 342.547 253.941 345.458 252.296 346.136L258.828 341.631Z" fill="#AA5500" fill-opacity="0.233813"/>
<path d="M258.828 341.631C257.661 342.547 253.941 345.458 252.296 346.136" stroke="black" stroke-linecap="round" stroke-linejoin="round"/>
<path d="M260.679 343.695C257.799 346.829 253.244 349.964 249.328 352.381" stroke="black" stroke-linecap="round" stroke-linejoin="round"/>
<path d="M260.354 346.509C257.613 350.452 254.042 352.437 250.455 354.828C248.308 356.259 244.328 358.047 243.578 358.381" stroke="black" stroke-linecap="round" stroke-linejoin="round"/>
<path d="M257.578 353.381C255.23 355.432 253.01 357.032 250.535 358.577C247.918 360.212 244.744 362.07 242.328 362.859" stroke="black" stroke-linecap="round" stroke-linejoin="round"/>
<path d="M226.328 360.381C220.331 363.57 215.905 367.938 211.578 372.381" stroke="black" stroke-linecap="round" stroke-linejoin="round"/>
<path d="M225.647 364.572C221.256 366.696 216.724 370.495 212.578 373.881" stroke="black" stroke-linecap="round" stroke-linejoin="round"/>
<path d="M224.328 368.381C220.828 370.425 217.886 372.675 214.466 375.482" stroke="black" stroke-linecap="round" stroke-linejoin="round"/>
<path d="M224.828 371.631C222.578 372.964 219.291 375.255 217.041 376.03" stroke="black" stroke-linecap="round" stroke-linejoin="round"/>
<path d="M227.796 372.014C225.546 373.579 223.017 375.476 220.328 376.631C218.823 377.276 217.002 378.421 215.578 377.881" stroke="black" stroke-linecap="round" stroke-linejoin="round"/>
<path d="M209.828 373.381C210.245 374.831 212.306 376.622 213.785 377.46" stroke="black" stroke-linecap="round" stroke-linejoin="round"/>
<path d="M252.328 339.381C253.744 339.214 255.154 338.789 256.578 338.881C257.949 338.968 259.517 339.006 260.578 339.881C261.642 340.758 262.141 342.264 262.328 343.631C262.534 345.137 262.028 346.678 261.578 348.131C261.169 349.448 260.411 350.631 259.828 351.881" stroke="black" stroke-linecap="round" stroke-linejoin="round"/>
<path d="M249.967 340.229C243.141 344.13 234.958 350.664 228.69 356.32" stroke="black" stroke-linecap="round" stroke-linejoin="round"/>
<path d="M131.699 89.2515L134.542 90.2141L131.699 89.2515Z" fill="#FFAAAA"/>
<path d="M131.699 89.2515L134.542 90.2141" stroke="black" stroke-linecap="round" stroke-linejoin="round"/>
<path d="M133.098 87.1431L137.652 88.3514L133.098 87.1431Z" fill="#FFAAAA"/>
<path d="M133.098 87.1431L137.652 88.3514" stroke="black" stroke-linecap="round" stroke-linejoin="round"/>
<path d="M138.776 82.9251L142.237 84.422L138.776 82.9251Z" fill="#FFAAAA"/>
<path d="M138.776 82.9251L142.237 84.422" stroke="black" stroke-linecap="round" stroke-linejoin="round"/>
<path d="M140.802 80.6098L145.318 82.7903L140.802 80.6098Z" fill="#FFAAAA"/>
<path d="M140.802 80.6098L145.318 82.7903" stroke="black" stroke-linecap="round" stroke-linejoin="round"/>
<path d="M144.345 78.8389L147.945 80.6204L144.345 78.8389Z" fill="#FFAAAA"/>
<path d="M144.345 78.8389L147.945 80.6204" stroke="black" stroke-linecap="round" stroke-linejoin="round"/>
<path d="M129.379 120.349L129.527 125.224L129.379 120.349Z" fill="#FFAAAA"/>
<path d="M129.379 120.349L129.527 125.224" stroke="black" stroke-linecap="round" stroke-linejoin="round"/>
<path d="M127.004 119.974L127.152 125.412L127.004 119.974Z" fill="#FFAAAA"/>
<path d="M127.004 119.974L127.152 125.412" stroke="black" stroke-linecap="round" stroke-linejoin="round"/>
<path d="M147.216 77.315L150.099 79.1464L147.216 77.315Z" fill="#FFAAAA"/>
<path d="M147.216 77.315L150.099 79.1464" stroke="black" stroke-linecap="round" stroke-linejoin="round"/>
<path d="M135.916 84.6497L139.959 86.166L135.916 84.6497Z" fill="#FFAAAA"/>
<path d="M135.916 84.6497L139.959 86.166" stroke="black" stroke-linecap="round" stroke-linejoin="round"/>
<path d="M30.8278 236.381C25.2878 236.381 20.8278 240.841 20.8278 246.381V261.381C20.8278 266.921 25.2878 271.381 30.8278 271.381C36.3678 271.381 40.8278 266.921 40.8278 261.381H35.8278C35.8278 264.151 33.5978 266.381 30.8278 266.381C28.0578 266.381 25.8278 264.151 25.8278 261.381V256.381H40.8278V251.381V246.381C40.8278 240.841 36.3678 236.381 30.8278 236.381ZM30.8278 241.381C33.5978 241.381 35.8278 243.611 35.8278 246.381V251.381H25.8278V246.381C25.8278 243.611 28.0578 241.381 30.8278 241.381Z" fill="#FF5555"/>
<path d="M330.828 386.381C336.368 386.381 340.828 381.921 340.828 376.381V361.381C340.828 355.841 336.368 351.381 330.828 351.381C325.288 351.381 320.828 355.841 320.828 361.381V376.381C320.828 381.921 325.288 386.381 330.828 386.381ZM330.828 381.381C328.058 381.381 325.828 379.151 325.828 376.381V361.381C325.828 358.611 328.058 356.381 330.828 356.381C333.598 356.381 335.828 358.611 335.828 361.381V376.381C335.828 379.151 333.598 381.381 330.828 381.381Z" fill="#FF5555"/>
<path d="M340.828 311.381H335.828V326.381H334.828L326.328 311.381H320.828L329.828 326.912C325.882 328.25 325.828 331.972 325.828 336.381C325.828 339.374 323.485 341.381 320.828 341.381V346.381C325.828 346.381 330.828 341.381 330.828 336.381C330.828 333.611 330.828 331.381 333.828 331.381H335.828V336.381V346.381H340.828C340.828 331.381 340.828 321.381 340.828 311.381Z" fill="#FF5555"/>
<path d="M330.828 306.381C336.368 306.381 340.828 301.921 340.828 296.381V281.381C340.828 275.841 336.368 271.381 330.828 271.381C325.288 271.381 320.828 275.841 320.828 281.381H325.828C325.828 278.611 328.058 276.381 330.828 276.381C333.598 276.381 335.828 278.611 335.828 281.381V286.381H320.828V291.381V296.381C320.828 301.921 325.288 306.381 330.828 306.381ZM330.828 301.381C328.058 301.381 325.828 299.151 325.828 296.381V291.381H335.828V296.381C335.828 299.151 333.598 301.381 330.828 301.381Z" fill="#FF5555"/>
<path d="M340.828 266.381V256.381V241.381V221.381H335.828V232.725C334.359 231.879 332.65 231.381 330.828 231.381C325.288 231.381 320.828 235.841 320.828 241.381V256.381C320.828 261.921 325.288 266.381 330.828 266.381C332.65 266.381 334.359 265.882 335.828 265.037V266.381H340.828ZM330.828 261.381C328.058 261.381 325.828 259.151 325.828 256.381V241.381C325.828 238.611 328.058 236.381 330.828 236.381C333.598 236.381 335.828 238.611 335.828 241.381V256.381C335.828 259.151 333.598 261.381 330.828 261.381Z" fill="#FF5555"/>
<path fill-rule="evenodd" clip-rule="evenodd" d="M330.828 511.381C339.112 511.381 345.828 504.665 345.828 496.381C345.828 488.097 339.112 481.381 330.828 481.381C322.543 481.381 315.828 488.097 315.828 496.381C315.828 504.665 322.543 511.381 330.828 511.381ZM330.828 506.381C325.305 506.381 320.828 501.904 320.828 496.381C320.828 490.858 325.305 486.381 330.828 486.381C336.351 486.381 340.828 490.858 340.828 496.381C340.828 501.904 336.351 506.381 330.828 506.381Z" fill="#FF5555"/>
<path fill-rule="evenodd" clip-rule="evenodd" d="M330.828 506.381L328.477 499.617L321.317 499.471L327.024 495.145L324.95 488.291L330.828 492.381L336.706 488.291L334.632 495.145L340.338 499.471L333.179 499.617L330.828 506.381Z" fill="#FF5555"/>
</svg>
