<svg width="363" height="544" viewBox="0 0 363 544" fill="none" xmlns="http://www.w3.org/2000/svg">
<path d="M330.741 2.5H31.63C15.0921 2.5 1.68555 15.9066 1.68555 32.4445V511.556C1.68555 528.093 15.0921 541.5 31.63 541.5H330.741C347.279 541.5 360.686 528.093 360.686 511.556V32.4445C360.686 15.9066 347.279 2.5 330.741 2.5Z" stroke="black" stroke-width="3.125"/>
<path d="M31.1855 32C25.6627 32 21.1855 36.4771 21.1855 42V72C21.1855 77.5229 25.6627 82 31.1855 82C31.6193 82 32.0476 81.9598 32.4668 81.9063C34.1797 84.9558 37.439 87.0001 41.1855 87.0001V82.0001C39.546 82.0001 38.0974 81.188 37.1855 79.9688C39.61 78.144 41.1855 75.2682 41.1855 72.0001V42.0001C41.1855 36.4772 36.7084 32.0001 31.1855 32.0001V32ZM31.1855 37C33.947 37 36.1855 39.2386 36.1855 42V72C36.1855 72.7157 36.0189 73.3844 35.748 74C34.4734 69.9436 30.6627 67 26.1855 67V42C26.1855 39.2386 28.4241 37 31.1855 37ZM26.1855 72C28.947 72 31.1855 74.2386 31.1855 77C28.4241 77 26.1855 74.7614 26.1855 72Z" fill="#FF5555"/>
<path d="M331.186 511.999C336.708 511.999 341.186 507.522 341.186 501.999V471.999C341.186 466.477 336.708 461.999 331.186 461.999C330.752 461.999 330.323 462.039 329.904 462.093C328.191 459.044 324.932 457 321.186 457V462C322.825 462 324.274 462.812 325.186 464.031C322.761 465.856 321.186 468.732 321.186 472V502C321.186 507.522 325.663 512 331.186 512V511.999ZM331.186 506.999C328.424 506.999 326.186 504.761 326.186 501.999V471.999C326.186 471.284 326.352 470.615 326.623 469.999C327.898 474.056 331.708 476.999 336.186 476.999V501.999C336.186 504.761 333.947 506.999 331.186 506.999ZM336.186 471.999C333.424 471.999 331.186 469.761 331.186 466.999C333.947 466.999 336.186 469.238 336.186 471.999Z" fill="#FF5555"/>
<path d="M61.1855 32H331.186V392" stroke="#5555AA" stroke-width="2"/>
<path d="M31.1855 152V512H301.186" stroke="#5555AA" stroke-width="2"/>
<path d="M146.247 199.625L148.196 192.021C148.196 192.021 156.82 195.288 161.26 196.505C166.509 197.944 171.886 198.882 177.248 199.82C180.416 200.374 183.595 200.924 186.801 201.185C193.28 201.71 199.8 201.702 206.299 201.574C212.873 201.445 219.441 200.984 225.991 200.405C229.316 200.111 232.632 199.713 235.935 199.235C239.72 198.686 247.243 197.285 247.243 197.285L234.375 209.763L210.198 209.958L197.72 241.154L216.827 242.519L213.123 263.576C213.123 263.576 198.417 262.896 191.091 262.212C184.308 261.578 177.546 260.709 170.813 259.677C166.504 259.016 162.242 258.072 157.945 257.337C154.701 256.783 148.196 255.777 148.196 255.777C148.196 255.777 145.515 248.808 143.907 245.444C141.386 240.17 135.523 230.041 135.523 230.041L153.266 234.33L163.014 205.279L146.247 199.625Z" fill="black"/>
<path d="M122.208 179.623C122.208 179.623 130.671 185.139 135.182 187.386C139.394 189.484 148.264 192.689 148.264 192.689L136.596 230.166C136.596 230.166 130.09 220.938 126.343 216.731C122.844 212.801 118.932 209.249 114.984 205.771C111.595 202.786 104.423 197.285 104.423 197.285L122.208 179.623Z" fill="#5555AA"/>
<path d="M124.576 246.429C124.576 246.429 129.044 259.925 129.879 266.935C130.758 274.309 130.794 281.893 129.525 289.209C128.399 295.709 125.945 301.967 123.161 307.948C120.663 313.317 117.809 318.642 113.969 323.15C110.662 327.033 106.452 330.085 102.302 333.05C97.0561 336.799 85.6848 342.949 85.6848 342.949L82.1493 339.767C82.1493 339.767 83.5077 325.535 84.9777 318.554C86.5456 311.109 88.6213 303.739 91.3417 296.634C93.8671 290.038 97.2085 283.773 100.534 277.542C103.817 271.39 106.837 264.997 111.141 259.511C114.999 254.593 124.576 246.429 124.576 246.429Z" fill="#5555AA"/>
<path d="M118.212 253.147C118.212 253.147 122.462 265.941 122.808 272.592C123.19 279.95 121.974 287.42 119.979 294.513C118.023 301.47 115.147 308.296 111.141 314.312C108.091 318.892 104.056 322.813 99.8269 326.332C94.9774 330.368 83.917 336.585 83.917 336.585C83.917 336.585 85.4154 321.911 86.7454 314.665C87.7517 309.183 88.8064 303.667 90.6345 298.402C92.9345 291.777 96.2251 285.525 99.4733 279.31C102.067 274.348 104.681 269.354 107.959 264.814C110.989 260.616 118.212 253.147 118.212 253.147Z" fill="#FF5555"/>
<path d="M48.9505 227.638L43.1471 240.63C43.1471 240.63 43.9785 244.859 45.6827 245.614C46.7094 246.069 48.0043 245.487 48.9327 244.728C50.1196 243.757 51.4327 240.418 51.4327 240.418L56.3931 229.981" fill="#FFFF55"/>
<path d="M48.9505 227.638L43.1471 240.63C43.1471 240.63 43.9785 244.859 45.6827 245.614C46.7094 246.069 48.0043 245.487 48.9327 244.728C50.1196 243.757 51.4327 240.418 51.4327 240.418L56.3931 229.981" stroke="#5555AA" stroke-width="2" stroke-linecap="round" stroke-linejoin="round"/>
<path d="M44.1346 240.259C44.1346 240.259 46.618 239.251 47.9328 239.165C48.9853 239.096 51.0614 239.639 51.0614 239.639" stroke="#5555AA" stroke-width="2" stroke-linecap="round" stroke-linejoin="round"/>
<path d="M167.393 67.7819C167.393 67.7819 153.612 81.8282 148.314 90.0397C142.77 98.6334 138.612 108.15 135.324 117.834C132.472 126.232 130.967 135.055 129.583 143.816C128.763 149.012 128.482 154.281 128.073 159.526C127.68 164.555 127.167 174.631 127.167 174.631L172.181 132.94C172.181 132.94 169.466 123.767 168.858 119.042C168.254 114.347 168.606 109.577 168.556 104.843C168.488 98.4992 168.76 92.1512 168.556 85.8101C168.362 79.7913 167.393 67.7819 167.393 67.7819Z" fill="black"/>
<path d="M300.964 176.369C295.896 178.961 288.897 182.444 282.717 185.162C276.883 187.727 271.002 190.221 264.96 192.246C259.878 193.949 254.652 195.2 249.45 196.489C244.628 197.683 239.813 198.978 234.901 199.723C229.822 200.493 224.665 200.612 219.541 200.989C215.421 201.293 211.304 201.714 207.174 201.792C202.171 201.886 197.163 201.674 192.167 201.386C187.578 201.122 182.972 200.887 178.431 200.175C173.313 199.372 168.285 198.053 163.274 196.737C158.958 195.604 154.69 194.285 150.448 192.901C145.795 191.383 141.096 189.953 136.607 188.003C131.343 185.717 124.868 181.829 121.332 180.061L166.623 138.012C166.623 138.012 169.365 138.521 170.727 138.819C173.316 139.385 173.175 139.766 178.457 140.677C180.953 141.715 182.623 144.248 185.103 145.322C188.126 146.63 191.479 147.36 194.773 147.352C201.062 147.338 208.639 145.655 213.22 143.391C215.604 143.389 217.706 142.991 219.947 142.775C223.057 142.475 226.177 142.252 229.273 141.829C232.599 141.374 235.962 141.017 239.197 140.118C241.963 139.35 244.588 138.134 247.223 136.994C250.114 135.743 255.751 132.923 255.751 132.923C259.733 139.562 264.788 148.426 273.342 156.528C277.619 160.579 282.619 166.266 286.893 169.511C291.167 172.756 297.964 174.778 300.964 176.369Z" fill="#FFFF58"/>
<path d="M168.379 105.658C168.379 105.658 162.284 115.391 159.795 120.553C158.007 124.259 156.408 128.082 155.263 132.033C154.361 135.147 153.749 138.36 153.446 141.588C153.188 144.332 153.451 149.858 153.451 149.858L172.484 132.94C172.484 132.94 169.84 124.367 169.16 119.949C168.435 115.233 168.379 105.658 168.379 105.658H168.379Z" fill="#FF5555"/>
<path d="M225.186 32L290.686 116.167L298.519 114.5L239.186 32H225.186Z" fill="black"/>
<path d="M308.186 32C306.513 41.8989 305.842 51.9667 306.186 62C306.533 72.168 307.937 82.3586 311.186 92C313.573 99.0861 316.949 105.838 321.186 112C317.857 111.78 314.514 111.78 311.186 112C306.805 112.289 302.45 112.959 298.186 114L239.186 32H308.186Z" fill="#FFFF55" stroke="#5555AA" stroke-width="2" stroke-linecap="round" stroke-linejoin="round"/>
<path d="M274.778 57.4703C275.173 58.4611 275.629 59.4523 276.296 60.28C277.175 61.3717 278.14 62.5926 279.487 63.0224C281.182 63.5626 283.48 63.7472 284.878 62.5722C286.242 61.427 286.668 59.1382 286.225 57.4666C285.713 55.5374 281.997 53.2831 281.997 53.2831C281.997 53.2831 286.725 51.7028 287.553 49.6705C288.331 47.7622 287.52 45.2176 286.113 43.7916C284.726 42.3848 282.185 41.4504 280.317 42.2728C278.22 43.1961 277.017 48.296 277.017 48.296C277.017 48.296 276.179 44.5429 274.967 43.1667C273.89 41.9445 272.339 40.75 270.676 40.7863C269.201 40.8185 267.499 41.7436 266.81 43.0654C265.724 45.1456 266.198 48.033 267.435 49.9439C268.674 51.8592 273.433 53.286 273.433 53.286C273.433 53.286 272.158 50.5827 274.415 49.0231C276.219 47.7765 279.461 49.2614 280.461 51.1307C281.308 52.713 280.862 55.7506 279.161 56.4787C275.766 57.9316 274.043 54.7568 274.043 54.7568C274.043 54.7568 274.432 56.6024 274.778 57.4703Z" fill="black" stroke="#000100" stroke-width="2" stroke-linecap="round" stroke-linejoin="round"/>
<path d="M294.354 84.7082C294.707 85.6043 295.114 86.5007 295.708 87.2493C296.493 88.2366 297.353 89.3407 298.556 89.7294C300.068 90.218 302.118 90.3849 303.366 89.3222C304.582 88.2866 304.963 86.2166 304.567 84.7049C304.111 82.9601 300.795 80.9214 300.795 80.9214C300.795 80.9214 304.502 79.0944 305.086 77.3209C305.655 75.5889 305.097 73.2868 303.801 72.0041C302.706 70.9199 300.701 70.3296 299.296 70.9639C297.415 71.8133 296.352 76.4111 296.352 76.4111C296.352 76.4111 295.604 73.0169 294.522 71.7723C293.561 70.667 292.178 69.5867 290.694 69.6195C289.378 69.6486 287.86 70.4853 287.244 71.6807C286.276 73.562 286.699 76.1733 287.802 77.9015C288.908 79.6337 293.154 80.9241 293.154 80.9241C293.154 80.9241 292.016 78.4792 294.03 77.0687C295.64 75.9413 298.532 77.2842 299.425 78.9748C300.181 80.4058 299.782 83.153 298.264 83.8115C295.236 85.1254 293.698 82.2541 293.698 82.2541C293.698 82.2541 294.045 83.9233 294.354 84.7082Z" fill="black" stroke="#000100" stroke-width="2" stroke-linecap="round" stroke-linejoin="round"/>
<path d="M248.519 33.6667C248.519 33.6667 249.107 44.8942 254.019 50.5C258.741 55.8889 264.297 56.1111 269.186 55.6667C269.186 55.6667 266.886 68.8064 271.186 74.1667C275.849 79.9808 291.186 84.5 291.186 84.5C291.186 84.5 287.606 94.5473 292.519 101.5C295.24 105.35 304.352 111 304.352 111" stroke="black" stroke-width="2" stroke-linecap="round" stroke-linejoin="round"/>
<path d="M253.279 32.6378C252.59 32.6398 251.94 33.1793 251.811 33.8566C251.811 33.8566 249.988 42.1899 255.873 48.0753C256.783 48.9857 258.091 49.7687 259.686 50.6378C261.28 51.5069 263.123 52.3978 264.873 53.2003C267.927 54.6006 270.022 55.4 270.686 55.6691C270.689 56.3758 270.663 57.9001 271.061 60.7003C271.54 64.0753 272.148 68.8605 274.383 72.0233C278.524 77.8813 283.27 80.3875 286.686 82.0753C288.921 83.1799 290.445 83.5658 291.467 83.7628C291.565 84.5319 291.745 86.1886 292.311 89.0441C292.994 92.4921 293.925 96.4129 295.498 98.9503C297.147 101.61 300.426 104.447 303.373 106.794C306.32 109.141 308.936 110.919 308.936 110.919C309.59 111.361 310.588 111.168 311.03 110.513C311.471 109.858 307.944 107.361 307.29 106.919C307.29 106.919 304.934 103.556 304.415 100.117C301.562 97.8449 299.48 97.7948 297.863 95.7211C296.278 93.6905 295.906 91.7733 295.248 88.4503C294.59 85.1273 294.248 82.3253 294.248 82.3253C294.164 81.6443 293.557 81.0649 292.873 81.0128C292.873 81.0128 287.172 79.5785 285.029 77.7211C282.558 75.579 279.344 74.7606 279.988 69.3045C278.257 66.8558 274.475 63.4017 274.029 60.2628C273.584 57.124 273.592 54.7003 273.592 54.7003C273.611 54.0916 273.219 53.491 272.654 53.2628C272.654 53.2628 269.547 52.0199 266.123 50.4503C264.411 49.6656 262.323 49.4012 261.123 47.9816C259.656 46.2458 259.572 41.8576 259.165 41.4503C254.509 36.7948 254.748 34.4816 254.748 34.4816C254.955 33.6017 254.183 32.6327 253.279 32.6378Z" fill="black"/>
<path d="M212.186 32H225.519L331.186 170.667V203L212.186 32Z" fill="#FF5555" stroke="#5555AA" stroke-width="2"/>
<path d="M188.179 32C188.179 32 189.948 43.2957 202.83 54.1742C215.712 65.0527 237.189 69.4031 237.189 69.4031" stroke="#5555AA" stroke-width="2" stroke-linecap="round" stroke-linejoin="round"/>
<path d="M193.346 32C193.346 32 198.559 43.8302 205.774 49.8428C212.99 55.8554 233.306 62.9569 233.306 62.9569" stroke="#5555AA" stroke-width="2" stroke-linecap="round" stroke-linejoin="round"/>
<path d="M199.453 32C199.453 32 203.863 42.0588 209.245 46.6398C214.626 51.2208 229.169 57.1727 229.169 57.1727" stroke="#5555AA" stroke-width="2" stroke-linecap="round" stroke-linejoin="round"/>
<path d="M204.474 32C204.474 32 207.205 38.8319 211.503 42.3821C215.801 45.9324 224.394 49.7728 224.394 49.7728" stroke="#5555AA" stroke-width="2" stroke-linecap="round" stroke-linejoin="round"/>
<path d="M190.124 39.538C190.124 39.538 189.284 43.6234 183.98 52.4949C178.677 61.3665 168.233 65.1274 168.233 65.1274" stroke="#5555AA" stroke-width="2" stroke-linecap="round" stroke-linejoin="round"/>
<path d="M186.237 32C186.237 32 186.063 39.0485 181.239 46.5611C176.415 54.0737 168.298 57.8753 168.298 57.8753" stroke="#5555AA" stroke-width="2" stroke-linecap="round" stroke-linejoin="round"/>
<path d="M180.866 32C180.866 32 178.933 39.4579 176.357 44.0389C173.781 48.62 168.496 51.9371 168.496 51.9371" stroke="#5555AA" stroke-width="2" stroke-linecap="round" stroke-linejoin="round"/>
<path d="M174.74 32C174.74 32 174.92 36.4006 172.797 39.9509C170.673 43.5012 169.207 43.935 169.207 43.935" stroke="#5555AA" stroke-width="2" stroke-linecap="round" stroke-linejoin="round"/>
<path d="M187.591 85.4699C187.591 85.4699 188.18 88.0506 188.121 89.357C187.959 92.933 186.925 96.4544 185.712 99.8224C184.917 102.031 182.713 103.774 182.554 106.116C182.423 108.062 183.171 110.18 184.45 111.653C185.352 112.691 187.09 112.618 188.127 113.521C188.965 114.252 190.033 116.261 190.033 116.261" stroke="#5555AA" stroke-width="2" stroke-linecap="round" stroke-linejoin="round"/>
<path d="M199.933 104.781C199.933 104.781 203.258 108.34 202.793 110.385C202.488 111.72 200.878 112.667 199.525 112.876C197.746 113.15 196.125 111.687 194.443 111.048C192.849 110.442 191.316 108.617 189.695 109.146C189.044 109.359 188.279 110.288 188.606 110.89C189.142 111.874 190.849 110.876 191.968 110.943C195.361 111.147 199.405 114.061 202.112 112.004C202.983 111.342 202.891 109.835 202.656 108.766C202.311 107.195 199.933 104.781 199.933 104.781Z" fill="#5555AA" stroke="#5555AA" stroke-width="2" stroke-linecap="round" stroke-linejoin="round"/>
<path d="M233.386 81.7722C233.386 81.7722 224.178 75.4907 218.888 74.1227C214.727 73.0465 210.15 72.7546 205.995 73.8572C204.324 74.3007 201.544 76.5216 201.544 76.5216C201.544 76.5216 205.619 75.2104 207.733 74.9827C212.003 74.5229 216.447 74.3072 220.61 75.358C225.231 76.5241 233.386 81.7722 233.386 81.7722Z" fill="#5555AA" stroke="#5555AA" stroke-width="2" stroke-linecap="round" stroke-linejoin="round"/>
<path d="M169.456 76.2507C169.456 76.2507 175.023 73.2708 177.996 73.597C181.701 74.0033 187.584 79.1227 187.584 79.1227C187.584 79.1227 181.343 74.8646 177.724 74.7533C174.686 74.6598 169.219 77.9051 169.219 77.9051L169.456 76.2507Z" fill="#5555AA" stroke="#5555AA" stroke-width="2" stroke-linecap="round" stroke-linejoin="round"/>
<path d="M205.126 124.971C205.126 124.971 200.422 123.095 197.971 122.926C196.132 122.799 194.325 123.623 192.484 123.712C190.382 123.813 188.227 122.858 186.179 123.42C185.058 123.727 183.148 125.356 183.148 125.356C183.148 125.356 185.235 124.896 186.285 124.959C188.421 125.087 190.422 126.525 192.561 126.527C194.922 126.531 197.111 125.071 199.491 124.815C201.361 124.614 205.126 124.971 205.126 124.971Z" fill="#5555AA" stroke="#5555AA" stroke-width="2" stroke-linecap="round" stroke-linejoin="round"/>
<path d="M198.764 129.833C198.764 129.833 194.821 131.204 192.773 131.248C191.02 131.286 187.599 130.258 187.599 130.258" stroke="#5555AA" stroke-width="2" stroke-linecap="round" stroke-linejoin="round"/>
<path d="M186.811 84.9C186.811 84.9 181.779 80.7942 177.162 80.6946C172.22 80.5879 169.267 83.2178 169.267 83.2178" stroke="#5555AA" stroke-width="2" stroke-linecap="round" stroke-linejoin="round"/>
<path d="M229.799 87.0458C229.799 87.0458 219.936 79.7202 214.273 79.8834C206.852 80.0973 201.312 85.4425 201.312 85.4425" stroke="#5555AA" stroke-width="2" stroke-linecap="round" stroke-linejoin="round"/>
<path d="M230.891 88.6213C225.038 87.8638 220.736 85.322 215.349 84.8619C210.73 84.4674 201.407 85.8983 201.407 85.8983" stroke="#5555AA" stroke-width="2" stroke-linecap="round" stroke-linejoin="round"/>
<path d="M168.639 88.6936C174.026 86.1519 172.872 85.3433 178.259 84.8832C182.878 84.4887 187.705 87.1091 187.705 87.1091" stroke="#5555AA" stroke-width="2" stroke-linecap="round" stroke-linejoin="round"/>
<path d="M227.654 89.0802C222.388 90.28 216.885 94.1616 210.927 94.4583C206.512 94.6782 201.776 91.6444 201.387 87.5611" stroke="#5555AA" stroke-width="2" stroke-linecap="round" stroke-linejoin="round"/>
<path d="M216.567 86.3956C217.504 91.4594 212.548 92.9547 208.988 92.5172C206.573 92.2203 204.334 89.2572 205.496 86.3633" stroke="#5555AA" stroke-width="2" stroke-linecap="round" stroke-linejoin="round"/>
<path d="M208.318 89.243C208.22 88.3259 209.064 87.063 210.024 87.0127C210.864 86.9686 211.748 87.9902 211.729 88.7969C211.71 89.6378 210.746 90.559 209.869 90.5811C209.174 90.5986 208.389 89.9062 208.318 89.243Z" fill="#5555AA" stroke="#5555AA" stroke-width="2" stroke-linecap="round" stroke-linejoin="round"/>
<path d="M179.743 89.5481C179.77 88.8311 178.897 87.9031 178.001 87.9224C177.217 87.9391 176.468 88.7849 176.542 89.4091C176.619 90.0599 177.581 90.7156 178.397 90.6796C179.044 90.6512 179.724 90.0666 179.743 89.5481Z" fill="#5555AA" stroke="#5555AA" stroke-width="2" stroke-linecap="round" stroke-linejoin="round"/>
<path d="M186.153 93.4127C184.061 95.8726 183.91 98.056 179.574 100.141" stroke="#5555AA" stroke-width="2" stroke-linecap="round" stroke-linejoin="round"/>
<path d="M201.127 85.9327C202.731 93.0543 204.576 97.2993 209.724 99.4544" stroke="#5555AA" stroke-width="2" stroke-linecap="round" stroke-linejoin="round"/>
<path d="M168.736 91.4142C171.591 93.2182 175.248 94.2834 179.912 94.1616C183.367 94.0713 186.88 91.6233 186.941 88.6652" stroke="#5555AA" stroke-width="2" stroke-linecap="round" stroke-linejoin="round"/>
<path d="M174.011 86.1032C172.9 91.0022 175.107 93.6391 179.155 93.5561C180.935 93.5196 184.577 89.5169 181.902 85.7115" stroke="#5555AA" stroke-width="2" stroke-linecap="round" stroke-linejoin="round"/>
<path d="M170.186 32C170.186 32 167.891 53.9704 167.686 65C167.524 73.6716 168.43 82.3307 168.686 91C168.926 99.1648 168.275 107.383 169.186 115.5C169.831 121.249 170.12 127.314 172.686 132.5C174.938 137.053 178.393 141.284 182.686 144C186.342 146.313 190.865 147.274 195.186 147.5C199.575 147.73 204.018 146.687 208.186 145.291C213.881 143.383 219.171 140.306 224.186 137C229.228 133.676 234.043 129.894 238.186 125.5C241.296 122.201 246.186 114.5 246.186 114.5" stroke="#5555AA" stroke-width="2" stroke-linecap="round" stroke-linejoin="round"/>
<path d="M167.539 138.442C172.208 140.849 176.355 141.274 179.488 141.633" stroke="#5555AA" stroke-width="2" stroke-linecap="round" stroke-linejoin="round"/>
<path d="M212.248 144.015C219.511 142.662 228.484 141.817 236.388 139.743C243.031 137.999 249.347 135.185 255.827 132.907" stroke="#5555AA" stroke-width="2" stroke-linecap="round" stroke-linejoin="round"/>
<path d="M244.078 118.807L250.06 134.616" stroke="#5555AA" stroke-width="2" stroke-linecap="round" stroke-linejoin="round"/>
<path d="M240.66 123.08L245.573 136.111" stroke="#5555AA" stroke-width="2" stroke-linecap="round" stroke-linejoin="round"/>
<path d="M236.815 127.78L240.019 137.179" stroke="#5555AA" stroke-width="2" stroke-linecap="round" stroke-linejoin="round"/>
<path d="M232.969 131.198L235.96 138.674" stroke="#5555AA" stroke-width="2" stroke-linecap="round" stroke-linejoin="round"/>
<path d="M228.911 134.616L231.688 140.811" stroke="#5555AA" stroke-width="2" stroke-linecap="round" stroke-linejoin="round"/>
<path d="M225.065 137.393L226.774 141.024" stroke="#5555AA" stroke-width="2" stroke-linecap="round" stroke-linejoin="round"/>
<path d="M246.001 82.0637C245.004 83.9151 243.775 85.6593 243.01 87.6179C241.967 90.2883 241.586 93.1722 240.874 95.9493" stroke="#5555AA" stroke-width="2" stroke-linecap="round" stroke-linejoin="round"/>
<path d="M250.06 88.0452C248.778 90.6087 247.15 93.0266 246.214 95.7357C245.052 99.1018 244.79 102.714 244.078 106.203" stroke="#5555AA" stroke-width="2" stroke-linecap="round" stroke-linejoin="round"/>
<path d="M253.691 93.3858C252.552 96.0917 251.101 98.6866 250.273 101.504C248.99 105.873 248.707 110.476 247.923 114.962" stroke="#5555AA" stroke-width="2" stroke-linecap="round" stroke-linejoin="round"/>
<path d="M257.75 98.5128C256.397 102.002 254.47 105.32 253.691 108.98C252.49 114.629 253.122 120.516 252.837 126.284" stroke="#5555AA" stroke-width="2" stroke-linecap="round" stroke-linejoin="round"/>
<path d="M262.023 104.067C260.812 106.631 259.05 109 258.391 111.758C256.635 119.102 257.964 126.854 257.75 134.402" stroke="#5555AA" stroke-width="2" stroke-linecap="round" stroke-linejoin="round"/>
<path d="M266.295 109.621C265.013 112.826 262.955 116.844 262.45 120.73C261.465 128.307 263.589 135.969 264.159 143.588" stroke="#5555AA" stroke-width="2" stroke-linecap="round" stroke-linejoin="round"/>
<path d="M270.14 116.457C269.072 119.875 267.904 125.363 267.791 129.916C267.603 137.447 269.357 143.802 270.568 152.347" stroke="#5555AA" stroke-width="2" stroke-linecap="round" stroke-linejoin="round"/>
<path d="M274.84 123.08C274.128 127.851 273.929 132.055 274.199 136.538C274.712 145.045 276.336 153.557 278.472 161.746" stroke="#5555AA" stroke-width="2" stroke-linecap="round" stroke-linejoin="round"/>
<path d="M280.394 131.198C280.252 135.684 279.761 140.782 280.394 145.51C281.472 153.558 284.525 160.892 286.803 169.009" stroke="#5555AA" stroke-width="2" stroke-linecap="round" stroke-linejoin="round"/>
<path d="M287.231 141.024C286.946 144.3 286.948 148.92 287.658 152.774C288.979 159.949 291.005 166.303 294.707 173.495" stroke="#5555AA" stroke-width="2" stroke-linecap="round" stroke-linejoin="round"/>
<path d="M293.426 149.997C293.924 153.699 293.811 157.538 294.921 161.105C296.605 166.518 300.404 171.573 302.612 176.273" stroke="#5555AA" stroke-width="2" stroke-linecap="round" stroke-linejoin="round"/>
<path d="M90.982 209.962C90.982 209.962 86.5776 204.753 84.1135 202.361C81.5198 199.842 78.8216 197.38 75.814 195.283C73.4967 193.668 71.132 191.793 68.3731 191.09C66.7448 190.675 64.8889 190.527 63.3326 191.16C62.189 191.626 60.9136 192.505 60.646 193.711C60.1373 196.002 61.747 198.438 63.2217 200.264C64.7168 202.115 66.9896 203.256 69.1674 204.215C70.4818 204.794 72.0825 205.118 73.3492 205.252C74.1783 207.853 71.6942 207.26 72.2221 212.39C72.3769 213.895 72.584 215.959 72.584 215.959" stroke="#5555AA" stroke-width="2" stroke-linecap="round" stroke-linejoin="round"/>
<path d="M64.6527 195.686C64.6527 195.686 65.1404 197.351 65.7975 197.905C66.3971 198.41 67.2801 198.683 68.087 198.691C68.8783 198.699 70.3474 197.966 70.3474 197.966" stroke="#5555AA" stroke-width="2" stroke-linecap="round" stroke-linejoin="round"/>
<path d="M60.0736 192.924C60.0736 192.924 56.1065 191.11 54.3498 191.876C52.5006 192.683 51.4953 194.98 51.488 196.856C51.4765 199.709 54.2654 201.973 55.7808 204.458C56.7021 205.968 57.3144 207.787 58.6955 208.893C60.0487 209.976 61.8671 211.096 63.5607 210.728C64.8839 210.44 65.9472 209.112 66.4226 207.844C66.8469 206.713 67.0053 205.118 66.1901 204.226C65.0959 203.029 62.9672 203.136 61.3822 203.48C60.5353 203.663 59.7483 204.228 59.2088 204.906C58.6545 205.603 58.2827 207.412 58.2827 207.412" stroke="#5555AA" stroke-width="2" stroke-linecap="round" stroke-linejoin="round"/>
<path d="M50.6294 198.167C50.6294 198.167 47.827 199.023 46.9089 200.002C45.9846 200.987 45.4187 202.374 45.478 203.671C45.5744 205.781 47.0268 207.702 48.3399 209.438C49.8768 211.469 51.8846 213.285 54.0637 214.68C55.68 215.715 57.4807 216.586 59.3727 216.907C60.7861 217.147 62.6832 217.689 63.6655 216.645C64.5037 215.754 64.2714 214.038 63.6655 212.976C63.2084 212.174 62.1671 211.829 61.2827 211.565C60.0818 211.207 58.5759 210.707 57.527 211.393C56.5868 212.008 56.318 214.539 56.318 214.539" stroke="#5555AA" stroke-width="2" stroke-linecap="round" stroke-linejoin="round"/>
<path d="M46.0504 208.127C46.0504 208.127 42.5664 210.338 42.3299 212.059C42.1701 213.222 43.2356 214.298 44.0471 215.204C46.1158 217.516 48.9952 219.142 51.7742 220.709C53.4822 221.672 55.2063 223.046 57.2118 223.068C58.1512 223.078 59.3198 222.766 59.7875 222.019C60.2174 221.333 59.8755 220.373 59.5013 219.66C58.8 218.324 57.685 216.466 56.067 216.515C55.0535 216.546 54.463 217.758 54.0637 218.612C53.6487 219.499 53.7775 221.495 53.7775 221.495" stroke="#5555AA" stroke-width="2" stroke-linecap="round" stroke-linejoin="round"/>
<path d="M44.3332 217.301C44.3332 217.301 43.0768 219.346 43.1884 220.447C43.3702 222.238 44.6727 223.882 46.0503 225.165C47.8363 226.827 50.2237 228.006 52.6674 228.662C53.9392 229.004 55.6283 229.619 56.6393 228.834C57.8849 227.867 57.9656 225.705 57.2117 224.378C56.5614 223.234 54.8832 222.346 53.4912 222.544C52.4407 222.692 51.7673 223.779 51.2712 224.641C50.7713 225.508 50.6293 227.524 50.6293 227.524" stroke="#5555AA" stroke-width="2" stroke-linecap="round" stroke-linejoin="round"/>
<path d="M55.9229 230.272C55.9229 230.272 56.7963 231.636 57.4005 232.158C57.9689 232.649 58.6701 232.973 59.3571 233.277C60.7216 233.881 63.6147 234.66 63.6147 234.66" stroke="#5555AA" stroke-width="2" stroke-linecap="round" stroke-linejoin="round"/>
<path d="M64.8541 192.716C64.8541 192.716 59.3369 193.922 56.5451 193.816C54.4176 193.736 52.2238 193.403 50.2949 192.502C48.2032 191.524 46.3135 190.005 44.8522 188.218C43.2162 186.217 41.3631 181.293 41.3631 181.293C41.3631 181.293 45.7174 182.221 47.9306 182.38C50.3172 182.551 52.7272 181.981 55.1071 182.229C56.8817 182.413 58.639 182.844 60.3208 183.439C61.6675 183.916 63.0319 184.458 64.1752 185.314C65.2931 186.152 66.2204 187.253 66.9929 188.417C67.638 189.389 68.4662 191.591 68.4662 191.591L64.8541 192.716Z" fill="#FFFF55" stroke="#5555AA" stroke-width="2" stroke-linecap="round" stroke-linejoin="round"/>
<path d="M49.8086 187.02C49.8086 187.02 52.7421 188.544 54.321 188.994C56.7071 189.673 59.2417 189.639 61.6882 190.051C63.5128 190.359 67.1382 191.105 67.1382 191.105" stroke="#5555AA" stroke-width="2" stroke-linecap="round" stroke-linejoin="round"/>
<path d="M67.712 190.146L68.5999 179.826L71.6673 177.12L74.3205 179.799L73.729 193.559L67.712 190.146Z" fill="#FFFF55" stroke="#5555AA" stroke-width="2" stroke-linecap="round" stroke-linejoin="round"/>
<path d="M75.4759 193.346C75.4759 193.346 77.2802 189.446 78.8346 187.941C80.6367 186.196 83.0259 184.966 85.4423 184.039C87.6987 183.174 90.2997 183.328 92.6018 182.571C94.7543 181.864 98.7231 179.729 98.7231 179.729C98.7231 179.729 98.2956 184.418 97.2301 186.451C96.0964 188.614 94.321 190.528 92.2522 191.826C89.4596 193.578 86.0441 194.162 82.7948 194.717C81.3392 194.966 79.8023 195.228 78.3685 194.902C77.2836 194.656 75.4759 193.346 75.4759 193.346Z" fill="#FFFF55" stroke="#5555AA" stroke-width="2.00118" stroke-linecap="round" stroke-linejoin="round"/>
<path d="M76.541 193.257C76.541 193.257 79.7819 190.741 81.6778 190.047C83.8953 189.234 86.4905 189.892 88.6896 189.031C90.3002 188.4 92.9646 186.09 92.9646 186.09" stroke="#5555AA" stroke-width="2.00118" stroke-linecap="round" stroke-linejoin="round"/>
<path d="M81.5848 161.689L87.4275 157.552L93.0431 160.679L87.3993 165.338L81.5848 161.689Z" fill="#5555AA" stroke="#5555AA" stroke-width="2" stroke-linecap="round" stroke-linejoin="round"/>
<path d="M67.8267 153.508L63.5471 147.757L67.5231 142.02L71.8293 147.679L67.8267 153.508Z" fill="#5555AA" stroke="#5555AA" stroke-width="2" stroke-linecap="round" stroke-linejoin="round"/>
<path d="M52.0139 162.367L46.5393 166.843L53.2147 169.925L57.2763 165.509L52.0139 162.367Z" fill="#5555AA" stroke="#5555AA" stroke-width="2" stroke-linecap="round" stroke-linejoin="round"/>
<path d="M54.8728 167.722C53.7474 169.937 52.2042 172.296 52.4109 174.757C52.5667 176.613 53.7057 178.428 55.129 179.71C56.9836 181.381 59.6147 182.294 62.1128 182.739C63.3275 182.956 64.6737 183.015 65.8085 182.53C68.0611 181.568 71.1821 177.518 71.1821 177.518C71.1821 177.518 74.0943 180.096 75.908 180.578C78.7155 181.323 82.0534 181.475 84.609 180.094C86.3967 179.128 87.6465 177.135 88.2274 175.188C88.8578 173.075 88.5201 170.686 87.8594 168.582C87.4499 167.278 86.6662 166.064 85.7057 165.091C84.2854 163.653 80.5856 161.84 80.5856 161.84C80.5856 161.84 84.7608 158.912 86.0018 156.774C86.8478 155.317 87.3394 153.532 87.1694 151.856C87.0012 150.197 86.1983 148.573 85.0611 147.321C83.7489 145.876 81.9572 144.512 79.9613 144.261C77.4713 143.949 74.8198 144.957 72.7588 146.376C71.6608 147.131 71.0479 148.43 70.3368 149.558C69.4014 151.041 67.932 154.237 67.932 154.237C67.932 154.237 65.1862 150.716 63.3127 149.597C60.9382 148.177 58.1151 146.868 55.3596 147.226C53.6257 147.451 51.9145 148.505 50.9558 149.938C49.7821 151.692 49.7198 154.089 49.9434 156.188C50.155 158.174 50.8892 160.2 52.1263 161.769C53.3343 163.301 56.9297 165.111 56.9297 165.111C56.5197 166.495 55.6034 166.55 54.8728 167.722Z" fill="#FFFF55" stroke="#5555AA" stroke-width="2" stroke-linecap="round" stroke-linejoin="round"/>
<path d="M67.6725 158.199C64.6575 158.595 61.5586 162.216 61.873 165.241C62.1929 168.319 66.0516 171.423 69.1224 171.04C72.3013 170.644 75.4049 166.544 74.9219 163.377C74.4741 160.441 70.6167 157.811 67.6725 158.199Z" fill="#FF5555" stroke="#5555AA" stroke-width="2" stroke-linecap="round" stroke-linejoin="round"/>
<path d="M58.7661 156.542L62.9086 160.063L58.7661 156.542Z" fill="black"/>
<path d="M58.7661 156.542L62.9086 160.063" stroke="#5555AA" stroke-width="2" stroke-linecap="round" stroke-linejoin="round"/>
<path d="M76.9931 154.677L72.8506 159.856L76.9931 154.677Z" fill="black"/>
<path d="M76.9931 154.677L72.8506 159.856" stroke="#5555AA" stroke-width="2" stroke-linecap="round" stroke-linejoin="round"/>
<path d="M74.0933 167.726L79.0642 171.454L74.0933 167.726Z" fill="black"/>
<path d="M74.0933 167.726L79.0642 171.454" stroke="#5555AA" stroke-width="2" stroke-linecap="round" stroke-linejoin="round"/>
<path d="M65.394 170.005L61.0444 175.597L65.394 170.005Z" fill="black"/>
<path d="M65.394 170.005L61.0444 175.597" stroke="#5555AA" stroke-width="2" stroke-linecap="round" stroke-linejoin="round"/>
<path d="M183.903 168.766L181.427 181.94L194.487 183.156L195.654 170.232L183.903 168.766ZM189.279 172.882L192.467 176.062L188.936 178.906L185.842 175.719L189.279 172.882Z" fill="black"/>
<path d="M174.686 155.106L170.874 167.253L183.832 169.907L186.334 157.086L174.686 155.106ZM179.035 158.401L182.222 161.581L178.691 164.425L175.597 161.237L179.035 158.401Z" fill="black"/>
<path d="M160.068 162.813L154.926 174.761L168 179.167L171.733 166.435L160.068 162.813ZM164.774 167.924L167.076 171.794L162.952 173.677L160.742 169.823L164.774 167.924Z" fill="black"/>
<path d="M143.472 169.581L138.767 180.335L150.658 185.87L155.761 174.531L143.472 169.581ZM149.207 174.443L151.14 178.51L146.858 180.001L145.016 175.959L149.207 174.443Z" fill="black"/>
<path d="M156.78 148.262L151.652 152.486L148.58 158.354L160.367 163.081L164.892 152.671L156.78 148.262ZM158.3 152.328L160.086 156.462L155.753 157.798L154.058 153.692L158.3 152.328Z" fill="black"/>
<path d="M167.894 178.525L164.435 189.856L178.779 192.976L181.556 181.336L167.894 178.525ZM173.428 182.831L176.5 186.123L172.869 188.839L169.891 185.543L173.428 182.831Z" fill="black"/>
<path d="M197.07 158.087L195.365 170.81L208.556 170.951L209.254 158.205L197.07 158.087ZM202.968 161.541L206.24 164.633L202.788 167.572L199.609 164.47L202.968 161.541Z" fill="black"/>
<path d="M194.153 182.481L192.586 194.419L206.921 195.142L207.476 182.899L194.153 182.481ZM200.635 186.246L203.964 189.278L200.565 192.279L197.33 189.236L200.635 186.246Z" fill="black"/>
<path d="M208.02 170.634L207.061 183.341L220.689 182.95L219.81 170.696L208.02 170.634ZM213.897 173.818L217.316 176.748L214.01 179.851L210.684 176.906L213.897 173.818Z" fill="black"/>
<path d="M219.163 158.2L219.876 170.987L232.44 168.743L230.906 157.254L219.163 158.2ZM225.158 161.45L228.838 164.045L225.838 167.446L222.25 164.827L225.158 161.45Z" fill="black"/>
<path d="M220.485 182.513L221.221 193.763L234.791 191.544L233.445 180.198L220.485 182.513ZM226.825 184.521L230.798 186.309L228.244 189.472L224.359 187.655L226.825 184.521Z" fill="black"/>
<path d="M247.576 177.148L250.264 189.322L264.347 185.049L259.714 173.086L247.576 177.148ZM254.738 178.437L258.711 180.225L256.157 183.387L252.271 181.57L254.738 178.437Z" fill="black"/>
<path d="M272.132 169.393L275.624 180.186L287.85 175.65L282.455 165.413L272.132 169.393ZM278.732 170.205L282.966 171.235L281.035 174.812L276.882 173.738L278.732 170.205Z" fill="black"/>
<path d="M256.096 162.226L259.519 173.316L272.244 169.359L267.639 157.39L256.096 162.226ZM261.877 163.018L266.114 164.034L264.194 167.617L260.038 166.556L261.877 163.018Z" fill="black"/>
<path d="M241.233 154.289L244.009 165.977L256.298 161.987L252.105 150.322L241.233 154.289ZM247.728 155.714L251.847 157.135L249.591 160.516L245.556 159.059L247.728 155.714Z" fill="black"/>
<path d="M232.166 168.518L233.621 180.282L247.807 177.55L244.407 165.587L232.166 168.518ZM238.506 171.04L242.479 172.828L239.925 175.991L236.04 174.174L238.506 171.04Z" fill="black"/>
<path d="M143.778 169.801L148.812 158.089L146.963 157.37L136.381 166.513L143.778 169.801Z" fill="black"/>
<path d="M262.023 146.378L267.468 157.37L271.988 155.521L263.975 145.35L262.023 146.378Z" fill="black"/>
<path d="M157.456 148.142C168.123 154.581 180.342 156.648 192.341 158.28C200.95 159.451 209.762 158.859 218.403 157.956C226.972 157.061 235.496 155.377 243.757 152.93C250.316 150.987 256.62 148.228 262.815 145.313" stroke="#5555AA" stroke-width="2" stroke-linecap="round" stroke-linejoin="round"/>
<path d="M291.099 173.244C286.032 175.837 281.115 178.749 275.897 181.022C272.103 182.675 268.162 183.976 264.229 185.265C259.445 186.833 254.623 188.305 249.734 189.507C245.065 190.655 240.35 191.649 235.591 192.336C230.907 193.012 225.856 193.698 221.141 194.115C216.545 194.523 212.27 194.609 207.661 194.811C203.069 195.011 198.463 195.039 193.872 194.811C189.14 194.575 184.415 194.097 179.73 193.396C174.976 192.685 170.244 191.765 165.588 190.568C161.039 189.399 156.579 187.896 152.153 186.325C147.615 184.716 143.114 182.984 138.718 181.022C135.108 179.411 131.647 177.486 128.111 175.719" stroke="#5555AA" stroke-width="2" stroke-linecap="round" stroke-linejoin="round"/>
<path d="M258.817 137.53C258.817 137.53 246.069 143.39 239.373 145.406C232.493 147.477 225.383 148.843 218.248 149.688C211.271 150.513 204.193 150.939 197.185 150.438C189.869 149.914 182.61 148.448 175.529 146.531C171.311 145.389 163.217 142.031 163.217 142.031L160.957 144.434C160.957 144.434 170.029 148.137 174.748 149.406C182.017 151.361 189.426 152.895 196.967 153.438C204.207 153.959 211.45 153.51 218.623 152.656C225.928 151.786 233.205 150.374 240.248 148.25C247.213 146.15 260.476 140.059 260.476 140.059L258.817 137.53Z" fill="black"/>
<path d="M239.899 72.0774C239.899 72.0774 238.995 86.7895 240.185 94C241.328 100.916 243.974 107.536 246.685 114C250.175 122.318 254.359 130.38 259.185 138C262.432 143.125 266.198 147.928 270.185 152.5C275.608 158.717 280.893 165.319 287.685 170C292.047 173.006 297.268 174.533 302.185 176.5C306.894 178.384 316.531 181.568 316.531 181.568" stroke="#5555AA" stroke-width="2" stroke-linecap="round" stroke-linejoin="round"/>
<path d="M104.591 197.594C104.591 197.594 118.444 207.707 124.186 214C129.514 219.84 137.686 233.5 137.686 233.5C137.686 233.5 122.893 245.739 116.686 253C109.507 261.398 103.365 270.742 98.1855 280.5C93.8032 288.756 90.1805 297.492 87.6855 306.5C85.974 312.679 85.5157 319.142 84.6855 325.5C84.0564 330.318 83.1855 340 83.1855 340L31.1855 290V264.5" fill="#FFFF58"/>
<path d="M104.591 197.594C104.591 197.594 118.444 207.707 124.186 214C129.514 219.84 137.686 233.5 137.686 233.5C137.686 233.5 122.893 245.739 116.686 253C109.507 261.398 103.365 270.742 98.1855 280.5C93.8032 288.756 90.1805 297.492 87.6855 306.5C85.974 312.679 85.5157 319.142 84.6855 325.5C84.0564 330.318 83.1855 340 83.1855 340L31.1855 290V264.5" stroke="black" stroke-width="2" stroke-linecap="round" stroke-linejoin="round"/>
<path d="M38.1855 268L106.186 205.5C106.186 205.5 114.991 213.102 118.765 217.5C122.338 221.665 128.186 231 128.186 231C128.186 231 116.369 242.578 111.186 249C104.71 257.022 98.7376 265.514 93.6855 274.5C90.103 280.873 87.1047 287.601 84.6855 294.5C82.6924 300.184 81.1336 306.052 80.1855 312C79.3706 317.113 79.1855 327.5 79.1855 327.5L38.6855 287L38.1855 268Z" fill="black" stroke="black" stroke-width="2" stroke-linecap="round" stroke-linejoin="round"/>
<path d="M92.4822 223.979C92.423 222.352 93.6321 219.231 93.6321 219.231C93.6321 219.231 96.4985 220.724 97.7102 221.771C98.9705 222.86 100.939 225.585 100.939 225.585C100.939 225.585 102.232 222.669 103.178 221.402C104.243 219.974 106.975 217.643 106.975 217.643C106.975 217.643 108.426 220.811 108.601 222.514C108.807 224.518 107.892 228.517 107.892 228.517C107.892 228.517 111.284 226.872 113.116 226.536C114.853 226.219 118.412 226.538 118.412 226.538C118.412 226.538 116.65 230.169 115.378 231.711C114.081 233.284 110.787 235.751 110.787 235.751C110.787 235.751 113.144 236.578 114.071 237.373C115.142 238.29 116.505 240.834 116.505 240.834C116.505 240.834 113.912 242.382 112.464 242.708C111.195 242.993 108.563 242.74 108.563 242.74C108.563 242.74 109.4 245.536 109.413 246.976C109.427 248.554 108.563 251.636 108.563 251.636C108.563 251.636 106.104 250.467 105.121 249.555C104.028 248.543 102.527 245.917 102.527 245.917C102.527 245.917 101.39 249.879 100.307 251.601C99.0659 253.575 95.5382 256.719 95.5382 256.719C95.5382 256.719 94.8305 251.881 94.8476 249.446C94.8616 247.435 95.5019 243.448 95.5019 243.448C95.5019 243.448 92.4224 245.085 90.7556 245.549C89.013 246.035 85.3722 246.235 85.3722 246.235C85.3722 246.235 86.3139 242.374 87.363 240.727C88.5458 238.871 92.0436 236.069 92.0436 236.069C92.0436 236.069 89.0946 235.349 87.7376 234.695C86.0795 233.895 83.1484 231.621 83.1484 231.621C83.1484 231.621 86.4165 229.086 88.373 228.67C90.2697 228.267 94.1638 229.223 94.1638 229.223C92.7598 228.043 92.5489 225.814 92.4822 223.979Z" fill="#FFFF58"/>
<path d="M100.217 228.719C98.6494 228.844 97.1459 229.868 96.123 231.063C95.0999 232.257 94.3787 233.897 94.4355 235.469C94.5012 237.285 95.4694 239.115 96.748 240.406C98.0165 241.688 99.82 242.759 101.623 242.75C103.342 242.741 105.067 241.718 106.248 240.469C107.437 239.21 108.369 237.417 108.279 235.688C108.181 233.797 106.962 231.957 105.529 230.719C104.098 229.482 102.103 228.568 100.217 228.719ZM100.373 230.719C101.757 230.606 103.199 231.34 104.248 232.25C105.281 233.146 106.213 234.447 106.279 235.813C106.338 237.009 105.635 238.224 104.811 239.094C103.981 239.97 102.798 240.75 101.592 240.75C100.315 240.75 99.0784 239.912 98.1855 239C97.2535 238.048 96.4851 236.738 96.4355 235.406C96.3946 234.308 96.9419 233.18 97.6543 232.344C98.3388 231.54 99.3207 230.804 100.373 230.719Z" fill="black"/>
<path d="M58.369 270.379V261.801C58.369 261.801 64.6717 261.1 66.6288 258.942C68.4577 256.925 68.535 251 68.535 251H80.607L58.369 270.379Z" fill="#FFFF58"/>
<path d="M73.0895 264.267C71.8157 265.556 72.3703 268.463 73.7249 269.667C75.0701 270.864 77.8526 270.94 79.1255 269.667C80.2487 268.544 80.1883 266.083 79.1255 264.902C77.7719 263.399 74.5113 262.827 73.0895 264.267Z" fill="#FFFF58"/>
<path d="M92.0436 261.801L75.2063 282.768L84.4192 280.862C84.4192 280.862 84.1778 275.511 85.6899 273.556C87.2553 271.531 92.679 270.379 92.679 270.379L92.0436 261.801Z" fill="#FFFF58"/>
<path d="M42.8024 287.851C46.1783 288.55 49.6797 288.622 52.3329 292.934C52.723 285.7 56.5864 281.939 60.2751 278.003C62.3424 283.192 63.4432 288.381 60.2751 293.57C66.0112 288.556 70.8146 291.005 75.8417 291.664C73.4851 296.27 70.4484 300.423 64.7227 302.783C68.6489 306.008 70.1422 310.451 71.0764 315.172C69.1703 314.727 67.2642 314.477 65.358 312.949L45.3439 292.934C44.2228 291.24 43.5691 289.546 42.8024 287.851Z" fill="#FFFF58"/>
<path d="M56.623 294.5C55.292 294.102 53.764 294.645 52.5293 295.281C51.3245 295.903 50.1966 296.902 49.5918 298.094L51.1918 299.181C51.5377 298.499 52.5466 297.539 53.4668 297.063C54.3267 296.617 55.3851 296.184 56.3105 296.469C57.8453 296.942 59.0533 298.448 59.6543 299.938C60.2312 301.367 59.8183 303.03 59.6543 304.563C59.5443 305.59 58.998 307.594 58.998 307.594L60.9096 309.006C60.9096 309.006 61.5153 306.268 61.623 304.875C61.7676 303.005 62.2753 300.971 61.5293 299.25C60.6238 297.162 58.8041 295.152 56.623 294.5Z" fill="black"/>
<path d="M138.426 234.48C138.426 234.48 146.21 249.494 148.274 257.618C149.874 263.916 150.304 270.528 150.127 277.023C149.888 285.823 148.785 294.724 146.191 303.136C143.581 311.599 139.593 319.716 134.666 327.077C129.799 334.349 117.141 346.623 117.141 346.623" stroke="black" stroke-width="2" stroke-linecap="round" stroke-linejoin="round"/>
<path d="M134.931 237.339C134.931 237.339 141.008 249.735 142.556 256.401C144.453 264.573 144.897 273.119 144.462 281.498C144.082 288.818 142.746 296.147 140.535 303.136C138.316 310.15 135.173 316.932 131.269 323.167C127.144 329.757 122.131 335.856 116.505 341.223C113.548 344.044 106.657 348.529 106.657 348.529" stroke="black" stroke-width="2" stroke-linecap="round" stroke-linejoin="round"/>
<path d="M131.119 240.834C131.119 240.834 135.826 252.29 137.155 258.307C138.625 264.962 139.49 271.836 139.238 278.647C138.949 286.455 137.445 294.261 135.134 301.724C132.957 308.755 130.077 315.692 126.036 321.844C121.714 328.422 116.035 334.087 110.152 339.317C105.386 343.553 94.5851 350.436 94.5851 350.436" stroke="black" stroke-width="2" stroke-linecap="round" stroke-linejoin="round"/>
<path d="M127.36 243.225C127.36 243.225 130.967 252.299 132.072 257.036C133.36 262.554 134.145 268.226 134.269 273.891C134.418 280.627 134.107 287.476 132.54 294.029C130.799 301.31 127.939 308.409 124.13 314.855C120.377 321.205 115.567 327.002 110.152 332.01C104.005 337.694 89.5022 346.306 89.5022 346.306" stroke="black" stroke-width="2" stroke-linecap="round" stroke-linejoin="round"/>
<path d="M172.474 133.101L156.984 147.362L127.081 174.979L92.036 208.12L62.1335 236.88L31.1855 265.258" fill="black"/>
<path d="M172.474 133.101L156.984 147.362L127.081 174.979L92.036 208.12L62.1335 236.88L31.1855 265.258" stroke="#5555AA" stroke-width="2" stroke-linecap="round" stroke-linejoin="round"/>
<path d="M143.314 208.246L160.638 212.842L153.613 234.224L136.32 229.981L143.314 208.246Z" fill="#FF5555"/>
<path d="M181.959 201.851C179.745 202.527 177.532 203.204 175.318 203.88C176.61 205.048 177.901 206.217 179.192 207.385C177.409 208.184 175.626 208.983 173.843 209.783C175.011 211.074 176.179 212.365 177.347 213.656C175.195 214.517 173.043 215.378 170.891 216.239C171.998 217.653 173.105 219.067 174.212 220.482C172.059 221.158 169.907 221.834 167.755 222.511C169.108 223.986 170.461 225.462 171.813 226.938C169.846 227.614 167.878 228.29 165.911 228.967C166.772 230.504 167.632 232.041 168.493 233.578C167.017 234.685 165.347 235.792 163.871 236.899C171.004 238.067 178.331 239.235 185.464 240.404C184.603 238.805 183.742 237.206 182.881 235.608C184.295 234.87 185.71 234.132 187.124 233.394C186.325 231.549 185.525 229.705 184.726 227.86C186.816 227.061 188.907 226.261 190.998 225.462C190.075 223.494 189.153 221.527 188.231 219.559C190.198 219.19 192.166 218.821 194.133 218.453C192.842 216.792 191.551 215.132 190.26 213.472C192.227 212.98 194.195 212.488 196.163 211.996C195.117 210.582 194.072 209.168 193.027 207.754C194.994 206.954 196.962 206.155 198.93 205.356C197.293 204.566 195.684 203.676 194.03 202.948C190.006 202.582 185.983 202.217 181.959 201.851Z" fill="#FFFF55"/>
<path d="M183.608 202.037C181.238 207.601 178.275 213.469 175.912 219.314C173.354 225.641 171.047 232.724 168.907 238.551" stroke="black" stroke-width="2" stroke-linecap="round" stroke-linejoin="round"/>
<path d="M192.802 203.116C190.003 209.174 187.407 215.261 185.098 221.487C182.943 227.295 181.048 233.208 179.369 239.167" stroke="black" stroke-width="2" stroke-linecap="round" stroke-linejoin="round"/>
<path d="M187.26 202.866C186.507 202.969 185.72 203.968 185.91 204.705C186.099 205.439 187.267 205.931 187.974 205.659C188.541 205.441 188.84 204.572 188.689 203.985C188.538 203.399 187.86 202.783 187.26 202.866Z" fill="black"/>
<path d="M184.603 209.248C183.847 209.352 183.052 210.347 183.24 211.087C183.429 211.832 184.613 212.339 185.33 212.061C185.903 211.839 186.197 210.954 186.04 210.36C185.885 209.775 185.203 209.165 184.603 209.248Z" fill="black"/>
<path d="M181.653 215.798C180.884 215.921 180.092 216.972 180.321 217.716C180.55 218.456 181.789 218.869 182.492 218.544C183.028 218.296 183.253 217.439 183.083 216.873C182.91 216.302 182.242 215.703 181.653 215.798Z" fill="black"/>
<path d="M179.366 222.305C178.608 222.402 177.81 223.398 177.991 224.14C178.172 224.885 179.342 225.406 180.061 225.141C180.637 224.928 180.948 224.049 180.801 223.453C180.655 222.858 179.974 222.227 179.366 222.305Z" fill="black"/>
<path d="M177.054 228.74C176.268 228.88 175.434 229.965 175.703 230.717C175.973 231.473 177.316 231.791 178.015 231.395C178.513 231.113 178.642 230.272 178.447 229.735C178.253 229.199 177.616 228.641 177.054 228.74Z" fill="black"/>
<path d="M174.669 235.188C173.9 235.309 173.098 236.354 173.326 237.099C173.553 237.841 174.798 238.256 175.502 237.929C176.037 237.68 176.257 236.822 176.086 236.258C175.914 235.691 175.253 235.096 174.669 235.188Z" fill="black"/>
<path d="M206.593 218.416L226.452 218.723L216.697 242.835L197.649 241.322L206.593 218.416Z" fill="#FF5555"/>
<path d="M216.125 344.375L214.175 351.979C214.175 351.979 205.552 348.712 201.112 347.495C195.863 346.056 190.485 345.118 185.124 344.18C181.955 343.626 178.776 343.076 175.57 342.815C169.091 342.29 162.572 342.298 156.072 342.426C149.498 342.555 142.93 343.016 136.38 343.595C133.055 343.889 129.739 344.287 126.436 344.765C122.651 345.314 115.128 346.715 115.128 346.715L127.996 334.237L152.173 334.042L164.651 302.846L145.544 301.481L149.248 280.424C149.248 280.424 163.954 281.104 171.28 281.788C178.063 282.422 184.825 283.291 191.558 284.323C195.867 284.984 200.129 285.928 204.426 286.663C207.67 287.217 214.175 288.223 214.175 288.223C214.175 288.223 216.856 295.192 218.464 298.556C220.986 303.83 226.848 313.959 226.848 313.959L209.105 309.67L199.357 338.721L216.125 344.375Z" fill="black"/>
<path d="M240.163 364.377C240.163 364.377 231.7 358.861 227.189 356.614C222.977 354.516 214.107 351.311 214.107 351.311L225.775 313.834C225.775 313.834 232.281 323.062 236.028 327.269C239.527 331.199 243.439 334.751 247.388 338.229C250.776 341.214 257.948 346.715 257.948 346.715L240.163 364.377Z" fill="#5555AA"/>
<path d="M237.795 297.571C237.795 297.571 233.327 284.075 232.492 277.065C231.613 269.691 231.577 262.107 232.846 254.791C233.972 248.291 236.426 242.033 239.21 236.052C241.708 230.683 244.562 225.358 248.402 220.85C251.709 216.967 255.92 213.915 260.069 210.95C265.315 207.201 276.686 201.051 276.686 201.051L280.222 204.233C280.222 204.233 278.863 218.465 277.393 225.446C275.826 232.891 273.75 240.261 271.029 247.366C268.504 253.962 265.163 260.227 261.837 266.458C258.554 272.61 255.535 279.003 251.23 284.489C247.372 289.407 237.795 297.571 237.795 297.571Z" fill="#5555AA"/>
<path d="M244.159 290.853C244.159 290.853 239.909 278.059 239.563 271.408C239.181 264.05 240.397 256.58 242.392 249.487C244.348 242.53 247.224 235.704 251.23 229.688C254.28 225.108 258.315 221.187 262.544 217.668C267.394 213.632 278.454 207.415 278.454 207.415C278.454 207.415 276.956 222.089 275.626 229.335C274.619 234.817 273.565 240.333 271.737 245.598C269.437 252.223 266.146 258.475 262.898 264.69C260.304 269.652 257.69 274.646 254.412 279.186C251.382 283.384 244.159 290.853 244.159 290.853Z" fill="#FF5555"/>
<path d="M313.421 316.362L319.224 303.37C319.224 303.37 318.393 299.141 316.688 298.386C315.662 297.931 314.367 298.513 313.438 299.272C312.251 300.243 310.938 303.582 310.938 303.582L305.978 314.019" fill="#FFFF55"/>
<path d="M313.421 316.362L319.224 303.37C319.224 303.37 318.393 299.141 316.688 298.386C315.662 297.931 314.367 298.513 313.438 299.272C312.251 300.243 310.938 303.582 310.938 303.582L305.978 314.019" stroke="#5555AA" stroke-width="2" stroke-linecap="round" stroke-linejoin="round"/>
<path d="M318.236 303.741C318.236 303.741 315.753 304.749 314.438 304.835C313.386 304.904 311.31 304.361 311.31 304.361" stroke="#5555AA" stroke-width="2" stroke-linecap="round" stroke-linejoin="round"/>
<path d="M194.978 476.218C194.978 476.218 208.759 462.172 214.057 453.96C219.601 445.367 223.759 435.85 227.048 426.166C229.899 417.768 231.404 408.945 232.788 400.184C233.608 394.988 233.889 389.719 234.298 384.474C234.691 379.445 235.205 369.369 235.205 369.369L190.19 411.06C190.19 411.06 192.905 420.233 193.513 424.958C194.117 429.653 193.765 434.423 193.815 439.157C193.883 445.501 193.611 451.849 193.815 458.19C194.009 464.209 194.978 476.218 194.978 476.218Z" fill="black"/>
<path d="M61.4071 367.631C66.4747 365.039 73.474 361.556 79.6545 358.838C85.4878 356.273 91.3686 353.779 97.411 351.754C102.493 350.051 107.719 348.8 112.922 347.511C117.743 346.317 122.558 345.022 127.47 344.277C132.549 343.507 137.706 343.388 142.83 343.011C146.95 342.707 151.067 342.286 155.197 342.208C160.2 342.114 165.208 342.326 170.204 342.614C174.793 342.878 179.399 343.113 183.94 343.825C189.058 344.628 194.086 345.947 199.097 347.263C203.413 348.396 207.681 349.715 211.923 351.099C216.576 352.617 221.275 354.047 225.764 355.997C231.028 358.283 237.504 362.171 241.039 363.939L195.748 405.988C195.748 405.988 193.006 405.479 191.644 405.181C189.055 404.615 189.197 404.234 183.914 403.323C181.418 402.285 179.748 399.752 177.268 398.678C174.246 397.37 170.892 396.64 167.598 396.648C161.309 396.662 153.732 398.345 149.151 400.609C146.767 400.611 144.665 401.009 142.424 401.225C139.314 401.525 136.194 401.748 133.098 402.171C129.772 402.626 126.409 402.983 123.175 403.882C120.408 404.65 117.783 405.866 115.148 407.006C112.257 408.257 106.62 411.077 106.62 411.077C102.638 404.438 97.5827 395.574 89.0287 387.472C84.7517 383.421 79.7523 377.734 75.4781 374.489C71.2038 371.244 64.4072 369.222 61.4071 367.631Z" fill="#FFFF58"/>
<path d="M193.993 438.342C193.993 438.342 200.087 428.609 202.577 423.447C204.364 419.741 205.964 415.918 207.108 411.967C208.01 408.853 208.622 405.64 208.926 402.412C209.184 399.668 208.921 394.142 208.921 394.142L189.888 411.06C189.888 411.06 192.532 419.633 193.211 424.051C193.936 428.767 193.992 438.342 193.992 438.342H193.993Z" fill="#FF5555"/>
<path d="M137.186 512L71.6855 427.833L63.8522 429.5L123.186 512H137.186Z" fill="black"/>
<path d="M54.1855 512C55.8576 502.101 56.5288 492.033 56.1855 482C55.8377 471.832 54.434 461.641 51.1855 452C48.798 444.914 45.4219 438.162 41.1855 432C44.514 432.22 47.857 432.22 51.1855 432C55.5658 431.711 59.9209 431.041 64.1855 430L123.186 512H54.1855Z" fill="#FFFF55" stroke="#5555AA" stroke-width="2" stroke-linecap="round" stroke-linejoin="round"/>
<path d="M87.5932 486.53C87.1979 485.539 86.7418 484.548 86.0751 483.72C85.1958 482.628 84.2316 481.407 82.8836 480.978C81.1888 480.437 78.8915 480.253 77.4927 481.428C76.1295 482.573 75.7026 484.862 76.1462 486.533C76.6581 488.463 80.374 490.717 80.374 490.717C80.374 490.717 75.6459 492.297 74.8179 494.33C74.0404 496.238 74.8514 498.782 76.2576 500.208C77.6448 501.615 80.1859 502.55 82.0538 501.727C84.1511 500.804 85.3539 495.704 85.3539 495.704C85.3539 495.704 86.1919 499.457 87.4044 500.833C88.4814 502.056 90.0319 503.25 91.6947 503.214C93.1698 503.182 94.8718 502.256 95.5614 500.935C96.6467 498.854 96.1727 495.967 94.9361 494.056C93.6967 492.141 88.9384 490.714 88.9384 490.714C88.9384 490.714 90.2132 493.417 87.9562 494.977C86.1522 496.224 82.9102 494.739 81.9096 492.869C81.0627 491.287 81.5092 488.249 83.2103 487.521C86.6049 486.068 88.3283 489.243 88.3283 489.243C88.3283 489.243 87.9395 487.398 87.5932 486.53Z" fill="black" stroke="#000100" stroke-width="2" stroke-linecap="round" stroke-linejoin="round"/>
<path d="M68.0172 459.292C67.6645 458.396 67.2576 457.499 66.6628 456.751C65.8782 455.763 65.0178 454.659 63.8152 454.271C62.303 453.782 60.2533 453.615 59.0052 454.678C57.7889 455.713 57.4081 457.783 57.8038 459.295C58.2606 461.04 61.576 463.079 61.576 463.079C61.576 463.079 57.8687 464.906 57.2853 466.679C56.7156 468.411 57.2742 470.713 58.5699 471.996C59.6652 473.08 61.6702 473.67 63.0748 473.036C64.9559 472.187 66.0192 467.589 66.0192 467.589C66.0192 467.589 66.7669 470.983 67.8488 472.228C68.8096 473.333 70.1931 474.413 71.6767 474.38C72.9928 474.351 74.5114 473.515 75.1267 472.319C76.095 470.438 75.672 467.827 74.5688 466.099C73.4629 464.366 69.2174 463.076 69.2174 463.076C69.2174 463.076 70.3549 465.521 68.3411 466.931C66.7315 468.059 63.8389 466.716 62.9461 465.025C62.1905 463.594 62.5889 460.847 64.1067 460.189C67.1354 458.875 68.6731 461.746 68.6731 461.746C68.6731 461.746 68.3262 460.077 68.0172 459.292Z" fill="black" stroke="#000100" stroke-width="2" stroke-linecap="round" stroke-linejoin="round"/>
<path d="M113.852 510.333C113.852 510.333 113.264 499.106 108.352 493.5C103.63 488.111 98.0744 487.889 93.1855 488.333C93.1855 488.333 95.4854 475.194 91.1855 469.833C86.5216 464.019 71.1855 459.5 71.1855 459.5C71.1855 459.5 74.7656 449.453 69.8522 442.5C67.1316 438.65 58.0188 433 58.0188 433" stroke="black" stroke-width="2" stroke-linecap="round" stroke-linejoin="round"/>
<path d="M109.092 511.362C109.781 511.36 110.431 510.821 110.561 510.143C110.561 510.143 112.383 501.81 106.498 495.925C105.588 495.014 104.28 494.231 102.686 493.362C101.091 492.493 99.2485 491.602 97.4981 490.8C94.4436 489.399 92.3489 488.6 91.6856 488.331C91.6826 487.624 91.7083 486.1 91.3106 483.3C90.8313 479.925 90.2232 475.14 87.9876 471.977C83.847 466.119 79.1009 463.613 75.6856 461.925C73.4506 460.82 71.9263 460.434 70.9043 460.237C70.8058 459.468 70.6262 457.811 70.0606 454.956C69.3775 451.508 68.4465 447.587 66.8731 445.05C65.224 442.39 61.9448 439.553 58.9981 437.206C56.0513 434.859 53.4356 433.081 53.4356 433.081C52.7811 432.639 51.7834 432.832 51.3415 433.487C50.8997 434.142 54.4267 436.639 55.0814 437.081C55.0814 437.081 57.4374 440.444 57.9564 443.883C60.8087 446.155 62.8907 446.205 64.5085 448.279C66.0927 450.31 66.4648 452.227 67.1231 455.55C67.7813 458.873 68.1231 461.675 68.1231 461.675C68.207 462.356 68.8138 462.935 69.4981 462.987C69.4981 462.987 75.1993 464.422 77.3418 466.279C79.8129 468.421 83.0269 469.239 82.3835 474.695C84.1143 477.144 87.896 480.598 88.3418 483.737C88.7876 486.876 88.7793 489.3 88.7793 489.3C88.7604 489.908 89.1521 490.509 89.7168 490.737C89.7168 490.737 92.8245 491.98 96.2481 493.55C97.9598 494.334 100.048 494.599 101.248 496.018C102.715 497.754 102.799 502.142 103.206 502.55C107.862 507.205 107.623 509.518 107.623 509.518C107.416 510.398 108.188 511.367 109.092 511.362Z" fill="black"/>
<path d="M150.186 512H136.852L31.1855 373.333V341L150.186 512Z" fill="#FF5555" stroke="#5555AA" stroke-width="2"/>
<path d="M174.192 512C174.192 512 172.423 500.704 159.541 489.826C146.659 478.947 125.182 474.597 125.182 474.597" stroke="#5555AA" stroke-width="2" stroke-linecap="round" stroke-linejoin="round"/>
<path d="M169.025 512C169.025 512 163.812 500.17 156.597 494.157C149.381 488.145 129.065 481.043 129.065 481.043" stroke="#5555AA" stroke-width="2" stroke-linecap="round" stroke-linejoin="round"/>
<path d="M162.919 512C162.919 512 158.508 501.941 153.126 497.36C147.745 492.779 133.202 486.827 133.202 486.827" stroke="#5555AA" stroke-width="2" stroke-linecap="round" stroke-linejoin="round"/>
<path d="M157.897 512C157.897 512 155.166 505.168 150.868 501.618C146.57 498.068 137.977 494.227 137.977 494.227" stroke="#5555AA" stroke-width="2" stroke-linecap="round" stroke-linejoin="round"/>
<path d="M172.247 504.462C172.247 504.462 173.087 500.377 178.391 491.505C183.694 482.634 194.138 478.873 194.138 478.873" stroke="#5555AA" stroke-width="2" stroke-linecap="round" stroke-linejoin="round"/>
<path d="M176.134 512C176.134 512 176.308 504.951 181.132 497.439C185.956 489.926 194.073 486.125 194.073 486.125" stroke="#5555AA" stroke-width="2" stroke-linecap="round" stroke-linejoin="round"/>
<path d="M181.506 512C181.506 512 183.439 504.542 186.014 499.961C188.59 495.38 193.875 492.063 193.875 492.063" stroke="#5555AA" stroke-width="2" stroke-linecap="round" stroke-linejoin="round"/>
<path d="M187.631 512C187.631 512 187.451 507.599 189.574 504.049C191.698 500.499 193.165 500.065 193.165 500.065" stroke="#5555AA" stroke-width="2" stroke-linecap="round" stroke-linejoin="round"/>
<path d="M174.78 458.707C174.78 458.707 174.184 456.008 174.25 454.643C174.423 451.067 175.446 447.546 176.659 444.178C177.454 441.969 179.658 440.226 179.817 437.884C179.948 435.938 179.2 433.82 177.921 432.347C177.019 431.309 175.281 431.382 174.245 430.479C173.406 429.748 172.338 427.739 172.338 427.739" stroke="#5555AA" stroke-width="2" stroke-linecap="round" stroke-linejoin="round"/>
<path d="M162.438 439.219C162.438 439.219 159.113 435.66 159.579 433.615C159.883 432.28 161.493 431.333 162.846 431.124C164.626 430.85 166.246 432.313 167.929 432.952C169.522 433.558 171.055 435.383 172.676 434.854C173.327 434.641 174.092 433.712 173.765 433.11C173.229 432.126 171.522 433.124 170.403 433.057C167.01 432.853 162.966 429.939 160.259 431.996C159.388 432.658 159.48 434.165 159.715 435.234C160.06 436.805 162.438 439.219 162.438 439.219Z" fill="#5555AA" stroke="#5555AA" stroke-width="2" stroke-linecap="round" stroke-linejoin="round"/>
<path d="M128.985 462.228C128.985 462.228 138.193 468.509 143.483 469.877C147.644 470.954 152.221 471.245 156.376 470.143C158.047 469.699 160.827 467.478 160.827 467.478C160.827 467.478 156.752 468.79 154.638 469.017C150.368 469.477 145.924 469.693 141.761 468.642C137.14 467.476 128.985 462.228 128.985 462.228Z" fill="#5555AA" stroke="#5555AA" stroke-width="2" stroke-linecap="round" stroke-linejoin="round"/>
<path d="M192.915 467.749C192.915 467.749 187.348 470.729 184.375 470.403C180.67 469.997 174.787 464.877 174.787 464.877C174.787 464.877 181.028 469.135 184.647 469.247C187.685 469.34 193.152 466.095 193.152 466.095L192.915 467.749Z" fill="#5555AA" stroke="#5555AA" stroke-width="2" stroke-linecap="round" stroke-linejoin="round"/>
<path d="M157.245 419.029C157.245 419.029 161.949 420.905 164.4 421.074C166.239 421.201 168.046 420.377 169.887 420.288C171.989 420.187 174.144 421.142 176.193 420.58C177.313 420.273 179.223 418.644 179.223 418.644C179.223 418.644 177.136 419.104 176.086 419.041C173.95 418.913 171.949 417.475 169.81 417.473C167.449 417.469 165.26 418.929 162.88 419.185C161.01 419.386 157.245 419.029 157.245 419.029Z" fill="#5555AA" stroke="#5555AA" stroke-width="2" stroke-linecap="round" stroke-linejoin="round"/>
<path d="M163.607 414.167C163.607 414.167 167.55 412.796 169.598 412.752C171.351 412.714 174.772 413.742 174.772 413.742" stroke="#5555AA" stroke-width="2" stroke-linecap="round" stroke-linejoin="round"/>
<path d="M175.56 459.1C175.56 459.1 180.592 463.206 185.209 463.305C190.151 463.412 193.104 460.782 193.104 460.782" stroke="#5555AA" stroke-width="2" stroke-linecap="round" stroke-linejoin="round"/>
<path d="M132.572 456.954C132.572 456.954 142.436 464.28 148.098 464.117C155.519 463.903 161.06 458.557 161.06 458.557" stroke="#5555AA" stroke-width="2" stroke-linecap="round" stroke-linejoin="round"/>
<path d="M131.48 455.379C137.333 456.136 141.635 458.678 147.022 459.138C151.641 459.533 160.964 458.102 160.964 458.102" stroke="#5555AA" stroke-width="2" stroke-linecap="round" stroke-linejoin="round"/>
<path d="M193.733 455.306C188.345 457.848 189.499 458.657 184.112 459.117C179.493 459.511 174.666 456.891 174.666 456.891" stroke="#5555AA" stroke-width="2" stroke-linecap="round" stroke-linejoin="round"/>
<path d="M134.717 454.92C139.984 453.72 145.486 449.838 151.444 449.542C155.859 449.322 160.595 452.356 160.984 456.439" stroke="#5555AA" stroke-width="2" stroke-linecap="round" stroke-linejoin="round"/>
<path d="M145.804 457.604C144.867 452.541 149.823 451.045 153.383 451.483C155.798 451.78 158.037 454.743 156.875 457.637" stroke="#5555AA" stroke-width="2" stroke-linecap="round" stroke-linejoin="round"/>
<path d="M154.053 454.757C154.151 455.674 153.307 456.937 152.347 456.987C151.507 457.031 150.623 456.01 150.642 455.203C150.661 454.362 151.626 453.441 152.502 453.419C153.198 453.401 153.982 454.094 154.053 454.757Z" fill="#5555AA" stroke="#5555AA" stroke-width="2" stroke-linecap="round" stroke-linejoin="round"/>
<path d="M182.628 454.452C182.601 455.169 183.475 456.097 184.37 456.078C185.154 456.061 185.903 455.215 185.829 454.591C185.752 453.94 184.79 453.284 183.974 453.32C183.327 453.349 182.647 453.933 182.628 454.452Z" fill="#5555AA" stroke="#5555AA" stroke-width="2" stroke-linecap="round" stroke-linejoin="round"/>
<path d="M176.218 450.587C178.311 448.127 178.461 445.944 182.797 443.859" stroke="#5555AA" stroke-width="2" stroke-linecap="round" stroke-linejoin="round"/>
<path d="M161.67 457.641C160.066 450.52 157.795 446.701 152.648 444.546" stroke="#5555AA" stroke-width="2" stroke-linecap="round" stroke-linejoin="round"/>
<path d="M193.635 452.586C190.78 450.782 187.123 449.717 182.46 449.838C179.004 449.929 175.491 452.377 175.43 455.335" stroke="#5555AA" stroke-width="2" stroke-linecap="round" stroke-linejoin="round"/>
<path d="M188.36 457.897C189.472 452.998 187.264 450.361 183.217 450.444C181.437 450.48 177.794 454.483 180.469 458.288" stroke="#5555AA" stroke-width="2" stroke-linecap="round" stroke-linejoin="round"/>
<path d="M192.186 512C192.186 512 194.481 490.03 194.686 479C194.847 470.328 193.941 461.669 193.686 453C193.445 444.835 194.096 436.617 193.186 428.5C192.54 422.751 192.251 416.686 189.686 411.5C187.433 406.947 183.979 402.716 179.686 400C176.029 397.687 171.507 396.726 167.186 396.5C162.796 396.27 158.353 397.313 154.186 398.709C148.49 400.617 143.201 403.694 138.186 407C133.143 410.324 128.328 414.106 124.186 418.5C121.075 421.799 116.186 429.5 116.186 429.5" stroke="#5555AA" stroke-width="2" stroke-linecap="round" stroke-linejoin="round"/>
<path d="M194.833 405.558C190.163 403.151 186.016 402.726 182.883 402.367" stroke="#5555AA" stroke-width="2" stroke-linecap="round" stroke-linejoin="round"/>
<path d="M150.123 399.985C142.86 401.338 133.888 402.183 125.984 404.257C119.34 406.001 113.024 408.815 106.544 411.093" stroke="#5555AA" stroke-width="2" stroke-linecap="round" stroke-linejoin="round"/>
<path d="M118.293 425.193L112.311 409.384" stroke="#5555AA" stroke-width="2" stroke-linecap="round" stroke-linejoin="round"/>
<path d="M121.711 420.92L116.798 407.889" stroke="#5555AA" stroke-width="2" stroke-linecap="round" stroke-linejoin="round"/>
<path d="M125.556 416.22L122.352 406.821" stroke="#5555AA" stroke-width="2" stroke-linecap="round" stroke-linejoin="round"/>
<path d="M129.402 412.802L126.411 405.326" stroke="#5555AA" stroke-width="2" stroke-linecap="round" stroke-linejoin="round"/>
<path d="M133.46 409.384L130.683 403.189" stroke="#5555AA" stroke-width="2" stroke-linecap="round" stroke-linejoin="round"/>
<path d="M137.306 406.607L135.597 402.976" stroke="#5555AA" stroke-width="2" stroke-linecap="round" stroke-linejoin="round"/>
<path d="M116.37 461.936C117.367 460.085 118.596 458.341 119.361 456.382C120.405 453.712 120.785 450.828 121.497 448.051" stroke="#5555AA" stroke-width="2" stroke-linecap="round" stroke-linejoin="round"/>
<path d="M112.311 455.955C113.593 453.391 115.221 450.973 116.157 448.264C117.319 444.898 117.581 441.286 118.293 437.797" stroke="#5555AA" stroke-width="2" stroke-linecap="round" stroke-linejoin="round"/>
<path d="M108.68 450.614C109.819 447.908 111.27 445.313 112.098 442.496C113.381 438.127 113.664 433.524 114.448 429.038" stroke="#5555AA" stroke-width="2" stroke-linecap="round" stroke-linejoin="round"/>
<path d="M104.621 445.487C105.974 441.998 107.901 438.68 108.68 435.02C109.882 429.371 109.249 423.484 109.534 417.716" stroke="#5555AA" stroke-width="2" stroke-linecap="round" stroke-linejoin="round"/>
<path d="M100.348 439.933C101.559 437.369 103.321 435 103.98 432.242C105.736 424.898 104.407 417.146 104.621 409.598" stroke="#5555AA" stroke-width="2" stroke-linecap="round" stroke-linejoin="round"/>
<path d="M96.0759 434.379C97.3577 431.174 99.4159 427.156 99.9212 423.27C100.906 415.693 98.7819 408.031 98.2122 400.412" stroke="#5555AA" stroke-width="2" stroke-linecap="round" stroke-linejoin="round"/>
<path d="M92.2307 427.543C93.2988 424.125 94.4674 418.637 94.5805 414.084C94.7676 406.553 93.0139 400.198 91.8034 391.653" stroke="#5555AA" stroke-width="2" stroke-linecap="round" stroke-linejoin="round"/>
<path d="M87.5309 420.92C88.243 416.149 88.4418 411.945 88.1718 407.462C87.6594 398.955 86.0355 390.443 83.8993 382.254" stroke="#5555AA" stroke-width="2" stroke-linecap="round" stroke-linejoin="round"/>
<path d="M81.9766 412.802C82.119 408.316 82.6099 403.218 81.9766 398.49C80.899 390.442 77.8465 383.108 75.5678 374.991" stroke="#5555AA" stroke-width="2" stroke-linecap="round" stroke-linejoin="round"/>
<path d="M75.1405 402.976C75.4254 399.7 75.4231 395.08 74.7133 391.226C73.3918 384.051 71.3665 377.697 67.6636 370.505" stroke="#5555AA" stroke-width="2" stroke-linecap="round" stroke-linejoin="round"/>
<path d="M68.9454 394.003C68.447 390.301 68.5597 386.462 67.45 382.895C65.7665 377.482 61.967 372.427 59.7595 367.727" stroke="#5555AA" stroke-width="2" stroke-linecap="round" stroke-linejoin="round"/>
<path d="M271.389 334.038C271.389 334.038 275.793 339.247 278.257 341.639C280.851 344.158 283.549 346.62 286.557 348.717C288.874 350.332 291.239 352.207 293.998 352.91C295.626 353.325 297.482 353.473 299.038 352.84C300.182 352.374 301.457 351.495 301.725 350.289C302.234 347.998 300.624 345.562 299.149 343.736C297.654 341.885 295.381 340.744 293.204 339.785C291.889 339.206 290.288 338.882 289.022 338.748C288.193 336.147 290.677 336.74 290.149 331.61C289.994 330.105 289.787 328.041 289.787 328.041" stroke="#5555AA" stroke-width="2" stroke-linecap="round" stroke-linejoin="round"/>
<path d="M297.718 348.314C297.718 348.314 297.231 346.649 296.574 346.095C295.974 345.59 295.091 345.317 294.284 345.309C293.493 345.301 292.024 346.034 292.024 346.034" stroke="#5555AA" stroke-width="2" stroke-linecap="round" stroke-linejoin="round"/>
<path d="M302.297 351.076C302.297 351.076 306.264 352.89 308.021 352.124C309.87 351.317 310.876 349.02 310.883 347.144C310.894 344.291 308.106 342.027 306.59 339.542C305.669 338.032 305.057 336.213 303.675 335.107C302.322 334.024 300.504 332.904 298.81 333.272C297.487 333.56 296.424 334.888 295.948 336.156C295.524 337.287 295.366 338.882 296.181 339.774C297.275 340.971 299.404 340.864 300.989 340.52C301.836 340.337 302.623 339.772 303.162 339.094C303.717 338.397 304.088 336.588 304.088 336.588" stroke="#5555AA" stroke-width="2" stroke-linecap="round" stroke-linejoin="round"/>
<path d="M311.742 345.833C311.742 345.833 314.544 344.977 315.462 343.998C316.386 343.013 316.952 341.626 316.893 340.329C316.797 338.219 315.344 336.298 314.031 334.562C312.494 332.531 310.486 330.715 308.307 329.32C306.691 328.285 304.89 327.414 302.998 327.093C301.585 326.853 299.688 326.311 298.705 327.355C297.867 328.246 298.1 329.962 298.705 331.024C299.163 331.826 300.204 332.171 301.088 332.435C302.289 332.793 303.795 333.293 304.844 332.607C305.784 331.992 306.053 329.461 306.053 329.461" stroke="#5555AA" stroke-width="2" stroke-linecap="round" stroke-linejoin="round"/>
<path d="M316.321 335.873C316.321 335.873 319.805 333.662 320.041 331.941C320.201 330.778 319.135 329.702 318.324 328.796C316.255 326.484 313.376 324.858 310.597 323.291C308.889 322.328 307.165 320.954 305.159 320.932C304.22 320.922 303.051 321.234 302.584 321.981C302.154 322.667 302.495 323.627 302.87 324.34C303.571 325.676 304.686 327.534 306.304 327.485C307.317 327.454 307.908 326.242 308.307 325.388C308.722 324.501 308.593 322.505 308.593 322.505" stroke="#5555AA" stroke-width="2" stroke-linecap="round" stroke-linejoin="round"/>
<path d="M318.038 326.699C318.038 326.699 319.294 324.654 319.182 323.553C319.001 321.762 317.698 320.118 316.321 318.835C314.535 317.173 312.147 315.994 309.703 315.338C308.432 314.996 306.743 314.381 305.732 315.166C304.486 316.133 304.405 318.295 305.159 319.622C305.809 320.766 307.488 321.654 308.88 321.456C309.93 321.308 310.604 320.221 311.1 319.359C311.599 318.492 311.742 316.476 311.742 316.476" stroke="#5555AA" stroke-width="2" stroke-linecap="round" stroke-linejoin="round"/>
<path d="M306.448 313.728C306.448 313.728 305.575 312.364 304.971 311.842C304.402 311.351 303.701 311.027 303.014 310.723C301.649 310.119 298.756 309.34 298.756 309.34" stroke="#5555AA" stroke-width="2" stroke-linecap="round" stroke-linejoin="round"/>
<path d="M297.517 351.284C297.517 351.284 303.034 350.078 305.826 350.184C307.954 350.264 310.147 350.597 312.076 351.498C314.168 352.476 316.058 353.995 317.519 355.782C319.155 357.783 321.008 362.707 321.008 362.707C321.008 362.707 316.654 361.779 314.441 361.62C312.054 361.449 309.644 362.019 307.264 361.771C305.49 361.587 303.732 361.156 302.05 360.561C300.704 360.084 299.339 359.542 298.196 358.686C297.078 357.848 296.151 356.747 295.378 355.583C294.733 354.611 293.905 352.409 293.905 352.409L297.517 351.284Z" fill="#FFFF55" stroke="#5555AA" stroke-width="2" stroke-linecap="round" stroke-linejoin="round"/>
<path d="M312.563 356.98C312.563 356.98 309.629 355.456 308.05 355.006C305.664 354.327 303.129 354.361 300.683 353.949C298.858 353.641 295.233 352.895 295.233 352.895" stroke="#5555AA" stroke-width="2" stroke-linecap="round" stroke-linejoin="round"/>
<path d="M294.659 353.854L293.771 364.174L290.704 366.88L288.051 364.201L288.642 350.441L294.659 353.854Z" fill="#FFFF55" stroke="#5555AA" stroke-width="2" stroke-linecap="round" stroke-linejoin="round"/>
<path d="M286.895 350.654C286.895 350.654 285.091 354.554 283.536 356.059C281.734 357.804 279.345 359.034 276.929 359.961C274.672 360.826 272.071 360.672 269.769 361.429C267.617 362.136 263.648 364.271 263.648 364.271C263.648 364.271 264.075 359.582 265.141 357.549C266.275 355.386 268.05 353.472 270.119 352.174C272.911 350.422 276.327 349.838 279.576 349.283C281.032 349.034 282.569 348.772 284.003 349.098C285.088 349.344 286.895 350.654 286.895 350.654Z" fill="#FFFF55" stroke="#5555AA" stroke-width="2.00118" stroke-linecap="round" stroke-linejoin="round"/>
<path d="M285.83 350.743C285.83 350.743 282.589 353.259 280.693 353.953C278.476 354.766 275.881 354.108 273.682 354.969C272.071 355.6 269.406 357.91 269.406 357.91" stroke="#5555AA" stroke-width="2.00118" stroke-linecap="round" stroke-linejoin="round"/>
<path d="M280.786 382.311L274.944 386.448L269.328 383.321L274.972 378.662L280.786 382.311Z" fill="#5555AA" stroke="#5555AA" stroke-width="2" stroke-linecap="round" stroke-linejoin="round"/>
<path d="M294.544 390.492L298.824 396.243L294.848 401.98L290.542 396.321L294.544 390.492Z" fill="#5555AA" stroke="#5555AA" stroke-width="2" stroke-linecap="round" stroke-linejoin="round"/>
<path d="M310.357 381.633L315.832 377.157L309.156 374.075L305.095 378.491L310.357 381.633Z" fill="#5555AA" stroke="#5555AA" stroke-width="2" stroke-linecap="round" stroke-linejoin="round"/>
<path d="M307.498 376.278C308.624 374.063 310.167 371.704 309.96 369.243C309.804 367.387 308.665 365.572 307.242 364.29C305.387 362.619 302.756 361.706 300.258 361.261C299.044 361.044 297.697 360.985 296.563 361.47C294.31 362.432 291.189 366.482 291.189 366.482C291.189 366.482 288.277 363.904 286.463 363.422C283.656 362.677 280.318 362.525 277.762 363.906C275.974 364.872 274.725 366.865 274.144 368.812C273.513 370.925 273.851 373.314 274.512 375.418C274.921 376.722 275.705 377.936 276.665 378.909C278.086 380.347 281.786 382.16 281.786 382.16C281.786 382.16 277.61 385.088 276.369 387.226C275.523 388.683 275.032 390.468 275.202 392.144C275.37 393.803 276.173 395.427 277.31 396.679C278.622 398.124 280.414 399.488 282.41 399.739C284.9 400.051 287.551 399.043 289.612 397.624C290.71 396.869 291.323 395.57 292.034 394.442C292.97 392.959 294.439 389.763 294.439 389.763C294.439 389.763 297.185 393.284 299.058 394.403C301.433 395.823 304.256 397.132 307.012 396.774C308.745 396.549 310.457 395.495 311.415 394.062C312.589 392.308 312.651 389.911 312.428 387.812C312.216 385.826 311.482 383.8 310.245 382.231C309.037 380.699 305.441 378.889 305.441 378.889C305.851 377.505 306.768 377.45 307.498 376.278Z" fill="#FFFF55" stroke="#5555AA" stroke-width="2" stroke-linecap="round" stroke-linejoin="round"/>
<path d="M294.699 385.801C297.714 385.405 300.812 381.784 300.498 378.759C300.178 375.681 296.319 372.577 293.249 372.96C290.07 373.356 286.966 377.456 287.449 380.623C287.897 383.559 291.754 386.189 294.699 385.801Z" fill="#FF5555" stroke="#5555AA" stroke-width="2" stroke-linecap="round" stroke-linejoin="round"/>
<path d="M303.605 387.458L299.462 383.937L303.605 387.458Z" fill="black"/>
<path d="M303.605 387.458L299.462 383.937" stroke="#5555AA" stroke-width="2" stroke-linecap="round" stroke-linejoin="round"/>
<path d="M285.378 389.323L289.521 384.144L285.378 389.323Z" fill="black"/>
<path d="M285.378 389.323L289.521 384.144" stroke="#5555AA" stroke-width="2" stroke-linecap="round" stroke-linejoin="round"/>
<path d="M288.278 376.274L283.307 372.546L288.278 376.274Z" fill="black"/>
<path d="M288.278 376.274L283.307 372.546" stroke="#5555AA" stroke-width="2" stroke-linecap="round" stroke-linejoin="round"/>
<path d="M296.977 373.995L301.327 368.403L296.977 373.995Z" fill="black"/>
<path d="M296.977 373.995L301.327 368.403" stroke="#5555AA" stroke-width="2" stroke-linecap="round" stroke-linejoin="round"/>
<path d="M178.468 375.234L180.944 362.06L167.884 360.844L166.717 373.768L178.468 375.234ZM173.092 371.118L169.904 367.938L173.436 365.094L176.529 368.281L173.092 371.118Z" fill="black"/>
<path d="M187.685 388.894L191.497 376.747L178.54 374.093L176.037 386.914L187.685 388.894ZM183.336 385.599L180.149 382.419L183.68 379.575L186.774 382.763L183.336 385.599Z" fill="black"/>
<path d="M202.303 381.187L207.445 369.239L194.371 364.833L190.638 377.565L202.303 381.187ZM197.597 376.076L195.295 372.206L199.419 370.323L201.629 374.177L197.597 376.076Z" fill="black"/>
<path d="M218.899 374.419L223.604 363.665L211.713 358.13L206.611 369.469L218.899 374.419ZM213.164 369.557L211.231 365.49L215.513 363.999L217.355 368.041L213.164 369.557Z" fill="black"/>
<path d="M205.591 395.738L210.719 391.514L213.791 385.646L202.004 380.919L197.479 391.329L205.591 395.738ZM204.071 391.672L202.285 387.538L206.618 386.202L208.313 390.308L204.071 391.672Z" fill="black"/>
<path d="M194.477 365.475L197.936 354.144L183.592 351.024L180.815 362.664L194.477 365.475ZM188.943 361.169L185.871 357.877L189.502 355.161L192.48 358.457L188.943 361.169Z" fill="black"/>
<path d="M165.301 385.913L167.006 373.19L153.815 373.049L153.117 385.795L165.301 385.913ZM159.404 382.459L156.131 379.367L159.583 376.428L162.762 379.53L159.404 382.459Z" fill="black"/>
<path d="M168.218 361.519L169.785 349.581L155.45 348.858L154.895 361.101L168.218 361.519ZM161.736 357.754L158.407 354.722L161.806 351.721L165.041 354.764L161.736 357.754Z" fill="black"/>
<path d="M154.351 373.366L155.31 360.659L141.682 361.05L142.562 373.304L154.351 373.366ZM148.474 370.182L145.055 367.252L148.361 364.149L151.687 367.094L148.474 370.182Z" fill="black"/>
<path d="M143.208 385.8L142.495 373.013L129.931 375.257L131.465 386.746L143.208 385.8ZM137.213 382.55L133.533 379.955L136.533 376.554L140.121 379.173L137.213 382.55Z" fill="black"/>
<path d="M141.886 361.487L141.15 350.237L127.581 352.456L128.926 363.802L141.886 361.487ZM135.547 359.479L131.573 357.691L134.127 354.528L138.013 356.345L135.547 359.479Z" fill="black"/>
<path d="M114.795 366.852L112.107 354.678L98.0239 358.951L102.657 370.914L114.795 366.852ZM107.634 365.563L103.66 363.775L106.214 360.613L110.1 362.43L107.634 365.563Z" fill="black"/>
<path d="M90.2391 374.607L86.7469 363.814L74.5207 368.35L79.9157 378.587L90.2391 374.607ZM83.6391 373.795L79.4052 372.765L81.336 369.188L85.489 370.262L83.6391 373.795Z" fill="black"/>
<path d="M106.275 381.774L102.853 370.684L90.1266 374.641L94.7319 386.61L106.275 381.774ZM100.494 380.982L96.2575 379.966L98.1773 376.383L102.334 377.444L100.494 380.982Z" fill="black"/>
<path d="M121.138 389.711L118.362 378.023L106.073 382.013L110.266 393.678L121.138 389.711ZM114.643 388.286L110.524 386.865L112.78 383.484L116.815 384.941L114.643 388.286Z" fill="black"/>
<path d="M130.205 375.482L128.75 363.718L114.564 366.45L117.964 378.413L130.205 375.482ZM123.865 372.96L119.892 371.172L122.446 368.009L126.331 369.826L123.865 372.96Z" fill="black"/>
<path d="M218.593 374.199L213.559 385.911L215.408 386.63L225.99 377.487L218.593 374.199Z" fill="black"/>
<path d="M100.348 397.622L94.9034 386.63L90.3831 388.479L98.3962 398.65L100.348 397.622Z" fill="black"/>
<path d="M204.915 395.858C194.248 389.419 182.029 387.352 170.03 385.72C161.421 384.549 152.609 385.141 143.968 386.044C135.399 386.939 126.875 388.623 118.615 391.07C112.055 393.013 105.752 395.772 99.556 398.687" stroke="#5555AA" stroke-width="2" stroke-linecap="round" stroke-linejoin="round"/>
<path d="M71.2718 370.756C76.3394 368.163 81.2559 365.251 86.4746 362.978C90.2685 361.325 94.2094 360.024 98.1418 358.735C102.926 357.167 107.748 355.695 112.638 354.493C117.306 353.345 122.022 352.351 126.78 351.664C131.464 350.988 136.516 350.302 141.23 349.885C145.826 349.477 150.101 349.391 154.71 349.189C159.302 348.989 163.908 348.961 168.499 349.189C173.231 349.425 177.956 349.903 182.641 350.604C187.396 351.315 192.127 352.235 196.783 353.432C201.332 354.601 205.792 356.104 210.218 357.675C214.756 359.284 219.257 361.016 223.653 362.978C227.263 364.589 230.724 366.514 234.26 368.281" stroke="#5555AA" stroke-width="2" stroke-linecap="round" stroke-linejoin="round"/>
<path d="M103.554 406.47C103.554 406.47 116.302 400.61 122.998 398.594C129.878 396.523 136.988 395.157 144.123 394.312C151.1 393.487 158.178 393.061 165.186 393.562C172.502 394.086 179.762 395.552 186.842 397.469C191.06 398.611 199.154 401.969 199.154 401.969L201.414 399.566C201.414 399.566 192.342 395.863 187.623 394.594C180.354 392.639 172.945 391.105 165.404 390.562C158.164 390.041 150.921 390.49 143.748 391.344C136.443 392.214 129.166 393.626 122.123 395.75C115.158 397.85 101.895 403.941 101.895 403.941L103.554 406.47Z" fill="black"/>
<path d="M122.472 471.923C122.472 471.923 123.376 457.211 122.186 450C121.044 443.084 118.397 436.464 115.686 430C112.196 421.682 108.012 413.62 103.186 406C99.9395 400.875 96.1731 396.072 92.1856 391.5C86.7634 385.283 81.4784 378.681 74.6856 374C70.3242 370.994 65.1035 369.467 60.1856 367.5C55.4769 365.616 45.8404 362.432 45.8404 362.432" stroke="#5555AA" stroke-width="2" stroke-linecap="round" stroke-linejoin="round"/>
<path d="M257.78 346.406C257.78 346.406 243.927 336.293 238.186 330C232.857 324.16 224.686 310.5 224.686 310.5C224.686 310.5 239.478 298.261 245.686 291C252.864 282.602 259.006 273.258 264.186 263.5C268.568 255.244 272.191 246.508 274.686 237.5C276.397 231.321 276.855 224.858 277.686 218.5C278.315 213.682 279.186 204 279.186 204L331.186 254V279.5" fill="#FFFF58"/>
<path d="M257.78 346.406C257.78 346.406 243.927 336.293 238.186 330C232.857 324.16 224.686 310.5 224.686 310.5C224.686 310.5 239.478 298.261 245.686 291C252.864 282.602 259.006 273.258 264.186 263.5C268.568 255.244 272.191 246.508 274.686 237.5C276.397 231.321 276.855 224.858 277.686 218.5C278.315 213.682 279.186 204 279.186 204L331.186 254V279.5" stroke="black" stroke-width="2" stroke-linecap="round" stroke-linejoin="round"/>
<path d="M324.186 276L256.186 338.5C256.186 338.5 247.38 330.898 243.606 326.5C240.033 322.335 234.186 313 234.186 313C234.186 313 246.002 301.422 251.186 295C257.661 286.978 263.634 278.486 268.686 269.5C272.268 263.127 275.266 256.399 277.686 249.5C279.679 243.816 281.238 237.948 282.186 232C283 226.887 283.186 216.5 283.186 216.5L323.686 257L324.186 276Z" fill="black" stroke="black" stroke-width="2" stroke-linecap="round" stroke-linejoin="round"/>
<path d="M269.889 320.021C269.948 321.648 268.739 324.769 268.739 324.769C268.739 324.769 265.873 323.276 264.661 322.229C263.401 321.14 261.432 318.415 261.432 318.415C261.432 318.415 260.139 321.331 259.193 322.598C258.128 324.026 255.396 326.357 255.396 326.357C255.396 326.357 253.945 323.189 253.77 321.486C253.564 319.482 254.479 315.483 254.479 315.483C254.479 315.483 251.087 317.128 249.255 317.464C247.519 317.781 243.96 317.462 243.96 317.462C243.96 317.462 245.721 313.831 246.993 312.289C248.29 310.716 251.584 308.249 251.584 308.249C251.584 308.249 249.227 307.422 248.3 306.627C247.229 305.71 245.866 303.166 245.866 303.166C245.866 303.166 248.459 301.618 249.908 301.292C251.176 301.007 253.808 301.26 253.808 301.26C253.808 301.26 252.971 298.464 252.958 297.024C252.944 295.446 253.808 292.364 253.808 292.364C253.808 292.364 256.267 293.533 257.251 294.445C258.343 295.457 259.844 298.083 259.844 298.083C259.844 298.083 260.982 294.121 262.064 292.399C263.305 290.425 266.833 287.281 266.833 287.281C266.833 287.281 267.541 292.119 267.524 294.554C267.509 296.565 266.869 300.552 266.869 300.552C266.869 300.552 269.949 298.915 271.615 298.451C273.358 297.965 276.999 297.765 276.999 297.765C276.999 297.765 276.057 301.626 275.008 303.273C273.825 305.129 270.327 307.931 270.327 307.931C270.327 307.931 273.276 308.651 274.633 309.305C276.292 310.105 279.223 312.379 279.223 312.379C279.223 312.379 275.955 314.914 273.998 315.33C272.101 315.733 268.207 314.777 268.207 314.777C269.611 315.957 269.822 318.186 269.889 320.021Z" fill="#FFFF58"/>
<path d="M262.154 315.281C263.722 315.156 265.225 314.132 266.248 312.937C267.271 311.743 267.992 310.103 267.936 308.531C267.87 306.715 266.902 304.885 265.623 303.594C264.355 302.312 262.551 301.241 260.748 301.25C259.029 301.259 257.304 302.282 256.123 303.531C254.934 304.79 254.002 306.583 254.092 308.312C254.19 310.203 255.41 312.043 256.842 313.281C258.273 314.518 260.268 315.432 262.154 315.281ZM261.998 313.281C260.614 313.394 259.172 312.66 258.123 311.75C257.09 310.854 256.158 309.553 256.092 308.187C256.034 306.991 256.737 305.776 257.561 304.906C258.39 304.03 259.573 303.25 260.779 303.25C262.056 303.25 263.293 304.088 264.186 305C265.118 305.952 265.886 307.262 265.936 308.594C265.976 309.692 265.429 310.82 264.717 311.656C264.032 312.46 263.05 313.196 261.998 313.281Z" fill="black"/>
<path d="M304.002 273.621V282.199C304.002 282.199 297.699 282.9 295.742 285.058C293.913 287.075 293.836 293 293.836 293H281.764L304.002 273.621Z" fill="#FFFF58"/>
<path d="M289.282 279.733C290.555 278.444 290.001 275.537 288.646 274.333C287.301 273.136 284.518 273.06 283.246 274.333C282.122 275.456 282.183 277.917 283.246 279.098C284.599 280.601 287.86 281.173 289.282 279.733Z" fill="#FFFF58"/>
<path d="M270.327 282.199L287.165 261.232L277.952 263.138C277.952 263.138 278.193 268.489 276.681 270.444C275.116 272.469 269.692 273.621 269.692 273.621L270.327 282.199Z" fill="#FFFF58"/>
<path d="M319.569 256.149C316.193 255.45 312.691 255.378 310.038 251.066C309.648 258.3 305.785 262.061 302.096 265.997C300.029 260.808 298.928 255.619 302.096 250.43C296.36 255.444 291.557 252.995 286.529 252.336C288.886 247.73 291.923 243.577 297.648 241.217C293.722 237.992 292.229 233.549 291.295 228.828C293.201 229.273 295.107 229.523 297.013 231.051L317.027 251.066C318.148 252.76 318.802 254.454 319.569 256.149Z" fill="#FFFF58"/>
<path d="M305.748 249.5C307.079 249.898 308.607 249.355 309.842 248.719C311.047 248.097 312.174 247.098 312.779 245.906L311.179 244.819C310.833 245.501 309.825 246.461 308.904 246.937C308.044 247.383 306.986 247.816 306.061 247.531C304.526 247.058 303.318 245.552 302.717 244.062C302.14 242.633 302.553 240.97 302.717 239.437C302.827 238.41 303.373 236.406 303.373 236.406L301.461 234.994C301.461 234.994 300.856 237.732 300.748 239.125C300.603 240.995 300.096 243.029 300.842 244.75C301.747 246.838 303.567 248.848 305.748 249.5Z" fill="black"/>
<path d="M223.945 309.52C223.945 309.52 216.161 294.506 214.097 286.382C212.497 280.084 212.067 273.472 212.244 266.977C212.483 258.177 213.586 249.276 216.18 240.864C218.79 232.401 222.778 224.284 227.705 216.923C232.572 209.651 245.23 197.377 245.23 197.377" stroke="black" stroke-width="2" stroke-linecap="round" stroke-linejoin="round"/>
<path d="M227.44 306.661C227.44 306.661 221.363 294.265 219.815 287.599C217.918 279.427 217.474 270.881 217.909 262.502C218.289 255.182 219.625 247.853 221.836 240.864C224.055 233.85 227.198 227.068 231.102 220.833C235.227 214.243 240.24 208.144 245.866 202.777C248.823 199.956 255.714 195.471 255.714 195.471" stroke="black" stroke-width="2" stroke-linecap="round" stroke-linejoin="round"/>
<path d="M231.252 303.166C231.252 303.166 226.545 291.71 225.216 285.693C223.747 279.038 222.882 272.164 223.133 265.353C223.422 257.545 224.926 249.739 227.237 242.276C229.414 235.245 232.294 228.308 236.335 222.156C240.657 215.578 246.336 209.913 252.219 204.683C256.985 200.447 267.786 193.564 267.786 193.564" stroke="black" stroke-width="2" stroke-linecap="round" stroke-linejoin="round"/>
<path d="M235.011 300.775C235.011 300.775 231.404 291.701 230.299 286.964C229.012 281.446 228.226 275.774 228.102 270.109C227.954 263.373 228.264 256.524 229.831 249.971C231.573 242.69 234.432 235.591 238.241 229.145C241.994 222.795 246.804 216.998 252.219 211.99C258.366 206.306 272.869 197.694 272.869 197.694" stroke="black" stroke-width="2" stroke-linecap="round" stroke-linejoin="round"/>
<path d="M189.897 410.899L205.387 396.638L235.29 369.021L270.335 335.88L300.238 307.12L331.186 278.742" fill="black"/>
<path d="M189.897 410.899L205.387 396.638L235.29 369.021L270.335 335.88L300.238 307.12L331.186 278.742" stroke="#5555AA" stroke-width="2" stroke-linecap="round" stroke-linejoin="round"/>
<path d="M219.057 335.754L201.733 331.158L208.758 309.776L226.051 314.019L219.057 335.754Z" fill="#FF5555"/>
<path d="M180.412 342.149C182.626 341.473 184.839 340.796 187.053 340.12C185.762 338.952 184.47 337.783 183.179 336.615C184.962 335.816 186.745 335.017 188.529 334.217C187.36 332.926 186.192 331.635 185.024 330.344C187.176 329.483 189.328 328.622 191.48 327.761C190.373 326.347 189.266 324.933 188.16 323.518C190.312 322.842 192.464 322.166 194.616 321.489C193.263 320.014 191.91 318.538 190.558 317.062C192.525 316.386 194.493 315.71 196.46 315.033C195.6 313.496 194.739 311.959 193.878 310.422C195.354 309.315 197.024 308.208 198.5 307.101C191.367 305.933 184.04 304.765 176.907 303.596C177.768 305.195 178.629 306.794 179.49 308.392C178.076 309.13 176.661 309.868 175.247 310.606C176.047 312.451 176.846 314.295 177.645 316.14C175.555 316.939 173.464 317.739 171.373 318.538C172.296 320.506 173.218 322.473 174.14 324.441C172.173 324.81 170.205 325.179 168.238 325.547C169.529 327.208 170.82 328.868 172.111 330.528C170.144 331.02 168.176 331.512 166.209 332.004C167.254 333.418 168.299 334.832 169.344 336.246C167.377 337.046 165.409 337.845 163.442 338.644C165.078 339.434 166.687 340.324 168.341 341.052C172.365 341.418 176.388 341.783 180.412 342.149Z" fill="#FFFF55"/>
<path d="M178.763 341.963C181.133 336.399 184.096 330.531 186.459 324.686C189.017 318.359 191.324 311.276 193.464 305.449" stroke="black" stroke-width="2" stroke-linecap="round" stroke-linejoin="round"/>
<path d="M169.569 340.884C172.368 334.826 174.964 328.739 177.273 322.513C179.428 316.705 181.323 310.792 183.002 304.833" stroke="black" stroke-width="2" stroke-linecap="round" stroke-linejoin="round"/>
<path d="M175.111 341.134C175.864 341.031 176.651 340.032 176.461 339.295C176.272 338.561 175.104 338.069 174.397 338.341C173.83 338.559 173.531 339.428 173.682 340.015C173.833 340.601 174.512 341.217 175.111 341.134Z" fill="black"/>
<path d="M177.768 334.752C178.524 334.648 179.319 333.653 179.131 332.913C178.943 332.168 177.758 331.661 177.041 331.939C176.468 332.161 176.174 333.046 176.331 333.64C176.486 334.225 177.168 334.835 177.768 334.752Z" fill="black"/>
<path d="M180.718 328.202C181.487 328.079 182.28 327.028 182.05 326.284C181.821 325.544 180.582 325.131 179.879 325.456C179.343 325.704 179.118 326.561 179.289 327.127C179.461 327.698 180.13 328.297 180.718 328.202Z" fill="black"/>
<path d="M183.005 321.695C183.764 321.598 184.561 320.602 184.38 319.86C184.199 319.115 183.029 318.594 182.311 318.859C181.734 319.072 181.423 319.951 181.57 320.547C181.716 321.142 182.398 321.773 183.005 321.695Z" fill="black"/>
<path d="M185.317 315.26C186.103 315.12 186.937 314.035 186.668 313.283C186.398 312.527 185.055 312.209 184.356 312.605C183.858 312.887 183.729 313.728 183.924 314.265C184.119 314.801 184.755 315.359 185.317 315.26Z" fill="black"/>
<path d="M187.703 308.812C188.471 308.691 189.273 307.646 189.045 306.901C188.818 306.159 187.573 305.744 186.869 306.071C186.334 306.32 186.114 307.178 186.286 307.742C186.457 308.309 187.118 308.904 187.703 308.812Z" fill="black"/>
<path d="M155.778 325.584L136.981 325.321C141.486 318.078 145.135 310.327 147.645 301.558L164.722 302.678L155.778 325.584Z" fill="#FF5555"/>
<path d="M148.759 255.7C148.759 255.7 150.546 264.874 150.901 269.523C151.178 273.162 150.883 280.472 150.883 280.472C150.883 280.472 161.673 281.125 167.056 281.6C172.322 282.065 177.583 282.611 182.826 283.286C187.587 283.898 192.328 284.658 197.066 285.427C202.621 286.328 213.699 288.324 213.699 288.324C213.699 288.324 211.932 280.241 211.549 276.133C211.146 271.817 211.399 263.131 211.399 263.131C211.399 263.131 200.654 262.831 195.297 262.424C190.386 262.05 185.491 261.48 180.61 260.831C175.027 260.089 169.48 259.101 163.92 258.204C158.863 257.388 148.759 255.7 148.759 255.7H148.759Z" fill="#FF5555"/>
<path d="M266.812 192.674L281.684 186.448L331.186 236V253L266.812 192.674Z" fill="black"/>
<path d="M281.684 186.448L300.707 177.11L315.579 181.26L331.186 203.05V236.253L281.684 186.448Z" fill="#5555AA"/>
<path d="M95.5593 351.281L80.687 357.507L31.1855 307.955V290.955L95.5593 351.281Z" fill="black"/>
<path d="M80.687 357.507L61.6643 366.845L46.792 362.695L31.1855 340.905V307.702L80.687 357.507Z" fill="#5555AA"/>
<path d="M91.1855 47C91.1855 47 97.1855 62 104.186 72C111.186 82 121.186 92 121.186 92C121.186 92 111.186 102 104.186 112C97.1855 122 91.1855 137 91.1855 137C91.1855 137 85.1855 122 78.1855 112C71.1855 102 61.1855 92 61.1855 92C61.1855 92 71.1855 82 78.1855 72C85.1855 62 91.1855 47 91.1855 47Z" fill="#FF5555"/>
<path d="M31.1855 92C31.1855 92 34.1855 99.5 37.6855 104.5C41.1855 109.5 46.1855 114.5 46.1855 114.5C46.1855 114.5 41.1855 119.5 37.6855 124.5C34.1855 129.5 31.1855 137 31.1855 137C31.1855 137 28.1855 129.5 24.6855 124.5C21.1855 119.5 16.1855 114.5 16.1855 114.5C16.1855 114.5 21.1855 109.5 24.6855 104.5C28.1855 99.5 31.1855 92 31.1855 92Z" fill="#FF5555"/>
<path d="M271.186 497C271.186 497 265.186 482 258.186 472C251.186 462 241.186 452 241.186 452C241.186 452 251.186 442 258.186 432C265.186 422 271.186 407 271.186 407C271.186 407 277.186 422 284.186 432C291.186 442 301.186 452 301.186 452C301.186 452 291.186 462 284.186 472C277.186 482 271.186 497 271.186 497Z" fill="#FF5555"/>
<path d="M331.186 452C331.186 452 328.186 444.5 324.686 439.5C321.186 434.5 316.186 429.5 316.186 429.5C316.186 429.5 321.186 424.5 324.686 419.5C328.186 414.5 331.186 407 331.186 407C331.186 407 334.186 414.5 337.686 419.5C341.186 424.5 346.186 429.5 346.186 429.5C346.186 429.5 341.186 434.5 337.686 439.5C334.186 444.5 331.186 452 331.186 452Z" fill="#FF5555"/>
</svg>
