<svg width="362" height="542" viewBox="0 0 362 542" fill="none" xmlns="http://www.w3.org/2000/svg">
<path d="M330.741 1.5H31.63C15.0921 1.5 1.68555 14.9066 1.68555 31.4445V510.556C1.68555 527.093 15.0921 540.5 31.63 540.5H330.741C347.279 540.5 360.686 527.093 360.686 510.556V31.4445C360.686 14.9066 347.279 1.5 330.741 1.5Z" stroke="black" stroke-width="2.5"/>
<path d="M31.1855 31C25.6627 31 21.1855 35.4771 21.1855 41V71C21.1855 76.5229 25.6627 81 31.1855 81C31.6193 81 32.0476 80.9598 32.4668 80.9063C34.1797 83.9558 37.439 86.0001 41.1855 86.0001V81.0001C39.546 81.0001 38.0974 80.188 37.1855 78.9688C39.61 77.144 41.1855 74.2682 41.1855 71.0001V41.0001C41.1855 35.4772 36.7084 31.0001 31.1855 31.0001V31ZM31.1855 36C33.947 36 36.1855 38.2386 36.1855 41V71C36.1855 71.7157 36.0189 72.3844 35.748 73C34.4734 68.9436 30.6627 66 26.1855 66V41C26.1855 38.2386 28.4241 36 31.1855 36ZM26.1855 71C28.947 71 31.1855 73.2386 31.1855 76C28.4241 76 26.1855 73.7614 26.1855 71Z" fill="#FF5555"/>
<path d="M331.186 510.999C336.708 510.999 341.186 506.522 341.186 500.999V470.999C341.186 465.477 336.708 460.999 331.186 460.999C330.752 460.999 330.323 461.039 329.904 461.093C328.191 458.044 324.932 456 321.186 456V461C322.825 461 324.274 461.812 325.186 463.031C322.761 464.856 321.186 467.732 321.186 471V501C321.186 506.522 325.663 511 331.186 511V510.999ZM331.186 505.999C328.424 505.999 326.186 503.761 326.186 500.999V470.999C326.186 470.284 326.352 469.615 326.623 468.999C327.898 473.056 331.708 475.999 336.186 475.999V500.999C336.186 503.761 333.947 505.999 331.186 505.999ZM336.186 470.999C333.424 470.999 331.186 468.761 331.186 465.999C333.947 465.999 336.186 468.238 336.186 470.999Z" fill="#FF5555"/>
<path d="M145.904 249.656L145.404 252.938L145.279 253.75L144.154 252.656L143.873 253.188L140.717 251.781L141.561 255.5L141.904 258.406L142.279 259.625L146.154 261.625L147.248 259.125L152.842 264.281L155.092 266.375L156.092 263.469L156.654 261.844L163.061 268L165.061 269.969L166.248 267.406L166.936 265.969L172.842 273.188L174.966 275.624L176.497 273.687L177.747 272.124L182.842 278.125L185.029 280.656L186.217 277.531L186.498 276.812L192.842 283.656L195.498 286.531L196.279 282.688L196.404 282.094L197.311 283.219L197.561 282.688L203.811 288.156L206.373 290.375L207.092 287.062L207.311 286.094L208.404 287.156L208.467 286.938L212.748 290.125L215.404 292.094L215.904 288.812L216.029 288L217.154 289.094L217.436 288.562L220.623 289.969L219.998 287.219L221.029 287.531L219.684 284.322L217.029 282.125L215.154 280.125L214.061 282.625L208.467 277.469L206.217 275.375L205.217 278.281L204.654 279.906L198.248 273.75L196.248 271.781L195.061 274.344L194.373 275.781L188.467 268.562L186.696 266.214L185.165 268.152L183.915 269.714L178.467 263.625L176.279 261.094L175.092 264.219L174.811 264.938L168.467 258.094L165.811 255.219L165.029 259.062L164.904 259.656L163.998 258.531L163.748 259.062L157.498 253.594L154.936 251.375L154.217 254.688L153.998 255.656L152.904 254.594L152.842 254.812L148.561 251.625L145.904 249.656Z" fill="#FFFF55"/>
<path d="M214.689 193.682L206.143 266.893L216.214 268.764L237.202 190.603L214.689 193.682Z" fill="#5555AA"/>
<path d="M124.929 225.277C122.337 228.812 119.377 232.106 117.151 235.883C115.438 238.791 114.137 241.933 112.908 245.076C111.375 248.998 109.73 252.946 109.019 257.097C108.263 261.512 109.073 266.07 108.666 270.532C108.113 276.59 106.645 282.533 105.837 288.563C105.271 292.794 104.792 297.038 104.423 301.291C104.097 305.055 103.952 308.833 103.716 312.604C106.898 311.072 110.111 309.603 113.262 308.008C117.072 306.08 121.098 304.476 124.576 301.998C128.379 299.288 132.031 296.191 134.829 292.452C137.197 289.287 138.886 285.597 140.132 281.845C141.384 278.076 141.991 274.082 142.241 270.118C142.522 265.663 142.101 261.173 141.546 256.743C141.098 253.165 140.656 249.525 139.425 246.136C137.913 241.973 135.541 238.14 133.061 234.469C131.608 232.319 129.856 230.38 128.111 228.459C127.103 227.348 125.99 226.337 124.929 225.277Z" fill="#5555AA"/>
<path d="M90.4452 159.223C90.4452 159.223 100.851 167.319 106.191 171.183C111.408 174.958 116.532 178.909 122.101 182.143C126.325 184.597 130.811 186.587 135.304 188.507C139.315 190.222 143.408 191.756 147.557 193.103C150.929 194.199 157.81 195.932 157.81 195.932L156.749 187.8C156.749 187.8 145.082 184.611 139.425 182.497C135.076 180.872 130.812 178.99 126.697 176.84C122.667 174.734 118.816 172.287 115.03 169.769C111.025 167.106 107.22 164.155 103.362 161.284C100.867 159.426 95.9378 155.627 95.9378 155.627L90.4452 159.223Z" fill="#FF5555"/>
<path d="M31.1855 207C31.1855 207 45.5291 194.478 52.9355 188.5C59.5502 183.161 66.4417 178.175 73.1855 173C77.5229 169.672 86.1855 163 86.1855 163C86.1855 163 95.8009 170.732 100.686 174.5C104.645 177.554 108.519 180.736 112.686 183.5C116.544 186.06 124.686 190.5 124.686 190.5C124.686 190.5 116.298 194.603 112.686 197.5C107.901 201.337 104.071 206.255 100.186 211C95.496 216.726 90.581 222.424 87.1855 229C83.1475 236.821 80.4414 245.375 78.6855 254C77.7854 258.422 77.9274 262.994 77.6855 267.5C77.4174 272.496 77.5454 277.51 77.1855 282.5C76.8599 287.016 76.2799 291.511 75.6855 296C75.11 300.346 73.6855 309 73.6855 309C73.6855 309 69.7991 301.992 66.4355 300.25C63.541 298.751 59.9336 299.226 56.6855 299.5C52.577 299.846 48.4562 300.832 44.6855 302.5C42.4873 303.472 40.7914 305.341 38.6855 306.5C37.2475 307.291 35.6236 307.709 34.1855 308.5C33.1326 309.079 31.1855 310.5 31.1855 310.5V207Z" fill="black"/>
<path d="M160.237 62.1428C160.237 62.1428 149.731 71.9738 145.12 77.473C139.919 83.6749 134.914 90.1534 131.067 97.2746C127.553 103.78 124.954 110.803 122.976 117.928C120.935 125.281 119.143 140.497 119.143 140.497L140.435 130.277C140.435 130.277 142.576 120.016 144.481 115.16C146.533 109.929 149.23 104.923 152.359 100.255C155.136 96.1114 161.94 88.7578 161.94 88.7578L160.237 62.1428Z" fill="#000004"/>
<path d="M218.554 31L269.947 119.796L278.268 116.161L228.287 31H218.554Z" fill="#FF5455"/>
<path d="M293.403 31C291.622 39.4915 290.646 48.1514 290.49 56.8261C290.287 68.1285 291.48 79.4512 293.968 90.4783C295.743 98.3434 298.174 106.06 301.229 113.522C297.238 112.773 293.145 112.568 289.099 112.913C285.399 113.229 281.739 114.005 278.229 115.217L228.055 31H293.403Z" fill="#FFFF55" stroke="#5555AA" stroke-width="2" stroke-linecap="round" stroke-linejoin="round"/>
<path d="M277.678 172.051C260.446 180.955 252.57 185.046 239.007 188.607C223.194 192.758 206.583 194.688 190.251 193.939C175.54 193.264 160.722 190.369 146.957 185.134C128.496 178.113 111.898 168.663 95.7211 155.371C101.715 151.101 112.145 144.474 120.942 140.089C131.203 134.974 136.815 131.112 152.883 127.33C157.227 129.821 161.379 132.818 166.059 134.642C172.383 137.107 179.102 138.71 185.853 139.415C192.678 140.128 199.609 139.564 206.432 138.828C213.335 138.084 220.284 137.074 226.901 134.971C233.338 132.925 239.004 130.43 245.325 126.537C244.035 143.812 244.933 148.712 254.666 157.84C256.836 159.64 268.411 166.833 274.058 165.745C278.982 169.325 275.181 170.846 277.678 172.051Z" fill="#FFFF58"/>
<path d="M257.282 54.5281C254.754 52.6458 251.051 52.3754 249.229 54.3478C247.123 56.6277 248.137 61.2687 250.174 63.6104C252.566 66.3607 257.829 68.3373 260.794 66.2174C262.154 65.2456 262.064 62.6768 261.239 61.2238C260.824 60.4934 259.881 60.1305 258.968 60.1305" stroke="black" stroke-width="2.5" stroke-linecap="round" stroke-linejoin="round"/>
<path d="M264.446 72C266.477 70.2206 265.503 68.3624 264.446 67.1304C263.578 66.1177 261.623 65.8171 260.49 66.5217C257.509 68.3754 256.028 73.3023 257.322 76.5652C258.626 79.8502 263.146 82.5872 266.577 81.7391C268.926 81.1584 271.245 78.9307 270.533 75.6522" stroke="black" stroke-width="2.5" stroke-linecap="round" stroke-linejoin="round"/>
<path d="M263.533 64.0869C262.705 62.7943 262.893 60.4143 264.142 59.5217C265.405 58.6195 267.877 59.1234 268.707 60.4348C269.602 61.8486 268.947 64.4822 267.49 65.3043C266.288 65.9824 264.278 65.2487 263.533 64.0869V64.0869Z" stroke="black" stroke-width="2.5" stroke-linecap="round" stroke-linejoin="round"/>
<path d="M251.664 45.2174C252.016 48.1675 250.106 52.6509 247.099 53.1305C243.948 53.6329 241.21 49.6803 239.974 46.7391C238.716 43.7434 238.005 39.1928 240.403 37C242.052 35.4924 245.555 35.6891 247.099 37.3044C247.94 38.1845 248.192 40.2077 247.099 40.9565" stroke="black" stroke-width="2.5" stroke-linecap="round" stroke-linejoin="round"/>
<path d="M231.881 31C232.794 36.8841 236.165 37.3359 239.186 36.6957C241.291 36.2493 242.933 33.0998 242.229 31" stroke="black" stroke-width="2.5" stroke-linejoin="round"/>
<path d="M243.273 31C242.257 32.694 243.856 34.1693 245.099 34.2609C246.468 34.3619 248.11 32.3269 247.617 31" stroke="black" stroke-width="2.5" stroke-linejoin="round"/>
<path d="M275.403 84.7826C274.968 84.3159 274.423 83.9031 273.816 83.5667C271.987 82.5522 269.597 82.2322 267.975 83.2207C265.176 84.9252 265.508 89.5556 266.921 92.2271C268.413 95.0456 272.314 97.4441 275.403 96.6522C277.175 96.198 278.916 93.8546 278.446 92.087C278.097 90.7715 276.636 88.8391 274.794 90.2609" stroke="black" stroke-width="2.5" stroke-linecap="round" stroke-linejoin="round"/>
<path d="M280.577 93.6087C280.066 92.2913 280.785 90.1724 282.099 89.6522C283.401 89.1365 285.491 90.1335 285.883 91.4783C286.283 92.8533 284.998 94.7398 283.62 95.1304C282.529 95.4398 280.987 94.6662 280.577 93.6087Z" stroke="black" stroke-width="2.5" stroke-linecap="round" stroke-linejoin="round"/>
<path d="M280.881 101.217C282.443 101.671 281.95 97.8921 280.881 96.9565C279.726 95.9452 277.376 96.4548 276.316 97.5652C274.316 99.6593 274.298 103.616 275.567 106.219C276.921 108.996 280.382 112.192 283.332 111.277C285.854 110.495 286.86 108.063 286.359 103.957" stroke="black" stroke-width="2.5" stroke-linecap="round" stroke-linejoin="round"/>
<path d="M159.875 31C159.875 31 160.672 50.9143 161.125 60.8691C161.414 67.222 161.564 73.5845 162.062 79.9244C162.669 87.6509 162.89 95.4728 164.561 103.041C165.889 109.053 167.436 115.191 170.496 120.534C173.028 124.954 176.259 129.259 180.493 132.092C182.956 133.74 185.973 134.672 188.927 134.904C192.716 135.201 196.606 134.342 200.173 133.029C204.731 131.351 208.72 128.362 212.668 125.532C216.33 122.906 219.63 119.804 222.977 116.785C225.547 114.467 230.474 109.601 230.474 109.601" stroke="#5555AA" stroke-width="2.5" stroke-linejoin="round"/>
<path d="M171.746 31.1928C171.746 31.1928 168.515 35.8576 166.436 37.7528C164.771 39.2703 160.813 41.5014 160.813 41.5014" stroke="#5555AA" stroke-width="2.5" stroke-linecap="round" stroke-linejoin="round"/>
<path d="M178.306 31.1928C178.306 31.1928 173.985 38.0561 171.121 40.8766C168.198 43.7562 161.125 48.0614 161.125 48.0614" stroke="#5555AA" stroke-width="2.5" stroke-linecap="round" stroke-linejoin="round"/>
<path d="M185.179 31.1928C185.179 31.1928 177.932 41.6058 173.308 45.8748C169.785 49.1269 161.438 53.9967 161.438 53.9967" stroke="#5555AA" stroke-width="2.5" stroke-linecap="round" stroke-linejoin="round"/>
<path d="M189.864 31.1928C189.864 31.1928 196.566 44.5228 202.047 49.311C207.553 54.1211 221.727 58.9948 221.727 58.9948" stroke="#5555AA" stroke-width="2.5" stroke-linecap="round" stroke-linejoin="round"/>
<path d="M195.487 31.1928C195.487 31.1928 200.763 41.0149 204.859 44.6252C208.387 47.7361 217.354 51.1852 217.354 51.1852" stroke="#5555AA" stroke-width="2.5" stroke-linecap="round" stroke-linejoin="round"/>
<path d="M201.11 31.1928C201.11 31.1928 204.304 37.9023 207.045 40.2519C208.956 41.8897 213.918 43.3757 213.918 43.3757" stroke="#5555AA" stroke-width="2.5" stroke-linecap="round" stroke-linejoin="round"/>
<path d="M181.658 68.546C181.658 68.546 182.207 72.5976 181.998 74.6121C181.605 78.414 179.985 81.9867 179.026 85.6868C178.399 88.1073 177.112 90.4658 177.208 92.9644C177.283 94.9279 177.799 97.0576 179.068 98.5577C179.917 99.5614 181.578 99.5231 182.553 100.406C183.37 101.146 184.384 103.161 184.384 103.161" stroke="#5555AA" stroke-width="2" stroke-linecap="round" stroke-linejoin="round"/>
<path d="M194.815 92.876C194.815 92.876 198.013 96.4726 197.583 98.5248C197.311 99.8231 195.851 100.866 194.544 101.094C192.86 101.388 191.328 99.9314 189.737 99.305C188.228 98.7108 186.697 96.7156 185.245 97.4371C184.564 97.7756 184.161 99.0808 184.671 99.6459C185.288 100.331 186.485 99.2549 187.408 99.231C190.608 99.148 194.447 102.153 196.965 100.176C197.837 99.4917 197.673 97.966 197.432 96.8841C197.086 95.3265 194.815 92.8761 194.815 92.8761V92.876Z" fill="#5555AA" stroke="#5555AA" stroke-width="2" stroke-linecap="round" stroke-linejoin="round"/>
<path d="M221.706 67.61C221.706 67.61 212.957 61.3558 207.962 60.0362C204.032 58.998 199.722 58.761 195.829 59.9333C194.263 60.4048 191.679 62.6939 191.679 62.6939C191.679 62.6939 195.494 61.311 197.479 61.0528C201.489 60.5312 205.667 60.255 209.599 61.2674C213.961 62.3907 221.706 67.61 221.706 67.61Z" fill="#5555AA" stroke="#5555AA" stroke-width="2" stroke-linecap="round" stroke-linejoin="round"/>
<path d="M162.128 61.5557C162.128 61.5557 168.245 58.7155 171.402 59.179C174.905 59.6933 180.499 64.6615 180.499 64.6615C180.499 64.6615 174.582 60.5777 171.162 60.3557C167.945 60.1468 161.928 63.2374 161.928 63.2374L162.128 61.5557Z" fill="#5555AA" stroke="#5555AA" stroke-width="2" stroke-linecap="round" stroke-linejoin="round"/>
<path d="M198.278 110.636C198.278 110.636 194.347 109.1 192.236 108.968C190.322 108.849 188.466 109.679 186.559 109.787C184.381 109.909 182.105 109.042 180.017 109.584C179.069 109.83 177.608 111.072 177.608 111.072C177.608 111.072 179.309 110.968 180.151 111.055C182.381 111.287 184.464 112.503 186.682 112.479C189.13 112.454 191.391 111.08 193.841 110.757C195.304 110.564 198.278 110.636 198.278 110.636Z" fill="#5555AA" stroke="#5555AA" stroke-width="2" stroke-linecap="round" stroke-linejoin="round"/>
<path d="M193.638 115.753C193.638 115.753 189.96 117.195 188.022 117.266C186.367 117.327 183.141 116.328 183.141 116.328" stroke="#5555AA" stroke-width="2" stroke-linecap="round" stroke-linejoin="round"/>
<path d="M179.852 70.5329C179.852 70.5329 175.061 66.4322 170.717 66.3907C166.066 66.3463 163.325 69.0527 163.325 69.0527" stroke="#5555AA" stroke-width="2" stroke-linecap="round" stroke-linejoin="round"/>
<path d="M220.322 72.1551C220.322 72.1551 210.946 65.0148 205.616 65.0888C198.426 65.1886 193.075 69.4057 193.075 69.4057" stroke="#5555AA" stroke-width="2" stroke-linecap="round" stroke-linejoin="round"/>
<path d="M219.241 74.3781C213.725 73.6851 211.772 70.5231 206.698 70.1258C202.347 69.7852 193.597 71.3573 193.597 71.3573" stroke="#5555AA" stroke-width="2" stroke-linecap="round" stroke-linejoin="round"/>
<path d="M162.81 72.6163C167.842 69.968 167.579 69.3613 172.659 69.6908C179.211 70.1159 181.074 70.903 180.723 70.7626" stroke="#5555AA" stroke-width="2" stroke-linecap="round" stroke-linejoin="round"/>
<path d="M216.629 75.3113C211.691 76.5966 209.337 77.8378 203.736 78.2158C199.585 78.4958 194.024 77.1824 193.601 73.0446" stroke="#5555AA" stroke-width="2" stroke-linecap="round" stroke-linejoin="round"/>
<path d="M206.626 71.3019C207.578 76.4274 204.176 78.3727 200.821 77.9747C198.545 77.7047 196.397 74.7273 197.45 71.7763" stroke="#5555AA" stroke-width="2" stroke-linecap="round" stroke-linejoin="round"/>
<path d="M200.363 74.1516C200.344 73.4075 200.974 72.4091 201.718 72.3767C202.524 72.3417 203.398 73.3601 203.347 74.1649C203.3 74.919 202.375 75.6959 201.622 75.6349C200.975 75.5826 200.38 74.7999 200.363 74.1516Z" fill="#5555AA" stroke="#5555AA" stroke-width="2" stroke-linecap="round" stroke-linejoin="round"/>
<path d="M173.268 73.3399C173.283 72.6122 172.449 71.682 171.606 71.713C170.869 71.74 170.176 72.6079 170.255 73.2403C170.336 73.8995 171.25 74.5524 172.017 74.5053C172.626 74.4682 173.257 73.8663 173.268 73.3399Z" fill="#5555AA" stroke="#5555AA" stroke-width="2" stroke-linecap="round" stroke-linejoin="round"/>
<path d="M179.352 79.178C177.417 81.7008 177.306 83.9179 173.257 86.0897" stroke="#5555AA" stroke-width="2" stroke-linecap="round" stroke-linejoin="round"/>
<path d="M193.546 72.2476C195.155 79.4522 200.782 81.6059 205.228 84.7906" stroke="#5555AA" stroke-width="2" stroke-linecap="round" stroke-linejoin="round"/>
<path d="M162.726 75.2461C165.438 77.0394 168.892 78.073 173.278 77.8892C176.527 77.753 179.797 75.224 179.814 72.222" stroke="#5555AA" stroke-width="2" stroke-linecap="round" stroke-linejoin="round"/>
<path d="M167.828 69.9189C166.85 74.9036 168.963 77.5504 172.77 77.4139C174.444 77.3539 177.815 73.2459 175.245 69.4196" stroke="#5555AA" stroke-width="2" stroke-linecap="round" stroke-linejoin="round"/>
<path d="M193.2 122.644C193.2 122.644 189.445 121.414 187.507 121.453C185.85 121.487 182.687 122.668 182.687 122.668" stroke="#5555AA" stroke-width="2" stroke-linecap="round" stroke-linejoin="round"/>
<path d="M225.603 70.8725C223.758 76.2665 220.437 81.6885 220.493 87.4803C220.548 93.1583 222.786 98.8602 225.816 103.662C228.174 107.398 231.434 110.868 235.398 112.818C239.199 114.687 243.773 114.095 247.96 114.734" stroke="#5555AA" stroke-width="2.5" stroke-linecap="round" stroke-linejoin="round"/>
<path d="M228.797 76.4084C227.945 79.5312 226.491 83.583 226.668 87.2673C226.871 91.484 228.178 95.7472 230.288 99.4038C232.044 102.448 234.443 105.383 237.527 107.069C239.872 108.351 242.779 108.063 245.405 108.559" stroke="#5555AA" stroke-width="2.5" stroke-linecap="round" stroke-linejoin="round"/>
<path d="M232.417 82.796C232.133 85.0672 231.238 87.3441 231.565 89.6095C231.996 92.598 233.092 95.7364 235.185 97.9133C236.878 99.6755 239.585 100.043 241.785 101.107" stroke="#5555AA" stroke-width="2.5" stroke-linecap="round" stroke-linejoin="round"/>
<path d="M252.644 123.677C251.792 126.728 250.291 129.67 250.089 132.832C249.837 136.769 250.348 140.872 251.792 144.543C253.437 148.72 256.189 152.538 259.458 155.615C261.452 157.492 263.907 158.944 266.484 159.873C268.306 160.53 270.316 160.441 272.233 160.725" stroke="#5555AA" stroke-width="2.5" stroke-linecap="round" stroke-linejoin="round"/>
<path d="M256.264 130.703C255.838 132.974 254.854 135.21 254.986 137.516C255.165 140.632 256.169 143.772 257.754 146.459C259.055 148.664 260.972 150.539 263.077 151.995C264.411 152.917 266.058 153.273 267.549 153.911" stroke="#5555AA" stroke-width="2.5" stroke-linecap="round" stroke-linejoin="round"/>
<path d="M162.579 97.7004C159.385 102.03 155.494 105.923 152.998 110.689C150.248 115.938 149.165 121.902 147.249 127.509" stroke="#5555AA" stroke-width="2.5" stroke-linecap="round" stroke-linejoin="round"/>
<path d="M163.644 104.301C161.585 107.495 159.074 110.438 157.469 113.882C155.743 117.586 155.056 121.689 153.849 125.593" stroke="#5555AA" stroke-width="2.5" stroke-linecap="round" stroke-linejoin="round"/>
<path d="M165.134 111.753C164.069 113.528 162.777 115.184 161.94 117.076C161.243 118.653 160.947 119.829 160.45 122.029" stroke="#5555AA" stroke-width="2.5" stroke-linecap="round" stroke-linejoin="round"/>
<path d="M150.861 126.623C157.471 130.357 165.535 134.236 173.438 136.452C179.991 138.289 186.863 139.006 193.665 139.22C201.418 139.463 209.223 138.795 216.874 137.516C222.086 136.645 227.291 135.419 232.204 133.471C236.632 131.715 240.579 128.929 244.766 126.658" stroke="#5555AA" stroke-width="2.5" stroke-linecap="round" stroke-linejoin="round"/>
<path d="M140.222 131.555C146.042 134.89 151.533 138.882 157.682 141.562C163.814 144.235 170.31 146.094 176.845 147.524C182.997 148.87 189.284 149.851 195.582 149.956C202.568 150.072 209.558 149.114 216.448 147.95C222.066 147 227.623 145.622 233.056 143.904C236.763 142.732 240.295 141.065 243.914 139.646" stroke="black" stroke-width="2.5" stroke-linecap="round" stroke-linejoin="round"/>
<path d="M134.686 134.749C139.726 137.729 144.551 141.106 149.804 143.691C154.948 146.223 160.287 148.412 165.773 150.079C172.299 152.062 179.015 153.524 185.787 154.337C192.978 155.201 200.281 155.489 207.505 154.976C213.324 154.563 219.087 153.393 224.752 151.995C231.921 150.226 238.804 147.453 245.831 145.182" stroke="black" stroke-width="2.5" stroke-linecap="round" stroke-linejoin="round"/>
<path d="M127.447 137.729C133.125 141.065 138.532 144.912 144.481 147.737C151.114 150.886 158.077 153.371 165.134 155.402C172.17 157.426 179.371 158.989 186.639 159.873C192.35 160.567 198.141 160.818 203.885 160.512C210.33 160.169 216.761 159.201 223.048 157.744C227.552 156.7 231.903 155.062 236.249 153.485C239.991 152.128 243.631 150.505 247.321 149.014" stroke="black" stroke-width="2.5" stroke-linecap="round" stroke-linejoin="round"/>
<path d="M100.832 152.421C107.575 157.176 114.001 162.415 121.06 166.687C128.908 171.435 136.977 175.972 145.545 179.249C153.221 182.184 161.316 183.984 169.392 185.503C177.046 186.943 184.822 187.809 192.601 188.191C200.896 188.599 209.278 188.851 217.512 187.766C225.636 186.695 233.54 184.252 241.359 181.804C248.819 179.468 256.21 176.812 263.29 173.5C267.349 171.601 271.097 169.1 275.001 166.899" stroke="black" stroke-width="2.5" stroke-linecap="round" stroke-linejoin="round"/>
<path d="M126.365 137.163L113.686 143.75L120.936 149L128.115 138.913L126.365 137.163Z" fill="black"/>
<path d="M137.604 144.657L130.936 156.5L144.186 162.75L149.936 151.5L137.604 144.657Z" fill="black"/>
<path d="M162.186 155.25L158.267 167.343L171.767 171.593L175.186 158.657L162.186 155.25Z" fill="black"/>
<path d="M187.436 161L186.436 173.593L200.86 174.098L200.186 160.5L187.436 161Z" fill="black"/>
<path d="M212.936 160.75L214.098 173.593L228.186 170.843L225.278 157.663L212.936 160.75Z" fill="black"/>
<path d="M237.598 153.57L242.892 166.967L254.921 162.398L251.935 155L247.435 148.75L237.598 153.57Z" fill="black"/>
<path d="M112.686 159.75L120.686 149.25L130.936 156.25L124.517 168.343L112.686 159.75Z" fill="black"/>
<path d="M137.93 175.93L143.691 162.407L158.034 167L153.686 181L137.93 175.93Z" fill="black"/>
<path d="M168.854 185.36L171.686 171.75L186.528 173.669L185.36 187.343L168.854 185.36Z" fill="black"/>
<path d="M200.686 187.75L200.436 173.25H214.436L215.936 186.75L200.436 188.75L200.686 187.75Z" fill="black"/>
<path d="M231.186 183.5L228.011 170.576L242.778 166.239L247.115 179.087L231.436 184.5L231.186 183.5Z" fill="black"/>
<path d="M259.936 173.75L254.686 162L257.686 161L273.436 168L259.936 173.75Z" fill="black"/>
<path d="M108.599 148.68L108.936 153.25L114.517 152.261L113.436 147.25L108.599 148.68Z" stroke="black" stroke-width="2.5" stroke-linecap="round" stroke-linejoin="round"/>
<path d="M126.686 145L131.436 143.75L132.023 148.593L127.186 150.343L126.686 145Z" stroke="black" stroke-width="2.5" stroke-linecap="round" stroke-linejoin="round"/>
<path d="M130.686 164.25L135.936 161.75L137.186 166.5L133.186 168.75L130.686 164.25Z" stroke="black" stroke-width="2.5" stroke-linecap="round" stroke-linejoin="round"/>
<path d="M150.686 157.5L155.686 155.75L157.11 160.593L152.436 162.75L150.686 157.5Z" stroke="black" stroke-width="2.5" stroke-linecap="round" stroke-linejoin="round"/>
<path d="M159.686 175L162.436 179.75L166.436 176.5L163.436 172L159.686 175Z" stroke="black" stroke-width="2.5" stroke-linecap="round" stroke-linejoin="round"/>
<path d="M176.75 165.715L180.738 162.465L183.715 165.5L179.715 169.5L176.75 165.715Z" stroke="black" stroke-width="2.5" stroke-linecap="round" stroke-linejoin="round"/>
<path d="M189.436 180.174L193.186 176.5L196.186 181.25L192.436 183.5L189.436 180.174Z" stroke="black" stroke-width="2.5" stroke-linecap="round" stroke-linejoin="round"/>
<path d="M203.401 167.578L206.575 163.828L209.906 167.235L206.906 170.235L203.401 167.578Z" stroke="black" stroke-width="2.5" stroke-linecap="round" stroke-linejoin="round"/>
<path d="M218.848 178.506L222.435 174.5L226.185 177.5L223.621 182.169L218.848 178.506Z" stroke="black" stroke-width="2.5" stroke-linecap="round" stroke-linejoin="round"/>
<path d="M229.936 163.5L232.436 159L236.686 160.75L234.686 165.5L229.936 163.5Z" stroke="black" stroke-width="2.5" stroke-linecap="round" stroke-linejoin="round"/>
<path d="M247.436 171.5L249.686 166.75L254.436 169.25L252.436 173.5L247.436 171.5Z" stroke="black" stroke-width="2.5" stroke-linecap="round" stroke-linejoin="round"/>
<path d="M96.1855 156C103.852 161.667 110.451 167.267 118.186 172C123.685 175.365 129.523 178.18 135.436 180.75C142.109 183.651 148.933 186.273 155.936 188.25C162.809 190.191 169.87 191.458 176.936 192.5C184.085 193.554 191.296 194.441 198.523 194.515C207.553 194.606 216.66 194.176 225.541 192.544C234.744 190.853 243.673 187.783 252.436 184.5C261.158 181.232 269.71 177.108 277.877 172.942" stroke="black" stroke-width="2.5" stroke-linecap="round" stroke-linejoin="round"/>
<path d="M149.436 131C149.436 131.552 148.988 132 148.436 132C147.883 132 147.436 131.552 147.436 131C147.436 130.448 147.883 130 148.436 130C148.988 130 149.436 130.448 149.436 131Z" stroke="black" stroke-width="2.5" stroke-linecap="round" stroke-linejoin="round"/>
<path d="M156.186 134.75C156.186 135.302 155.738 135.75 155.186 135.75C154.633 135.75 154.186 135.302 154.186 134.75C154.186 134.198 154.633 133.75 155.186 133.75C155.738 133.75 156.186 134.198 156.186 134.75Z" stroke="black" stroke-width="2.5" stroke-linecap="round" stroke-linejoin="round"/>
<path d="M162.686 137.75C162.686 138.302 162.238 138.75 161.686 138.75C161.133 138.75 160.686 138.302 160.686 137.75C160.686 137.198 161.133 136.75 161.686 136.75C162.238 136.75 162.686 137.198 162.686 137.75Z" stroke="black" stroke-width="2.5" stroke-linecap="round" stroke-linejoin="round"/>
<path d="M169.186 139.5C169.186 140.052 168.738 140.5 168.186 140.5C167.633 140.5 167.186 140.052 167.186 139.5C167.186 138.948 167.633 138.5 168.186 138.5C168.738 138.5 169.186 138.948 169.186 139.5Z" stroke="black" stroke-width="2.5" stroke-linecap="round" stroke-linejoin="round"/>
<path d="M176.686 141.75C176.686 142.302 176.238 142.75 175.686 142.75C175.133 142.75 174.686 142.302 174.686 141.75C174.686 141.198 175.133 140.75 175.686 140.75C176.238 140.75 176.686 141.198 176.686 141.75Z" stroke="black" stroke-width="2.5" stroke-linecap="round" stroke-linejoin="round"/>
<path d="M183.436 143.5C183.436 144.052 182.988 144.5 182.436 144.5C181.883 144.5 181.436 144.052 181.436 143.5C181.436 142.948 181.883 142.5 182.436 142.5C182.988 142.5 183.436 142.948 183.436 143.5Z" stroke="black" stroke-width="2.5" stroke-linecap="round" stroke-linejoin="round"/>
<path d="M190.686 144C190.686 144.552 190.238 145 189.686 145C189.133 145 188.686 144.552 188.686 144C188.686 143.448 189.133 143 189.686 143C190.238 143 190.686 143.448 190.686 144Z" stroke="black" stroke-width="2.5" stroke-linecap="round" stroke-linejoin="round"/>
<path d="M197.985 144.687C197.985 145.239 197.537 145.687 196.985 145.687C196.433 145.687 195.985 145.239 195.985 144.687C195.985 144.135 196.433 143.687 196.985 143.687C197.537 143.687 197.985 144.135 197.985 144.687Z" stroke="black" stroke-width="2.5" stroke-linecap="round" stroke-linejoin="round"/>
<path d="M204.872 144.324C204.872 144.877 204.425 145.324 203.872 145.324C203.32 145.324 202.872 144.877 202.872 144.324C202.872 143.772 203.32 143.324 203.872 143.324C204.425 143.324 204.872 143.772 204.872 144.324Z" stroke="black" stroke-width="2.5" stroke-linecap="round" stroke-linejoin="round"/>
<path d="M212.186 143C212.186 143.552 211.738 144 211.186 144C210.633 144 210.186 143.552 210.186 143C210.186 142.448 210.633 142 211.186 142C211.738 142 212.186 142.448 212.186 143Z" stroke="black" stroke-width="2.5" stroke-linecap="round" stroke-linejoin="round"/>
<path d="M219.686 142C219.686 142.552 219.238 143 218.686 143C218.133 143 217.686 142.552 217.686 142C217.686 141.448 218.133 141 218.686 141C219.238 141 219.686 141.448 219.686 142Z" stroke="black" stroke-width="2.5" stroke-linecap="round" stroke-linejoin="round"/>
<path d="M226.661 140.162C226.661 140.714 226.213 141.162 225.661 141.162C225.108 141.162 224.661 140.714 224.661 140.162C224.661 139.61 225.108 139.162 225.661 139.162C226.213 139.162 226.661 139.61 226.661 140.162Z" stroke="black" stroke-width="2.5" stroke-linecap="round" stroke-linejoin="round"/>
<path d="M232.936 138.5C232.936 139.052 232.488 139.5 231.936 139.5C231.383 139.5 230.936 139.052 230.936 138.5C230.936 137.948 231.383 137.5 231.936 137.5C232.488 137.5 232.936 137.948 232.936 138.5Z" stroke="black" stroke-width="2.5" stroke-linecap="round" stroke-linejoin="round"/>
<path d="M238.186 136C238.186 136.552 237.738 137 237.186 137C236.633 137 236.186 136.552 236.186 136C236.186 135.448 236.633 135 237.186 135C237.738 135 238.186 135.448 238.186 136Z" stroke="black" stroke-width="2.5" stroke-linecap="round" stroke-linejoin="round"/>
<path d="M243.686 134.25C243.686 134.802 243.238 135.25 242.686 135.25C242.133 135.25 241.686 134.802 241.686 134.25C241.686 133.698 242.133 133.25 242.686 133.25C243.238 133.25 243.686 133.698 243.686 134.25Z" stroke="black" stroke-width="2.5" stroke-linecap="round" stroke-linejoin="round"/>
<path d="M313.756 206.018C313.756 206.018 312.386 206.547 311.7 206.41C311.073 206.284 310.475 205.861 310.094 205.354C309.72 204.856 309.539 203.555 309.539 203.555" stroke="#5555AA" stroke-width="2" stroke-linecap="round" stroke-linejoin="round"/>
<path d="M316.171 204.299C316.171 204.299 319.549 203.45 320.761 204.381C322.038 205.361 322.396 207.441 322.063 209.003C321.556 211.379 319.003 212.799 317.389 214.614C316.408 215.717 315.609 217.129 314.347 217.819C313.111 218.495 311.51 219.123 310.275 218.534C309.309 218.074 308.731 216.792 308.594 215.657C308.473 214.645 308.639 213.291 309.427 212.685C310.484 211.871 312.102 212.315 313.258 212.865C313.877 213.16 314.38 213.761 314.672 214.415C314.973 215.088 314.932 216.655 314.932 216.655" stroke="#5555AA" stroke-width="2" stroke-linecap="round" stroke-linejoin="round"/>
<path d="M322.718 208.598C322.718 208.598 324.846 209.527 325.489 210.424C326.136 211.326 326.47 212.543 326.322 213.64C326.08 215.422 324.791 216.946 323.626 218.322C322.262 219.933 320.547 221.327 318.73 222.352C317.382 223.112 315.903 223.72 314.395 223.855C313.269 223.956 311.74 224.278 311.052 223.321C310.466 222.505 310.782 221.067 311.341 220.209C311.762 219.563 312.605 219.346 313.318 219.186C314.287 218.97 315.507 218.656 316.275 219.313C316.963 219.903 316.975 222.068 316.975 222.068" stroke="#5555AA" stroke-width="2" stroke-linecap="round" stroke-linejoin="round"/>
<path d="M324.974 217.69C324.974 217.69 327.554 219.788 327.622 221.263C327.668 222.261 326.758 223.107 326.059 223.825C324.278 225.655 321.908 226.854 319.621 228.007C318.216 228.716 316.769 229.773 315.195 229.665C314.457 229.615 313.562 229.275 313.247 228.612C312.956 228.002 313.291 227.209 313.633 226.627C314.275 225.537 315.277 224.031 316.542 224.175C317.335 224.266 317.715 225.332 317.97 226.082C318.234 226.862 317.996 228.548 317.996 228.548" stroke="#5555AA" stroke-width="2" stroke-linecap="round" stroke-linejoin="round"/>
<path d="M327.219 224.534C327.219 224.534 328.215 226.272 328.13 227.21C327.993 228.736 326.974 230.14 325.894 231.237C324.494 232.658 322.62 233.669 320.699 234.236C319.7 234.531 318.373 235.06 317.574 234.394C316.591 233.575 316.521 231.733 317.109 230.601C317.617 229.625 318.935 228.864 320.031 229.027C320.858 229.151 321.391 230.074 321.784 230.806C322.181 231.544 322.299 233.26 322.299 233.26" stroke="#5555AA" stroke-width="2" stroke-linecap="round" stroke-linejoin="round"/>
<path d="M319.331 234.792C319.331 234.792 318.644 235.953 318.169 236.398C317.721 236.817 317.17 237.092 316.629 237.351C315.556 237.866 314.427 238.239 313.279 238.529C309.733 239.426 306.098 240.304 302.441 240.249C299.81 240.209 296.833 240.298 294.685 238.779C292.819 237.458 291.635 235.101 291.238 232.85C290.551 228.963 292.034 224.924 293.325 221.193C294.415 218.043 296.073 215.07 298.023 212.366C299.709 210.029 301.75 207.926 303.983 206.104C305.674 204.725 307.508 203.443 309.535 202.634C310.692 202.171 312.007 201.519 313.198 201.886C314.164 202.184 315.252 203.05 315.312 204.058C315.439 206.199 312.872 207.606 311.403 209.168C310.558 210.067 309.58 210.834 308.607 211.592C307.552 212.414 306.313 213.773 305.317 213.888C304.664 216.103 306.113 215.579 306.203 219.967C306.288 224.075 304.657 226.769 302.823 228.958" stroke="#5555AA" stroke-width="2" stroke-linecap="round" stroke-linejoin="round"/>
<path d="M249.663 117.928C248.102 122.044 245.479 125.903 244.979 130.277C244.32 136.041 245.166 142.137 247.321 147.524C248.851 151.346 251.641 154.629 254.56 157.531C257.159 160.113 260.181 162.375 263.503 163.919C266.891 165.492 270.742 165.764 274.362 166.687" stroke="#5555AA" stroke-width="2.5" stroke-linecap="round" stroke-linejoin="round"/>
<path d="M169.392 120.057C139.965 128.71 118.102 140.108 95.3415 155.688C91.381 158.399 87.4265 161.126 83.6115 164.039C65.6695 177.735 48.3861 191.239 31.1855 206.9" stroke="#5555AA" stroke-width="2" stroke-linecap="round" stroke-linejoin="round"/>
<path d="M207.67 31L278.268 172.389L296.386 163.955L219.853 31H207.67Z" fill="black"/>
<path d="M136.379 196.631L134.177 197.512L137.7 202.796L143.865 199.42M61.6432 345.485L65.5323 340.535L71.1891 343.364L66.9465 348.667L72.6033 352.556L81.7957 339.475L70.8356 332.757L76.4924 321.797L82.1493 323.565L79.6744 328.868L86.0384 331.343L90.6346 316.14L78.2602 312.605L81.7957 296.341H88.1597L86.3919 306.241L92.4023 307.301L94.5237 289.624H83.5635V273.36H89.5739L89.2204 281.845L95.9379 281.138L96.9985 265.582L85.6848 263.814L86.7455 247.551L93.8165 248.611L93.1094 256.39L99.4734 257.45L103.362 242.247L90.9881 236.944L99.1198 221.741L104.777 224.57L101.595 231.641L107.605 233.409L114.323 223.156L105.13 214.317L116.09 201.942L121.747 206.538L116.09 211.135L120.687 216.792L132 206.538L123.869 194.871L128.892 192.5L61.6432 345.485Z" stroke="#5456AA" stroke-width="2" stroke-linecap="round" stroke-linejoin="round"/>
<path d="M150.032 202.296C143.078 206.892 135.563 210.734 129.172 216.084C123.93 220.472 118.899 225.299 115.03 230.934C112.225 235.019 110.345 239.706 108.666 244.369C106.235 251.119 104.415 258.132 103.362 265.228C102.601 270.363 103.113 275.614 102.655 280.785C102.099 287.06 100.994 293.275 100.181 299.523C99.5825 304.118 99.2989 308.763 98.4127 313.312C97.5272 317.857 96.377 322.365 94.8772 326.747C92.9276 332.442 90.5972 338.03 87.8061 343.364C86.0627 346.695 84.1918 350.012 81.7957 352.91C80.2549 354.773 78.2602 356.209 76.4924 357.859" stroke="#5456AA" stroke-width="2" stroke-linecap="round" stroke-linejoin="round"/>
<path d="M64.8251 201.235L64.4715 194.871L70.8355 195.225L74.371 189.214L78.9672 195.578H85.3312L84.6241 201.942L89.9274 205.124L83.917 209.72L84.2705 215.377L79.3208 214.67L75.0782 221.034L70.1284 213.61L65.5322 215.377V209.367L58.8147 205.478L64.8251 201.235Z" fill="#FFFF57"/>
<path d="M69.2761 204.794L74.6817 199.717L79.801 205.238L74.621 210.135L69.2761 204.794Z" fill="#FF5555" stroke="black" stroke-width="2" stroke-linecap="round" stroke-linejoin="round"/>
<path d="M155.81 188.068L172.659 191.853L182.705 254.458L172.159 248.404L155.81 188.068Z" fill="#5555AA"/>
<path d="M160.828 204.271C160.828 204.271 152.744 205.982 148.971 207.599C144.308 209.598 140.04 212.46 135.889 215.377C133.766 216.87 131.737 218.515 129.879 220.327C128.204 221.96 125.283 225.63 125.283 225.63C125.283 225.63 128.156 228.776 129.529 230.403C131.231 232.422 133.004 234.398 134.475 236.591C135.584 238.243 137.378 241.807 137.378 241.807C137.378 241.807 143.99 240.135 147.35 240.273C150.689 240.409 153.895 241.661 157.103 242.601C162.253 244.11 172.305 247.904 172.305 247.904L160.828 204.271Z" fill="#FF5555"/>
<path d="M110.077 255.657C110.077 255.657 113.506 259.8 114.289 262.303C114.991 264.544 115.185 267.073 114.583 269.344C114.081 271.237 112.742 272.842 111.461 274.323C110.357 275.6 107.605 277.603 107.605 277.603C107.605 277.603 108.4 270.722 108.794 267.18C109.222 263.339 108.84 259.498 110.077 255.657Z" fill="#FF5555"/>
<path d="M110.403 255.967L112.201 249.318C112.201 249.318 114.755 252.738 115.737 254.622C117.082 257.203 118.415 259.887 118.919 262.753C119.435 265.69 119.377 268.792 118.697 271.694C118.221 273.728 117.191 275.624 116.055 277.377C114.927 279.117 113.613 280.801 111.976 282.073C110.45 283.259 106.796 284.674 106.796 284.674L107.959 277.603C107.959 277.603 111.726 274.409 112.908 272.299C113.985 270.379 114.595 268.136 114.676 265.935C114.743 264.134 114.318 262.292 113.616 260.632C112.88 258.893 110.403 255.967 110.403 255.967Z" fill="#FFFF55"/>
<path d="M139.317 245.985C139.317 245.985 146.023 245.298 149.324 245.783C153.122 246.341 156.651 248.079 160.285 249.318C163.248 250.33 166.266 251.219 169.123 252.5C173.406 254.42 177.479 256.794 181.498 259.218C184.409 260.973 187.105 263.067 189.983 264.875C192.533 266.477 195.09 268.08 197.761 269.471C200.287 270.787 202.789 272.266 205.539 273.007C207.827 273.623 210.245 273.596 212.611 273.714C214.729 273.819 218.974 273.714 218.974 273.714L219.151 283.613L215.085 278.663L214.025 282.552L206.247 276.189L204.832 279.724L196.701 271.592L194.579 275.481L186.801 265.582L183.814 269.197L176.902 261.339L174.78 264.521L166.649 256.036L165.234 259.218L155.335 252.147L154.628 255.329L145.435 250.026L145.789 252.854L140.673 251.36L139.317 245.985Z" fill="black" stroke="black" stroke-linecap="round" stroke-linejoin="round"/>
<path d="M235.741 196.072L240.836 196.424L240.834 190.58L236.811 191.781L235.741 196.072Z" fill="#FF5555"/>
<path d="M240.662 237.836C240.78 221.219 240.656 206.538 240.773 189.921C246.784 188.036 251.716 186.211 257.055 184.015C262.331 181.844 267.392 179.185 272.593 176.84C275.528 175.517 278.486 174.247 281.432 172.951C282.114 175.792 282.069 176.575 282.871 179.296C280.514 182.006 278.02 184.603 275.8 187.427C273.659 190.153 271.572 192.94 269.79 195.913C267.216 200.207 265.028 204.739 263.072 209.348C261.843 212.243 260.791 215.221 259.933 218.247C258.895 221.909 257.871 226.344 257.517 229.408C254.453 230.94 253.203 231.17 251.109 232.188C247.549 233.919 244.669 235.832 240.662 237.836Z" fill="black"/>
<path d="M240.783 201.942L240.773 239.773L233.702 245.076L226.277 253.561L222.742 261.693L221.328 268.764H215.317L234.075 201.942C236.436 202.176 238.421 202.056 240.783 201.942H240.783Z" fill="#FF5555"/>
<path d="M92.7559 190.629C92.6221 188.311 88.8358 186.313 89.9275 184.265C91.3614 181.574 97.2127 180.172 98.9379 182.686C99.7482 183.867 96.8535 184.942 96.7234 186.368C96.6085 187.628 98.0592 189.922 98.0592 189.922H110.08L109.019 193.811H97.7057C97.7057 193.811 96.2569 195.186 96.2057 196.096C96.1326 197.392 98.8679 198.64 97.963 199.571C96.1714 201.414 92.0216 198.639 90.9881 196.285C90.1937 194.477 92.8698 192.601 92.7559 190.629Z" fill="black" stroke="#FFFF55" stroke-width="2" stroke-linecap="round" stroke-linejoin="round"/>
<path d="M40.4299 206.538C40.4299 206.538 45.9306 206.765 47.501 208.66C48.9379 210.393 48.2081 215.377 48.2081 215.377C48.2081 215.377 50.9146 212.881 52.4508 213.256C54.0081 213.636 55.316 215.543 55.2792 217.145C55.2445 218.654 53.8351 220.08 52.4508 220.681C51.0413 221.293 47.8546 220.327 47.8546 220.327C47.8546 220.327 49.953 226.139 52.491 227.303C54.8536 228.387 57.8731 227.436 60.2289 226.337C62.2696 225.386 62.9856 222.251 65.1787 221.741C66.3771 221.463 68.2128 221.678 68.7142 222.802C69.6166 224.824 66.1272 226.611 65.8858 228.812C65.6517 230.946 65.7582 233.602 67.3 235.096C68.248 236.014 69.878 235.997 71.1891 235.843C72.043 235.743 73.5403 234.783 73.5403 234.783C73.5403 234.783 71.8692 230.91 72.9568 229.519C74.0558 228.115 76.7475 227.868 78.2601 228.812C79.8406 229.799 80.456 232.302 80.0279 234.116C79.7275 235.388 77.2541 236.889 77.2541 236.889L78.6137 244.369C78.6137 244.369 75.3309 241.631 73.365 240.902C71.4071 240.176 69.12 240.806 67.1505 240.112C65.2487 239.441 63.2639 238.513 61.9967 236.944C60.6616 235.291 59.8754 230.934 59.8754 230.934C59.8754 230.934 55.2319 233.458 52.8043 233.055C49.8039 232.557 47.2909 230.118 45.3797 227.752C44.0669 226.127 43.1897 224.068 42.8904 222C42.5888 219.917 43.5369 217.833 43.6521 215.731C43.7167 214.554 43.917 213.334 43.6119 212.195C43.0518 210.106 40.4299 206.538 40.4299 206.538L40.4299 206.538Z" fill="black" stroke="#FFFF55" stroke-width="2" stroke-linecap="round" stroke-linejoin="round"/>
<path d="M37.248 280.431C37.248 280.431 41.2042 279.97 42.5513 281.138C44.2662 282.626 44.3951 287.695 44.3951 287.695C44.3951 287.695 45.7412 284.158 47.3085 283.953C48.7138 283.769 50.621 285.107 50.6966 286.522C50.7926 288.319 46.7669 290.223 46.7669 290.223C46.7669 290.223 49.0728 293.633 52.3478 289.341C53.2593 288.147 53.7547 286.653 54.111 285.193C54.4882 283.648 54.4781 280.436 54.4781 280.436L59.0834 280.521C59.0834 280.521 57.9682 284.209 58.1077 286.088C58.2181 287.575 58.4534 289.291 59.5219 290.331C60.4549 291.238 63.2591 291.463 63.2591 291.463C63.2591 291.463 62.7878 289.953 63.0574 289.27C63.5789 287.95 64.8206 286.468 66.2394 286.442C67.5035 286.418 68.8535 287.629 69.1664 288.854C69.4233 289.86 68.6961 290.968 68.0072 291.745C67.7374 292.049 66.9375 292.331 66.9375 292.331C66.9375 292.331 69.5861 294.031 70.4821 295.28C71.4447 296.622 72.2634 299.904 72.2634 299.904C72.2634 299.904 68.019 296.852 65.5323 296.341C64.1175 296.05 62.621 297.02 61.2137 296.695C59.6398 296.331 58.1201 295.427 57.047 294.22C56.276 293.352 55.6328 291.038 55.6328 291.038C55.6328 291.038 53.146 294.235 51.3857 295.088C49.8861 295.815 48.0662 296.136 46.4359 295.79C44.8081 295.446 43.292 294.403 42.2023 293.146C41.4452 292.272 41.1801 291.065 40.8016 289.973C40.4835 289.054 40.258 288.103 40.0765 287.149C39.899 286.215 40.0447 285.214 39.7229 284.32C39.2025 282.874 37.248 280.431 37.248 280.431Z" fill="black" stroke="#FFFF55" stroke-width="2" stroke-linecap="round" stroke-linejoin="round"/>
<path d="M86.392 163.759C91.4596 167.883 96.2677 172.349 101.595 176.133C108.459 181.008 115.739 185.293 123.101 189.379C127.85 192.014 132.731 194.421 137.693 196.632C141.671 198.404 145.712 200.06 149.842 201.442C153.382 202.627 157.04 203.426 160.638 204.417" stroke="#5456AA" stroke-width="2" stroke-linecap="round" stroke-linejoin="round"/>
<path d="M172.677 193.414L187.155 202.296" stroke="#5456AA" stroke-width="2" stroke-linecap="round" stroke-linejoin="round"/>
<path d="M173.186 200L186.186 208" stroke="#5456AA" stroke-width="2" stroke-linecap="round" stroke-linejoin="round"/>
<path d="M173.936 208.75L186.186 215" stroke="#5456AA" stroke-width="2" stroke-linecap="round" stroke-linejoin="round"/>
<path d="M175.686 216.25L187.436 222.75" stroke="#5456AA" stroke-width="2" stroke-linecap="round" stroke-linejoin="round"/>
<path d="M177.186 223L187.436 229.5" stroke="#5456AA" stroke-width="2" stroke-linecap="round" stroke-linejoin="round"/>
<path d="M178.686 231L188.186 237" stroke="#5456AA" stroke-width="2" stroke-linecap="round" stroke-linejoin="round"/>
<path d="M179.936 238.5L187.686 242.5" stroke="#5456AA" stroke-width="2" stroke-linecap="round" stroke-linejoin="round"/>
<path d="M180.936 246L188.186 250.5" stroke="#5456AA" stroke-width="2" stroke-linecap="round" stroke-linejoin="round"/>
<path d="M213.565 198.332L200.837 206.464" stroke="#5456AA" stroke-width="2" stroke-linecap="round" stroke-linejoin="round"/>
<path d="M212.806 205.168L201.806 212.168" stroke="#5456AA" stroke-width="2" stroke-linecap="round" stroke-linejoin="round"/>
<path d="M211.806 213.668L201.806 219.168" stroke="#5456AA" stroke-width="2" stroke-linecap="round" stroke-linejoin="round"/>
<path d="M212.306 220.918L201.056 226.918" stroke="#5456AA" stroke-width="2" stroke-linecap="round" stroke-linejoin="round"/>
<path d="M211.806 227.668L201.056 233.418" stroke="#5456AA" stroke-width="2" stroke-linecap="round" stroke-linejoin="round"/>
<path d="M211.306 234.668L199.806 241.168" stroke="#5456AA" stroke-width="2" stroke-linecap="round" stroke-linejoin="round"/>
<path d="M210.056 241.418L200.306 246.668" stroke="#5456AA" stroke-width="2" stroke-linecap="round" stroke-linejoin="round"/>
<path d="M209.056 248.918L199.806 254.668" stroke="#5456AA" stroke-width="2" stroke-linecap="round" stroke-linejoin="round"/>
<path d="M188.686 257.5L181.887 252.634" stroke="#5456AA" stroke-width="2" stroke-linecap="round" stroke-linejoin="round"/>
<path d="M207.436 257.75L200.686 261" stroke="#5456AA" stroke-width="2" stroke-linecap="round" stroke-linejoin="round"/>
<path d="M200.478 263.528L206.716 266.028" stroke="#5456AA" stroke-width="2" stroke-linecap="round" stroke-linejoin="round"/>
<path d="M303.686 135C302.852 132.833 300.407 130.687 301.186 128.5C302.087 125.968 305.504 124.317 308.186 124.5C310.913 124.686 313.594 126.994 314.686 129.5C315.755 131.956 314.816 134.131 313.936 137.5C316.946 135.653 318.196 135.204 320.186 136C323.319 137.253 325.901 141.132 325.686 144.5C325.504 147.332 322.948 150.348 320.186 151C317.715 151.583 315.519 149 313.186 148C313.686 151 315.817 154.177 314.686 157C313.756 159.321 311.186 161.515 308.686 161.5C305.952 161.483 303.187 159.044 302.186 156.5C301.072 153.67 303.186 150.5 303.686 147.5C301.852 148.833 300.442 151.714 298.186 151.5C294.547 151.155 290.928 147.147 290.686 143.5C290.495 140.639 293.268 138.042 295.686 136.5C297.973 135.041 301.019 135.5 303.686 135Z" fill="#FFFF55" stroke="#5456AA" stroke-width="2" stroke-linecap="round" stroke-linejoin="round"/>
<path d="M297.686 136L294.186 127.5L300.186 129L303.186 134.5L297.686 136Z" fill="#5555AA" stroke="#5456AA" stroke-width="2" stroke-linecap="round" stroke-linejoin="round"/>
<path d="M313.186 135L315.686 129.5L322.186 128.5L319.686 135H313.186Z" fill="#5555AA" stroke="#5456AA" stroke-width="2" stroke-linecap="round" stroke-linejoin="round"/>
<path d="M314.686 150L315.186 156L320.186 156.5L319.186 151L314.686 150Z" fill="#5555AA" stroke="#5456AA" stroke-width="2" stroke-linecap="round" stroke-linejoin="round"/>
<path d="M298.686 150L296.686 157L301.186 155.5L303.686 147L298.686 150Z" fill="#5555AA" stroke="#5456AA" stroke-width="2" stroke-linecap="round" stroke-linejoin="round"/>
<path d="M306.186 161.5L307.686 202L311.186 200L309.686 161.75L306.186 161.5Z" fill="#FFFF55" stroke="#5456AA" stroke-width="2" stroke-linecap="round" stroke-linejoin="round"/>
<path d="M312.686 192.5C313.019 186.986 313.704 181.303 315.936 176.25C318.151 171.234 322.186 166.833 325.686 163C325.852 168.5 325.939 174.583 324.936 180.25C324.311 183.779 323.547 187.437 321.686 190.5C319.604 193.924 316.019 196.167 313.186 199C313.019 196.833 312.555 194.669 312.686 192.5Z" fill="#FFFF55" stroke="#5456AA" stroke-width="2" stroke-linecap="round" stroke-linejoin="round"/>
<path d="M321.686 172.5C320.852 176.333 320.361 180.258 319.186 184C317.887 188.134 314.186 196 314.186 196" stroke="#5456AA" stroke-width="2" stroke-linecap="round" stroke-linejoin="round"/>
<path d="M288.686 173.5C293.519 177.333 299.862 179.803 303.186 185C306.235 189.767 305.852 196 307.186 201.5C303.352 197.667 299.178 194.146 295.686 190C293.451 187.348 290.938 184.734 289.686 181.5C288.715 178.994 289.019 176.167 288.686 173.5Z" fill="#FFFF55" stroke="#5456AA" stroke-width="2" stroke-linecap="round" stroke-linejoin="round"/>
<path d="M293.686 182.5C296.186 184.833 299.063 186.819 301.186 189.5C303.687 192.661 305.186 196.5 307.186 200" stroke="#5456AA" stroke-width="2" stroke-linecap="round" stroke-linejoin="round"/>
<path d="M298.186 142.5L309.186 132L318.436 142.75L308.686 152.75L298.186 142.5Z" fill="#FF5555" stroke="#5456AA" stroke-width="2" stroke-linecap="round" stroke-linejoin="round"/>
<path d="M304.186 142.5L308.686 138L313.186 142.5L309.186 147.25L304.186 142.5Z" fill="#FFFF55" stroke="#5456AA" stroke-width="2" stroke-linecap="round" stroke-linejoin="round"/>
<path d="M42.6396 254.611L42.286 248.247L48.65 248.6L52.1855 242.59L56.7817 248.954H63.1457L62.4385 255.318L67.7418 258.5L61.7314 263.096L62.085 268.753L57.1352 268.046L52.8926 274.41L47.9429 266.985L43.3467 268.753V262.743L36.6292 258.854L42.6396 254.611Z" fill="#FFFF57"/>
<path d="M47.0906 258.17L52.4962 253.093L57.6154 258.614L52.4355 263.51L47.0906 258.17Z" fill="#FF5555" stroke="black" stroke-width="2" stroke-linecap="round" stroke-linejoin="round"/>
<path d="M187.508 195.578L189.629 258.157L199.883 263.461L200.59 196.285L187.508 195.578Z" fill="#FFFF55" stroke="black" stroke-width="2" stroke-linecap="round" stroke-linejoin="round"/>
<path d="M192.458 200.882C195.993 200.882 195.286 200.882 195.286 200.882L195.64 204.064L192.665 204.21L192.458 200.882Z" fill="black"/>
<path d="M192.844 207.836C196.38 207.836 195.673 207.836 195.673 207.836L196.026 211.018L193.052 211.164L192.844 207.836Z" fill="black"/>
<path d="M192.594 214.836C196.13 214.836 195.423 214.836 195.423 214.836L195.776 218.018L192.802 218.164L192.594 214.836Z" fill="black"/>
<path d="M192.344 221.086C195.88 221.086 195.173 221.086 195.173 221.086L195.526 224.268L192.552 224.414L192.344 221.086Z" fill="black"/>
<path d="M192.344 228.336C195.88 228.336 195.173 228.336 195.173 228.336L195.526 231.518L192.552 231.664L192.344 228.336Z" fill="black"/>
<path d="M192.094 234.336C195.63 234.336 194.923 234.336 194.923 234.336L195.276 237.518L192.302 237.664L192.094 234.336Z" fill="black"/>
<path d="M192.844 240.836C196.38 240.836 195.673 240.836 195.673 240.836L196.026 244.018L193.052 244.164L192.844 240.836Z" fill="black"/>
<path d="M192.844 246.836C196.38 246.836 195.673 246.836 195.673 246.836L196.026 250.018L193.052 250.164L192.844 246.836Z" fill="black"/>
<path d="M192.844 253.336C196.38 253.336 195.673 253.336 195.673 253.336L196.026 256.518L193.052 256.664L192.844 253.336Z" fill="black"/>
<path d="M210.311 195.125L201.061 200.875" stroke="#5456AA" stroke-width="2" stroke-linecap="round" stroke-linejoin="round"/>
<path d="M120.371 304.452C120.253 321.069 120.665 335.212 120.547 351.829C114.537 353.714 109.605 355.539 104.266 357.735C98.9903 359.906 93.9285 362.565 88.7276 364.91C85.7932 366.233 82.8351 367.503 79.8888 368.799L78.0864 361.97C80.4434 359.26 83.7976 356.066 86.368 352.87C88.5403 350.169 90.5965 347.358 92.3784 344.385C94.9526 340.09 97.1398 335.559 99.096 330.95C100.325 328.054 101.434 325.092 102.235 322.05C103.114 318.713 103.692 314.922 104.046 311.858C107.11 310.326 109.297 309.689 111.885 308.518C114.743 307.226 116.364 306.456 120.371 304.452Z" fill="black"/>
<path d="M205.511 353.682L188.662 349.897L178.616 287.292L189.339 294.23L205.511 353.682Z" fill="#5555AA"/>
<path d="M151.01 346.625L160.26 340.875" stroke="#5456AA" stroke-width="2" stroke-linecap="round" stroke-linejoin="round"/>
<path d="M120.901 339.808L120.371 304.331C120.371 304.331 126.509 300.895 129.033 298.497C132.093 295.589 134.511 292.015 136.634 288.366C138.12 285.811 139.285 283.054 140.17 280.234C140.889 277.94 141.584 273.163 141.584 273.163L146.003 272.986L127.972 339.808C125.61 339.574 123.262 339.694 120.901 339.808Z" fill="#FF5555"/>
<path d="M146.632 348.068L155.178 274.857L145.107 272.986L124.118 351.147L146.632 348.068Z" fill="#5555AA"/>
<path d="M236.392 316.473C238.984 312.938 241.944 309.644 244.17 305.867C245.883 302.959 247.184 299.817 248.412 296.674C249.946 292.752 251.333 288.752 252.301 284.653C253.343 280.245 253.818 275.717 254.35 271.218C255.01 265.64 255.404 260.032 255.767 254.427C256.061 249.89 256.044 245.335 256.384 240.802C256.676 236.906 257.369 232.917 257.605 229.146C254.423 230.678 251.21 232.147 248.059 233.742C244.249 235.67 240.223 237.274 236.745 239.752C232.942 242.462 229.29 245.559 226.492 249.298C224.124 252.463 222.435 256.153 221.189 259.905C219.936 263.674 219.33 267.668 219.08 271.632C218.799 276.087 219.219 280.577 219.775 285.007C220.223 288.585 220.665 292.225 221.896 295.614C223.408 299.777 225.78 303.61 228.26 307.281C229.713 309.431 231.465 311.37 233.21 313.291C234.218 314.402 235.331 315.413 236.392 316.473Z" fill="#5555AA"/>
<path d="M270.876 382.527C270.876 382.527 260.47 374.431 255.13 370.567C249.913 366.792 244.789 362.841 239.22 359.607C234.995 357.153 230.509 355.163 226.017 353.243C222.006 351.528 217.913 349.994 213.764 348.647C210.392 347.551 203.511 345.818 203.511 345.818L204.572 353.95C204.572 353.95 216.239 357.139 221.896 359.253C226.245 360.878 230.509 362.76 234.624 364.91C238.654 367.016 242.504 369.463 246.291 371.981C250.295 374.644 254.101 377.595 257.958 380.466C260.454 382.324 265.383 386.123 265.383 386.123L270.876 382.527Z" fill="#FF5555"/>
<path d="M330.135 334.75C330.135 334.75 315.792 347.272 308.385 353.25C301.771 358.589 294.879 363.575 288.135 368.75C283.798 372.078 275.135 378.75 275.135 378.75C275.135 378.75 265.52 371.018 260.635 367.25C256.676 364.196 252.802 361.014 248.635 358.25C244.777 355.69 236.635 351.25 236.635 351.25C236.635 351.25 245.023 347.147 248.635 344.25C253.419 340.413 257.249 335.495 261.135 330.75C265.825 325.024 270.74 319.326 274.135 312.75C278.173 304.929 280.879 296.375 282.635 287.75C283.535 283.328 283.393 278.756 283.635 274.25C283.903 269.254 283.775 264.24 284.135 259.25C284.461 254.734 285.041 250.239 285.635 245.75C286.211 241.404 287.635 232.75 287.635 232.75C287.635 232.75 291.398 239.52 294.635 241.25C297.59 242.829 301.291 242.441 304.635 242.25C308.552 242.026 312.479 241.172 316.135 239.75C318.293 238.91 320.142 237.429 322.135 236.25C323.808 235.26 325.493 234.289 327.135 233.25C328.151 232.607 330.135 231.25 330.135 231.25V334.75Z" fill="black"/>
<path d="M201.084 479.607C201.084 479.607 211.59 469.776 216.201 464.277C221.402 458.075 226.407 451.597 230.254 444.475C233.768 437.97 236.367 430.947 238.345 423.822C240.386 416.469 242.177 401.253 242.177 401.253L220.885 411.473C220.885 411.473 218.745 421.734 216.84 426.59C214.788 431.821 212.091 436.827 208.962 441.495C206.184 445.639 199.381 452.992 199.381 452.992L201.084 479.607Z" fill="#000004"/>
<path d="M142.766 510.75L91.374 421.954L83.0526 425.589L133.034 510.75H142.766Z" fill="#FF5455"/>
<path d="M67.9178 510.75C69.6984 502.259 70.6752 493.599 70.8308 484.924C71.0336 473.621 69.8404 462.299 67.3526 451.272C65.5781 443.407 63.1466 435.69 60.0917 428.228C64.083 428.977 68.1759 429.182 72.2222 428.837C75.9219 428.521 79.5821 427.745 83.0917 426.533L133.266 510.75H67.9178Z" fill="#FFFF55" stroke="#5555AA" stroke-width="2" stroke-linecap="round" stroke-linejoin="round"/>
<path d="M83.643 369.699C100.875 360.795 108.751 356.704 122.313 353.143C138.126 348.992 154.738 347.062 171.069 347.811C185.781 348.486 200.599 351.381 214.363 356.616C232.825 363.637 249.423 373.087 265.6 386.379C259.605 390.649 249.176 397.276 240.378 401.661C230.118 406.776 224.506 410.638 208.438 414.42C204.093 411.929 199.942 408.932 195.262 407.108C188.938 404.643 182.218 403.04 175.468 402.335C168.643 401.622 161.712 402.186 154.888 402.922C147.986 403.666 141.037 404.676 134.42 406.779C127.983 408.825 122.317 411.32 115.995 415.213C117.285 397.938 116.387 393.038 106.655 383.91C104.485 382.11 92.9095 374.917 87.2626 376.005C82.3391 372.425 86.1402 370.904 83.643 369.699Z" fill="#FFFF58"/>
<path d="M104.039 487.222C106.567 489.104 110.27 489.375 112.092 487.402C114.198 485.122 113.183 480.481 111.147 478.14C108.754 475.389 103.492 473.413 100.527 475.533C99.1671 476.504 99.2566 479.073 100.082 480.526C100.497 481.257 101.44 481.62 102.353 481.62" stroke="black" stroke-width="2.5" stroke-linecap="round" stroke-linejoin="round"/>
<path d="M96.8744 469.75C94.8439 471.529 95.8175 473.388 96.8744 474.62C97.7432 475.632 99.6978 475.933 100.831 475.228C103.812 473.375 105.293 468.448 103.998 465.185C102.695 461.9 98.1749 459.163 94.744 460.011C92.3947 460.592 90.0758 462.819 90.7874 466.098" stroke="black" stroke-width="2.5" stroke-linecap="round" stroke-linejoin="round"/>
<path d="M97.7874 477.663C98.6157 478.956 98.4278 481.336 97.1787 482.228C95.9161 483.131 93.4434 482.627 92.6135 481.315C91.7188 479.901 92.3737 477.268 93.8309 476.446C95.0327 475.768 97.043 476.501 97.7874 477.663V477.663Z" stroke="black" stroke-width="2.5" stroke-linecap="round" stroke-linejoin="round"/>
<path d="M109.657 496.533C109.304 493.583 111.215 489.099 114.222 488.62C117.373 488.117 120.11 492.07 121.346 495.011C122.605 498.007 123.316 502.557 120.918 504.75C119.269 506.258 115.766 506.061 114.222 504.446C113.381 503.565 113.129 501.542 114.222 500.793" stroke="black" stroke-width="2.5" stroke-linecap="round" stroke-linejoin="round"/>
<path d="M129.44 510.75C128.527 504.866 125.156 504.414 122.135 505.054C120.029 505.501 118.388 508.65 119.092 510.75" stroke="black" stroke-width="2.5" stroke-linejoin="round"/>
<path d="M118.048 510.75C119.064 509.056 117.465 507.581 116.222 507.489C114.852 507.388 113.211 509.423 113.704 510.75" stroke="black" stroke-width="2.5" stroke-linejoin="round"/>
<path d="M85.9179 456.967C86.353 457.434 86.898 457.847 87.5047 458.183C89.3341 459.198 91.7235 459.518 93.3463 458.529C96.1444 456.825 95.8133 452.194 94.3994 449.523C92.9078 446.704 89.0068 444.306 85.9179 445.098C84.1463 445.552 82.405 447.895 82.8744 449.663C83.2237 450.979 84.6844 452.911 86.5266 451.489" stroke="black" stroke-width="2.5" stroke-linecap="round" stroke-linejoin="round"/>
<path d="M80.744 448.141C81.255 449.459 80.5361 451.578 79.2223 452.098C77.92 452.613 75.8295 451.617 75.438 450.272C75.0377 448.897 76.3227 447.01 77.7005 446.62C78.7917 446.31 80.3339 447.084 80.744 448.141Z" stroke="black" stroke-width="2.5" stroke-linecap="round" stroke-linejoin="round"/>
<path d="M80.4396 440.533C78.8777 440.079 79.371 443.858 80.4396 444.793C81.5947 445.805 83.9447 445.295 85.0048 444.185C87.0043 442.091 87.0223 438.134 85.7537 435.531C84.4001 432.754 80.9392 429.558 77.9888 430.473C75.4666 431.255 74.4607 433.687 74.9614 437.793" stroke="black" stroke-width="2.5" stroke-linecap="round" stroke-linejoin="round"/>
<path d="M201.445 510.75C201.445 510.75 200.649 490.836 200.196 480.881C199.907 474.528 199.757 468.166 199.259 461.826C198.652 454.099 198.431 446.277 196.76 438.709C195.431 432.697 193.884 426.559 190.824 421.216C188.293 416.796 185.061 412.491 180.828 409.658C178.365 408.01 175.348 407.078 172.394 406.846C168.605 406.549 164.714 407.408 161.148 408.721C156.59 410.399 152.6 413.388 148.653 416.218C144.99 418.844 141.691 421.946 138.344 424.965C135.774 427.283 130.847 432.149 130.847 432.149" stroke="#5555AA" stroke-width="2.5" stroke-linejoin="round"/>
<path d="M189.575 510.557C189.575 510.557 192.806 505.892 194.885 503.997C196.55 502.48 200.508 500.249 200.508 500.249" stroke="#5555AA" stroke-width="2.5" stroke-linecap="round" stroke-linejoin="round"/>
<path d="M183.015 510.557C183.015 510.557 187.336 503.694 190.2 500.873C193.123 497.994 200.196 493.689 200.196 493.689" stroke="#5555AA" stroke-width="2.5" stroke-linecap="round" stroke-linejoin="round"/>
<path d="M176.142 510.557C176.142 510.557 183.389 500.144 188.013 495.875C191.536 492.623 199.883 487.753 199.883 487.753" stroke="#5555AA" stroke-width="2.5" stroke-linecap="round" stroke-linejoin="round"/>
<path d="M171.457 510.557C171.457 510.557 164.755 497.227 159.274 492.439C153.768 487.629 139.594 482.755 139.594 482.755" stroke="#5555AA" stroke-width="2.5" stroke-linecap="round" stroke-linejoin="round"/>
<path d="M165.834 510.557C165.834 510.557 160.558 500.735 156.462 497.125C152.934 494.014 143.967 490.565 143.967 490.565" stroke="#5555AA" stroke-width="2.5" stroke-linecap="round" stroke-linejoin="round"/>
<path d="M160.211 510.557C160.211 510.557 157.016 503.848 154.276 501.498C152.365 499.86 147.403 498.374 147.403 498.374" stroke="#5555AA" stroke-width="2.5" stroke-linecap="round" stroke-linejoin="round"/>
<path d="M179.663 473.204C179.663 473.204 179.114 469.152 179.323 467.138C179.716 463.336 181.336 459.763 182.295 456.063C182.922 453.643 184.208 451.284 184.113 448.786C184.038 446.822 183.522 444.692 182.252 443.192C181.403 442.189 179.743 442.227 178.768 441.344C177.951 440.604 176.937 438.589 176.937 438.589" stroke="#5555AA" stroke-width="2" stroke-linecap="round" stroke-linejoin="round"/>
<path d="M166.506 448.874C166.506 448.874 163.307 445.277 163.738 443.225C164.01 441.927 165.47 440.884 166.777 440.656C168.461 440.362 169.993 441.819 171.584 442.445C173.092 443.039 174.623 445.034 176.076 444.313C176.757 443.974 177.159 442.669 176.65 442.104C176.033 441.419 174.836 442.495 173.913 442.519C170.713 442.602 166.874 439.597 164.356 441.574C163.484 442.258 163.648 443.784 163.888 444.866C164.235 446.423 166.506 448.874 166.506 448.874V448.874Z" fill="#5555AA" stroke="#5555AA" stroke-width="2" stroke-linecap="round" stroke-linejoin="round"/>
<path d="M139.615 474.14C139.615 474.14 148.364 480.394 153.359 481.714C157.289 482.752 161.599 482.989 165.492 481.817C167.058 481.345 169.642 479.056 169.642 479.056C169.642 479.056 165.827 480.439 163.841 480.697C159.831 481.219 155.654 481.495 151.722 480.483C147.36 479.359 139.615 474.14 139.615 474.14Z" fill="#5555AA" stroke="#5555AA" stroke-width="2" stroke-linecap="round" stroke-linejoin="round"/>
<path d="M199.192 480.194C199.192 480.194 193.076 483.035 189.918 482.571C186.416 482.057 180.822 477.089 180.822 477.089C180.822 477.089 186.739 481.172 190.158 481.394C193.376 481.603 199.393 478.513 199.393 478.513L199.192 480.194Z" fill="#5555AA" stroke="#5555AA" stroke-width="2" stroke-linecap="round" stroke-linejoin="round"/>
<path d="M163.043 431.114C163.043 431.114 166.974 432.65 169.085 432.782C170.999 432.901 172.854 432.071 174.762 431.963C176.94 431.841 179.216 432.708 181.304 432.166C182.252 431.92 183.712 430.678 183.712 430.678C183.712 430.678 182.011 430.782 181.17 430.695C178.94 430.463 176.857 429.247 174.639 429.271C172.191 429.296 169.93 430.67 167.479 430.993C166.017 431.186 163.043 431.114 163.043 431.114Z" fill="#5555AA" stroke="#5555AA" stroke-width="2" stroke-linecap="round" stroke-linejoin="round"/>
<path d="M167.683 425.997C167.683 425.997 171.361 424.555 173.299 424.484C174.954 424.423 178.179 425.422 178.179 425.422" stroke="#5555AA" stroke-width="2" stroke-linecap="round" stroke-linejoin="round"/>
<path d="M181.469 471.217C181.469 471.217 186.259 475.318 190.604 475.359C195.255 475.404 197.996 472.697 197.996 472.697" stroke="#5555AA" stroke-width="2" stroke-linecap="round" stroke-linejoin="round"/>
<path d="M140.999 469.595C140.999 469.595 150.375 476.735 155.705 476.661C162.895 476.561 168.246 472.344 168.246 472.344" stroke="#5555AA" stroke-width="2" stroke-linecap="round" stroke-linejoin="round"/>
<path d="M142.079 467.372C147.596 468.065 149.549 471.227 154.623 471.624C158.973 471.965 167.724 470.393 167.724 470.393" stroke="#5555AA" stroke-width="2" stroke-linecap="round" stroke-linejoin="round"/>
<path d="M198.511 469.134C193.479 471.782 193.741 472.389 188.662 472.059C182.11 471.634 180.246 470.847 180.597 470.987" stroke="#5555AA" stroke-width="2" stroke-linecap="round" stroke-linejoin="round"/>
<path d="M144.692 466.439C149.63 465.153 151.984 463.912 157.585 463.534C161.735 463.254 167.297 464.568 167.72 468.705" stroke="#5555AA" stroke-width="2" stroke-linecap="round" stroke-linejoin="round"/>
<path d="M155.059 470.23C154.107 465.104 157.145 463.377 160.5 463.775C162.776 464.045 164.924 467.023 163.871 469.974" stroke="#5555AA" stroke-width="2" stroke-linecap="round" stroke-linejoin="round"/>
<path d="M161.176 467.089C161.369 467.993 160.505 469.31 159.603 469.373C158.813 469.429 157.912 468.389 157.973 467.585C158.029 466.847 158.961 466.237 159.699 466.188C160.274 466.15 161.056 466.524 161.176 467.089Z" fill="#5555AA" stroke="#5555AA" stroke-width="2" stroke-linecap="round" stroke-linejoin="round"/>
<path d="M188.053 468.41C188.038 469.138 188.872 470.068 189.714 470.037C190.451 470.01 191.144 469.142 191.066 468.51C190.985 467.85 190.071 467.198 189.304 467.245C188.695 467.282 188.064 467.884 188.053 468.41Z" fill="#5555AA" stroke="#5555AA" stroke-width="2" stroke-linecap="round" stroke-linejoin="round"/>
<path d="M181.969 462.572C183.903 460.049 184.015 457.832 188.064 455.66" stroke="#5555AA" stroke-width="2" stroke-linecap="round" stroke-linejoin="round"/>
<path d="M167.775 469.502C166.166 462.298 160.539 460.144 156.092 456.959" stroke="#5555AA" stroke-width="2" stroke-linecap="round" stroke-linejoin="round"/>
<path d="M198.594 466.504C195.883 464.711 192.429 463.677 188.043 463.861C184.794 463.997 181.524 466.526 181.507 469.528" stroke="#5555AA" stroke-width="2" stroke-linecap="round" stroke-linejoin="round"/>
<path d="M193.493 471.831C194.471 466.846 192.358 464.2 188.551 464.336C186.877 464.396 183.506 468.504 186.076 472.33" stroke="#5555AA" stroke-width="2" stroke-linecap="round" stroke-linejoin="round"/>
<path d="M168.121 419.106C168.121 419.106 171.876 420.336 173.814 420.297C175.471 420.263 178.634 419.082 178.634 419.082" stroke="#5555AA" stroke-width="2" stroke-linecap="round" stroke-linejoin="round"/>
<path d="M135.717 470.878C137.563 465.484 140.883 460.062 140.828 454.27C140.773 448.592 138.535 442.89 135.505 438.088C133.147 434.352 129.887 430.882 125.923 428.932C122.122 427.063 117.548 427.655 113.361 427.016" stroke="#5555AA" stroke-width="2.5" stroke-linecap="round" stroke-linejoin="round"/>
<path d="M132.524 465.342C133.375 462.219 134.83 458.167 134.653 454.483C134.45 450.266 133.143 446.003 131.033 442.346C129.277 439.302 126.877 436.367 123.794 434.681C121.449 433.399 118.542 433.687 115.916 433.191" stroke="#5555AA" stroke-width="2.5" stroke-linecap="round" stroke-linejoin="round"/>
<path d="M128.904 458.954C129.188 456.683 130.083 454.406 129.756 452.141C129.324 449.152 128.229 446.014 126.136 443.837C124.442 442.074 121.736 441.707 119.536 440.643" stroke="#5555AA" stroke-width="2.5" stroke-linecap="round" stroke-linejoin="round"/>
<path d="M108.677 418.073C109.528 415.022 111.03 412.08 111.232 408.918C111.483 404.981 110.973 400.878 109.528 397.207C107.884 393.03 105.132 389.212 101.863 386.135C99.8689 384.258 97.4133 382.806 94.8369 381.877C93.0145 381.22 91.0043 381.309 89.0881 381.025" stroke="#5555AA" stroke-width="2.5" stroke-linecap="round" stroke-linejoin="round"/>
<path d="M105.057 411.047C105.483 408.776 106.467 406.54 106.334 404.234C106.155 401.118 105.152 397.978 103.567 395.291C102.266 393.086 100.349 391.211 98.2435 389.755C96.9097 388.833 95.2627 388.477 93.7722 387.839" stroke="#5555AA" stroke-width="2.5" stroke-linecap="round" stroke-linejoin="round"/>
<path d="M198.742 444.05C201.936 439.72 205.827 435.827 208.323 431.061C211.072 425.812 212.156 419.848 214.072 414.241" stroke="#5555AA" stroke-width="2.5" stroke-linecap="round" stroke-linejoin="round"/>
<path d="M197.677 437.449C199.735 434.255 202.247 431.312 203.852 427.868C205.578 424.164 206.265 420.061 207.472 416.157" stroke="#5555AA" stroke-width="2.5" stroke-linecap="round" stroke-linejoin="round"/>
<path d="M196.187 429.997C197.251 428.222 198.544 426.566 199.381 424.674C200.078 423.097 200.374 421.921 200.871 419.721" stroke="#5555AA" stroke-width="2.5" stroke-linecap="round" stroke-linejoin="round"/>
<path d="M210.459 415.127C203.85 411.393 195.786 407.514 187.883 405.298C181.33 403.461 174.458 402.744 167.656 402.53C159.902 402.287 152.098 402.955 144.447 404.234C139.235 405.105 134.03 406.331 129.117 408.279C124.689 410.035 120.742 412.821 116.555 415.092" stroke="#5555AA" stroke-width="2.5" stroke-linecap="round" stroke-linejoin="round"/>
<path d="M221.098 410.195C215.279 406.86 209.788 402.868 203.639 400.188C197.507 397.515 191.011 395.656 184.476 394.226C178.324 392.88 172.036 391.899 165.739 391.794C158.753 391.678 151.763 392.636 144.873 393.8C139.255 394.75 133.698 396.128 128.265 397.846C124.558 399.018 121.026 400.685 117.406 402.104" stroke="black" stroke-width="2.5" stroke-linecap="round" stroke-linejoin="round"/>
<path d="M226.634 407.001C221.595 404.021 216.77 400.644 211.517 398.059C206.373 395.527 201.033 393.338 195.548 391.671C189.022 389.688 182.306 388.226 175.534 387.413C168.343 386.549 161.04 386.261 153.816 386.774C147.996 387.187 142.233 388.357 136.569 389.755C129.4 391.524 122.516 394.297 115.49 396.568" stroke="black" stroke-width="2.5" stroke-linecap="round" stroke-linejoin="round"/>
<path d="M233.874 404.021C228.196 400.685 222.789 396.838 216.84 394.013C210.207 390.864 203.244 388.379 196.187 386.348C189.151 384.324 181.95 382.761 174.682 381.877C168.971 381.183 163.18 380.932 157.435 381.238C150.991 381.581 144.56 382.549 138.273 384.006C133.768 385.05 129.418 386.688 125.072 388.265C121.33 389.622 117.69 391.245 114 392.736" stroke="black" stroke-width="2.5" stroke-linecap="round" stroke-linejoin="round"/>
<path d="M260.489 389.329C253.746 384.574 247.32 379.335 240.261 375.063C232.413 370.315 224.344 365.778 215.775 362.501C208.1 359.566 200.005 357.766 191.928 356.247C184.275 354.807 176.499 353.941 168.72 353.559C160.425 353.151 152.042 352.899 143.808 353.984C135.685 355.055 127.781 357.498 119.961 359.946C112.502 362.282 105.111 364.938 98.0306 368.25C93.972 370.149 90.2236 372.65 86.3201 374.851" stroke="black" stroke-width="2.5" stroke-linecap="round" stroke-linejoin="round"/>
<path d="M234.955 404.587L247.635 398L240.385 392.75L233.205 402.837L234.955 404.587Z" fill="black"/>
<path d="M223.717 397.093L230.385 385.25L217.135 379L211.385 390.25L223.717 397.093Z" fill="black"/>
<path d="M199.135 386.5L203.054 374.407L189.554 370.157L186.135 383.093L199.135 386.5Z" fill="black"/>
<path d="M173.885 380.75L174.885 368.157L160.461 367.652L161.135 381.25L173.885 380.75Z" fill="black"/>
<path d="M148.385 381L147.222 368.157L133.135 370.907L136.043 384.087L148.385 381Z" fill="black"/>
<path d="M123.722 388.18L118.429 374.783L106.4 379.352L109.385 386.75L113.885 393L123.722 388.18Z" fill="black"/>
<path d="M248.635 382L240.635 392.5L230.385 385.5L236.804 373.407L248.635 382Z" fill="black"/>
<path d="M223.391 365.82L217.63 379.343L203.287 374.75L207.635 360.75L223.391 365.82Z" fill="black"/>
<path d="M192.467 356.39L189.635 370L174.792 368.081L175.961 354.407L192.467 356.39Z" fill="black"/>
<path d="M160.635 354L160.885 368.5H146.885L145.385 355L160.885 353L160.635 354Z" fill="black"/>
<path d="M130.135 358.25L133.309 371.174L118.543 375.511L114.205 362.663L129.885 357.25L130.135 358.25Z" fill="black"/>
<path d="M101.385 368L106.635 379.75L103.635 380.75L87.8853 373.75L101.385 368Z" fill="black"/>
<path d="M252.722 393.07L252.385 388.5L246.804 389.489L247.885 394.5L252.722 393.07Z" stroke="black" stroke-width="2.5" stroke-linecap="round" stroke-linejoin="round"/>
<path d="M234.635 396.75L229.885 398L229.298 393.157L234.135 391.407L234.635 396.75Z" stroke="black" stroke-width="2.5" stroke-linecap="round" stroke-linejoin="round"/>
<path d="M230.635 377.5L225.385 380L224.135 375.25L228.135 373L230.635 377.5Z" stroke="black" stroke-width="2.5" stroke-linecap="round" stroke-linejoin="round"/>
<path d="M210.635 384.25L205.635 386L204.211 381.157L208.885 379L210.635 384.25Z" stroke="black" stroke-width="2.5" stroke-linecap="round" stroke-linejoin="round"/>
<path d="M201.635 366.75L198.885 362L194.885 365.25L197.885 369.75L201.635 366.75Z" stroke="black" stroke-width="2.5" stroke-linecap="round" stroke-linejoin="round"/>
<path d="M184.571 376.035L180.583 379.285L177.606 376.25L181.606 372.25L184.571 376.035Z" stroke="black" stroke-width="2.5" stroke-linecap="round" stroke-linejoin="round"/>
<path d="M171.885 361.576L168.135 365.25L165.135 360.5L168.885 358.25L171.885 361.576Z" stroke="black" stroke-width="2.5" stroke-linecap="round" stroke-linejoin="round"/>
<path d="M157.92 374.172L154.746 377.922L151.415 374.515L154.415 371.515L157.92 374.172Z" stroke="black" stroke-width="2.5" stroke-linecap="round" stroke-linejoin="round"/>
<path d="M142.472 363.244L138.885 367.25L135.135 364.25L137.7 359.581L142.472 363.244Z" stroke="black" stroke-width="2.5" stroke-linecap="round" stroke-linejoin="round"/>
<path d="M131.385 378.25L128.885 382.75L124.635 381L126.635 376.25L131.385 378.25Z" stroke="black" stroke-width="2.5" stroke-linecap="round" stroke-linejoin="round"/>
<path d="M113.885 370.25L111.635 375L106.885 372.5L108.885 368.25L113.885 370.25Z" stroke="black" stroke-width="2.5" stroke-linecap="round" stroke-linejoin="round"/>
<path d="M265.135 385.75C257.469 380.083 250.87 374.483 243.135 369.75C237.636 366.385 231.798 363.57 225.885 361C219.212 358.099 212.388 355.477 205.385 353.5C198.512 351.559 191.451 350.292 184.385 349.25C177.235 348.196 170.024 347.309 162.798 347.235C153.768 347.144 144.661 347.574 135.78 349.206C126.577 350.897 117.647 353.967 108.885 357.25C100.163 360.518 91.6104 364.642 83.4437 368.808" stroke="black" stroke-width="2.5" stroke-linecap="round" stroke-linejoin="round"/>
<path d="M211.885 410.75C211.885 410.198 212.333 409.75 212.885 409.75C213.438 409.75 213.885 410.198 213.885 410.75C213.885 411.302 213.438 411.75 212.885 411.75C212.333 411.75 211.885 411.302 211.885 410.75Z" stroke="black" stroke-width="2.5" stroke-linecap="round" stroke-linejoin="round"/>
<path d="M205.135 407C205.135 406.448 205.583 406 206.135 406C206.688 406 207.135 406.448 207.135 407C207.135 407.552 206.688 408 206.135 408C205.583 408 205.135 407.552 205.135 407Z" stroke="black" stroke-width="2.5" stroke-linecap="round" stroke-linejoin="round"/>
<path d="M198.635 404C198.635 403.448 199.083 403 199.635 403C200.188 403 200.635 403.448 200.635 404C200.635 404.552 200.188 405 199.635 405C199.083 405 198.635 404.552 198.635 404Z" stroke="black" stroke-width="2.5" stroke-linecap="round" stroke-linejoin="round"/>
<path d="M192.135 402.25C192.135 401.698 192.583 401.25 193.135 401.25C193.688 401.25 194.135 401.698 194.135 402.25C194.135 402.802 193.688 403.25 193.135 403.25C192.583 403.25 192.135 402.802 192.135 402.25Z" stroke="black" stroke-width="2.5" stroke-linecap="round" stroke-linejoin="round"/>
<path d="M184.635 400C184.635 399.448 185.083 399 185.635 399C186.188 399 186.635 399.448 186.635 400C186.635 400.552 186.188 401 185.635 401C185.083 401 184.635 400.552 184.635 400Z" stroke="black" stroke-width="2.5" stroke-linecap="round" stroke-linejoin="round"/>
<path d="M177.885 398.25C177.885 397.698 178.333 397.25 178.885 397.25C179.438 397.25 179.885 397.698 179.885 398.25C179.885 398.802 179.438 399.25 178.885 399.25C178.333 399.25 177.885 398.802 177.885 398.25Z" stroke="black" stroke-width="2.5" stroke-linecap="round" stroke-linejoin="round"/>
<path d="M170.635 397.75C170.635 397.198 171.083 396.75 171.635 396.75C172.188 396.75 172.635 397.198 172.635 397.75C172.635 398.302 172.188 398.75 171.635 398.75C171.083 398.75 170.635 398.302 170.635 397.75Z" stroke="black" stroke-width="2.5" stroke-linecap="round" stroke-linejoin="round"/>
<path d="M163.336 397.063C163.336 396.511 163.783 396.063 164.336 396.063C164.888 396.063 165.336 396.511 165.336 397.063C165.336 397.615 164.888 398.063 164.336 398.063C163.783 398.063 163.336 397.615 163.336 397.063Z" stroke="black" stroke-width="2.5" stroke-linecap="round" stroke-linejoin="round"/>
<path d="M156.448 397.426C156.448 396.873 156.896 396.426 157.448 396.426C158.001 396.426 158.448 396.873 158.448 397.426C158.448 397.978 158.001 398.426 157.448 398.426C156.896 398.426 156.448 397.978 156.448 397.426Z" stroke="black" stroke-width="2.5" stroke-linecap="round" stroke-linejoin="round"/>
<path d="M149.135 398.75C149.135 398.198 149.583 397.75 150.135 397.75C150.688 397.75 151.135 398.198 151.135 398.75C151.135 399.302 150.688 399.75 150.135 399.75C149.583 399.75 149.135 399.302 149.135 398.75Z" stroke="black" stroke-width="2.5" stroke-linecap="round" stroke-linejoin="round"/>
<path d="M141.635 399.75C141.635 399.198 142.083 398.75 142.635 398.75C143.188 398.75 143.635 399.198 143.635 399.75C143.635 400.302 143.188 400.75 142.635 400.75C142.083 400.75 141.635 400.302 141.635 399.75Z" stroke="black" stroke-width="2.5" stroke-linecap="round" stroke-linejoin="round"/>
<path d="M134.66 401.588C134.66 401.036 135.108 400.588 135.66 400.588C136.212 400.588 136.66 401.036 136.66 401.588C136.66 402.14 136.212 402.588 135.66 402.588C135.108 402.588 134.66 402.14 134.66 401.588Z" stroke="black" stroke-width="2.5" stroke-linecap="round" stroke-linejoin="round"/>
<path d="M128.385 403.25C128.385 402.698 128.833 402.25 129.385 402.25C129.938 402.25 130.385 402.698 130.385 403.25C130.385 403.802 129.938 404.25 129.385 404.25C128.833 404.25 128.385 403.802 128.385 403.25Z" stroke="black" stroke-width="2.5" stroke-linecap="round" stroke-linejoin="round"/>
<path d="M123.135 405.75C123.135 405.198 123.583 404.75 124.135 404.75C124.688 404.75 125.135 405.198 125.135 405.75C125.135 406.302 124.688 406.75 124.135 406.75C123.583 406.75 123.135 406.302 123.135 405.75Z" stroke="black" stroke-width="2.5" stroke-linecap="round" stroke-linejoin="round"/>
<path d="M117.635 407.5C117.635 406.948 118.083 406.5 118.635 406.5C119.188 406.5 119.635 406.948 119.635 407.5C119.635 408.052 119.188 408.5 118.635 408.5C118.083 408.5 117.635 408.052 117.635 407.5Z" stroke="black" stroke-width="2.5" stroke-linecap="round" stroke-linejoin="round"/>
<path d="M47.5648 335.732C47.5648 335.732 48.9347 335.203 49.621 335.34C50.2474 335.466 50.8456 335.889 51.227 336.396C51.6009 336.894 51.7816 338.195 51.7816 338.195" stroke="#5555AA" stroke-width="2" stroke-linecap="round" stroke-linejoin="round"/>
<path d="M45.1501 337.451C45.1501 337.451 41.7719 338.3 40.5595 337.369C39.2831 336.389 38.9249 334.309 39.258 332.747C39.7644 330.371 42.3177 328.951 43.9316 327.136C44.9127 326.033 45.7121 324.621 46.9738 323.931C48.2099 323.255 49.8104 322.627 51.0462 323.216C52.0117 323.676 52.5897 324.958 52.7263 326.093C52.8482 327.105 52.6822 328.459 51.8942 329.065C50.8367 329.879 49.2191 329.435 48.0623 328.885C47.4442 328.59 46.941 327.989 46.6486 327.335C46.3482 326.662 46.3889 325.095 46.3889 325.095" stroke="#5555AA" stroke-width="2" stroke-linecap="round" stroke-linejoin="round"/>
<path d="M38.6027 333.152C38.6027 333.152 36.4743 332.223 35.8319 331.326C35.1851 330.424 34.8508 329.207 34.9992 328.11C35.2405 326.328 36.5294 324.804 37.6946 323.428C39.0584 321.817 40.7742 320.423 42.5911 319.398C43.9388 318.638 45.4181 318.03 46.9257 317.895C48.0519 317.794 49.5809 317.472 50.2685 318.429C50.8552 319.245 50.5383 320.683 49.9801 321.541C49.5589 322.187 48.716 322.404 48.0023 322.564C47.0333 322.78 45.8142 323.094 45.0463 322.437C44.358 321.847 44.3462 319.682 44.3462 319.682" stroke="#5555AA" stroke-width="2" stroke-linecap="round" stroke-linejoin="round"/>
<path d="M36.347 324.06C36.347 324.06 33.7663 321.962 33.6989 320.487C33.6533 319.489 34.5629 318.643 35.2615 317.925C37.0426 316.095 39.4125 314.896 41.6995 313.743C43.1052 313.034 44.5516 311.977 46.126 312.085C46.8636 312.135 47.7587 312.475 48.0742 313.138C48.3643 313.748 48.0303 314.541 47.6878 315.123C47.0461 316.213 46.0442 317.719 44.7785 317.575C43.9858 317.484 43.6058 316.418 43.3512 315.668C43.0867 314.888 43.3247 313.202 43.3247 313.202" stroke="#5555AA" stroke-width="2" stroke-linecap="round" stroke-linejoin="round"/>
<path d="M34.1017 317.216C34.1017 317.216 33.1062 315.478 33.1905 314.54C33.3275 313.014 34.3469 311.61 35.4266 310.513C36.8264 309.092 38.701 308.081 40.6216 307.514C41.6212 307.219 42.9482 306.69 43.7463 307.356C44.7296 308.175 44.8002 310.017 44.2115 311.149C43.7036 312.125 42.3861 312.886 41.2902 312.723C40.463 312.599 39.9296 311.676 39.5363 310.944C39.1402 310.206 39.0218 308.49 39.0218 308.49" stroke="#5555AA" stroke-width="2" stroke-linecap="round" stroke-linejoin="round"/>
<path d="M41.9894 306.958C41.9894 306.958 42.6767 305.797 43.1521 305.352C43.5993 304.933 44.1511 304.658 44.6917 304.399C45.7653 303.884 46.8942 303.511 48.0418 303.221C51.588 302.324 55.2224 301.446 58.8799 301.501C61.5109 301.541 64.4877 301.452 66.6358 302.971C68.502 304.292 69.6857 306.649 70.0832 308.9C70.7694 312.787 69.2868 316.826 67.9959 320.557C66.9058 323.707 65.2474 326.68 63.2974 329.384C61.6117 331.721 59.5704 333.824 57.3378 335.646C55.6468 337.025 53.8127 338.307 51.7859 339.116C50.6285 339.579 49.3137 340.231 48.1227 339.864C47.1571 339.566 46.0687 338.7 46.0087 337.692C45.8814 335.551 48.4487 334.144 49.9181 332.582C50.7631 331.683 51.7407 330.916 52.7138 330.158C53.7689 329.336 55.0075 327.977 56.0043 327.862C56.6566 325.647 55.2082 326.171 55.1174 321.783C55.0324 317.675 56.6639 314.981 58.4974 312.792" stroke="#5555AA" stroke-width="2" stroke-linecap="round" stroke-linejoin="round"/>
<path d="M111.658 423.822C113.219 419.706 115.842 415.847 116.342 411.473C117 405.709 116.155 399.613 114 394.226C112.47 390.404 109.68 387.121 106.76 384.219C104.162 381.637 101.14 379.375 97.8177 377.831C94.4301 376.258 90.5784 375.986 86.9588 375.063" stroke="#5555AA" stroke-width="2.5" stroke-linecap="round" stroke-linejoin="round"/>
<path d="M191.928 421.693C221.356 413.04 243.219 401.642 265.979 386.062C269.94 383.351 273.894 380.624 277.709 377.711C295.651 364.015 312.935 350.511 330.135 334.85" stroke="#5555AA" stroke-width="2" stroke-linecap="round" stroke-linejoin="round"/>
<path d="M153.651 510.75L83.0526 369.361L64.9344 377.795L141.468 510.75H153.651Z" fill="black"/>
<path d="M224.942 345.119L227.144 344.238L223.621 338.954L217.455 342.33M299.678 196.265L295.789 201.215L290.132 198.386L294.374 193.083L288.717 189.194L279.525 202.275L290.485 208.993L284.828 219.953L279.172 218.185L281.646 212.882L275.282 210.407L270.686 225.61L283.061 229.145L279.525 245.409H273.161L274.929 235.509L268.918 234.449L266.797 252.126H277.757V268.39H271.747L272.1 259.905L265.383 260.612L264.322 276.168L275.636 277.936L274.575 294.199L267.504 293.139L268.211 285.36L261.847 284.3L257.958 299.503L270.333 304.806L262.201 320.009L256.544 317.18L259.726 310.109L253.716 308.341L246.998 318.594L256.191 327.433L245.23 339.808L239.574 335.212L245.23 330.615L240.634 324.958L229.32 335.212L237.452 346.879L232.429 349.25L299.678 196.265Z" stroke="#5456AA" stroke-width="2" stroke-linecap="round" stroke-linejoin="round"/>
<path d="M211.289 339.454C218.242 334.858 225.758 331.016 232.149 325.666C237.39 321.278 242.422 316.451 246.291 310.816C249.096 306.731 250.976 302.044 252.655 297.381C255.086 290.631 256.906 283.618 257.958 276.522C258.72 271.387 258.207 266.136 258.665 260.965C259.221 254.69 260.327 248.475 261.14 242.227C261.738 237.632 262.022 232.987 262.908 228.438C263.794 223.893 264.944 219.385 266.444 215.003C268.393 209.308 270.724 203.72 273.515 198.386C275.258 195.055 277.129 191.738 279.525 188.84C281.066 186.977 283.061 185.541 284.828 183.891" stroke="#5456AA" stroke-width="2" stroke-linecap="round" stroke-linejoin="round"/>
<path d="M296.496 340.515L296.849 346.879L290.485 346.525L286.95 352.536L282.354 346.172H275.99L276.697 339.808L271.393 336.626L277.404 332.03L277.05 326.373L282 327.08L286.243 320.716L291.192 328.14L295.789 326.373V332.383L302.506 336.272L296.496 340.515Z" fill="#FFFF57"/>
<path d="M292.045 336.956L286.639 342.033L281.52 336.512L286.7 331.615L292.045 336.956Z" fill="#FF5555" stroke="black" stroke-width="2" stroke-linecap="round" stroke-linejoin="round"/>
<path d="M200.493 337.479C200.493 337.479 208.577 335.768 212.35 334.151C217.012 332.152 221.281 329.29 225.431 326.373C227.555 324.88 229.584 323.235 231.442 321.423C233.117 319.79 236.038 316.12 236.038 316.12C236.038 316.12 233.165 312.974 231.792 311.347C230.09 309.328 228.317 307.352 226.846 305.159C225.736 303.507 223.942 299.943 223.942 299.943C223.942 299.943 217.331 301.615 213.971 301.477C210.632 301.341 207.426 300.089 204.218 299.149C199.068 297.64 189.015 293.846 189.015 293.846L200.493 337.479Z" fill="#FF5555"/>
<path d="M251.244 286.093C251.244 286.093 247.815 281.95 247.031 279.447C246.33 277.206 246.136 274.677 246.738 272.406C247.24 270.513 248.578 268.908 249.86 267.427C250.964 266.15 253.716 264.147 253.716 264.147C253.716 264.147 252.921 271.028 252.527 274.57C252.099 278.411 252.481 282.252 251.244 286.093Z" fill="#FF5555"/>
<path d="M250.918 285.783L249.119 292.432C249.119 292.432 246.566 289.012 245.584 287.128C244.239 284.547 242.906 281.863 242.402 278.997C241.886 276.06 241.944 272.958 242.624 270.056C243.1 268.022 244.13 266.126 245.266 264.373C246.394 262.633 247.708 260.949 249.345 259.677C250.871 258.491 254.525 257.076 254.525 257.076L253.362 264.147C253.362 264.147 249.595 267.341 248.412 269.451C247.336 271.371 246.726 273.614 246.645 275.815C246.578 277.616 247.003 279.458 247.705 281.118C248.441 282.857 250.918 285.783 250.918 285.783Z" fill="#FFFF55"/>
<path d="M222.004 295.765C222.004 295.765 215.298 296.452 211.996 295.967C208.198 295.409 204.669 293.671 201.036 292.432C198.073 291.42 195.055 290.531 192.197 289.25C187.915 287.33 183.842 284.956 179.823 282.532C176.912 280.777 174.216 278.683 171.338 276.875C168.788 275.273 166.231 273.67 163.56 272.279C161.034 270.963 158.531 269.484 155.781 268.743C153.494 268.127 151.076 268.154 148.71 268.036C146.544 267.928 142.202 268.036 142.202 268.036L141.937 258.667L146.235 263.087L147.296 259.198L155.074 265.561L156.488 262.026L164.62 270.158L166.742 266.269L174.52 276.168L177.507 272.553L184.419 280.411L186.541 277.229L194.672 285.714L196.086 282.532L205.986 289.603L206.693 286.421L215.885 291.724L215.532 288.896L220.648 290.39L222.004 295.765Z" fill="black" stroke="black" stroke-linecap="round" stroke-linejoin="round"/>
<path d="M125.497 346.172L120.328 345.513L120.608 352.018L125.144 349.884L125.497 346.172Z" fill="#FF5555"/>
<path d="M268.565 351.121C268.699 353.439 272.485 355.437 271.393 357.485C269.959 360.176 264.108 361.578 262.383 359.064C261.573 357.883 264.467 356.808 264.597 355.382C264.712 354.122 263.262 351.828 263.262 351.828H251.241L252.301 347.939H263.615C263.615 347.939 265.064 346.564 265.115 345.654C265.188 344.358 262.453 343.11 263.358 342.179C265.149 340.336 269.299 343.111 270.333 345.465C271.127 347.273 268.451 349.149 268.565 351.121Z" fill="black" stroke="#FFFF55" stroke-width="2" stroke-linecap="round" stroke-linejoin="round"/>
<path d="M320.891 335.212C320.891 335.212 315.39 334.985 313.82 333.09C312.383 331.357 313.113 326.373 313.113 326.373C313.113 326.373 310.406 328.869 308.87 328.494C307.313 328.114 306.005 326.207 306.042 324.605C306.076 323.096 307.486 321.67 308.87 321.069C310.28 320.457 313.466 321.423 313.466 321.423C313.466 321.423 311.368 315.611 308.83 314.447C306.467 313.363 303.448 314.314 301.092 315.413C299.051 316.364 298.335 319.499 296.142 320.009C294.944 320.287 293.108 320.072 292.607 318.948C291.704 316.926 295.194 315.139 295.435 312.938C295.669 310.804 295.563 308.148 294.021 306.654C293.073 305.736 291.443 305.753 290.132 305.907C289.278 306.007 287.781 306.967 287.781 306.967C287.781 306.967 289.452 310.84 288.364 312.231C287.265 313.635 284.573 313.882 283.061 312.938C281.48 311.951 280.865 309.448 281.293 307.634C281.593 306.362 284.067 304.861 284.067 304.861L282.707 297.381C282.707 297.381 285.99 300.119 287.956 300.848C289.914 301.574 292.201 300.944 294.17 301.638C296.072 302.309 298.057 303.237 299.324 304.806C300.659 306.459 301.445 310.816 301.445 310.816C301.445 310.816 306.089 308.292 308.516 308.695C311.517 309.193 314.03 311.632 315.941 313.998C317.254 315.623 318.131 317.682 318.43 319.75C318.732 321.833 317.784 323.917 317.669 326.019C317.604 327.196 317.404 328.416 317.709 329.555C318.269 331.644 320.891 335.212 320.891 335.212L320.891 335.212Z" fill="black" stroke="#FFFF55" stroke-width="2" stroke-linecap="round" stroke-linejoin="round"/>
<path d="M324.073 261.319C324.073 261.319 320.117 261.78 318.769 260.612C317.055 259.124 316.926 254.055 316.926 254.055C316.926 254.055 315.58 257.592 314.012 257.797C312.607 257.981 310.7 256.643 310.624 255.228C310.528 253.431 314.554 251.527 314.554 251.527C314.554 251.527 312.248 248.117 308.973 252.409C308.062 253.603 307.566 255.097 307.21 256.557C306.833 258.102 306.843 261.314 306.843 261.314L302.237 261.229C302.237 261.229 303.353 257.541 303.213 255.662C303.103 254.175 302.867 252.459 301.799 251.419C300.866 250.512 298.062 250.287 298.062 250.287C298.062 250.287 298.533 251.797 298.263 252.48C297.742 253.8 296.5 255.282 295.081 255.308C293.817 255.332 292.467 254.121 292.154 252.896C291.897 251.89 292.625 250.782 293.314 250.005C293.583 249.701 294.383 249.419 294.383 249.419C294.383 249.419 291.735 247.719 290.839 246.47C289.876 245.128 289.057 241.846 289.057 241.846C289.057 241.846 293.302 244.898 295.788 245.409C297.203 245.7 298.7 244.73 300.107 245.055C301.681 245.419 303.201 246.323 304.274 247.53C305.045 248.398 305.688 250.712 305.688 250.712C305.688 250.712 308.175 247.515 309.935 246.662C311.435 245.935 313.255 245.614 314.885 245.96C316.513 246.304 318.029 247.347 319.118 248.604C319.876 249.478 320.141 250.685 320.519 251.777C320.837 252.696 321.063 253.647 321.244 254.601C321.422 255.535 321.276 256.536 321.598 257.43C322.118 258.876 324.073 261.319 324.073 261.319Z" fill="black" stroke="#FFFF55" stroke-width="2" stroke-linecap="round" stroke-linejoin="round"/>
<path d="M274.929 377.991C269.861 373.867 265.053 369.401 259.726 365.617C252.862 360.742 245.582 356.457 238.22 352.371C233.471 349.736 228.59 347.329 223.628 345.118C219.649 343.346 215.609 341.69 211.479 340.308C207.939 339.123 204.281 338.324 200.683 337.333" stroke="#5456AA" stroke-width="2" stroke-linecap="round" stroke-linejoin="round"/>
<path d="M188.644 348.336L174.166 339.454" stroke="#5456AA" stroke-width="2" stroke-linecap="round" stroke-linejoin="round"/>
<path d="M188.135 341.75L175.135 333.75" stroke="#5456AA" stroke-width="2" stroke-linecap="round" stroke-linejoin="round"/>
<path d="M187.385 333L175.135 326.75" stroke="#5456AA" stroke-width="2" stroke-linecap="round" stroke-linejoin="round"/>
<path d="M185.635 325.5L173.885 319" stroke="#5456AA" stroke-width="2" stroke-linecap="round" stroke-linejoin="round"/>
<path d="M184.135 318.75L173.885 312.25" stroke="#5456AA" stroke-width="2" stroke-linecap="round" stroke-linejoin="round"/>
<path d="M182.635 310.75L173.135 304.75" stroke="#5456AA" stroke-width="2" stroke-linecap="round" stroke-linejoin="round"/>
<path d="M181.385 303.25L173.635 299.25" stroke="#5456AA" stroke-width="2" stroke-linecap="round" stroke-linejoin="round"/>
<path d="M180.385 295.75L173.135 291.25" stroke="#5456AA" stroke-width="2" stroke-linecap="round" stroke-linejoin="round"/>
<path d="M147.756 343.418L160.484 335.286" stroke="#5456AA" stroke-width="2" stroke-linecap="round" stroke-linejoin="round"/>
<path d="M148.515 336.582L159.515 329.582" stroke="#5456AA" stroke-width="2" stroke-linecap="round" stroke-linejoin="round"/>
<path d="M149.515 328.082L159.515 322.582" stroke="#5456AA" stroke-width="2" stroke-linecap="round" stroke-linejoin="round"/>
<path d="M149.015 320.832L160.265 314.832" stroke="#5456AA" stroke-width="2" stroke-linecap="round" stroke-linejoin="round"/>
<path d="M149.515 314.082L160.265 308.332" stroke="#5456AA" stroke-width="2" stroke-linecap="round" stroke-linejoin="round"/>
<path d="M150.015 307.082L161.515 300.582" stroke="#5456AA" stroke-width="2" stroke-linecap="round" stroke-linejoin="round"/>
<path d="M151.265 300.332L161.015 295.082" stroke="#5456AA" stroke-width="2" stroke-linecap="round" stroke-linejoin="round"/>
<path d="M152.265 292.832L161.515 287.082" stroke="#5456AA" stroke-width="2" stroke-linecap="round" stroke-linejoin="round"/>
<path d="M172.635 284.25L179.434 289.116" stroke="#5456AA" stroke-width="2" stroke-linecap="round" stroke-linejoin="round"/>
<path d="M153.885 284L160.635 280.75" stroke="#5456AA" stroke-width="2" stroke-linecap="round" stroke-linejoin="round"/>
<path d="M160.135 277.957L154.605 275.811" stroke="#5456AA" stroke-width="2" stroke-linecap="round" stroke-linejoin="round"/>
<path d="M57.6352 406.75C58.4686 408.917 60.9143 411.063 60.1352 413.25C59.2334 415.782 55.8164 417.433 53.1352 417.25C50.4081 417.064 47.7269 414.756 46.6352 412.25C45.5656 409.794 46.5045 407.619 47.3852 404.25C44.3751 406.097 43.1245 406.546 41.1352 405.75C38.0018 404.497 35.4195 400.618 35.6352 397.25C35.8167 394.418 38.3729 391.402 41.1352 390.75C43.6059 390.167 45.8019 392.75 48.1352 393.75C47.6352 390.75 45.5041 387.573 46.6352 384.75C47.565 382.429 50.1353 380.235 52.6352 380.25C55.3687 380.267 58.1341 382.706 59.1352 385.25C60.2492 388.08 58.1352 391.25 57.6352 394.25C59.4686 392.917 60.8784 390.036 63.1352 390.25C66.7742 390.595 70.3925 394.603 70.6352 398.25C70.8256 401.111 68.0525 403.708 65.6352 405.25C63.3481 406.709 60.3019 406.25 57.6352 406.75Z" fill="#FFFF55" stroke="#5456AA" stroke-width="2" stroke-linecap="round" stroke-linejoin="round"/>
<path d="M63.6353 405.75L67.1353 414.25L61.1353 412.75L58.1353 407.25L63.6353 405.75Z" fill="#5555AA" stroke="#5456AA" stroke-width="2" stroke-linecap="round" stroke-linejoin="round"/>
<path d="M48.1353 406.75L45.6353 412.25L39.1353 413.25L41.6353 406.75H48.1353Z" fill="#5555AA" stroke="#5456AA" stroke-width="2" stroke-linecap="round" stroke-linejoin="round"/>
<path d="M46.6353 391.75L46.1353 385.75L41.1353 385.25L42.1353 390.75L46.6353 391.75Z" fill="#5555AA" stroke="#5456AA" stroke-width="2" stroke-linecap="round" stroke-linejoin="round"/>
<path d="M62.6353 391.75L64.6353 384.75L60.1353 386.25L57.6353 394.75L62.6353 391.75Z" fill="#5555AA" stroke="#5456AA" stroke-width="2" stroke-linecap="round" stroke-linejoin="round"/>
<path d="M55.1353 380.25L53.6353 339.75L50.1353 341.75L51.6353 380L55.1353 380.25Z" fill="#FFFF55" stroke="#5456AA" stroke-width="2" stroke-linecap="round" stroke-linejoin="round"/>
<path d="M48.6352 349.25C48.3023 354.764 47.6169 360.447 45.3852 365.5C43.1698 370.516 39.1352 374.917 35.6352 378.75C35.4686 373.25 35.3818 367.167 36.3852 361.5C37.0102 357.971 37.7733 354.313 39.6352 351.25C41.7167 347.826 45.3019 345.583 48.1352 342.75C48.3019 344.917 48.7662 347.081 48.6352 349.25Z" fill="#FFFF55" stroke="#5456AA" stroke-width="2" stroke-linecap="round" stroke-linejoin="round"/>
<path d="M39.6353 369.25C40.4686 365.417 40.9594 361.492 42.1353 357.75C43.4342 353.616 47.1353 345.75 47.1353 345.75" stroke="#5456AA" stroke-width="2" stroke-linecap="round" stroke-linejoin="round"/>
<path d="M72.6353 368.25C67.8019 364.417 61.4593 361.947 58.1353 356.75C55.0858 351.983 55.4686 345.75 54.1353 340.25C57.9686 344.083 62.1427 347.604 65.6353 351.75C67.8696 354.402 70.3827 357.016 71.6353 360.25C72.6058 362.756 72.3019 365.583 72.6353 368.25Z" fill="#FFFF55" stroke="#5456AA" stroke-width="2" stroke-linecap="round" stroke-linejoin="round"/>
<path d="M67.6353 359.25C65.1353 356.917 62.2575 354.931 60.1353 352.25C57.6335 349.089 56.1353 345.25 54.1353 341.75" stroke="#5456AA" stroke-width="2" stroke-linecap="round" stroke-linejoin="round"/>
<path d="M63.1353 399.25L52.1353 409.75L42.8853 399L52.6353 389L63.1353 399.25Z" fill="#FF5555" stroke="#5456AA" stroke-width="2" stroke-linecap="round" stroke-linejoin="round"/>
<path d="M57.1353 399.25L52.6353 403.75L48.1353 399.25L52.1353 394.5L57.1353 399.25Z" fill="#FFFF55" stroke="#5456AA" stroke-width="2" stroke-linecap="round" stroke-linejoin="round"/>
<path d="M318.681 287.139L319.035 293.503L312.671 293.15L309.135 299.16L304.539 292.796H298.175L298.882 286.432L293.579 283.25L299.589 278.654L299.236 272.997L304.186 273.704L308.428 267.34L313.378 274.765L317.974 272.997V279.007L324.692 282.896L318.681 287.139Z" fill="#FFFF57"/>
<path d="M314.23 283.58L308.825 288.657L303.705 283.136L308.885 278.24L314.23 283.58Z" fill="#FF5555" stroke="black" stroke-width="2" stroke-linecap="round" stroke-linejoin="round"/>
<path d="M173.813 346.172L171.691 283.593L161.438 278.289L160.731 345.465L173.813 346.172Z" fill="#FFFF55" stroke="black" stroke-width="2" stroke-linecap="round" stroke-linejoin="round"/>
<path d="M168.863 340.868C165.327 340.868 166.034 340.868 166.034 340.868L165.681 337.686L168.656 337.54L168.863 340.868Z" fill="black"/>
<path d="M168.476 333.914C164.941 333.914 165.648 333.914 165.648 333.914L165.294 330.732L168.269 330.586L168.476 333.914Z" fill="black"/>
<path d="M168.726 326.914C165.191 326.914 165.898 326.914 165.898 326.914L165.544 323.732L168.519 323.586L168.726 326.914Z" fill="black"/>
<path d="M168.976 320.664C165.441 320.664 166.148 320.664 166.148 320.664L165.794 317.482L168.769 317.336L168.976 320.664Z" fill="black"/>
<path d="M168.976 313.414C165.441 313.414 166.148 313.414 166.148 313.414L165.794 310.232L168.769 310.086L168.976 313.414Z" fill="black"/>
<path d="M169.226 307.414C165.691 307.414 166.398 307.414 166.398 307.414L166.044 304.232L169.019 304.086L169.226 307.414Z" fill="black"/>
<path d="M168.476 300.914C164.941 300.914 165.648 300.914 165.648 300.914L165.294 297.732L168.269 297.586L168.476 300.914Z" fill="black"/>
<path d="M168.476 294.914C164.941 294.914 165.648 294.914 165.648 294.914L165.294 291.732L168.269 291.586L168.476 294.914Z" fill="black"/>
<path d="M168.476 288.414C164.941 288.414 165.648 288.414 165.648 288.414L165.294 285.232L168.269 285.086L168.476 288.414Z" fill="black"/>
<path d="M31.1855 151V511H301.186" stroke="#5555AA" stroke-width="2"/>
<path d="M61.1855 31H331.186V391" stroke="#5555AA" stroke-width="2"/>
<path d="M30.6855 100C30.6855 94.4771 27.8277 91 23.6855 91C19.5434 91 16.1855 95.4771 16.1855 101C16.203 101.478 16.1946 101.946 16.1855 102.406C16.1855 106.055 17.524 109.595 18.6855 112.906C19.8801 116.312 21.6023 119.297 23.2168 122.344C25.7174 127.063 31.1855 136 31.1855 136C31.1855 136 36.6537 127.063 39.1543 122.344C40.7688 119.297 42.491 116.312 43.6855 112.906C44.8471 109.595 46.1855 106.055 46.1855 102.406C46.1713 101.919 46.1762 101.449 46.1855 101C46.1855 95.4771 42.8277 91 38.6855 91C34.5434 91 31.6855 94.4771 31.6855 100C31.6855 101 30.6855 101 30.6855 100Z" fill="#FF5555"/>
<path d="M90.1855 64C90.1855 52.9543 84.4698 46 76.1855 46C67.9013 46 61.1855 54.9543 61.1855 66C61.2204 66.9556 61.2037 67.8912 61.1855 68.8125C61.1855 76.111 63.8624 83.1893 66.1855 89.8125C68.5746 96.6235 72.0191 102.593 75.248 108.688C80.2493 118.127 91.1855 136 91.1855 136C91.1855 136 102.122 118.127 107.123 108.688C110.352 102.593 113.797 96.6235 116.186 89.8125C118.509 83.1893 121.186 76.111 121.186 68.8125C121.157 67.8381 121.167 66.8979 121.186 66C121.186 54.9543 114.47 46 106.186 46C97.9013 46 92.1855 52.9543 92.1855 64C92.1855 66 90.1855 66 90.1855 64Z" fill="#FF5555"/>
<path d="M331.686 442C331.686 447.523 334.543 451 338.686 451C342.828 451 346.186 446.523 346.186 441C346.168 440.522 346.177 440.054 346.186 439.594C346.186 435.945 344.847 432.405 343.686 429.094C342.491 425.688 340.769 422.703 339.154 419.656C336.654 414.937 331.186 406 331.186 406C331.186 406 325.717 414.937 323.217 419.656C321.602 422.703 319.88 425.688 318.686 429.094C317.524 432.405 316.186 435.945 316.186 439.594C316.2 440.081 316.195 440.551 316.186 441C316.186 446.523 319.543 451 323.686 451C327.828 451 330.686 447.523 330.686 442C330.686 441 331.686 441 331.686 442Z" fill="#FF5555"/>
<path d="M272.186 478C272.186 489.046 277.901 496 286.186 496C294.47 496 301.186 487.046 301.186 476C301.151 475.044 301.167 474.109 301.186 473.188C301.186 465.889 298.509 458.811 296.186 452.188C293.797 445.377 290.352 439.407 287.123 433.312C282.122 423.873 271.186 406 271.186 406C271.186 406 260.249 423.873 255.248 433.312C252.019 439.407 248.575 445.377 246.186 452.188C243.862 458.811 241.186 465.889 241.186 473.188C241.214 474.162 241.204 475.102 241.186 476C241.186 487.046 247.901 496 256.186 496C264.47 496 270.186 489.046 270.186 478C270.186 476 272.186 476 272.186 478Z" fill="#FF5555"/>
</svg>
