<svg width="362" height="542" viewBox="0 0 362 542" fill="none" xmlns="http://www.w3.org/2000/svg">
<path d="M330.741 1.5H31.63C15.0921 1.5 1.68555 14.9066 1.68555 31.4445V510.556C1.68555 527.093 15.0921 540.5 31.63 540.5H330.741C347.279 540.5 360.686 527.093 360.686 510.556V31.4445C360.686 14.9066 347.279 1.5 330.741 1.5Z" stroke="black" stroke-width="2.5"/>
<path d="M103.362 278.663L116.636 262.883L259.405 262.691L246.099 278.793L103.362 278.663Z" fill="black"/>
<path d="M31.1855 31C25.6627 31 21.1855 35.4771 21.1855 41V71C21.1855 76.5229 25.6627 81 31.1855 81C31.6193 81 32.0476 80.9598 32.4668 80.9063C34.1797 83.9558 37.439 86.0001 41.1855 86.0001V81.0001C39.546 81.0001 38.0974 80.188 37.1855 78.9688C39.61 77.144 41.1855 74.2682 41.1855 71.0001V41.0001C41.1855 35.4772 36.7084 31.0001 31.1855 31.0001V31ZM31.1855 36C33.947 36 36.1855 38.2386 36.1855 41V71C36.1855 71.7157 36.0189 72.3844 35.748 73C34.4734 68.9436 30.6627 66 26.1855 66V41C26.1855 38.2386 28.4241 36 31.1855 36ZM26.1855 71C28.947 71 31.1855 73.2386 31.1855 76C28.4241 76 26.1855 73.7614 26.1855 71Z" fill="black"/>
<path d="M331.186 510.999C336.708 510.999 341.186 506.522 341.186 500.999V470.999C341.186 465.477 336.708 460.999 331.186 460.999C330.752 460.999 330.323 461.039 329.904 461.093C328.191 458.044 324.932 456 321.186 456V461C322.825 461 324.274 461.812 325.186 463.031C322.761 464.856 321.186 467.732 321.186 471V501C321.186 506.522 325.663 511 331.186 511V510.999ZM331.186 505.999C328.424 505.999 326.186 503.761 326.186 500.999V470.999C326.186 470.284 326.352 469.615 326.623 468.999C327.898 473.056 331.708 475.999 336.186 475.999V500.999C336.186 503.761 333.947 505.999 331.186 505.999ZM336.186 470.999C333.424 470.999 331.186 468.761 331.186 465.999C333.947 465.999 336.186 468.238 336.186 470.999Z" fill="black"/>
<path d="M288.436 158.5L266.436 234L266.686 242.5L264.186 250.75L259.686 255.5L255.186 257L262.936 258L278.686 237L330.436 272.75L330.936 191.75L288.436 158.5Z" fill="#FF5555"/>
<path d="M31.1855 194V271.5L33.5605 270.25L49.4355 242L38.6855 229.5L48.9355 221.25L34.5605 196.625L31.1855 194Z" fill="#FF5555"/>
<path d="M135.061 188.375L100.686 218.75L92.5605 215.5L85.3105 215L76.5605 217.875L75.1855 214.375L72.0605 213.125L68.3105 214.875L61.1855 208.25L115.436 169.625L124.311 177.875L135.061 188.375Z" fill="#5455AA" stroke="#5555AA" stroke-width="2" stroke-linecap="round" stroke-linejoin="round"/>
<path d="M216.824 257.2L251.058 256.742L244.639 250.17L242.499 241.012L141.022 149.305L121.613 165.963L137.049 178.342L148.205 191.026L154.318 201.266L155.541 214.715L171.129 214.409L216.824 257.2Z" fill="#FF5555"/>
<path d="M292.186 161.5L330.936 191.75" stroke="#5555AA" stroke-width="2" stroke-linecap="round" stroke-linejoin="round"/>
<path d="M132.186 31C135.507 39.8765 137.859 49.1156 139.186 58.5C140.191 65.6156 140.608 72.8261 140.186 80C139.684 88.5108 137.996 96.9509 135.186 105C139.226 105.621 143.233 106.456 147.186 107.5C150.907 108.483 154.58 109.652 158.186 111L203.686 31H132.186Z" fill="#FFFF55" stroke="#5555AA" stroke-width="2" stroke-linecap="round" stroke-linejoin="round"/>
<path d="M158.686 111L166.686 117L216.186 31H203.686L158.686 111Z" fill="#FF5555" stroke="#5555AA" stroke-width="2" stroke-linecap="round" stroke-linejoin="round"/>
<path d="M190.936 31C190.936 31 194.934 36.9155 191.686 42C189.869 44.8439 182.186 45.5 182.186 45.5C182.186 45.5 185.264 54.723 182.686 58C180.058 61.3393 170.186 60.5 170.186 60.5C170.186 60.5 175.333 71.4855 172.686 76C168.846 82.5471 162.015 80.3356 162.015 80.3356C162.015 80.3356 166.088 88.2148 160.686 94.5C157.881 97.7625 147.936 96.5 147.936 96.5C151.548 100.781 151.386 101.987 151.936 104.25C152.485 106.513 152.345 107.248 152.345 107.248" stroke="#000100" stroke-width="2" stroke-linecap="round" stroke-linejoin="round"/>
<path d="M161.08 84.1583C160.743 85.3173 160.339 86.485 159.686 87.5C158.824 88.8388 157.881 90.3334 156.436 91C154.618 91.8382 152.099 92.364 150.436 91.25C148.815 90.1644 148.114 87.674 148.436 85.75C148.807 83.5294 152.686 80.5 152.686 80.5C152.686 80.5 147.304 79.3986 146.186 77.25C145.135 75.2325 145.775 72.2847 147.186 70.5C148.577 68.7394 151.29 67.3443 153.436 68C155.845 68.7362 157.686 74.25 157.686 74.25C157.686 74.25 158.234 69.9522 159.436 68.25C160.502 66.7383 162.095 65.1914 163.936 65C165.568 64.8302 167.541 65.6236 168.436 67C169.843 69.1661 169.61 72.4489 168.436 74.75C167.259 77.0566 162.146 79.3094 162.146 79.3094C162.146 79.3094 163.283 76.1201 160.633 74.6972C158.515 73.56 155.083 75.6662 154.166 77.8881C153.389 79.7689 154.187 83.0907 156.139 83.6647C160.035 84.81 161.62 81.0329 161.62 81.0329C161.62 81.0329 161.376 83.1432 161.08 84.1583Z" fill="black" stroke="#000100" stroke-width="2" stroke-linecap="round" stroke-linejoin="round"/>
<path d="M180.577 49.2815C180.24 50.4405 179.835 51.6082 179.182 52.6232C178.321 53.962 177.378 55.4566 175.932 56.1232C174.114 56.9614 171.595 57.4872 169.932 56.3732C168.311 55.2876 167.61 52.7972 167.932 50.8732C168.304 48.6526 172.182 45.6232 172.182 45.6232C172.182 45.6232 166.801 44.5218 165.682 42.3732C164.632 40.3557 165.272 37.4079 166.682 35.6232C168.073 33.8626 170.786 32.4675 172.932 33.1232C175.342 33.8594 177.182 39.3732 177.182 39.3732C177.182 39.3732 177.731 35.0754 178.932 33.3732C181.164 30.3141 185.812 30.8004 187.932 32.1232C189.34 34.2893 189.106 37.5721 187.932 39.8732C186.755 42.1798 181.643 44.4326 181.643 44.4326C181.643 44.4326 182.779 41.2433 180.13 39.8205C178.012 38.6832 174.58 40.7894 173.662 43.0113C172.886 44.8921 173.684 48.2139 175.636 48.7879C179.532 49.9332 181.116 46.1561 181.116 46.1561C181.116 46.1561 180.872 48.2664 180.577 49.2815Z" fill="black" stroke="#000100" stroke-width="2" stroke-linecap="round" stroke-linejoin="round"/>
<path d="M187.032 116.65C187.557 121.232 188.679 126.322 189.87 129.571" stroke="#5555AA" stroke-width="2" stroke-linecap="round" stroke-linejoin="round"/>
<path d="M191.256 110.456C192.048 118.576 194.353 125.211 195.966 131.1" stroke="#5555AA" stroke-width="2" stroke-linecap="round" stroke-linejoin="round"/>
<path d="M195.761 102.853C197.158 112.555 198.785 123.336 202.138 132.387" stroke="#5555AA" stroke-width="2" stroke-linecap="round" stroke-linejoin="round"/>
<path d="M203.562 114.287C204.148 121.54 206.614 128.016 207.792 133.491" stroke="#5555AA" stroke-width="2" stroke-linecap="round" stroke-linejoin="round"/>
<path d="M209.84 121.691C210.877 128.377 212.304 131.082 213.087 134.297" stroke="#5555AA" stroke-width="2" stroke-linecap="round" stroke-linejoin="round"/>
<path d="M216.483 127.754C217.234 130.421 218.106 132.501 218.857 134.512" stroke="#5555AA" stroke-width="2" stroke-linecap="round" stroke-linejoin="round"/>
<path d="M251.686 31C251.686 31 252.665 43.8785 259.436 50.75C266.206 57.6215 274.686 61 274.686 61" stroke="#5555AA" stroke-width="2" stroke-linecap="round" stroke-linejoin="round"/>
<path d="M255.811 31C255.811 31 257.08 41.7687 262.455 47.7812C267.829 53.7938 274.561 56 274.561 56" stroke="#5555AA" stroke-width="2" stroke-linecap="round" stroke-linejoin="round"/>
<path d="M259.311 31C259.311 31 260.871 38.8357 264.849 43.4167C268.828 47.9977 274.811 51 274.811 51" stroke="#5555AA" stroke-width="2" stroke-linecap="round" stroke-linejoin="round"/>
<path d="M263.811 31C263.811 31 264.868 36.4039 268.079 39.9542C271.289 43.5045 274.811 45.25 274.811 45.25" stroke="#5555AA" stroke-width="2" stroke-linecap="round" stroke-linejoin="round"/>
<path d="M268.186 31C268.186 31 268.806 35.0782 270.691 37.2542C272.575 39.4301 274.936 40.5 274.936 40.5" stroke="#5555AA" stroke-width="2" stroke-linecap="round" stroke-linejoin="round"/>
<path d="M250.936 32.25C250.936 32.25 250.456 42.1285 242.436 51C234.415 59.8715 220.436 59 220.436 59" stroke="#5555AA" stroke-width="2" stroke-linecap="round" stroke-linejoin="round"/>
<path d="M247.561 31.75C247.561 31.75 246.291 40.2687 239.166 47.7812C232.042 55.2938 223.311 54.25 223.311 54.25" stroke="#5555AA" stroke-width="2" stroke-linecap="round" stroke-linejoin="round"/>
<path d="M242.811 31.75C242.811 31.75 241.25 39.5857 237.272 44.1667C233.293 48.7477 225.561 49.25 225.561 49.25" stroke="#5555AA" stroke-width="2" stroke-linecap="round" stroke-linejoin="round"/>
<path d="M238.311 31.75C238.311 31.75 237.253 37.1539 234.043 40.7042C230.832 44.2545 228.811 43.75 228.811 43.75" stroke="#5555AA" stroke-width="2" stroke-linecap="round" stroke-linejoin="round"/>
<path d="M275.731 67.9363C275.731 67.9363 281.876 86.7589 284.179 96.3764C286.846 107.513 289.128 118.784 290.374 130.167C291.488 140.344 291.5 160.859 291.5 160.859L259.399 134.109C259.399 134.109 268.295 121.927 270.944 114.961C272.947 109.696 273.274 103.928 274.042 98.3475C274.761 93.1196 275.164 87.8482 275.45 82.5787C275.714 77.7042 275.731 67.9363 275.731 67.9363Z" fill="#5555AA" stroke="#5555AA" stroke-width="2" stroke-linecap="round" stroke-linejoin="round"/>
<path d="M254.612 77.2285C254.612 77.2285 254.389 82.3069 254.612 84.8313C254.848 87.4906 255.401 90.1188 256.02 92.7157C256.702 95.5754 258.416 98.2267 258.555 101.163C258.633 102.837 258.557 104.738 257.569 106.091C256.714 107.262 254.823 107.209 253.768 108.203C252.877 109.042 251.797 111.3 251.797 111.3" stroke="#5555AA" stroke-width="2" stroke-linecap="round" stroke-linejoin="round"/>
<path d="M239.407 100.319C239.407 100.319 235.942 104.38 236.45 106.654C236.77 108.085 238.397 109.158 239.829 109.47C241.398 109.811 242.996 108.827 244.475 108.203C246.181 107.484 247.473 104.911 249.262 105.387C249.994 105.582 250.705 106.671 250.389 107.358C249.549 109.181 246.473 108.296 244.475 108.485C242.046 108.714 239.006 110.074 237.154 108.485C236.217 107.681 236.342 106.033 236.591 104.824C236.948 103.089 239.407 100.319 239.407 100.319Z" fill="#5555AA" stroke="#5555AA" stroke-width="2" stroke-linecap="round" stroke-linejoin="round"/>
<path d="M218.57 68.2178C218.57 68.2178 224.84 65.0453 228.357 64.4384C231.726 63.8569 235.404 63.7603 238.673 64.6607C241.021 65.3073 244.757 68.2178 244.757 68.2178C244.757 68.2178 239.537 66.2842 236.804 65.8761C233.409 65.3691 229.903 65.2781 226.505 65.7723C223.766 66.1706 218.57 68.2178 218.57 68.2178Z" fill="#5555AA" stroke="#5555AA" stroke-width="2" stroke-linecap="round" stroke-linejoin="round"/>
<path d="M239.125 75.2574L241.941 73.0047C241.941 73.0047 237.492 71.4511 235.183 71.0336C232.682 70.5815 230.069 69.9569 227.58 70.4705C225.196 70.9625 223.096 72.4499 221.104 73.8495C218.495 75.6822 214.064 80.326 214.064 80.326" stroke="#5555AA" stroke-width="2" stroke-linecap="round" stroke-linejoin="round"/>
<path d="M217.162 80.326C217.162 80.326 223.943 77.0054 227.58 76.1022C229.824 75.5451 232.169 75.4772 234.479 75.3982C235.887 75.3501 238.703 75.539 238.703 75.539L241.66 80.6076L236.873 82.8603L241.266 82.1274C239.749 86.5936 234.544 89.4546 231.804 91.3078" stroke="#5555AA" stroke-width="2" stroke-linecap="round" stroke-linejoin="round"/>
<path d="M235.746 76.5245C235.746 76.5245 237.769 79.9254 235.746 82.8602C234.573 84.5624 231.398 84.0718 229.551 83.1418C226.347 81.5276 223.069 80.2427 221.104 79.0588L227.017 77.6509C225.961 79.3813 227.253 81.1813 228.425 82.297C229.827 83.6312 232.266 84.4382 234.057 83.705C235.889 82.9547 237.334 79.9121 237.154 78.6364C237.036 77.7987 235.746 76.5245 235.746 76.5245V76.5245Z" stroke="#5555AA" stroke-width="2" stroke-linecap="round" stroke-linejoin="round"/>
<path d="M232.367 78.0732C231.549 77.7909 230.271 78.9065 230.396 79.7627C230.53 80.6774 232.209 81.4667 232.93 80.8891C233.678 80.2909 233.272 78.3856 232.367 78.0732V78.0732Z" stroke="#5555AA" stroke-width="2" stroke-linecap="round" stroke-linejoin="round"/>
<path d="M273.233 66.4479C273.233 66.4479 267.438 64.3831 264.629 65.1118C261.224 65.9952 256.302 71.5968 256.302 71.5968C256.302 71.5968 261.606 66.9582 264.91 66.4191C267.798 65.9482 273.479 68.3184 273.479 68.3184L273.233 66.4479Z" fill="#5555AA" stroke="#5555AA" stroke-width="2" stroke-linecap="round" stroke-linejoin="round"/>
<path d="M254.472 76.243C254.472 76.243 258.478 72.1804 261.089 71.3152C263.94 70.3703 267.304 70.2174 270.1 71.3152C271.769 71.9707 274.042 74.9758 274.042 74.9758" stroke="#5555AA" stroke-width="2" stroke-linecap="round" stroke-linejoin="round"/>
<path d="M256.02 78.0732C256.02 78.0732 260.985 75.9829 263.623 75.8205C265.903 75.6803 268.182 76.3315 270.381 76.9469C271.842 77.3555 274.605 78.6364 274.605 78.6364C274.605 78.6364 271.981 81.184 270.381 82.0154C268.299 83.0975 265.969 84.031 263.623 83.9865C262.436 83.964 260.244 82.8602 260.244 82.8602L256.584 81.4233C257.57 83.4849 259.31 87.2088 260.667 88.3511" stroke="#5555AA" stroke-width="2" stroke-linecap="round" stroke-linejoin="round"/>
<path d="M259.963 77.51C258.48 80.5883 260.062 80.6023 260.244 82.0154L261.37 83.1417" stroke="#5555AA" stroke-width="2" stroke-linecap="round" stroke-linejoin="round"/>
<path d="M264.75 78.3549C264.092 78.8434 263.678 80.1058 264.186 80.7483C264.769 81.4841 266.339 81.412 267.002 80.7483C267.533 80.2174 267.516 79.0429 267.002 78.4957C266.487 77.9473 265.354 77.9064 264.75 78.3549Z" stroke="#5555AA" stroke-width="2" stroke-linecap="round" stroke-linejoin="round"/>
<path d="M236.591 121.573C236.591 121.573 241.395 119.565 244.053 119.584C246.075 119.598 247.664 121.133 249.685 121.175C252.503 121.234 255.033 118.66 257.71 119.285C258.798 119.539 259.681 121.275 259.681 121.275C259.681 121.275 257.779 120.464 256.724 120.479C254.223 120.515 252.32 122.427 249.826 122.568C247.318 122.71 245.01 121.429 242.504 121.275C240.536 121.154 236.591 121.573 236.591 121.573Z" fill="#5555AA" stroke="#5555AA" stroke-width="2" stroke-linecap="round" stroke-linejoin="round"/>
<path d="M243.631 128.759C243.631 128.759 246.726 127.104 248.418 127.069C250.332 127.03 253.909 128.759 253.909 128.759" stroke="#5555AA" stroke-width="2" stroke-linecap="round" stroke-linejoin="round"/>
<path d="M242.927 124.957C242.927 124.957 247.004 126.321 249.122 126.365C250.935 126.403 254.472 125.38 254.472 125.38" stroke="#5555AA" stroke-width="2" stroke-linecap="round" stroke-linejoin="round"/>
<path d="M275.436 31.75C275.436 31.75 275.358 55.423 274.936 67.25C274.468 80.3465 275.413 93.6822 272.686 106.5C271.461 112.253 268.968 117.692 266.436 123C264.442 127.18 262.905 131.933 259.436 135C256.582 137.522 252.709 138.99 248.936 139.5C244.684 140.074 240.288 139.005 236.186 137.75C230.412 135.983 224.952 133.11 219.936 129.75C215.227 126.596 210.868 122.808 207.186 118.5C204.362 115.196 201.939 111.477 200.186 107.5C198.897 104.578 197.686 98.25 197.686 98.25" stroke="#5555AA" stroke-width="2" stroke-linecap="round" stroke-linejoin="round"/>
<path d="M303.186 92.25L312.936 76L321.686 92.25L312.186 108L303.186 92.25Z" fill="#FFFF55" stroke="black" stroke-width="2" stroke-linecap="round" stroke-linejoin="round"/>
<path d="M308.436 91.75L312.436 84.75L316.186 91.5L312.436 99L308.436 91.75Z" fill="#FF5555" stroke="black" stroke-width="2" stroke-linecap="round" stroke-linejoin="round"/>
<path d="M311.436 110.875C311.436 113.982 309.029 116.5 306.061 116.5C303.092 116.5 300.686 113.982 300.686 110.875C300.686 107.768 303.092 105.25 306.061 105.25C309.029 105.25 311.436 107.768 311.436 110.875Z" fill="#FFFF55" stroke="black" stroke-width="2" stroke-linecap="round" stroke-linejoin="round"/>
<path d="M322.936 110.375C322.936 113.62 320.473 116.25 317.436 116.25C314.398 116.25 311.936 113.62 311.936 110.375C311.936 107.13 314.398 104.5 317.436 104.5C320.473 104.5 322.936 107.13 322.936 110.375Z" fill="#FFFF55" stroke="black" stroke-width="2" stroke-linecap="round" stroke-linejoin="round"/>
<path d="M311.936 202.5C316.906 202.5 320.936 198.806 320.936 194.25C320.936 189.694 316.906 186 311.936 186C306.965 186 302.936 189.694 302.936 194.25C302.936 198.806 306.965 202.5 311.936 202.5Z" fill="#FFFF55" stroke="black" stroke-width="2" stroke-linecap="round" stroke-linejoin="round"/>
<path d="M311.686 186C307.838 184.986 304.401 181.585 302.926 177.89C301.203 173.571 303.334 168.594 303.826 163.97C304.923 153.644 306.923 143.433 308.397 133.154C309.359 126.44 310.46 116.661 311.186 113C313.079 112.471 313.316 113.826 313.26 115.514C315.163 130.559 317.356 145.571 318.96 160.652C319.48 165.538 321.024 170.49 320.231 175.34C319.665 178.796 318.725 182.729 316.037 184.975C314.893 185.93 313.127 186.38 311.686 186Z" fill="#FFFF55" stroke="black" stroke-width="2" stroke-linecap="round" stroke-linejoin="round"/>
<path d="M312.436 132.75C312.436 132.75 313.98 149.43 314.936 157.75C315.453 162.258 316.644 166.713 316.686 171.25C316.706 173.514 316.916 175.96 315.936 178C315.221 179.487 312.436 181.5 312.436 181.5" stroke="black" stroke-width="2" stroke-linecap="round" stroke-linejoin="round"/>
<path d="M313.436 189.75C314.907 191.282 316.498 193.334 316.252 195.435C316.087 196.846 314.837 198.159 313.529 198.714C312.654 199.085 311.629 198.6 310.686 198.5" stroke="black" stroke-width="2" stroke-linecap="round" stroke-linejoin="round"/>
<path d="M307.436 256.75C307.436 256.75 305.331 238.94 304.686 230C304.253 224.01 303.009 217.933 303.936 212C304.346 209.369 304.714 206.29 306.686 204.5C308.152 203.168 310.455 202.989 312.436 203C314.336 203.01 316.586 203.162 317.936 204.5C320.334 206.877 320.368 210.888 320.686 214.25C321.228 219.996 319.864 225.768 319.186 231.5C318.393 238.194 317.114 244.823 316.186 251.5C315.734 254.745 314.936 261.25 314.936 261.25L307.436 256.75Z" fill="#FFFF55" stroke="black" stroke-width="2" stroke-linecap="round" stroke-linejoin="round"/>
<path d="M312.436 207.5C312.436 207.5 315.509 209.617 316.186 211.25C317.302 213.945 316.293 217.085 316.186 220C315.977 225.678 315.496 231.346 314.936 237C314.206 244.354 312.186 259 312.186 259" stroke="black" stroke-width="2" stroke-linecap="round" stroke-linejoin="round"/>
<path d="M180.936 127.5L171.936 143.25L250.186 216L266.936 153L276.343 150.155L258.841 134.81C258.841 134.81 253.664 138.317 250.686 139C247.273 139.782 243.654 139.229 240.186 138.75C236.522 138.244 229.436 136 229.436 136C229.436 136 215.55 135.281 208.686 134.25C202.867 133.376 197.142 131.934 191.436 130.5C187.905 129.613 180.936 127.5 180.936 127.5Z" fill="#FFFF55" stroke="black" stroke-width="2" stroke-linecap="round" stroke-linejoin="round"/>
<path d="M178.436 132.5C178.436 132.5 191.347 136.518 197.936 138C203.295 139.206 208.734 140.069 214.186 140.75C220.325 141.517 226.502 142.054 232.686 142.25C237.434 142.4 242.204 142.427 246.936 142C252.066 141.537 262.186 139.5 262.186 139.5" stroke="black" stroke-width="2" stroke-linecap="round" stroke-linejoin="round"/>
<path d="M177.686 148.25C177.686 148.25 190.429 151.976 196.936 153.25C203.123 154.461 209.406 155.175 215.686 155.75C220.671 156.206 225.679 156.514 230.686 156.5C236.695 156.483 242.702 156.058 248.686 155.5C254.878 154.922 267.186 153.07 267.186 153.07" stroke="black" stroke-width="2" stroke-linecap="round" stroke-linejoin="round"/>
<path d="M195.936 158.25C195.936 158.25 214.557 161.56 223.976 162.075C230.777 162.447 237.611 162.07 244.401 161.538C249.607 161.129 259.936 159.5 259.936 159.5L247.686 207.5L195.936 158.25Z" stroke="black" stroke-width="2" stroke-linecap="round" stroke-linejoin="round"/>
<path d="M212.936 166.5C212.936 166.5 227.597 167.668 234.936 167.5C241.08 167.36 253.296 165.823 253.296 165.823L245.186 199L212.936 166.5Z" stroke="black" stroke-width="2" stroke-linecap="round" stroke-linejoin="round"/>
<path d="M235.936 188.75L243.398 191.962L247.686 187.25" stroke="black" stroke-width="2" stroke-linecap="round" stroke-linejoin="round"/>
<path d="M228.944 182.36C228.444 181.36 242.186 186.5 242.186 186.5L249.438 179.5" stroke="black" stroke-width="2" stroke-linecap="round" stroke-linejoin="round"/>
<path d="M221.014 174.038L240.186 181.5L251.543 171.68" stroke="black" stroke-width="2" stroke-linecap="round" stroke-linejoin="round"/>
<path d="M217.584 166.968L239.186 176.5L250.363 166.538" stroke="black" stroke-width="2" stroke-linecap="round" stroke-linejoin="round"/>
<path d="M229.796 167.503L237.686 171.75L242.936 167.75" stroke="black" stroke-width="2" stroke-linecap="round" stroke-linejoin="round"/>
<path d="M219.436 146.5L225.436 147.07V151.57L219.436 151V146.5Z" stroke="black" stroke-width="2" stroke-linecap="round" stroke-linejoin="round"/>
<path d="M176.171 136.691L180.356 138.482L178.45 142.559L174.015 140.018L176.171 136.691Z" stroke="black" stroke-width="2" stroke-linecap="round" stroke-linejoin="round"/>
<path d="M184.603 140.281L190.412 141.995L189.375 146.574L183.602 144.718L184.603 140.281Z" stroke="black" stroke-width="2" stroke-linecap="round" stroke-linejoin="round"/>
<path d="M195.903 143.021L202.155 144.077L201.683 148.552L195.574 147.496L195.903 143.021Z" stroke="black" stroke-width="2" stroke-linecap="round" stroke-linejoin="round"/>
<path d="M207.739 145.209L214.02 145.867L213.847 150.363L207.709 149.848L207.739 145.209Z" stroke="black" stroke-width="2" stroke-linecap="round" stroke-linejoin="round"/>
<path d="M231.024 147.279L237.02 147.509L236.847 152.006L230.852 151.776L231.024 147.279Z" stroke="black" stroke-width="2" stroke-linecap="round" stroke-linejoin="round"/>
<path d="M242.476 147.073L248.135 146.681L248.322 151.139L242.521 151.389L242.476 147.073Z" stroke="black" stroke-width="2" stroke-linecap="round" stroke-linejoin="round"/>
<path d="M253.191 146.251L258.565 145.431L259.18 150.032L253.806 150.851L253.191 146.251Z" stroke="black" stroke-width="2" stroke-linecap="round" stroke-linejoin="round"/>
<path d="M262.92 144.294L265.761 142.931L269.201 146.706L264.005 148.641L262.92 144.294Z" stroke="black" stroke-width="2.00363" stroke-linecap="round" stroke-linejoin="round"/>
<path d="M276.37 149.96L287.836 159.276L266.577 234.283C266.577 234.283 267.054 240.891 266.338 244.077C265.649 247.138 264.669 250.396 262.516 252.677C260.486 254.826 257.588 256.802 254.633 256.738C252.066 256.682 249.752 254.739 247.944 252.916C246.338 251.296 245.312 249.111 244.6 246.944C243.999 245.114 243.883 241.211 243.883 241.211L140.928 148.049C140.928 148.049 150.261 139.842 154.305 135.15C158.964 129.744 163.261 123.951 166.726 117.712C184.006 86.6082 216.651 31.239 216.651 31.239L234.328 31.4779C234.328 31.4779 224.972 49.8982 219.996 58.9486C212.948 71.7659 205.299 84.2433 198.019 96.9299C192.41 106.704 186.85 116.506 181.298 126.312C178.101 131.958 171.743 143.272 171.743 143.272L249.855 215.89L267.532 153.543L276.37 149.96Z" fill="black" stroke="#5555AA" stroke-width="2" stroke-linecap="round" stroke-linejoin="round"/>
<path d="M140.894 147.917L122.186 164.5L114.686 170L76.0391 197.763L67.923 203.884L60.423 208.884L31.6855 194.5" stroke="#5555AA" stroke-width="2" stroke-linecap="round" stroke-linejoin="round"/>
<path d="M59.5877 208.598C62.8157 210.615 68.6855 215.5 68.6855 215.5C68.6855 215.5 70.1243 213.612 71.1855 213.5C73.0386 213.304 75.5358 214.254 76.1855 216C76.9411 218.031 74.4757 219.983 73.6855 222C72.8249 224.198 71.7082 226.332 71.2462 228.647C70.5221 232.274 70.3677 236.056 70.7765 239.732C71.1875 243.427 73.6015 246.783 73.6855 250.5C73.7203 252.036 73.9493 254.126 72.6855 255C70.747 256.341 65.6855 254 65.6855 254L39.1855 266.5C48.33 272.068 53.9647 276.735 61.6855 281.288C68.9019 285.85 81.6855 295.5 81.6855 295.5C81.6855 295.5 88.4017 287.206 91.6855 283C97.1013 276.064 101.894 268.626 107.686 262C111.718 257.386 116.135 253.104 120.686 249C125.789 244.398 132.32 241.307 136.686 236C140.522 231.336 143.543 225.812 145.186 220C146.639 214.858 147.593 209.155 146.186 204C144.542 197.98 139.783 193.207 135.686 188.5C129.627 181.542 115.125 169.97 115.125 169.97L120.625 165.97C120.625 165.97 134.044 175.909 139.686 182C145.123 187.871 151.234 193.883 153.686 201.5C155.556 207.313 154.859 213.826 153.686 219.818C152.497 225.887 150.246 231.943 146.686 237C142.949 242.308 137.292 245.992 132.186 250C129.167 252.369 125.601 254.005 122.686 256.5C116.773 261.56 111.617 267.481 106.686 273.5C101.762 279.51 97.4738 286.021 93.1855 292.5C90.3771 296.743 85.1855 305.5 85.1855 305.5L33.1855 270.5L49.1855 242.5L38.1855 229.5L48.6855 221.5L33.6855 195.5C33.6855 195.5 51.3832 203.47 59.5877 208.598Z" fill="#FFFF55" stroke="#5555AA" stroke-width="2" stroke-linecap="round" stroke-linejoin="round"/>
<path d="M68.1855 216C68.1855 216 65.5646 222.459 64.8623 225.854C63.8061 230.959 63.2501 236.236 63.5694 241.439C63.8314 245.708 66.1855 254 66.1855 254" stroke="#5555AA" stroke-width="2" stroke-linecap="round" stroke-linejoin="round"/>
<path d="M78.405 211.99C75.7167 212.142 72.7523 212.222 70.3994 210.913C67.3375 209.209 65.7762 205.642 63.7155 202.799C63.7155 202.799 69.6889 202.187 72.5235 202.954C74.9579 203.612 77.0139 205.271 79.1232 206.653C80.9084 207.823 84.2233 210.525 84.2233 210.525C84.2233 210.525 80.4018 211.877 78.405 211.99Z" fill="#FFFF55" stroke="#5555AA" stroke-width="2" stroke-linecap="round" stroke-linejoin="round"/>
<path d="M66.1855 189.5C66.1855 189.5 67.5897 193.496 68.9899 195.007C71.1641 197.354 74.3866 198.451 77.1855 200C80.7725 201.985 85.1948 202.696 88.1855 205.5C91.2243 208.349 94.4827 216.293 94.4827 216.293C91.4533 215.731 89.3104 214.029 86.2797 214.301C86.2797 214.301 83.7571 209.661 81.7797 208.004C79.4019 206.011 76.1759 205.34 73.3776 204C70.8089 202.77 67.9237 202.049 65.6783 200.297C64.0379 199.017 62.5403 197.397 61.6855 195.5C60.7849 193.501 60.6855 189 60.6855 189L66.1855 189.5Z" fill="#FFFF55" stroke="#5555AA" stroke-width="2" stroke-linecap="round" stroke-linejoin="round"/>
<path d="M55.0364 206.666L64.1855 224.504L57.6437 231.758L63.1855 242L55.0877 258.203L46.2942 261.899L56.4898 242.504L50.1855 231L57.4898 223.301L46.5583 202.801L55.0364 206.666Z" fill="black"/>
<path d="M58.5632 169.854C58.5632 169.854 54.5807 164.4 55.1855 161.439C55.6858 158.989 58.0789 156.81 60.4851 156.131C62.3657 155.6 64.7159 156.212 66.1855 157.5C67.9313 159.03 68.701 161.679 68.6855 164C68.6736 165.795 66.6855 169 66.6855 169C66.6855 169 70.7251 165.458 73.1855 165.5C75.5006 165.54 78.0323 166.992 79.1855 169C80.2647 170.879 79.8134 173.426 79.1855 175.5C78.6631 177.225 77.8582 179.328 76.1855 180C73.244 181.182 66.9007 177.939 66.9007 177.939C66.9007 177.939 69.601 183.886 68.4863 186.601C67.7137 188.483 65.5205 190.078 63.4862 190.101C60.4818 190.136 57.1777 187.86 55.9862 185.101C55.0343 182.898 57.1855 178 57.1855 178C57.1855 178 52.1054 180.303 49.6855 179.5C47.5573 178.794 45.3216 176.738 45.1855 174.5C45.0114 171.637 47.4214 168.413 50.1244 167.454C52.8804 166.475 58.5632 169.854 58.5632 169.854Z" fill="#FFFF55" stroke="#5555AA" stroke-width="2" stroke-linecap="round" stroke-linejoin="round"/>
<path d="M54.1855 173.5C57.4723 171.336 60.904 169.51 63.1855 165C65.4458 169.678 68.0903 171.667 70.6855 174C68.08 175.277 65.4719 176.62 62.6855 182.5C60.7243 179.238 59.4688 175.765 54.1855 173.5Z" stroke="#5555AA" stroke-width="2" stroke-linecap="round" stroke-linejoin="round"/>
<path d="M56.4936 168.308L48.5391 164.97L46.924 157.762L53.8927 160.323L56.4936 168.308Z" fill="#FF5555" stroke="#5555AA" stroke-width="2" stroke-linecap="round" stroke-linejoin="round"/>
<path d="M68.1855 167L70.1623 159.285L77.6855 156L75.1855 164.5L68.1855 167Z" fill="#FF5555" stroke="#5555AA" stroke-width="2" stroke-linecap="round" stroke-linejoin="round"/>
<path d="M67.9532 178.361L69.1855 185.5L77.1855 189.5L75.6855 181L67.9532 178.361Z" fill="#FF5555" stroke="#5555AA" stroke-width="2" stroke-linecap="round" stroke-linejoin="round"/>
<path d="M57.232 177.738L48.8849 181.004L47.2798 188.703L55.1856 185.496L57.232 177.738Z" fill="#FF5555" stroke="#5555AA" stroke-width="2" stroke-linecap="round" stroke-linejoin="round"/>
<path d="M75.8017 218.177C79.5402 216.674 83.428 214.749 87.4617 214.906C92.6531 215.107 97.6009 217.663 102.097 220.267C104.067 221.408 107.145 222.391 107.327 224.661C107.484 226.623 105.356 228.572 103.468 229.13C100.994 229.862 98.5615 227.493 96.0359 226.963C93.6176 226.455 86.6918 225.84 88.6855 226C93.4131 226.379 98.4283 227.179 102.386 229.784C103.984 230.836 106.073 232.351 105.978 234.263C105.894 235.973 104.045 237.517 102.384 237.933C99.0447 238.77 95.9447 235.293 92.5333 234.83C90.9311 234.612 86.0309 234.993 87.6855 235C91.7787 235.017 96.2065 235.73 99.5804 238.048C101.029 239.043 103.151 240.665 102.635 242.345C102.006 244.396 98.7362 244.334 96.6075 244.598C91.8077 245.195 86.0155 242.689 82.1855 243C86.9593 243.188 89.1415 243.218 92.2094 244.651C93.871 245.428 96.6008 246.421 96.3785 248.242C96.139 250.203 93.0275 250.537 91.0882 250.916C88.1563 251.487 85.1334 249.916 82.1575 250.175C79.7642 250.382 77.4719 251.264 75.1855 252" stroke="#5555AA" stroke-width="2" stroke-linecap="round" stroke-linejoin="round"/>
<path d="M95.1855 215.5C93.3682 212.208 92.5008 208.256 92.6855 204.5C92.8408 201.342 94.8923 198.561 95.6855 195.5C96.3661 192.874 97.1855 187.5 97.1855 187.5C97.1855 187.5 101.331 194.219 102.186 198C102.883 201.089 102.726 204.38 102.186 207.5C101.763 209.941 100.721 212.249 99.6855 214.5C99.124 215.721 97.6855 218 97.6855 218C97.6855 218 95.7551 216.532 95.1855 215.5Z" fill="#FFFF55" stroke="#5555AA" stroke-width="2" stroke-linecap="round" stroke-linejoin="round"/>
<path d="M123.936 205L137.436 199.25L132.186 214.5C132.186 214.5 132.236 211.031 130.998 210.219C129.925 209.515 127.186 210.75 127.186 210.75C127.186 210.75 128.92 207.313 128.027 205.96C127.256 204.79 123.936 205 123.936 205Z" fill="#5555AA" stroke="#5555AA" stroke-width="2" stroke-linecap="round" stroke-linejoin="round"/>
<path d="M133.114 197.191C132.804 197.129 132.593 196.531 132.808 196.302C133.019 196.077 133.618 196.24 133.708 196.533C133.794 196.815 133.406 197.25 133.114 197.191Z" stroke="#5555AA" stroke-width="2" stroke-linecap="round" stroke-linejoin="round"/>
<path d="M139.388 204.009C139.153 203.826 139.179 203.32 139.418 203.141C139.621 202.989 140.037 203.083 140.177 203.29C140.289 203.455 140.186 203.726 140.041 203.865C139.883 204.016 139.56 204.144 139.388 204.009V204.009Z" stroke="#5555AA" stroke-width="2" stroke-linecap="round" stroke-linejoin="round"/>
<path d="M216.686 258L171.186 215.25L154.547 215.347C153.109 226.04 150.369 231.535 145.436 239.25L160.936 240.5L180.186 258.25" fill="#FFFF55"/>
<path d="M216.686 258L171.186 215.25L154.547 215.347C153.109 226.04 150.369 231.535 145.436 239.25L160.936 240.5L180.186 258.25" stroke="#5555AA" stroke-width="2" stroke-linecap="round" stroke-linejoin="round"/>
<path d="M169.373 219L154.811 218.965L154.401 221.965L168.842 222.031L206.686 258.344C207.258 258.892 208.278 258.87 208.826 258.297C209.374 257.724 209.352 256.704 208.779 256.156L170.467 219.406C170.176 219.132 169.772 218.982 169.373 219L169.373 219Z" fill="#000200"/>
<path d="M151.686 228.042L165.686 228L197.186 257.5" stroke="#5555AA" stroke-width="2" stroke-linecap="round" stroke-linejoin="round"/>
<path d="M150.259 233.122L148.595 235.892L162.311 236.219L184.654 257.812C185.171 258.508 186.332 258.584 186.935 257.963C187.538 257.341 187.427 256.183 186.717 255.688L163.967 233.656C163.703 233.393 163.339 233.234 162.967 233.219L150.259 233.122Z" fill="#000200"/>
<path d="M122.186 258.25L261.686 257.75" stroke="#5555AA" stroke-width="2" stroke-linecap="round" stroke-linejoin="round"/>
<path d="M176.541 157.244C176.541 157.244 177.09 160.847 176.679 162.577C176.183 164.659 174.922 166.521 173.639 168.234C173.05 169.021 171.517 169.322 171.539 170.305C171.573 171.863 173.451 173.511 175.008 173.439C176.768 173.357 177.921 171.18 178.584 169.548C179.438 167.448 179.185 164.981 178.782 162.75C178.43 160.8 176.541 157.244 176.541 157.244Z" fill="#FFFF55"/>
<path d="M181.938 161.709C181.938 161.709 182.962 164.032 182.937 165.275C182.906 166.773 182.252 168.267 181.556 169.665C181.236 170.308 180.112 170.802 180.293 171.46C180.58 172.503 182.295 173.256 183.476 172.91C184.811 172.52 185.33 170.834 185.565 169.608C185.867 168.031 185.26 166.417 184.578 164.991C183.981 163.745 181.938 161.709 181.938 161.709Z" fill="#FFFF55"/>
<path d="M186.823 166.558C186.823 166.558 187.847 168.88 187.822 170.124C187.791 171.621 187.136 173.115 186.44 174.514C186.121 175.156 184.997 175.651 185.178 176.309C185.465 177.352 187.18 178.104 188.361 177.759C189.695 177.368 190.214 175.682 190.449 174.456C190.752 172.879 190.145 171.266 189.462 169.84C188.866 168.593 186.823 166.558 186.823 166.558Z" fill="#FFFF55"/>
<path d="M162.344 147.621C162.344 147.621 162.715 149.376 162.437 150.219C162.103 151.234 161.252 152.141 160.386 152.975C159.988 153.359 158.954 153.505 158.969 153.984C158.992 154.743 160.259 155.546 161.31 155.511C162.497 155.471 163.275 154.411 163.723 153.616C164.299 152.592 164.128 151.39 163.856 150.304C163.619 149.354 162.344 147.621 162.344 147.621H162.344Z" fill="#FFFF55"/>
<path d="M166.017 147.861C166.017 147.861 167.041 150.183 167.015 151.427C166.985 152.924 166.33 154.418 165.634 155.817C165.314 156.459 164.191 156.954 164.372 157.612C164.659 158.655 166.374 159.407 167.555 159.062C168.889 158.671 169.408 156.985 169.643 155.759C169.946 154.182 169.339 152.568 168.656 151.143C168.06 149.896 166.017 147.861 166.017 147.861Z" fill="#FFFF55"/>
<path d="M170.901 152.709C170.901 152.709 171.926 155.031 171.9 156.275C171.869 157.772 171.215 159.266 170.519 160.665C170.199 161.307 169.075 161.802 169.256 162.46C169.543 163.503 171.259 164.255 172.439 163.91C173.774 163.52 174.293 161.833 174.528 160.608C174.831 159.031 174.223 157.417 173.541 155.991C172.944 154.745 170.901 152.709 170.901 152.709Z" fill="#FFFF55"/>
<path d="M192.822 172.101C192.822 172.101 193.371 175.833 192.96 177.625C192.464 179.783 191.203 181.711 189.92 183.486C189.331 184.302 187.798 184.613 187.82 185.632C187.854 187.246 189.732 188.953 191.289 188.878C193.049 188.794 194.202 186.538 194.865 184.847C195.719 182.672 195.466 180.116 195.063 177.805C194.711 175.785 192.822 172.101 192.822 172.101Z" fill="#FFFF55"/>
<path d="M198.219 176.566C198.219 176.566 199.244 178.888 199.218 180.132C199.187 181.629 198.533 183.123 197.837 184.522C197.517 185.164 196.393 185.659 196.574 186.317C196.861 187.36 198.577 188.112 199.757 187.767C201.092 187.377 201.611 185.69 201.846 184.465C202.148 182.888 201.541 181.274 200.859 179.848C200.262 178.602 198.219 176.566 198.219 176.566Z" fill="#FFFF55"/>
<path d="M203.104 181.415C203.104 181.415 204.128 183.737 204.103 184.98C204.072 186.478 203.418 187.972 202.722 189.37C202.402 190.013 201.278 190.507 201.459 191.165C201.746 192.208 203.461 192.961 204.642 192.615C205.977 192.225 206.496 190.539 206.731 189.313C207.033 187.736 206.426 186.122 205.744 184.696C205.147 183.45 203.104 181.415 203.104 181.415Z" fill="#FFFF55"/>
<path d="M208.705 186.235C208.705 186.235 209.254 189.838 208.842 191.568C208.347 193.65 207.086 195.512 205.803 197.225C205.214 198.012 203.681 198.313 203.703 199.296C203.737 200.854 205.615 202.502 207.172 202.43C208.931 202.348 210.085 200.171 210.748 198.539C211.602 196.439 211.349 193.972 210.946 191.741C210.594 189.791 208.705 186.235 208.705 186.235Z" fill="#FFFF55"/>
<path d="M212.936 190.555C212.936 190.555 213.961 192.877 213.935 194.121C213.904 195.618 213.25 197.112 212.554 198.51C212.234 199.153 211.11 199.648 211.291 200.306C211.578 201.349 213.294 202.101 214.474 201.756C215.809 201.365 216.328 199.679 216.563 198.453C216.865 196.876 216.258 195.262 215.576 193.836C214.979 192.59 212.936 190.555 212.936 190.555Z" fill="#FFFF55"/>
<path d="M217.238 194.529C217.238 194.529 218.262 196.851 218.237 198.095C218.206 199.592 217.552 201.086 216.856 202.485C216.536 203.127 215.412 203.622 215.593 204.28C215.88 205.323 217.595 206.075 218.776 205.73C220.111 205.339 220.63 203.653 220.865 202.427C221.167 200.85 220.56 199.236 219.878 197.811C219.281 196.564 217.238 194.529 217.238 194.529Z" fill="#FFFF55"/>
<path d="M222.693 199.641C222.693 199.641 223.242 203.243 222.831 204.973C222.335 207.056 221.075 208.917 219.791 210.631C219.202 211.418 217.67 211.718 217.691 212.701C217.725 214.259 219.603 215.907 221.16 215.835C222.92 215.753 224.073 213.576 224.737 211.944C225.59 209.844 225.337 207.377 224.934 205.146C224.582 203.197 222.693 199.641 222.693 199.641Z" fill="#FFFF55"/>
<path d="M227.216 203.815C227.216 203.815 228.24 206.137 228.215 207.38C228.184 208.878 227.53 210.372 226.834 211.77C226.514 212.413 225.39 212.907 225.571 213.565C225.858 214.608 227.573 215.361 228.754 215.015C230.089 214.625 230.607 212.939 230.843 211.713C231.145 210.136 230.538 208.522 229.856 207.096C229.259 205.85 227.216 203.815 227.216 203.815Z" fill="#FFFF55"/>
<path d="M231.955 208.226C231.955 208.226 232.979 210.548 232.954 211.792C232.923 213.289 232.269 214.783 231.573 216.182C231.253 216.824 230.129 217.319 230.31 217.977C230.597 219.02 232.312 219.772 233.493 219.427C234.828 219.036 235.347 217.35 235.582 216.124C235.884 214.547 235.277 212.933 234.595 211.508C233.998 210.261 231.955 208.226 231.955 208.226Z" fill="#FFFF55"/>
<path d="M237.847 212.026C237.847 212.026 238.397 215.629 237.985 217.359C237.489 219.441 236.229 221.303 234.946 223.016C234.356 223.803 232.824 224.104 232.845 225.087C232.879 226.645 234.758 228.293 236.314 228.221C238.074 228.139 239.227 225.962 239.891 224.33C240.745 222.23 240.492 219.763 240.089 217.532C239.736 215.582 237.847 212.026 237.847 212.026Z" fill="#FFFF55"/>
<path d="M242.224 216.346C242.224 216.346 243.249 218.668 243.223 219.912C243.192 221.409 242.538 222.903 241.842 224.302C241.522 224.944 240.398 225.439 240.579 226.097C240.866 227.14 242.582 227.892 243.762 227.547C245.097 227.156 245.616 225.47 245.851 224.245C246.154 222.667 245.546 221.054 244.864 219.628C244.267 218.381 242.224 216.346 242.224 216.346Z" fill="#FFFF55"/>
<path d="M263.532 192.187C263.532 192.187 264.122 195.531 265.077 196.868C266.418 198.745 268.838 199.551 270.59 201.05C271.023 201.42 271.693 201.679 271.821 202.234C272.033 203.154 271.643 204.385 270.847 204.893C269.725 205.609 267.993 205.272 266.869 204.561C264.953 203.349 264.032 200.871 263.456 198.679C262.906 196.586 263.532 192.187 263.532 192.187H263.532Z" fill="#FFFF55"/>
<path d="M261.583 199.064C261.583 199.064 262.424 200.557 262.858 201.296C263.516 202.415 264.051 203.625 264.874 204.63C265.512 205.409 267.166 205.668 267.1 206.673C267.024 207.836 265.461 208.805 264.237 208.682C262.853 208.543 262.106 207.009 261.578 205.818C260.969 204.441 261.128 202.822 261.192 201.317C261.225 200.556 261.583 199.064 261.583 199.064Z" fill="#FFFF55"/>
<path d="M259.731 204.036C259.731 204.036 260.252 206.395 260.843 207.428C261.598 208.747 262.652 209.923 263.857 210.848C264.438 211.294 265.668 211.16 265.823 211.825C266.067 212.879 264.918 214.358 263.715 214.616C262.356 214.909 261.096 213.674 260.305 212.708C259.288 211.466 259.053 209.758 258.973 208.179C258.904 206.799 259.731 204.036 259.731 204.036Z" fill="#FFFF55"/>
<path d="M258.572 211.257C258.572 211.257 259.162 214.601 260.118 215.938C261.459 217.815 263.878 218.62 265.631 220.12C266.064 220.49 266.733 220.749 266.861 221.304C267.074 222.224 266.683 223.455 265.887 223.963C264.766 224.679 263.034 224.342 261.909 223.631C259.994 222.418 259.073 219.941 258.496 217.748C257.946 215.655 258.572 211.257 258.572 211.257H258.572Z" fill="#FFFF55"/>
<path d="M266.786 182.253C266.786 182.253 267.421 183.677 267.758 184.38C268.112 185.118 268.412 185.89 268.861 186.575C269.571 187.658 271.502 188.274 271.348 189.56C271.243 190.439 270.095 191.226 269.213 191.142C268.02 191.029 267.264 189.596 266.781 188.495C266.223 187.223 266.369 185.726 266.428 184.335C266.458 183.631 266.786 182.253 266.786 182.253Z" fill="#FFFF55"/>
<path d="M265.726 188.39C265.726 188.39 266.164 190.199 266.661 190.991C267.296 192.003 268.183 192.904 269.198 193.614C269.686 193.956 270.721 193.853 270.851 194.363C271.057 195.171 270.089 196.305 269.078 196.503C267.934 196.728 266.874 195.781 266.209 195.04C265.353 194.087 265.155 192.778 265.089 191.567C265.03 190.509 265.726 188.39 265.726 188.39Z" fill="#FFFF55"/>
<path d="M268.634 176.425C268.634 176.425 269.175 179.506 270.051 180.738C271.28 182.467 273.498 183.209 275.104 184.59C275.501 184.931 276.115 185.17 276.232 185.681C276.427 186.529 276.069 187.664 275.339 188.132C274.311 188.792 272.724 188.481 271.693 187.826C269.937 186.709 269.093 184.426 268.565 182.406C268.061 180.477 268.634 176.425 268.634 176.425H268.634Z" fill="#FFFF55"/>
<path d="M271.707 166.49C271.707 166.49 272.503 167.855 272.873 168.553C273.339 169.431 273.601 170.43 274.202 171.222C274.895 172.134 276.82 172.38 276.753 173.523C276.691 174.591 275.254 175.493 274.134 175.38C272.869 175.251 272.185 173.834 271.703 172.733C271.145 171.46 271.291 169.963 271.35 168.572C271.38 167.869 271.707 166.49 271.707 166.49Z" fill="#FFFF55"/>
<path d="M270.441 172.318C270.441 172.318 270.88 174.127 271.377 174.919C272.012 175.931 272.899 176.833 273.913 177.542C274.401 177.884 275.437 177.781 275.567 178.291C275.772 179.099 274.805 180.233 273.793 180.432C272.65 180.656 271.59 179.709 270.925 178.968C270.069 178.016 269.871 176.706 269.804 175.495C269.746 174.437 270.441 172.318 270.441 172.318Z" fill="#FFFF55"/>
<path d="M272.767 158.339C272.767 158.339 273.357 161.684 274.313 163.021C275.654 164.897 278.073 165.703 279.826 167.202C280.259 167.572 280.929 167.832 281.057 168.386C281.269 169.306 280.878 170.538 280.082 171.046C278.961 171.762 277.229 171.425 276.104 170.713C274.189 169.501 273.268 167.023 272.691 164.831C272.141 162.738 272.767 158.339 272.767 158.339H272.767Z" fill="#FFFF55"/>
<path d="M276.112 151.05C276.112 151.05 277.051 151.548 277.461 151.881C278.053 152.364 278.489 153.011 279.031 153.549C279.688 154.201 281.062 154.512 281.067 155.438C281.071 156.16 280.219 156.925 279.497 156.93C278.31 156.938 277.475 155.54 276.883 154.511C276.579 153.981 276.617 153.318 276.485 152.722C276.361 152.164 276.112 151.05 276.112 151.05Z" fill="#FFFF55"/>
<path d="M274.961 154.542C274.961 154.542 275.4 156.352 275.897 157.144C276.532 158.155 277.419 159.057 278.433 159.766C278.921 160.108 279.957 160.006 280.087 160.515C280.292 161.323 279.325 162.457 278.313 162.656C277.17 162.88 276.11 161.933 275.445 161.193C274.589 160.24 274.391 158.93 274.324 157.719C274.266 156.661 274.961 154.542 274.961 154.542Z" fill="#FFFF55"/>
<path d="M254.936 223.5C251.293 223.525 248.645 226.334 247.029 229.562C245.414 232.791 244.632 236.636 244.686 239.781C244.739 242.888 245.638 246.623 247.342 249.75C249.045 252.877 251.743 255.571 255.342 255.5C258.921 255.43 261.47 252.639 263.029 249.469C264.588 246.298 265.34 242.572 265.311 239.5C265.281 236.396 264.447 232.616 262.811 229.437C261.175 226.259 258.554 223.475 254.936 223.5ZM254.936 226.5C256.984 226.486 258.783 228.117 260.154 230.781C261.526 233.446 262.286 236.937 262.311 239.5C262.335 242.03 261.646 245.505 260.342 248.156C259.038 250.808 257.301 252.46 255.279 252.5C253.238 252.54 251.423 250.928 249.998 248.312C248.573 245.697 247.729 242.251 247.686 239.719C247.642 237.148 248.362 233.614 249.717 230.906C251.072 228.199 252.862 226.514 254.936 226.5Z" fill="#FFFF55"/>
<path d="M253.685 240C253.685 240 251.207 238.057 249.935 238.5C249.301 238.721 248.846 239.584 248.935 240.25C249.053 241.126 249.929 242.059 250.81 242.125C251.999 242.214 253.685 240 253.685 240Z" fill="#FFFF55"/>
<path d="M256.311 239.75C256.311 239.75 257.382 237.544 258.436 237.25C259.324 237.002 260.773 237.249 261.061 238.125C261.331 238.949 260.359 239.911 259.561 240.25C258.552 240.679 256.311 239.75 256.311 239.75Z" fill="#FFFF55"/>
<path d="M254.436 237.375C254.436 237.375 251.063 235.236 250.936 233.5C250.826 232.002 251.946 229.944 253.436 229.75C254.87 229.564 256.395 231.208 256.686 232.625C257.037 234.341 254.436 237.375 254.436 237.375Z" fill="#FFFF55"/>
<path d="M254.686 242.375C254.686 242.375 252.607 245.682 253.061 247.375C253.351 248.458 254.441 249.689 255.561 249.625C257.005 249.543 258.457 247.821 258.436 246.375C258.409 244.548 254.686 242.375 254.686 242.375Z" fill="#FFFF55"/>
<path d="M118.143 231.991L132.405 225.121L125.933 240.098C125.933 240.098 127.009 236.833 125.969 235.894C124.792 234.83 121.24 236.415 121.24 236.415C121.24 236.415 122.775 233.417 121.929 232.322C121.154 231.32 118.143 231.991 118.143 231.991H118.143Z" fill="#5555AA" stroke="#5555AA" stroke-width="2" stroke-linecap="round" stroke-linejoin="round"/>
<path d="M128.085 223.1C127.774 223.038 127.563 222.451 127.779 222.226C127.99 222.006 128.588 222.165 128.678 222.453C128.764 222.73 128.376 223.157 128.085 223.1Z" stroke="#5555AA" stroke-width="2" stroke-linecap="round" stroke-linejoin="round"/>
<path d="M134.357 229.795C134.122 229.615 134.148 229.119 134.387 228.943C134.59 228.793 135.007 228.886 135.146 229.089C135.258 229.251 135.155 229.517 135.01 229.653C134.852 229.802 134.53 229.928 134.357 229.795V229.795Z" stroke="#5555AA" stroke-width="2" stroke-linecap="round" stroke-linejoin="round"/>
<path d="M108.83 217.857L122.33 212.107L117.08 227.357C117.08 227.357 117.13 223.889 115.892 223.076C114.82 222.372 112.08 223.607 112.08 223.607C112.08 223.607 113.814 220.171 112.922 218.817C112.15 217.648 108.83 217.857 108.83 217.857Z" fill="#5555AA" stroke="#5555AA" stroke-width="2" stroke-linecap="round" stroke-linejoin="round"/>
<path d="M118.008 210.049C117.698 209.987 117.487 209.389 117.702 209.159C117.913 208.935 118.512 209.097 118.602 209.391C118.688 209.672 118.3 210.107 118.008 210.049Z" stroke="#5555AA" stroke-width="2" stroke-linecap="round" stroke-linejoin="round"/>
<path d="M124.282 216.867C124.047 216.683 124.073 216.178 124.312 215.999C124.515 215.846 124.932 215.941 125.072 216.148C125.183 216.313 125.081 216.583 124.935 216.722C124.777 216.873 124.455 217.002 124.282 216.867V216.867Z" stroke="#5555AA" stroke-width="2" stroke-linecap="round" stroke-linejoin="round"/>
<path d="M94.3792 254.581L107.866 247.062L103.739 261.248C103.739 261.248 104.024 257.877 102.805 257.265C101.298 256.509 98.1657 259.284 98.1657 259.284C98.1657 259.284 100.549 255.796 99.5313 254.477C98.482 253.117 94.3792 254.581 94.3792 254.581Z" fill="#5555AA" stroke="#5555AA" stroke-width="2" stroke-linecap="round" stroke-linejoin="round"/>
<path d="M105.29 245.265C105.046 245.207 104.88 244.651 105.049 244.438C105.215 244.229 105.686 244.38 105.757 244.653C105.824 244.914 105.519 245.319 105.29 245.265Z" stroke="#5555AA" stroke-width="2" stroke-linecap="round" stroke-linejoin="round"/>
<path d="M110.398 251.079C110.213 250.908 110.234 250.438 110.422 250.271C110.581 250.13 110.908 250.218 111.018 250.41C111.106 250.564 111.026 250.815 110.911 250.945C110.787 251.085 110.533 251.205 110.398 251.079V251.079Z" stroke="#5555AA" stroke-width="2" stroke-linecap="round" stroke-linejoin="round"/>
<path d="M57.918 266.294L71.418 260.544L66.168 275.794C66.168 275.794 66.2185 272.326 64.9805 271.513C63.9078 270.809 61.168 272.044 61.168 272.044C61.168 272.044 62.9027 268.607 62.0099 267.254C61.2384 266.085 57.918 266.294 57.918 266.294Z" fill="#5555AA" stroke="#5555AA" stroke-width="2" stroke-linecap="round" stroke-linejoin="round"/>
<path d="M67.0967 258.486C66.7862 258.423 66.5751 257.825 66.7907 257.596C67.0017 257.372 67.6007 257.534 67.6905 257.827C67.7767 258.109 67.3881 258.544 67.0967 258.486Z" stroke="#5555AA" stroke-width="2" stroke-linecap="round" stroke-linejoin="round"/>
<path d="M73.3702 265.304C73.1352 265.12 73.1616 264.614 73.4006 264.435C73.6036 264.283 74.0198 264.378 74.1598 264.584C74.2715 264.749 74.1688 265.02 74.0231 265.159C73.8656 265.31 73.5429 265.439 73.3702 265.304V265.304Z" stroke="#5555AA" stroke-width="2" stroke-linecap="round" stroke-linejoin="round"/>
<path d="M73.4744 277.431L86.9744 271.681L81.7244 286.931C81.7244 286.931 81.7749 283.463 80.5369 282.65C79.4642 281.946 76.7244 283.181 76.7244 283.181C76.7244 283.181 78.4591 279.744 77.5663 278.391C76.7947 277.222 73.4744 277.431 73.4744 277.431Z" fill="#5555AA" stroke="#5555AA" stroke-width="2" stroke-linecap="round" stroke-linejoin="round"/>
<path d="M82.6531 269.623C82.3426 269.56 82.1315 268.962 82.3471 268.733C82.5581 268.508 83.1571 268.671 83.2469 268.964C83.3331 269.246 82.9445 269.681 82.6531 269.623Z" stroke="#5555AA" stroke-width="2" stroke-linecap="round" stroke-linejoin="round"/>
<path d="M88.9266 276.44C88.6916 276.257 88.718 275.751 88.957 275.572C89.16 275.42 89.5762 275.515 89.7162 275.721C89.8279 275.886 89.7252 276.157 89.5795 276.296C89.422 276.447 89.0993 276.576 88.9266 276.44V276.44Z" stroke="#5555AA" stroke-width="2" stroke-linecap="round" stroke-linejoin="round"/>
<path d="M74.1855 383L96.1855 307.5L95.9355 299L98.4355 290.75L102.936 286L107.436 284.5L99.332 284.207L85.3498 306.5L32.5391 271.225L31.6855 349.75L74.1855 383Z" fill="#FF5555"/>
<path d="M331.436 347.5V270L329.061 271.25L313.186 299.5L323.936 312L313.686 320.25L328.061 344.875L331.436 347.5Z" fill="#FF5555"/>
<path d="M227.561 353.125L261.936 322.75L270.061 326L277.311 326.5L286.061 323.625L287.436 327.125L290.561 328.375L294.311 326.625L301.436 333.25L247.186 371.875L238.311 363.625L227.561 353.125Z" fill="#5455AA" stroke="#5555AA" stroke-width="2" stroke-linecap="round" stroke-linejoin="round"/>
<path d="M145.797 284.3L111.564 284.758L117.982 291.33L120.122 300.488L221.599 392.195L241.008 375.537L225.572 363.158L214.416 350.474L208.303 340.234L207.08 326.785L191.492 327.091L145.797 284.3Z" fill="#FF5555"/>
<path d="M70.4355 380L31.6855 349.75" stroke="#5555AA" stroke-width="2" stroke-linecap="round" stroke-linejoin="round"/>
<path d="M230.436 510.5C227.114 501.624 224.762 492.384 223.436 483C222.43 475.884 222.013 468.674 222.436 461.5C222.937 452.989 224.625 444.549 227.436 436.5C223.395 435.879 219.388 435.044 215.436 434C211.714 433.017 208.041 431.848 204.436 430.5L158.936 510.5H230.436Z" fill="#FFFF55" stroke="#5555AA" stroke-width="2" stroke-linecap="round" stroke-linejoin="round"/>
<path d="M203.936 430.5L195.936 424.5L146.436 510.5H158.936L203.936 430.5Z" fill="#FF5555" stroke="#5555AA" stroke-width="2" stroke-linecap="round" stroke-linejoin="round"/>
<path d="M171.686 510.5C171.686 510.5 167.687 504.584 170.936 499.5C172.752 496.656 180.436 496 180.436 496C180.436 496 177.357 486.777 179.936 483.5C182.563 480.161 192.436 481 192.436 481C192.436 481 187.288 470.014 189.936 465.5C193.775 458.953 200.607 461.164 200.607 461.164C200.607 461.164 196.533 453.285 201.936 447C204.74 443.738 214.686 445 214.686 445C211.073 440.719 211.235 439.513 210.686 437.25C210.136 434.987 210.276 434.252 210.276 434.252" stroke="#000100" stroke-width="2" stroke-linecap="round" stroke-linejoin="round"/>
<path d="M201.541 457.342C201.878 456.183 202.282 455.015 202.935 454C203.797 452.661 204.74 451.167 206.185 450.5C208.003 449.662 210.522 449.136 212.185 450.25C213.806 451.336 214.508 453.826 214.185 455.75C213.814 457.971 209.935 461 209.935 461C209.935 461 215.317 462.101 216.435 464.25C217.486 466.267 216.846 469.215 215.435 471C214.044 472.761 211.331 474.156 209.185 473.5C206.776 472.764 204.935 467.25 204.935 467.25C204.935 467.25 204.387 471.548 203.185 473.25C202.119 474.762 200.526 476.309 198.685 476.5C197.053 476.67 195.08 475.876 194.185 474.5C192.778 472.334 193.011 469.051 194.185 466.75C195.362 464.443 200.475 462.191 200.475 462.191C200.475 462.191 199.338 465.38 201.988 466.803C204.106 467.94 207.538 465.834 208.455 463.612C209.232 461.731 208.434 458.409 206.482 457.835C202.586 456.69 201.001 460.467 201.001 460.467C201.001 460.467 201.245 458.357 201.541 457.342Z" fill="black" stroke="#000100" stroke-width="2" stroke-linecap="round" stroke-linejoin="round"/>
<path d="M182.044 492.218C182.381 491.06 182.786 489.892 183.439 488.877C184.301 487.538 185.243 486.043 186.689 485.377C188.507 484.539 191.026 484.013 192.689 485.127C194.31 486.212 195.011 488.703 194.689 490.627C194.317 492.847 190.439 495.877 190.439 495.877C190.439 495.877 195.82 496.978 196.939 499.127C197.989 501.144 197.349 504.092 195.939 505.877C194.548 507.637 191.835 509.032 189.689 508.377C187.28 507.641 185.439 502.127 185.439 502.127C185.439 502.127 184.89 506.425 183.689 508.127C181.457 511.186 176.809 510.7 174.689 509.377C173.281 507.211 173.515 503.928 174.689 501.627C175.866 499.32 180.978 497.067 180.978 497.067C180.978 497.067 179.842 500.257 182.491 501.68C184.609 502.817 188.041 500.711 188.959 498.489C189.735 496.608 188.937 493.286 186.985 492.712C183.09 491.567 181.505 495.344 181.505 495.344C181.505 495.344 181.749 493.234 182.044 492.218Z" fill="black" stroke="#000100" stroke-width="2" stroke-linecap="round" stroke-linejoin="round"/>
<path d="M175.589 424.85C175.064 420.268 173.942 415.178 172.751 411.929" stroke="#5555AA" stroke-width="2" stroke-linecap="round" stroke-linejoin="round"/>
<path d="M171.365 431.044C170.573 422.924 168.268 416.289 166.656 410.4" stroke="#5555AA" stroke-width="2" stroke-linecap="round" stroke-linejoin="round"/>
<path d="M166.86 438.647C165.463 428.945 163.837 418.164 160.483 409.113" stroke="#5555AA" stroke-width="2" stroke-linecap="round" stroke-linejoin="round"/>
<path d="M159.059 427.213C158.473 419.96 156.008 413.484 154.829 408.009" stroke="#5555AA" stroke-width="2" stroke-linecap="round" stroke-linejoin="round"/>
<path d="M152.781 419.809C151.744 413.123 150.317 410.418 149.534 407.203" stroke="#5555AA" stroke-width="2" stroke-linecap="round" stroke-linejoin="round"/>
<path d="M146.138 413.746C145.387 411.079 144.515 408.999 143.764 406.988" stroke="#5555AA" stroke-width="2" stroke-linecap="round" stroke-linejoin="round"/>
<path d="M110.936 510.5C110.936 510.5 109.956 497.622 103.186 490.75C96.4151 483.878 87.9355 480.5 87.9355 480.5" stroke="#5555AA" stroke-width="2" stroke-linecap="round" stroke-linejoin="round"/>
<path d="M106.811 510.5C106.811 510.5 105.541 499.731 100.166 493.719C94.7918 487.706 88.0605 485.5 88.0605 485.5" stroke="#5555AA" stroke-width="2" stroke-linecap="round" stroke-linejoin="round"/>
<path d="M103.311 510.5C103.311 510.5 101.75 502.664 97.7719 498.083C93.7934 493.502 87.8105 490.5 87.8105 490.5" stroke="#5555AA" stroke-width="2" stroke-linecap="round" stroke-linejoin="round"/>
<path d="M98.8105 510.5C98.8105 510.5 97.7532 505.096 94.5425 501.546C91.3318 497.996 87.8105 496.25 87.8105 496.25" stroke="#5555AA" stroke-width="2" stroke-linecap="round" stroke-linejoin="round"/>
<path d="M94.4355 510.5C94.4355 510.5 93.8149 506.422 91.9304 504.246C90.0458 502.07 87.6855 501 87.6855 501" stroke="#5555AA" stroke-width="2" stroke-linecap="round" stroke-linejoin="round"/>
<path d="M111.686 509.25C111.686 509.25 112.165 499.372 120.186 490.5C128.206 481.628 142.186 482.5 142.186 482.5" stroke="#5555AA" stroke-width="2" stroke-linecap="round" stroke-linejoin="round"/>
<path d="M115.061 509.75C115.061 509.75 116.33 501.231 123.455 493.719C130.579 486.206 139.311 487.25 139.311 487.25" stroke="#5555AA" stroke-width="2" stroke-linecap="round" stroke-linejoin="round"/>
<path d="M119.811 509.75C119.811 509.75 121.371 501.914 125.349 497.333C129.328 492.752 137.061 492.25 137.061 492.25" stroke="#5555AA" stroke-width="2" stroke-linecap="round" stroke-linejoin="round"/>
<path d="M124.311 509.75C124.311 509.75 125.368 504.346 128.579 500.796C131.789 497.246 133.811 497.75 133.811 497.75" stroke="#5555AA" stroke-width="2" stroke-linecap="round" stroke-linejoin="round"/>
<path d="M86.8897 473.564C86.8897 473.564 80.7451 454.741 78.4421 445.124C75.7755 433.987 73.493 422.716 72.2473 411.333C71.1336 401.156 71.1209 380.641 71.1209 380.641L103.222 407.391C103.222 407.391 94.3262 419.573 91.6767 426.539C89.674 431.804 89.3468 437.572 88.5792 443.152C87.8601 448.38 87.4569 453.652 87.1713 458.921C86.9071 463.796 86.8897 473.564 86.8897 473.564Z" fill="#5555AA" stroke="#5555AA" stroke-width="2" stroke-linecap="round" stroke-linejoin="round"/>
<path d="M108.009 464.271C108.009 464.271 108.232 459.193 108.009 456.669C107.773 454.009 107.22 451.381 106.601 448.784C105.919 445.925 104.205 443.273 104.066 440.337C103.988 438.663 104.064 436.762 105.052 435.409C105.907 434.238 107.798 434.291 108.853 433.297C109.744 432.458 110.824 430.2 110.824 430.2" stroke="#5555AA" stroke-width="2" stroke-linecap="round" stroke-linejoin="round"/>
<path d="M123.214 441.181C123.214 441.181 126.679 437.12 126.171 434.846C125.851 433.415 124.224 432.342 122.792 432.03C121.223 431.689 119.625 432.673 118.146 433.297C116.44 434.016 115.148 436.589 113.359 436.113C112.627 435.918 111.916 434.829 112.232 434.142C113.072 432.319 116.148 433.204 118.146 433.015C120.575 432.786 123.615 431.426 125.467 433.015C126.404 433.819 126.279 435.467 126.03 436.676C125.673 438.411 123.214 441.181 123.214 441.181Z" fill="#5555AA" stroke="#5555AA" stroke-width="2" stroke-linecap="round" stroke-linejoin="round"/>
<path d="M144.052 473.282C144.052 473.282 137.781 476.455 134.264 477.062C130.895 477.643 127.217 477.74 123.948 476.839C121.6 476.193 117.864 473.282 117.864 473.282C117.864 473.282 123.084 475.216 125.817 475.624C129.212 476.131 132.718 476.222 136.116 475.728C138.855 475.329 144.052 473.282 144.052 473.282Z" fill="#5555AA" stroke="#5555AA" stroke-width="2" stroke-linecap="round" stroke-linejoin="round"/>
<path d="M123.496 466.243L120.68 468.495C120.68 468.495 125.129 470.049 127.438 470.466C129.939 470.918 132.552 471.543 135.041 471.03C137.426 470.537 139.525 469.05 141.517 467.651C144.126 465.818 148.557 461.174 148.557 461.174" stroke="#5555AA" stroke-width="2" stroke-linecap="round" stroke-linejoin="round"/>
<path d="M145.459 461.174C145.459 461.174 138.678 464.495 135.041 465.398C132.797 465.955 130.452 466.023 128.142 466.102C126.734 466.15 123.918 465.961 123.918 465.961L120.962 460.892L125.748 458.64L121.355 459.373C122.872 454.906 128.077 452.045 130.817 450.192" stroke="#5555AA" stroke-width="2" stroke-linecap="round" stroke-linejoin="round"/>
<path d="M126.875 464.975C126.875 464.975 124.853 461.575 126.875 458.64C128.048 456.938 131.224 457.428 133.07 458.358C136.274 459.972 139.553 461.257 141.517 462.441L135.604 463.849C136.661 462.119 135.368 460.319 134.196 459.203C132.794 457.869 130.355 457.062 128.564 457.795C126.732 458.545 125.287 461.588 125.467 462.864C125.585 463.701 126.875 464.975 126.875 464.975V464.975Z" stroke="#5555AA" stroke-width="2" stroke-linecap="round" stroke-linejoin="round"/>
<path d="M130.254 463.427C131.072 463.709 132.35 462.594 132.225 461.737C132.091 460.823 130.412 460.033 129.691 460.611C128.943 461.209 129.349 463.114 130.254 463.427V463.427Z" stroke="#5555AA" stroke-width="2" stroke-linecap="round" stroke-linejoin="round"/>
<path d="M89.3882 475.052C89.3882 475.052 95.1828 477.117 97.9922 476.388C101.398 475.505 106.319 469.903 106.319 469.903C106.319 469.903 101.015 474.542 97.7106 475.081C94.8234 475.552 89.1424 473.182 89.1424 473.182L89.3882 475.052Z" fill="#5555AA" stroke="#5555AA" stroke-width="2" stroke-linecap="round" stroke-linejoin="round"/>
<path d="M108.149 465.257C108.149 465.257 104.143 469.32 101.532 470.185C98.6811 471.13 95.3172 471.283 92.5214 470.185C90.8523 469.529 88.5792 466.524 88.5792 466.524" stroke="#5555AA" stroke-width="2" stroke-linecap="round" stroke-linejoin="round"/>
<path d="M106.601 463.427C106.601 463.427 101.636 465.517 98.9979 465.679C96.7184 465.82 94.4391 465.168 92.2398 464.553C90.7795 464.145 88.0161 462.864 88.0161 462.864C88.0161 462.864 90.6399 460.316 92.2398 459.485C94.322 458.403 96.6518 457.469 98.9979 457.513C100.185 457.536 102.377 458.64 102.377 458.64L106.038 460.077C105.051 458.015 103.312 454.291 101.955 453.149" stroke="#5555AA" stroke-width="2" stroke-linecap="round" stroke-linejoin="round"/>
<path d="M102.659 463.99C104.141 460.912 102.56 460.898 102.377 459.485L101.251 458.358" stroke="#5555AA" stroke-width="2" stroke-linecap="round" stroke-linejoin="round"/>
<path d="M97.8715 463.145C98.5296 462.657 98.9436 461.394 98.4347 460.752C97.8519 460.016 96.2825 460.088 95.6188 460.752C95.0879 461.283 95.1047 462.457 95.6188 463.004C96.134 463.553 97.2674 463.594 97.8715 463.145Z" stroke="#5555AA" stroke-width="2" stroke-linecap="round" stroke-linejoin="round"/>
<path d="M126.03 419.927C126.03 419.927 121.226 421.935 118.568 421.916C116.546 421.902 114.957 420.367 112.936 420.325C110.118 420.266 107.588 422.84 104.911 422.215C103.823 421.961 102.94 420.225 102.94 420.225C102.94 420.225 104.842 421.036 105.897 421.021C108.398 420.985 110.302 419.073 112.796 418.932C115.303 418.79 117.611 420.071 120.117 420.225C122.085 420.346 126.03 419.927 126.03 419.927Z" fill="#5555AA" stroke="#5555AA" stroke-width="2" stroke-linecap="round" stroke-linejoin="round"/>
<path d="M118.99 412.741C118.99 412.741 115.895 414.396 114.203 414.431C112.289 414.47 108.712 412.741 108.712 412.741" stroke="#5555AA" stroke-width="2" stroke-linecap="round" stroke-linejoin="round"/>
<path d="M119.694 416.543C119.694 416.543 115.617 415.179 113.499 415.135C111.686 415.097 108.149 416.12 108.149 416.12" stroke="#5555AA" stroke-width="2" stroke-linecap="round" stroke-linejoin="round"/>
<path d="M87.1855 509.75C87.1855 509.75 87.2634 486.077 87.6855 474.25C88.1529 461.154 87.2079 447.818 89.9355 435C91.1597 429.247 93.6534 423.808 96.1855 418.5C98.1793 414.32 99.7157 409.567 103.186 406.5C106.039 403.978 109.912 402.51 113.686 402C117.937 401.426 122.333 402.495 126.436 403.75C132.209 405.517 137.67 408.39 142.686 411.75C147.395 414.904 151.753 418.692 155.436 423C158.26 426.304 160.682 430.023 162.436 434C163.724 436.922 164.936 443.25 164.936 443.25" stroke="#5555AA" stroke-width="2" stroke-linecap="round" stroke-linejoin="round"/>
<path d="M59.4355 449.25L49.6855 465.5L40.9355 449.25L50.4355 433.5L59.4355 449.25Z" fill="#FFFF55" stroke="black" stroke-width="2" stroke-linecap="round" stroke-linejoin="round"/>
<path d="M54.1855 449.75L50.1855 456.75L46.4355 450L50.1855 442.5L54.1855 449.75Z" fill="#FF5555" stroke="black" stroke-width="2" stroke-linecap="round" stroke-linejoin="round"/>
<path d="M51.1855 430.625C51.1855 427.518 53.592 425 56.5605 425C59.5291 425 61.9355 427.518 61.9355 430.625C61.9355 433.732 59.5291 436.25 56.5605 436.25C53.592 436.25 51.1855 433.732 51.1855 430.625Z" fill="#FFFF55" stroke="black" stroke-width="2" stroke-linecap="round" stroke-linejoin="round"/>
<path d="M39.6855 431.125C39.6855 427.88 42.148 425.25 45.1855 425.25C48.2231 425.25 50.6855 427.88 50.6855 431.125C50.6855 434.37 48.2231 437 45.1855 437C42.148 437 39.6855 434.37 39.6855 431.125Z" fill="#FFFF55" stroke="black" stroke-width="2" stroke-linecap="round" stroke-linejoin="round"/>
<path d="M50.6855 339C45.715 339 41.6855 342.694 41.6855 347.25C41.6855 351.806 45.715 355.5 50.6855 355.5C55.6561 355.5 59.6855 351.806 59.6855 347.25C59.6855 342.694 55.6561 339 50.6855 339Z" fill="#FFFF55" stroke="black" stroke-width="2" stroke-linecap="round" stroke-linejoin="round"/>
<path d="M50.9355 355.5C54.7831 356.514 58.2199 359.915 59.6946 363.61C61.4178 367.929 59.2869 372.906 58.7956 377.53C57.698 387.856 55.6977 398.067 54.2241 408.346C53.2618 415.06 52.1611 424.839 51.4355 428.5C49.5418 429.029 49.3052 427.674 49.361 425.986C47.4577 410.941 45.2649 395.929 43.6611 380.848C43.1414 375.962 41.5972 371.01 42.3904 366.16C42.9558 362.704 43.8958 358.771 46.5842 356.525C47.7279 355.57 49.4946 355.12 50.9355 355.5Z" fill="#FFFF55" stroke="black" stroke-width="2" stroke-linecap="round" stroke-linejoin="round"/>
<path d="M50.1855 408.75C50.1855 408.75 48.6406 392.07 47.6855 383.75C47.1681 379.242 45.977 374.787 45.9355 370.25C45.9148 367.986 45.7049 365.54 46.6855 363.5C47.4003 362.013 50.1855 360 50.1855 360" stroke="black" stroke-width="2" stroke-linecap="round" stroke-linejoin="round"/>
<path d="M49.1855 351.75C47.7137 350.218 46.1234 348.166 46.3692 346.065C46.5343 344.654 47.7842 343.341 49.092 342.786C49.967 342.415 50.9916 342.9 51.9355 343" stroke="black" stroke-width="2" stroke-linecap="round" stroke-linejoin="round"/>
<path d="M55.1855 284.75C55.1855 284.75 57.2903 302.56 57.9355 311.5C58.3678 317.49 59.612 323.567 58.6855 329.5C58.2747 332.131 57.9068 335.21 55.9355 337C54.4691 338.332 52.1663 338.511 50.1855 338.5C48.2853 338.49 46.035 338.338 44.6855 337C42.2874 334.623 42.2528 330.612 41.9355 327.25C41.3933 321.504 42.7571 315.732 43.4355 310C44.2279 303.306 45.5068 296.677 46.4355 290C46.8869 286.755 47.6855 280.25 47.6855 280.25L55.1855 284.75Z" fill="#FFFF55" stroke="black" stroke-width="2" stroke-linecap="round" stroke-linejoin="round"/>
<path d="M50.1855 334C50.1855 334 47.112 331.883 46.4355 330.25C45.3194 327.555 46.3285 324.415 46.4355 321.5C46.644 315.822 47.1246 310.154 47.6855 304.5C48.4151 297.146 50.4355 282.5 50.4355 282.5" stroke="black" stroke-width="2" stroke-linecap="round" stroke-linejoin="round"/>
<path d="M181.686 414L190.686 398.25L112.436 325.5L95.6855 388.5L86.2776 391.345L103.78 406.69C103.78 406.69 108.957 403.183 111.936 402.5C115.348 401.718 118.967 402.271 122.436 402.75C126.1 403.256 133.186 405.5 133.186 405.5C133.186 405.5 147.071 406.219 153.936 407.25C159.755 408.124 165.479 409.566 171.186 411C174.716 411.887 181.686 414 181.686 414Z" fill="#FFFF55" stroke="black" stroke-width="2" stroke-linecap="round" stroke-linejoin="round"/>
<path d="M184.186 409C184.186 409 171.274 404.982 164.686 403.5C159.326 402.294 153.887 401.431 148.436 400.75C142.296 399.983 136.119 399.446 129.936 399.25C125.187 399.1 120.417 399.073 115.686 399.5C110.555 399.963 100.436 402 100.436 402" stroke="black" stroke-width="2" stroke-linecap="round" stroke-linejoin="round"/>
<path d="M184.936 393.25C184.936 393.25 172.192 389.524 165.686 388.25C159.498 387.039 153.215 386.325 146.936 385.75C141.95 385.294 136.942 384.986 131.936 385C125.926 385.017 119.919 385.442 113.936 386C107.743 386.578 95.4355 388.43 95.4355 388.43" stroke="black" stroke-width="2" stroke-linecap="round" stroke-linejoin="round"/>
<path d="M166.686 383.25C166.686 383.25 148.064 379.94 138.645 379.425C131.845 379.053 125.01 379.43 118.22 379.962C113.014 380.371 102.686 382 102.686 382L114.936 334L166.686 383.25Z" stroke="black" stroke-width="2" stroke-linecap="round" stroke-linejoin="round"/>
<path d="M149.686 375C149.686 375 135.025 373.832 127.686 374C121.542 374.14 109.325 375.677 109.325 375.677L117.436 342.5L149.686 375Z" stroke="black" stroke-width="2" stroke-linecap="round" stroke-linejoin="round"/>
<path d="M126.686 352.75L119.223 349.538L114.936 354.25" stroke="black" stroke-width="2" stroke-linecap="round" stroke-linejoin="round"/>
<path d="M133.677 359.14C134.177 360.14 120.436 355 120.436 355L113.183 362" stroke="black" stroke-width="2" stroke-linecap="round" stroke-linejoin="round"/>
<path d="M141.607 367.462L122.436 360L111.078 369.82" stroke="black" stroke-width="2" stroke-linecap="round" stroke-linejoin="round"/>
<path d="M145.037 374.532L123.436 365L112.258 374.962" stroke="black" stroke-width="2" stroke-linecap="round" stroke-linejoin="round"/>
<path d="M132.825 373.997L124.936 369.75L119.686 373.75" stroke="black" stroke-width="2" stroke-linecap="round" stroke-linejoin="round"/>
<path d="M143.186 395L137.186 394.43V389.93L143.186 390.5V395Z" stroke="black" stroke-width="2" stroke-linecap="round" stroke-linejoin="round"/>
<path d="M186.45 404.809L182.265 403.018L184.171 398.941L188.606 401.482L186.45 404.809Z" stroke="black" stroke-width="2" stroke-linecap="round" stroke-linejoin="round"/>
<path d="M178.018 401.219L172.21 399.505L173.246 394.926L179.019 396.782L178.018 401.219Z" stroke="black" stroke-width="2" stroke-linecap="round" stroke-linejoin="round"/>
<path d="M166.718 398.479L160.466 397.423L160.938 392.948L167.047 394.004L166.718 398.479Z" stroke="black" stroke-width="2" stroke-linecap="round" stroke-linejoin="round"/>
<path d="M154.882 396.291L148.601 395.633L148.774 391.137L154.912 391.652L154.882 396.291Z" stroke="black" stroke-width="2" stroke-linecap="round" stroke-linejoin="round"/>
<path d="M131.597 394.221L125.601 393.991L125.774 389.494L131.77 389.724L131.597 394.221Z" stroke="black" stroke-width="2" stroke-linecap="round" stroke-linejoin="round"/>
<path d="M120.145 394.427L114.486 394.819L114.299 390.361L120.1 390.111L120.145 394.427Z" stroke="black" stroke-width="2" stroke-linecap="round" stroke-linejoin="round"/>
<path d="M109.43 395.249L104.056 396.069L103.441 391.468L108.815 390.649L109.43 395.249Z" stroke="black" stroke-width="2" stroke-linecap="round" stroke-linejoin="round"/>
<path d="M99.7006 397.206L96.86 398.569L93.4204 394.794L98.6157 392.859L99.7006 397.206Z" stroke="black" stroke-width="2.00363" stroke-linecap="round" stroke-linejoin="round"/>
<path d="M86.2507 391.54L74.7846 382.224L96.0446 307.217C96.0446 307.217 95.5666 300.609 96.2834 297.423C96.972 294.362 97.952 291.104 100.105 288.823C102.135 286.674 105.033 284.698 107.988 284.762C110.556 284.818 112.869 286.761 114.677 288.584C116.283 290.204 117.309 292.389 118.021 294.556C118.622 296.386 118.738 300.289 118.738 300.289L221.693 393.451C221.693 393.451 212.36 401.658 208.316 406.35C203.657 411.756 199.36 417.549 195.895 423.788C178.615 454.892 145.97 510.261 145.97 510.261L128.293 510.022C128.293 510.022 137.649 491.602 142.625 482.551C149.673 469.734 157.322 457.257 164.602 444.57C170.211 434.796 175.771 424.994 181.323 415.188C184.52 409.542 190.878 398.228 190.878 398.228L112.766 325.61L95.0891 387.957L86.2507 391.54Z" fill="black" stroke="#5555AA" stroke-width="2" stroke-linecap="round" stroke-linejoin="round"/>
<path d="M221.727 393.583L240.436 377L247.936 371.5L286.582 343.737L294.698 337.616L302.198 332.616L330.936 347" stroke="#5555AA" stroke-width="2" stroke-linecap="round" stroke-linejoin="round"/>
<path d="M303.033 332.902C299.805 330.885 293.936 326 293.936 326C293.936 326 292.497 327.888 291.436 328C289.583 328.196 287.085 327.246 286.436 325.5C285.68 323.469 288.145 321.517 288.936 319.5C289.796 317.302 290.913 315.168 291.375 312.853C292.099 309.226 292.253 305.444 291.845 301.768C291.434 298.073 289.02 294.717 288.936 291C288.901 289.464 288.672 287.374 289.936 286.5C291.874 285.159 296.936 287.5 296.936 287.5L323.436 275C314.291 269.432 308.656 264.765 300.936 260.212C293.719 255.65 280.936 246 280.936 246C280.936 246 274.219 254.294 270.936 258.5C265.52 265.436 260.727 272.874 254.936 279.5C250.903 284.114 246.486 288.396 241.936 292.5C236.833 297.102 230.301 300.193 225.936 305.5C222.099 310.164 219.078 315.688 217.436 321.5C215.983 326.642 215.028 332.345 216.436 337.5C218.079 343.52 222.838 348.293 226.936 353C232.994 359.958 247.496 371.53 247.496 371.53L241.996 375.53C241.996 375.53 228.577 365.591 222.936 359.5C217.498 353.629 211.387 347.617 208.936 340C207.065 334.187 207.762 327.674 208.936 321.682C210.124 315.613 212.376 309.557 215.936 304.5C219.672 299.192 225.329 295.508 230.436 291.5C233.454 289.131 237.02 287.495 239.936 285C245.848 279.94 251.004 274.019 255.936 268C260.86 261.99 265.147 255.479 269.436 249C272.244 244.757 277.436 236 277.436 236L329.436 271L313.436 299L324.436 312L313.936 320L328.936 346C328.936 346 311.238 338.03 303.033 332.902Z" fill="#FFFF55" stroke="#5555AA" stroke-width="2" stroke-linecap="round" stroke-linejoin="round"/>
<path d="M294.436 325.5C294.436 325.5 297.056 319.041 297.759 315.646C298.815 310.541 299.371 305.264 299.052 300.061C298.79 295.792 296.436 287.5 296.436 287.5" stroke="#5555AA" stroke-width="2" stroke-linecap="round" stroke-linejoin="round"/>
<path d="M284.216 329.51C286.904 329.358 289.869 329.278 292.222 330.587C295.284 332.291 296.845 335.858 298.906 338.701C298.906 338.701 292.932 339.313 290.098 338.546C287.663 337.888 285.607 336.229 283.498 334.847C281.713 333.677 278.398 330.975 278.398 330.975C278.398 330.975 282.219 329.623 284.216 329.51Z" fill="#FFFF55" stroke="#5555AA" stroke-width="2" stroke-linecap="round" stroke-linejoin="round"/>
<path d="M296.436 352C296.436 352 295.031 348.004 293.631 346.493C291.457 344.146 288.235 343.049 285.436 341.5C281.849 339.515 277.426 338.804 274.436 336C271.397 333.151 268.138 325.207 268.138 325.207C271.168 325.769 273.311 327.471 276.341 327.199C276.341 327.199 278.864 331.839 280.841 333.496C283.219 335.489 286.445 336.16 289.244 337.5C291.812 338.73 294.697 339.451 296.943 341.203C298.583 342.483 300.081 344.103 300.936 346C301.836 347.999 301.936 352.5 301.936 352.5L296.436 352Z" fill="#FFFF55" stroke="#5555AA" stroke-width="2" stroke-linecap="round" stroke-linejoin="round"/>
<path d="M307.585 334.834L298.436 316.996L304.977 309.742L299.436 299.5L307.533 283.297L316.327 279.601L306.131 298.996L312.436 310.5L305.131 318.199L316.063 338.699L307.585 334.834Z" fill="black"/>
<path d="M304.058 371.646C304.058 371.646 308.04 377.1 307.436 380.061C306.935 382.511 304.542 384.69 302.136 385.369C300.255 385.9 297.905 385.288 296.436 384C294.69 382.47 293.92 379.821 293.936 377.5C293.948 375.705 295.936 372.5 295.936 372.5C295.936 372.5 291.896 376.042 289.436 376C287.121 375.96 284.589 374.508 283.436 372.5C282.356 370.621 282.808 368.074 283.436 366C283.958 364.275 284.763 362.172 286.436 361.5C289.377 360.318 295.72 363.561 295.72 363.561C295.72 363.561 293.02 357.614 294.135 354.899C294.907 353.017 297.101 351.422 299.135 351.399C302.139 351.364 305.443 353.64 306.635 356.399C307.587 358.602 305.436 363.5 305.436 363.5C305.436 363.5 310.516 361.197 312.936 362C315.064 362.706 317.299 364.762 317.436 367C317.61 369.863 315.2 373.087 312.497 374.046C309.741 375.025 304.058 371.646 304.058 371.646Z" fill="#FFFF55" stroke="#5555AA" stroke-width="2" stroke-linecap="round" stroke-linejoin="round"/>
<path d="M308.436 368C305.149 370.164 301.717 371.99 299.436 376.5C297.175 371.822 294.531 369.833 291.936 367.5C294.541 366.223 297.149 364.88 299.936 359C301.897 362.262 303.152 365.735 308.436 368Z" stroke="#5555AA" stroke-width="2" stroke-linecap="round" stroke-linejoin="round"/>
<path d="M306.127 373.192L314.082 376.53L315.697 383.738L308.728 381.177L306.127 373.192Z" fill="#FF5555" stroke="#5555AA" stroke-width="2" stroke-linecap="round" stroke-linejoin="round"/>
<path d="M294.436 374.5L292.459 382.215L284.936 385.5L287.436 377L294.436 374.5Z" fill="#FF5555" stroke="#5555AA" stroke-width="2" stroke-linecap="round" stroke-linejoin="round"/>
<path d="M294.668 363.139L293.436 356L285.436 352L286.936 360.5L294.668 363.139Z" fill="#FF5555" stroke="#5555AA" stroke-width="2" stroke-linecap="round" stroke-linejoin="round"/>
<path d="M305.389 363.762L313.736 360.496L315.341 352.797L307.436 356.004L305.389 363.762Z" fill="#FF5555" stroke="#5555AA" stroke-width="2" stroke-linecap="round" stroke-linejoin="round"/>
<path d="M286.819 323.323C283.081 324.826 279.193 326.751 275.159 326.594C269.968 326.393 265.02 323.837 260.524 321.233C258.554 320.092 255.476 319.109 255.294 316.839C255.137 314.877 257.265 312.928 259.153 312.37C261.628 311.638 264.06 314.007 266.585 314.537C269.003 315.045 275.929 315.66 273.936 315.5C269.208 315.121 264.193 314.321 260.235 311.716C258.637 310.664 256.548 309.149 256.643 307.237C256.727 305.527 258.576 303.983 260.237 303.567C263.576 302.73 266.676 306.207 270.088 306.67C271.69 306.888 276.59 306.507 274.936 306.5C270.842 306.483 266.415 305.77 263.041 303.452C261.592 302.457 259.471 300.835 259.986 299.155C260.615 297.104 263.885 297.166 266.014 296.902C270.813 296.305 276.606 298.811 280.436 298.5C275.662 298.312 273.48 298.282 270.412 296.849C268.75 296.072 266.02 295.079 266.243 293.258C266.482 291.297 269.594 290.963 271.533 290.584C274.465 290.013 277.488 291.584 280.464 291.325C282.857 291.118 285.149 290.236 287.436 289.5" stroke="#5555AA" stroke-width="2" stroke-linecap="round" stroke-linejoin="round"/>
<path d="M267.436 326C269.253 329.292 270.12 333.244 269.936 337C269.78 340.158 267.729 342.939 266.936 346C266.255 348.626 265.436 354 265.436 354C265.436 354 261.29 347.281 260.436 343.5C259.738 340.411 259.895 337.12 260.436 334C260.858 331.559 261.9 329.251 262.936 327C263.497 325.779 264.936 323.5 264.936 323.5C264.936 323.5 266.866 324.968 267.436 326Z" fill="#FFFF55" stroke="#5555AA" stroke-width="2" stroke-linecap="round" stroke-linejoin="round"/>
<path d="M238.686 336.5L225.186 342.25L230.436 327C230.436 327 230.385 330.469 231.623 331.281C232.696 331.985 235.436 330.75 235.436 330.75C235.436 330.75 233.701 334.187 234.594 335.54C235.365 336.71 238.686 336.5 238.686 336.5Z" fill="#5555AA" stroke="#5555AA" stroke-width="2" stroke-linecap="round" stroke-linejoin="round"/>
<path d="M229.507 344.309C229.817 344.371 230.028 344.969 229.813 345.198C229.602 345.423 229.003 345.26 228.913 344.967C228.827 344.685 229.215 344.25 229.507 344.309Z" stroke="#5555AA" stroke-width="2" stroke-linecap="round" stroke-linejoin="round"/>
<path d="M223.233 337.491C223.468 337.674 223.442 338.18 223.203 338.359C223 338.511 222.584 338.417 222.444 338.21C222.332 338.045 222.435 337.774 222.58 337.635C222.738 337.484 223.061 337.356 223.233 337.491V337.491Z" stroke="#5555AA" stroke-width="2" stroke-linecap="round" stroke-linejoin="round"/>
<path d="M145.936 283.5L191.436 326.25L208.074 326.153C209.512 315.46 212.252 309.965 217.186 302.25L201.686 301L182.436 283.25" fill="#FFFF55"/>
<path d="M145.936 283.5L191.436 326.25L208.074 326.153C209.512 315.46 212.252 309.965 217.186 302.25L201.686 301L182.436 283.25" stroke="#5555AA" stroke-width="2" stroke-linecap="round" stroke-linejoin="round"/>
<path d="M193.248 322.5L207.81 322.535L208.22 319.535L193.779 319.469L155.936 283.156C155.363 282.608 154.343 282.63 153.795 283.203C153.247 283.776 153.269 284.796 153.842 285.344L192.154 322.094C192.445 322.368 192.849 322.518 193.248 322.5L193.248 322.5Z" fill="#000200"/>
<path d="M210.936 313.458L196.936 313.5L165.436 284" stroke="#5555AA" stroke-width="2" stroke-linecap="round" stroke-linejoin="round"/>
<path d="M212.362 308.378L214.026 305.608L200.311 305.281L177.967 283.688C177.45 282.992 176.289 282.916 175.686 283.537C175.083 284.159 175.194 285.317 175.904 285.812L198.654 307.844C198.918 308.107 199.282 308.266 199.654 308.281L212.362 308.378Z" fill="#000200"/>
<path d="M240.436 283.25L100.936 283.75" stroke="#5555AA" stroke-width="2" stroke-linecap="round" stroke-linejoin="round"/>
<path d="M186.08 384.256C186.08 384.256 185.531 380.653 185.943 378.923C186.438 376.841 187.699 374.979 188.982 373.266C189.571 372.479 191.104 372.178 191.082 371.195C191.048 369.637 189.17 367.989 187.613 368.061C185.854 368.143 184.7 370.32 184.037 371.952C183.183 374.052 183.436 376.519 183.839 378.75C184.191 380.7 186.08 384.256 186.08 384.256Z" fill="#FFFF55"/>
<path d="M180.683 379.791C180.683 379.791 179.659 377.468 179.684 376.225C179.715 374.727 180.369 373.233 181.066 371.835C181.385 371.192 182.509 370.698 182.328 370.04C182.041 368.997 180.326 368.244 179.145 368.59C177.81 368.98 177.292 370.666 177.056 371.892C176.754 373.469 177.361 375.083 178.043 376.509C178.64 377.755 180.683 379.791 180.683 379.791Z" fill="#FFFF55"/>
<path d="M175.798 374.942C175.798 374.942 174.774 372.62 174.8 371.376C174.83 369.879 175.485 368.385 176.181 366.986C176.5 366.344 177.624 365.849 177.443 365.191C177.156 364.148 175.441 363.396 174.26 363.741C172.926 364.132 172.407 365.818 172.172 367.044C171.869 368.621 172.476 370.234 173.159 371.66C173.755 372.907 175.798 374.942 175.798 374.942Z" fill="#FFFF55"/>
<path d="M200.277 393.879C200.277 393.879 199.907 392.124 200.184 391.281C200.519 390.266 201.369 389.359 202.235 388.525C202.633 388.141 203.667 387.995 203.652 387.516C203.629 386.757 202.362 385.954 201.312 385.989C200.124 386.029 199.346 387.089 198.898 387.884C198.322 388.908 198.493 390.11 198.765 391.196C199.002 392.146 200.277 393.879 200.277 393.879H200.277Z" fill="#FFFF55"/>
<path d="M196.604 393.639C196.604 393.639 195.58 391.317 195.606 390.073C195.637 388.576 196.291 387.082 196.987 385.683C197.307 385.041 198.43 384.546 198.249 383.888C197.962 382.845 196.247 382.093 195.066 382.438C193.732 382.829 193.213 384.515 192.978 385.741C192.675 387.318 193.282 388.932 193.965 390.357C194.561 391.604 196.604 393.639 196.604 393.639Z" fill="#FFFF55"/>
<path d="M191.72 388.791C191.72 388.791 190.695 386.469 190.721 385.225C190.752 383.728 191.406 382.234 192.102 380.835C192.422 380.193 193.546 379.698 193.365 379.04C193.078 377.997 191.362 377.245 190.182 377.59C188.847 377.98 188.328 379.667 188.093 380.892C187.791 382.469 188.398 384.083 189.08 385.509C189.677 386.755 191.72 388.791 191.72 388.791Z" fill="#FFFF55"/>
<path d="M169.799 369.399C169.799 369.399 169.25 365.667 169.661 363.875C170.157 361.717 171.418 359.789 172.701 358.014C173.29 357.198 174.823 356.887 174.801 355.868C174.767 354.254 172.889 352.547 171.332 352.622C169.572 352.706 168.419 354.962 167.756 356.653C166.902 358.828 167.155 361.384 167.558 363.695C167.91 365.715 169.799 369.399 169.799 369.399Z" fill="#FFFF55"/>
<path d="M164.402 364.934C164.402 364.934 163.378 362.612 163.403 361.368C163.434 359.871 164.088 358.377 164.784 356.978C165.104 356.336 166.228 355.841 166.047 355.183C165.76 354.14 164.045 353.388 162.864 353.733C161.529 354.123 161.01 355.81 160.775 357.035C160.473 358.612 161.08 360.226 161.762 361.652C162.359 362.898 164.402 364.934 164.402 364.934Z" fill="#FFFF55"/>
<path d="M159.517 360.085C159.517 360.085 158.493 357.763 158.518 356.52C158.549 355.022 159.203 353.528 159.899 352.13C160.219 351.487 161.343 350.993 161.162 350.335C160.875 349.292 159.16 348.539 157.979 348.885C156.644 349.275 156.126 350.961 155.89 352.187C155.588 353.764 156.195 355.378 156.877 356.804C157.474 358.05 159.517 360.085 159.517 360.085Z" fill="#FFFF55"/>
<path d="M153.916 355.265C153.916 355.265 153.367 351.662 153.779 349.932C154.274 347.85 155.535 345.988 156.818 344.275C157.407 343.488 158.94 343.187 158.918 342.204C158.884 340.646 157.006 338.998 155.449 339.07C153.69 339.152 152.537 341.329 151.873 342.961C151.019 345.061 151.272 347.528 151.675 349.759C152.027 351.709 153.916 355.265 153.916 355.265Z" fill="#FFFF55"/>
<path d="M149.685 350.945C149.685 350.945 148.661 348.623 148.686 347.379C148.717 345.882 149.371 344.388 150.067 342.99C150.387 342.347 151.511 341.852 151.33 341.194C151.043 340.151 149.328 339.399 148.147 339.744C146.812 340.135 146.293 341.821 146.058 343.047C145.756 344.624 146.363 346.238 147.045 347.664C147.642 348.91 149.685 350.945 149.685 350.945Z" fill="#FFFF55"/>
<path d="M145.383 346.971C145.383 346.971 144.359 344.649 144.384 343.405C144.415 341.908 145.069 340.414 145.765 339.015C146.085 338.373 147.209 337.878 147.028 337.22C146.741 336.177 145.026 335.425 143.845 335.77C142.51 336.161 141.992 337.847 141.756 339.073C141.454 340.65 142.061 342.264 142.743 343.689C143.34 344.936 145.383 346.971 145.383 346.971Z" fill="#FFFF55"/>
<path d="M139.928 341.859C139.928 341.859 139.379 338.257 139.79 336.527C140.286 334.444 141.547 332.583 142.83 330.869C143.419 330.082 144.952 329.782 144.93 328.799C144.896 327.241 143.018 325.593 141.461 325.665C139.701 325.747 138.548 327.924 137.885 329.556C137.031 331.656 137.284 334.123 137.687 336.354C138.039 338.303 139.928 341.859 139.928 341.859Z" fill="#FFFF55"/>
<path d="M135.405 337.685C135.405 337.685 134.381 335.363 134.406 334.12C134.437 332.622 135.091 331.128 135.788 329.73C136.107 329.087 137.231 328.593 137.05 327.935C136.763 326.892 135.048 326.139 133.867 326.485C132.532 326.875 132.014 328.561 131.779 329.787C131.476 331.364 132.083 332.978 132.765 334.404C133.362 335.65 135.405 337.685 135.405 337.685Z" fill="#FFFF55"/>
<path d="M130.666 333.274C130.666 333.274 129.642 330.952 129.667 329.708C129.698 328.211 130.352 326.717 131.048 325.318C131.368 324.676 132.492 324.181 132.311 323.523C132.024 322.48 130.309 321.728 129.128 322.073C127.793 322.464 127.274 324.15 127.039 325.376C126.737 326.953 127.344 328.567 128.026 329.992C128.623 331.239 130.666 333.274 130.666 333.274Z" fill="#FFFF55"/>
<path d="M124.774 329.474C124.774 329.474 124.225 325.871 124.636 324.141C125.132 322.059 126.392 320.197 127.675 318.484C128.265 317.697 129.797 317.396 129.776 316.413C129.742 314.855 127.863 313.207 126.307 313.279C124.547 313.361 123.394 315.538 122.73 317.17C121.876 319.27 122.129 321.737 122.532 323.968C122.885 325.918 124.774 329.474 124.774 329.474Z" fill="#FFFF55"/>
<path d="M120.397 325.154C120.397 325.154 119.372 322.832 119.398 321.588C119.429 320.091 120.083 318.597 120.779 317.198C121.099 316.556 122.223 316.061 122.042 315.403C121.755 314.36 120.039 313.608 118.859 313.953C117.524 314.344 117.005 316.03 116.77 317.255C116.468 318.833 117.075 320.446 117.757 321.872C118.354 323.119 120.397 325.154 120.397 325.154Z" fill="#FFFF55"/>
<path d="M99.0894 349.313C99.0894 349.313 98.4993 345.969 97.544 344.632C96.2031 342.755 93.7835 341.949 92.0306 340.45C91.598 340.08 90.9282 339.821 90.8002 339.266C90.5879 338.346 90.9785 337.115 91.7742 336.607C92.8959 335.891 94.628 336.228 95.7524 336.939C97.668 338.151 98.589 340.629 99.1652 342.821C99.7153 344.914 99.0893 349.313 99.0893 349.313H99.0894Z" fill="#FFFF55"/>
<path d="M101.038 342.436C101.038 342.436 100.198 340.943 99.7635 340.204C99.1052 339.085 98.5697 337.875 97.7469 336.87C97.1089 336.091 95.4552 335.832 95.5211 334.827C95.5974 333.664 97.1605 332.695 98.3844 332.818C99.768 332.957 100.515 334.491 101.043 335.682C101.653 337.059 101.493 338.678 101.429 340.183C101.396 340.944 101.038 342.436 101.038 342.436Z" fill="#FFFF55"/>
<path d="M102.89 337.464C102.89 337.464 102.369 335.105 101.778 334.072C101.024 332.753 99.969 331.577 98.7637 330.652C98.1834 330.206 96.9527 330.34 96.7984 329.675C96.5538 328.621 97.7035 327.142 98.906 326.884C100.265 326.591 101.525 327.826 102.316 328.792C103.333 330.034 103.568 331.742 103.648 333.321C103.717 334.701 102.89 337.464 102.89 337.464Z" fill="#FFFF55"/>
<path d="M104.049 330.243C104.049 330.243 103.459 326.899 102.503 325.562C101.163 323.685 98.743 322.88 96.9901 321.38C96.5575 321.01 95.8876 320.751 95.7597 320.196C95.5474 319.276 95.9379 318.045 96.7337 317.537C97.8553 316.821 99.5875 317.158 100.712 317.869C102.627 319.082 103.548 321.559 104.125 323.752C104.675 325.845 104.049 330.243 104.049 330.243H104.049Z" fill="#FFFF55"/>
<path d="M95.8356 359.247C95.8356 359.247 95.2004 357.823 94.8632 357.12C94.5091 356.382 94.2092 355.61 93.7603 354.925C93.0503 353.842 91.1191 353.226 91.273 351.94C91.3783 351.061 92.5264 350.274 93.4083 350.358C94.601 350.471 95.3576 351.904 95.84 353.005C96.3976 354.277 96.2522 355.774 96.1929 357.165C96.1629 357.869 95.8356 359.247 95.8356 359.247Z" fill="#FFFF55"/>
<path d="M96.8954 353.11C96.8954 353.11 96.4568 351.301 95.9596 350.509C95.3248 349.497 94.4376 348.596 93.4235 347.886C92.9354 347.544 91.9 347.647 91.7701 347.137C91.5643 346.329 92.5316 345.195 93.5433 344.997C94.6869 344.772 95.7467 345.719 96.4119 346.46C97.2679 347.413 97.4657 348.722 97.5324 349.933C97.5908 350.991 96.8954 353.11 96.8954 353.11Z" fill="#FFFF55"/>
<path d="M93.9868 365.075C93.9868 365.075 93.4459 361.994 92.5702 360.762C91.3411 359.033 89.1234 358.291 87.5167 356.91C87.1202 356.569 86.5062 356.33 86.3889 355.819C86.1943 354.971 86.5523 353.836 87.2817 353.368C88.3098 352.708 89.8974 353.019 90.9281 353.674C92.6839 354.791 93.5281 357.074 94.0563 359.094C94.5605 361.023 93.9867 365.075 93.9867 365.075H93.9868Z" fill="#FFFF55"/>
<path d="M90.914 375.01C90.914 375.01 90.1186 373.645 89.7481 372.947C89.2818 372.069 89.02 371.07 88.4188 370.278C87.7262 369.366 85.8007 369.12 85.8677 367.977C85.9304 366.909 87.3673 366.007 88.4867 366.12C89.7522 366.249 90.4359 367.666 90.9183 368.767C91.476 370.04 91.3305 371.537 91.2712 372.928C91.2412 373.631 90.914 375.01 90.914 375.01Z" fill="#FFFF55"/>
<path d="M92.1798 369.182C92.1798 369.182 91.7411 367.373 91.244 366.581C90.6091 365.569 89.7219 364.667 88.7079 363.958C88.2197 363.616 87.1843 363.719 87.0544 363.209C86.8486 362.401 87.8159 361.267 88.8276 361.068C89.9713 360.844 91.031 361.791 91.6962 362.532C92.5522 363.484 92.75 364.794 92.8167 366.005C92.8751 367.063 92.1798 369.182 92.1798 369.182Z" fill="#FFFF55"/>
<path d="M89.8538 383.161C89.8538 383.161 89.2637 379.816 88.3084 378.479C86.9674 376.603 84.5479 375.797 82.795 374.298C82.3624 373.928 81.6925 373.668 81.5646 373.114C81.3523 372.194 81.7429 370.962 82.5386 370.454C83.6602 369.738 85.3924 370.075 86.5168 370.787C88.4323 371.999 89.3534 374.477 89.9296 376.669C90.4797 378.762 89.8537 383.161 89.8537 383.161H89.8538Z" fill="#FFFF55"/>
<path d="M86.5088 390.45C86.5088 390.45 85.5698 389.952 85.1606 389.619C84.5686 389.136 84.1317 388.489 83.5896 387.951C82.9326 387.299 81.5592 386.988 81.5537 386.062C81.5497 385.34 82.402 384.575 83.1239 384.57C84.3111 384.562 85.1464 385.96 85.7379 386.989C86.0424 387.519 86.0036 388.182 86.1364 388.778C86.2606 389.336 86.5088 390.45 86.5088 390.45Z" fill="#FFFF55"/>
<path d="M87.6598 386.958C87.6598 386.958 87.2212 385.148 86.724 384.356C86.0892 383.345 85.202 382.443 84.1879 381.734C83.6998 381.392 82.6644 381.494 82.5345 380.985C82.3287 380.177 83.296 379.043 84.3077 378.844C85.4514 378.62 86.5111 379.567 87.1763 380.307C88.0323 381.26 88.2301 382.57 88.2968 383.781C88.3552 384.839 87.6598 386.958 87.6598 386.958Z" fill="#FFFF55"/>
<path d="M107.686 318C111.329 317.975 113.976 315.166 115.592 311.938C117.207 308.709 117.989 304.864 117.936 301.719C117.883 298.612 116.983 294.877 115.279 291.75C113.576 288.623 110.878 285.929 107.279 286C103.7 286.07 101.151 288.861 99.5918 292.031C98.0328 295.202 97.2813 298.928 97.3105 302C97.34 305.104 98.1745 308.884 99.8105 312.063C101.447 315.241 104.067 318.025 107.686 318ZM107.686 315C105.637 315.014 103.838 313.383 102.467 310.719C101.095 308.054 100.335 304.563 100.311 302C100.286 299.47 100.975 295.995 102.279 293.344C103.583 290.692 105.32 289.04 107.342 289C109.383 288.96 111.198 290.572 112.623 293.188C114.048 295.803 114.892 299.249 114.936 301.781C114.979 304.352 114.259 307.886 112.904 310.594C111.55 313.301 109.759 314.986 107.686 315Z" fill="#FFFF55"/>
<path d="M108.936 301.5C108.936 301.5 111.414 303.443 112.686 303C113.32 302.779 113.775 301.916 113.686 301.25C113.568 300.374 112.692 299.441 111.811 299.375C110.622 299.286 108.936 301.5 108.936 301.5Z" fill="#FFFF55"/>
<path d="M106.311 301.75C106.311 301.75 105.239 303.956 104.186 304.25C103.297 304.498 101.848 304.251 101.561 303.375C101.29 302.551 102.263 301.589 103.061 301.25C104.069 300.821 106.311 301.75 106.311 301.75Z" fill="#FFFF55"/>
<path d="M108.186 304.125C108.186 304.125 111.558 306.264 111.686 308C111.796 309.498 110.675 311.556 109.186 311.75C107.751 311.936 106.226 310.292 105.936 308.875C105.584 307.159 108.186 304.125 108.186 304.125Z" fill="#FFFF55"/>
<path d="M107.935 299.125C107.935 299.125 110.014 295.818 109.56 294.125C109.27 293.042 108.18 291.811 107.06 291.875C105.616 291.957 104.165 293.679 104.185 295.125C104.212 296.952 107.935 299.125 107.935 299.125Z" fill="#FFFF55"/>
<path d="M244.478 309.509L230.216 316.379L236.688 301.402C236.688 301.402 235.612 304.667 236.652 305.606C237.829 306.67 241.381 305.085 241.381 305.085C241.381 305.085 239.846 308.083 240.692 309.178C241.467 310.18 244.478 309.509 244.478 309.509H244.478Z" fill="#5555AA" stroke="#5555AA" stroke-width="2" stroke-linecap="round" stroke-linejoin="round"/>
<path d="M234.537 318.4C234.847 318.462 235.058 319.049 234.842 319.274C234.632 319.494 234.033 319.335 233.943 319.047C233.857 318.77 234.245 318.343 234.537 318.4Z" stroke="#5555AA" stroke-width="2" stroke-linecap="round" stroke-linejoin="round"/>
<path d="M228.264 311.705C228.499 311.885 228.473 312.381 228.234 312.557C228.031 312.707 227.615 312.614 227.475 312.411C227.363 312.249 227.466 311.983 227.611 311.847C227.769 311.698 228.091 311.572 228.264 311.705V311.705Z" stroke="#5555AA" stroke-width="2" stroke-linecap="round" stroke-linejoin="round"/>
<path d="M253.791 323.643L240.291 329.393L245.541 314.143C245.541 314.143 245.491 317.611 246.729 318.424C247.802 319.128 250.541 317.893 250.541 317.893C250.541 317.893 248.807 321.329 249.699 322.683C250.471 323.852 253.791 323.643 253.791 323.643Z" fill="#5555AA" stroke="#5555AA" stroke-width="2" stroke-linecap="round" stroke-linejoin="round"/>
<path d="M244.613 331.451C244.923 331.513 245.134 332.111 244.919 332.341C244.708 332.565 244.109 332.403 244.019 332.109C243.933 331.828 244.321 331.393 244.613 331.451Z" stroke="#5555AA" stroke-width="2" stroke-linecap="round" stroke-linejoin="round"/>
<path d="M238.339 324.633C238.574 324.817 238.548 325.322 238.309 325.501C238.106 325.654 237.69 325.559 237.55 325.352C237.438 325.187 237.541 324.917 237.686 324.778C237.844 324.627 238.166 324.498 238.339 324.633V324.633Z" stroke="#5555AA" stroke-width="2" stroke-linecap="round" stroke-linejoin="round"/>
<path d="M268.242 286.919L254.755 294.438L258.883 280.252C258.883 280.252 258.598 283.623 259.816 284.235C261.324 284.991 264.455 282.216 264.455 282.216C264.455 282.216 262.072 285.704 263.09 287.023C264.139 288.383 268.242 286.919 268.242 286.919Z" fill="#5555AA" stroke="#5555AA" stroke-width="2" stroke-linecap="round" stroke-linejoin="round"/>
<path d="M257.331 296.235C257.576 296.293 257.741 296.849 257.572 297.062C257.406 297.271 256.935 297.12 256.865 296.847C256.797 296.586 257.102 296.181 257.331 296.235Z" stroke="#5555AA" stroke-width="2" stroke-linecap="round" stroke-linejoin="round"/>
<path d="M252.223 290.421C252.408 290.592 252.387 291.062 252.199 291.229C252.04 291.37 251.713 291.282 251.603 291.09C251.515 290.936 251.596 290.685 251.71 290.555C251.834 290.415 252.088 290.295 252.223 290.421V290.421Z" stroke="#5555AA" stroke-width="2" stroke-linecap="round" stroke-linejoin="round"/>
<path d="M304.703 275.206L291.203 280.956L296.453 265.706C296.453 265.706 296.403 269.174 297.641 269.987C298.713 270.691 301.453 269.456 301.453 269.456C301.453 269.456 299.718 272.893 300.611 274.246C301.383 275.415 304.703 275.206 304.703 275.206Z" fill="#5555AA" stroke="#5555AA" stroke-width="2" stroke-linecap="round" stroke-linejoin="round"/>
<path d="M295.524 283.014C295.835 283.077 296.046 283.675 295.83 283.904C295.619 284.128 295.02 283.966 294.931 283.673C294.844 283.391 295.233 282.956 295.524 283.014Z" stroke="#5555AA" stroke-width="2" stroke-linecap="round" stroke-linejoin="round"/>
<path d="M289.251 276.196C289.486 276.38 289.459 276.886 289.22 277.065C289.017 277.217 288.601 277.122 288.461 276.916C288.35 276.751 288.452 276.48 288.598 276.341C288.755 276.19 289.078 276.061 289.251 276.196V276.196Z" stroke="#5555AA" stroke-width="2" stroke-linecap="round" stroke-linejoin="round"/>
<path d="M289.147 264.069L275.647 269.819L280.897 254.569C280.897 254.569 280.846 258.037 282.084 258.85C283.157 259.554 285.897 258.319 285.897 258.319C285.897 258.319 284.162 261.756 285.055 263.109C285.826 264.278 289.147 264.069 289.147 264.069Z" fill="#5555AA" stroke="#5555AA" stroke-width="2" stroke-linecap="round" stroke-linejoin="round"/>
<path d="M279.968 271.877C280.279 271.94 280.49 272.538 280.274 272.767C280.063 272.992 279.464 272.829 279.374 272.536C279.288 272.254 279.677 271.819 279.968 271.877Z" stroke="#5555AA" stroke-width="2" stroke-linecap="round" stroke-linejoin="round"/>
<path d="M273.694 265.06C273.93 265.243 273.903 265.749 273.664 265.928C273.461 266.08 273.045 265.985 272.905 265.779C272.793 265.614 272.896 265.343 273.042 265.204C273.199 265.053 273.522 264.924 273.694 265.06V265.06Z" stroke="#5555AA" stroke-width="2" stroke-linecap="round" stroke-linejoin="round"/>
<path d="M61.1855 31H331.186V391" stroke="#5555AA" stroke-width="2"/>
<path d="M31.1855 151V511H301.186" stroke="#5555AA" stroke-width="2"/>
<path d="M96.1855 102C97.1855 106 101.186 116 108.186 116C117.186 116 121.186 108 121.186 98C121.186 91 118.607 86.3877 116.186 81C113.608 75.2633 109.806 70.1426 106.186 65C101.54 58.4021 91.1855 46 91.1855 46C91.1855 46 80.8308 58.4021 76.1855 65C72.5649 70.1426 68.7634 75.2633 66.1855 81C63.7645 86.3877 61.1855 91 61.1855 98C61.1855 108 65.1855 116 74.1855 116C81.1855 116 85.1855 106 86.1855 102C87.1855 101 87.1855 102 87.1855 103C86.1855 111 86.1855 113 85.1855 119C84.1855 125 81.1855 136 81.1855 136C86.1855 134 96.1855 134 101.186 136C101.186 136 98.1855 125 97.1855 119C96.1855 113 96.1855 111 95.1855 103C95.1855 102 95.1855 101 96.1855 102Z" fill="black"/>
<path d="M33.6855 119C34.1855 121 36.1855 126 39.6855 126C44.1855 126 46.1855 122 46.1855 117C46.1855 113.5 44.8961 111.194 43.6855 108.5C42.3966 105.632 40.4959 103.071 38.6855 100.5C36.3629 97.201 31.1855 91 31.1855 91C31.1855 91 26.0082 97.201 23.6855 100.5C21.8752 103.071 19.9745 105.632 18.6855 108.5C17.475 111.194 16.1855 113.5 16.1855 117C16.1855 122 18.1855 126 22.6855 126C26.1855 126 28.1855 121 28.6855 119C29.1855 118.5 29.1855 119 29.1855 119.5C28.6855 123.5 28.6855 124.5 28.1855 127.5C27.6855 130.5 26.1855 136 26.1855 136C28.6855 135 33.6855 135 36.1855 136C36.1855 136 34.6855 130.5 34.1855 127.5C33.6855 124.5 33.6855 123.5 33.1855 119.5C33.1855 119 33.1855 118.5 33.6855 119Z" fill="black"/>
<path d="M266.186 440C265.186 436 261.186 426 254.186 426C245.186 426 241.186 434 241.186 444C241.186 451 243.764 455.612 246.186 461C248.763 466.737 252.565 471.857 256.186 477C260.831 483.598 271.186 496 271.186 496C271.186 496 281.54 483.598 286.186 477C289.806 471.857 293.608 466.737 296.186 461C298.607 455.612 301.186 451 301.186 444C301.186 434 297.186 426 288.186 426C281.186 426 277.186 436 276.186 440C275.186 441 275.186 440 275.186 439C276.186 431 276.186 429 277.186 423C278.186 417 281.186 406 281.186 406C276.186 408 266.186 408 261.186 406C261.186 406 264.186 417 265.186 423C266.186 429 266.186 431 267.186 439C267.186 440 267.186 441 266.186 440Z" fill="black"/>
<path d="M328.686 423C328.186 421 326.186 416 322.686 416C318.186 416 316.186 420 316.186 425C316.186 428.5 317.475 430.806 318.686 433.5C319.974 436.368 321.875 438.929 323.686 441.5C326.008 444.799 331.186 451 331.186 451C331.186 451 336.363 444.799 338.686 441.5C340.496 438.929 342.397 436.368 343.686 433.5C344.896 430.806 346.186 428.5 346.186 425C346.186 420 344.186 416 339.686 416C336.186 416 334.186 421 333.686 423C333.186 423.5 333.186 423 333.186 422.5C333.686 418.5 333.686 417.5 334.186 414.5C334.686 411.5 336.186 406 336.186 406C333.686 407 328.686 407 326.186 406C326.186 406 327.686 411.5 328.186 414.5C328.686 417.5 328.686 418.5 329.186 422.5C329.186 423 329.186 423.5 328.686 423Z" fill="black"/>
</svg>
