<svg width="362" height="542" viewBox="0 0 362 542" fill="none" xmlns="http://www.w3.org/2000/svg">
<path d="M330.741 1.5H31.63C15.0921 1.5 1.68555 14.9066 1.68555 31.4445V510.556C1.68555 527.093 15.0921 540.5 31.63 540.5H330.741C347.279 540.5 360.686 527.093 360.686 510.556V31.4445C360.686 14.9066 347.279 1.5 330.741 1.5Z" stroke="black" stroke-width="2.5"/>
<path d="M16.1855 31L11.1855 38V45L16.1855 38V81H21.1855V31H16.1855Z" fill="black"/>
<path d="M36.1855 31C30.6455 31 26.1855 35.46 26.1855 41V71C26.1855 76.54 30.6455 81 36.1855 81C41.7255 81 46.1855 76.54 46.1855 71V41C46.1855 35.46 41.7255 31 36.1855 31ZM36.1855 36C38.9555 36 41.1855 38.23 41.1855 41V71C41.1855 73.77 38.9555 76 36.1855 76C33.4155 76 31.1855 73.77 31.1855 71V41C31.1855 38.23 33.4155 36 36.1855 36Z" fill="black"/>
<path d="M346.186 511L351.186 504V497L346.186 504V461H341.186V511H346.186Z" fill="black"/>
<path d="M326.186 511C331.726 511 336.186 506.54 336.186 501V471C336.186 465.46 331.726 461 326.186 461C320.646 461 316.186 465.46 316.186 471V501C316.186 506.54 320.646 511 326.186 511ZM326.186 506C323.416 506 321.186 503.77 321.186 501V471C321.186 468.23 323.416 466 326.186 466C328.956 466 331.186 468.23 331.186 471V501C331.186 503.77 328.956 506 326.186 506Z" fill="black"/>
<path d="M33.6855 119C34.6855 121 37.1855 124 39.6855 124C44.1855 124 46.1855 120 46.1855 115C46.1855 110 44.1855 105.5 39.6855 105.5C37.1855 105.5 35.6855 108 34.1855 109.5C33.6855 110 33.1855 109.5 33.6855 109C35.1855 107.5 37.6855 103.5 37.6855 100C37.6855 96 35.1855 91 31.1855 91C27.1855 91 24.6855 96 24.6855 100C24.6855 103.5 27.1855 107.5 28.6855 109C29.1855 109.5 28.6855 110 28.1855 109.5C26.6855 108 25.1855 105.5 22.6855 105.5C18.1855 105.5 16.1855 110 16.1855 115C16.1855 120 18.1855 124 22.6855 124C25.1855 124 27.6855 121 28.6855 119C29.1855 118.5 29.1855 119 29.1855 119.5C28.6855 123.5 28.6855 124.5 28.1855 127.5C27.6855 130.5 26.1855 136 26.1855 136C28.6855 135 33.6855 135 36.1855 136C36.1855 136 34.6855 130.5 34.1855 127.5C33.6855 124.5 33.6855 123.5 33.1855 119.5C33.1855 119 33.1855 118.5 33.6855 119Z" fill="black"/>
<path d="M333.686 423C334.686 421 337.186 418 339.686 418C344.186 418 346.186 422 346.186 427C346.186 432 344.186 436.5 339.686 436.5C337.186 436.5 335.686 434 334.186 432.5C333.686 432 333.186 432.5 333.686 433C335.186 434.5 337.686 438.5 337.686 442C337.686 446 335.186 451 331.186 451C327.186 451 324.686 446 324.686 442C324.686 438.5 327.186 434.5 328.686 433C329.186 432.5 328.686 432 328.186 432.5C326.686 434 325.186 436.5 322.686 436.5C318.186 436.5 316.186 432 316.186 427C316.186 422 318.186 418 322.686 418C325.186 418 327.686 421 328.686 423C329.186 423.5 329.186 423 329.186 422.5C328.686 418.5 328.686 417.5 328.186 414.5C327.686 411.5 326.186 406 326.186 406C328.686 407 333.686 407 336.186 406C336.186 406 334.686 411.5 334.186 414.5C333.686 417.5 333.686 418.5 333.186 422.5C333.186 423 333.186 423.5 333.686 423Z" fill="black"/>
<path d="M96.1855 102C98.1855 106 103.186 112 108.186 112C117.186 112 121.186 104 121.186 94C121.186 84 117.186 75 108.186 75C103.186 75 100.186 80 97.1855 83C96.1855 84 95.1855 83 96.1855 82C99.1855 79 104.186 71 104.186 64C104.186 56 99.1855 46 91.1855 46C83.1855 46 78.1855 56 78.1855 64C78.1855 71 83.1855 79 86.1855 82C87.1855 83 86.1855 84 85.1855 83C82.1855 80 79.1855 75 74.1855 75C65.1855 75 61.1855 84 61.1855 94C61.1855 104 65.1855 112 74.1855 112C79.1855 112 84.1855 106 86.1855 102C87.1855 101 87.1855 102 87.1855 103C86.1855 111 86.1855 113 85.1855 119C84.1855 125 81.1855 136 81.1855 136C86.1855 134 96.1855 134 101.186 136C101.186 136 98.1855 125 97.1855 119C96.1855 113 96.1855 111 95.1855 103C95.1855 102 95.1855 101 96.1855 102Z" fill="black"/>
<path d="M276.186 102C278.186 106 283.186 112 288.186 112C297.186 112 301.186 104 301.186 94C301.186 84 297.186 75 288.186 75C283.186 75 280.186 80 277.186 83C276.186 84 275.186 83 276.186 82C279.186 79 284.186 71 284.186 64C284.186 56 279.186 46 271.186 46C263.186 46 258.186 56 258.186 64C258.186 71 263.186 79 266.186 82C267.186 83 266.186 84 265.186 83C262.186 80 259.186 75 254.186 75C245.186 75 241.186 84 241.186 94C241.186 104 245.186 112 254.186 112C259.186 112 264.186 106 266.186 102C267.186 101 267.186 102 267.186 103C266.186 111 266.186 113 265.186 119C264.186 125 261.186 136 261.186 136C266.186 134 276.186 134 281.186 136C281.186 136 278.186 125 277.186 119C276.186 113 276.186 111 275.186 103C275.186 102 275.186 101 276.186 102Z" fill="black"/>
<path d="M186.186 162C188.186 166 193.186 172 198.186 172C207.186 172 211.186 164 211.186 154C211.186 144 207.186 135 198.186 135C193.186 135 190.186 140 187.186 143C186.186 144 185.186 143 186.186 142C189.186 139 194.186 131 194.186 124C194.186 116 189.186 106 181.186 106C173.186 106 168.186 116 168.186 124C168.186 131 173.186 139 176.186 142C177.186 143 176.186 144 175.186 143C172.186 140 169.186 135 164.186 135C155.186 135 151.186 144 151.186 154C151.186 164 155.186 172 164.186 172C169.186 172 174.186 166 176.186 162C177.186 161 177.186 162 177.186 163C176.186 171 176.186 173 175.186 179C174.186 185 171.186 196 171.186 196C176.186 194 186.186 194 191.186 196C191.186 196 188.186 185 187.186 179C186.186 173 186.186 171 185.186 163C185.186 162 185.186 161 186.186 162Z" fill="black"/>
<path d="M96.1855 222C98.1855 226 103.186 232 108.186 232C117.186 232 121.186 224 121.186 214C121.186 204 117.186 195 108.186 195C103.186 195 100.186 200 97.1855 203C96.1855 204 95.1855 203 96.1855 202C99.1855 199 104.186 191 104.186 184C104.186 176 99.1855 166 91.1855 166C83.1855 166 78.1855 176 78.1855 184C78.1855 191 83.1855 199 86.1855 202C87.1855 203 86.1855 204 85.1855 203C82.1855 200 79.1855 195 74.1855 195C65.1855 195 61.1855 204 61.1855 214C61.1855 224 65.1855 232 74.1855 232C79.1855 232 84.1855 226 86.1855 222C87.1855 221 87.1855 222 87.1855 223C86.1855 231 86.1855 233 85.1855 239C84.1855 245 81.1855 256 81.1855 256C86.1855 254 96.1855 254 101.186 256C101.186 256 98.1855 245 97.1855 239C96.1855 233 96.1855 231 95.1855 223C95.1855 222 95.1855 221 96.1855 222Z" fill="black"/>
<path d="M276.186 222C278.186 226 283.186 232 288.186 232C297.186 232 301.186 224 301.186 214C301.186 204 297.186 195 288.186 195C283.186 195 280.186 200 277.186 203C276.186 204 275.186 203 276.186 202C279.186 199 284.186 191 284.186 184C284.186 176 279.186 166 271.186 166C263.186 166 258.186 176 258.186 184C258.186 191 263.186 199 266.186 202C267.186 203 266.186 204 265.186 203C262.186 200 259.186 195 254.186 195C245.186 195 241.186 204 241.186 214C241.186 224 245.186 232 254.186 232C259.186 232 264.186 226 266.186 222C267.186 221 267.186 222 267.186 223C266.186 231 266.186 233 265.186 239C264.186 245 261.186 256 261.186 256C266.186 254 276.186 254 281.186 256C281.186 256 278.186 245 277.186 239C276.186 233 276.186 231 275.186 223C275.186 222 275.186 221 276.186 222Z" fill="black"/>
<path d="M96.1855 320C98.1855 316 103.186 310 108.186 310C117.186 310 121.186 318 121.186 328C121.186 338 117.186 347 108.186 347C103.186 347 100.186 342 97.1855 339C96.1855 338 95.1855 339 96.1855 340C99.1855 343 104.186 351 104.186 358C104.186 366 99.1855 376 91.1855 376C83.1855 376 78.1855 366 78.1855 358C78.1855 351 83.1855 343 86.1855 340C87.1855 339 86.1855 338 85.1855 339C82.1855 342 79.1855 347 74.1855 347C65.1855 347 61.1855 338 61.1855 328C61.1855 318 65.1855 310 74.1855 310C79.1855 310 84.1855 316 86.1855 320C87.1855 321 87.1855 320 87.1855 319C86.1855 311 86.1855 309 85.1855 303C84.1855 297 81.1855 286 81.1855 286C86.1855 288 96.1855 288 101.186 286C101.186 286 98.1855 297 97.1855 303C96.1855 309 96.1855 311 95.1855 319C95.1855 320 95.1855 321 96.1855 320Z" fill="black"/>
<path d="M276.186 320C278.186 316 283.186 310 288.186 310C297.186 310 301.186 318 301.186 328C301.186 338 297.186 347 288.186 347C283.186 347 280.186 342 277.186 339C276.186 338 275.186 339 276.186 340C279.186 343 284.186 351 284.186 358C284.186 366 279.186 376 271.186 376C263.186 376 258.186 366 258.186 358C258.186 351 263.186 343 266.186 340C267.186 339 266.186 338 265.186 339C262.186 342 259.186 347 254.186 347C245.186 347 241.186 338 241.186 328C241.186 318 245.186 310 254.186 310C259.186 310 264.186 316 266.186 320C267.186 321 267.186 320 267.186 319C266.186 311 266.186 309 265.186 303C264.186 297 261.186 286 261.186 286C266.186 288 276.186 288 281.186 286C281.186 286 278.186 297 277.186 303C276.186 309 276.186 311 275.186 319C275.186 320 275.186 321 276.186 320Z" fill="black"/>
<path d="M186.186 380C188.186 376 193.186 370 198.186 370C207.186 370 211.186 378 211.186 388C211.186 398 207.186 407 198.186 407C193.186 407 190.186 402 187.186 399C186.186 398 185.186 399 186.186 400C189.186 403 194.186 411 194.186 418C194.186 426 189.186 436 181.186 436C173.186 436 168.186 426 168.186 418C168.186 411 173.186 403 176.186 400C177.186 399 176.186 398 175.186 399C172.186 402 169.186 407 164.186 407C155.186 407 151.186 398 151.186 388C151.186 378 155.186 370 164.186 370C169.186 370 174.186 376 176.186 380C177.186 381 177.186 380 177.186 379C176.186 371 176.186 369 175.186 363C174.186 357 171.186 346 171.186 346C176.186 348 186.186 348 191.186 346C191.186 346 188.186 357 187.186 363C186.186 369 186.186 371 185.186 379C185.186 380 185.186 381 186.186 380Z" fill="black"/>
<path d="M96.1855 440C98.1855 436 103.186 430 108.186 430C117.186 430 121.186 438 121.186 448C121.186 458 117.186 467 108.186 467C103.186 467 100.186 462 97.1855 459C96.1855 458 95.1855 459 96.1855 460C99.1855 463 104.186 471 104.186 478C104.186 486 99.1855 496 91.1855 496C83.1855 496 78.1855 486 78.1855 478C78.1855 471 83.1855 463 86.1855 460C87.1855 459 86.1855 458 85.1855 459C82.1855 462 79.1855 467 74.1855 467C65.1855 467 61.1855 458 61.1855 448C61.1855 438 65.1855 430 74.1855 430C79.1855 430 84.1855 436 86.1855 440C87.1855 441 87.1855 440 87.1855 439C86.1855 431 86.1855 429 85.1855 423C84.1855 417 81.1855 406 81.1855 406C86.1855 408 96.1855 408 101.186 406C101.186 406 98.1855 417 97.1855 423C96.1855 429 96.1855 431 95.1855 439C95.1855 440 95.1855 441 96.1855 440Z" fill="black"/>
<path d="M276.186 440C278.186 436 283.186 430 288.186 430C297.186 430 301.186 438 301.186 448C301.186 458 297.186 467 288.186 467C283.186 467 280.186 462 277.186 459C276.186 458 275.186 459 276.186 460C279.186 463 284.186 471 284.186 478C284.186 486 279.186 496 271.186 496C263.186 496 258.186 486 258.186 478C258.186 471 263.186 463 266.186 460C267.186 459 266.186 458 265.186 459C262.186 462 259.186 467 254.186 467C245.186 467 241.186 458 241.186 448C241.186 438 245.186 430 254.186 430C259.186 430 264.186 436 266.186 440C267.186 441 267.186 440 267.186 439C266.186 431 266.186 429 265.186 423C264.186 417 261.186 406 261.186 406C266.186 408 276.186 408 281.186 406C281.186 406 278.186 417 277.186 423C276.186 429 276.186 431 275.186 439C275.186 440 275.186 441 276.186 440Z" fill="black"/>
</svg>
