<svg width="362" height="542" viewBox="0 0 362 542" fill="none" xmlns="http://www.w3.org/2000/svg">
<path d="M330.741 1.5H31.63C15.0921 1.5 1.68555 14.9066 1.68555 31.4445V510.556C1.68555 527.093 15.0921 540.5 31.63 540.5H330.741C347.279 540.5 360.686 527.093 360.686 510.556V31.4445C360.686 14.9066 347.279 1.5 330.741 1.5Z" stroke="black" stroke-width="2.5"/>
<path d="M16.1855 31L11.1855 38V45L16.1855 38V81H21.1855V31H16.1855Z" fill="#FF5555"/>
<path d="M36.1855 31C30.6455 31 26.1855 35.46 26.1855 41V71C26.1855 76.54 30.6455 81 36.1855 81C41.7255 81 46.1855 76.54 46.1855 71V41C46.1855 35.46 41.7255 31 36.1855 31ZM36.1855 36C38.9555 36 41.1855 38.23 41.1855 41V71C41.1855 73.77 38.9555 76 36.1855 76C33.4155 76 31.1855 73.77 31.1855 71V41C31.1855 38.23 33.4155 36 36.1855 36Z" fill="#FF5555"/>
<path d="M346.186 511L351.186 504V497L346.186 504V461H341.186V511H346.186Z" fill="#FF5555"/>
<path d="M326.186 511C331.726 511 336.186 506.54 336.186 501V471C336.186 465.46 331.726 461 326.186 461C320.646 461 316.186 465.46 316.186 471V501C316.186 506.54 320.646 511 326.186 511ZM326.186 506C323.416 506 321.186 503.77 321.186 501V471C321.186 468.23 323.416 466 326.186 466C328.956 466 331.186 468.23 331.186 471V501C331.186 503.77 328.956 506 326.186 506Z" fill="#FF5555"/>
<path d="M91.1855 46C91.1855 46 97.1855 61 104.186 71C111.186 81 121.186 91 121.186 91C121.186 91 111.186 101 104.186 111C97.1855 121 91.1855 136 91.1855 136C91.1855 136 85.1855 121 78.1855 111C71.1855 101 61.1855 91 61.1855 91C61.1855 91 71.1855 81 78.1855 71C85.1855 61 91.1855 46 91.1855 46Z" fill="#FF5555"/>
<path d="M271.186 46C271.186 46 277.186 61 284.186 71C291.186 81 301.186 91 301.186 91C301.186 91 291.186 101 284.186 111C277.186 121 271.186 136 271.186 136C271.186 136 265.186 121 258.186 111C251.186 101 241.186 91 241.186 91C241.186 91 251.186 81 258.186 71C265.186 61 271.186 46 271.186 46Z" fill="#FF5555"/>
<path d="M181.186 106C181.186 106 187.186 121 194.186 131C201.186 141 211.186 151 211.186 151C211.186 151 201.186 161 194.186 171C187.186 181 181.186 196 181.186 196C181.186 196 175.186 181 168.186 171C161.186 161 151.186 151 151.186 151C151.186 151 161.186 141 168.186 131C175.186 121 181.186 106 181.186 106Z" fill="#FF5555"/>
<path d="M91.1855 166C91.1855 166 97.1855 181 104.186 191C111.186 201 121.186 211 121.186 211C121.186 211 111.186 221 104.186 231C97.1855 241 91.1855 256 91.1855 256C91.1855 256 85.1855 241 78.1855 231C71.1855 221 61.1855 211 61.1855 211C61.1855 211 71.1855 201 78.1855 191C85.1855 181 91.1855 166 91.1855 166Z" fill="#FF5555"/>
<path d="M271.186 166C271.186 166 277.186 181 284.186 191C291.186 201 301.186 211 301.186 211C301.186 211 291.186 221 284.186 231C277.186 241 271.186 256 271.186 256C271.186 256 265.186 241 258.186 231C251.186 221 241.186 211 241.186 211C241.186 211 251.186 201 258.186 191C265.186 181 271.186 166 271.186 166Z" fill="#FF5555"/>
<path d="M91.1855 286C91.1855 286 97.1855 301 104.186 311C111.186 321 121.186 331 121.186 331C121.186 331 111.186 341 104.186 351C97.1855 361 91.1855 376 91.1855 376C91.1855 376 85.1855 361 78.1855 351C71.1855 341 61.1855 331 61.1855 331C61.1855 331 71.1855 321 78.1855 311C85.1855 301 91.1855 286 91.1855 286Z" fill="#FF5555"/>
<path d="M271.186 286C271.186 286 277.186 301 284.186 311C291.186 321 301.186 331 301.186 331C301.186 331 291.186 341 284.186 351C277.186 361 271.186 376 271.186 376C271.186 376 265.186 361 258.186 351C251.186 341 241.186 331 241.186 331C241.186 331 251.186 321 258.186 311C265.186 301 271.186 286 271.186 286Z" fill="#FF5555"/>
<path d="M181.186 346C181.186 346 187.186 361 194.186 371C201.186 381 211.186 391 211.186 391C211.186 391 201.186 401 194.186 411C187.186 421 181.186 436 181.186 436C181.186 436 175.186 421 168.186 411C161.186 401 151.186 391 151.186 391C151.186 391 161.186 381 168.186 371C175.186 361 181.186 346 181.186 346Z" fill="#FF5555"/>
<path d="M91.1855 406C91.1855 406 97.1855 421 104.186 431C111.186 441 121.186 451 121.186 451C121.186 451 111.186 461 104.186 471C97.1855 481 91.1855 496 91.1855 496C91.1855 496 85.1855 481 78.1855 471C71.1855 461 61.1855 451 61.1855 451C61.1855 451 71.1855 441 78.1855 431C85.1855 421 91.1855 406 91.1855 406Z" fill="#FF5555"/>
<path d="M271.186 406C271.186 406 277.186 421 284.186 431C291.186 441 301.186 451 301.186 451C301.186 451 291.186 461 284.186 471C277.186 481 271.186 496 271.186 496C271.186 496 265.186 481 258.186 471C251.186 461 241.186 451 241.186 451C241.186 451 251.186 441 258.186 431C265.186 421 271.186 406 271.186 406Z" fill="#FF5555"/>
<path d="M31.1855 91C31.1855 91 34.1855 98.5 37.6855 103.5C41.1855 108.5 46.1855 113.5 46.1855 113.5C46.1855 113.5 41.1855 118.5 37.6855 123.5C34.1855 128.5 31.1855 136 31.1855 136C31.1855 136 28.1855 128.5 24.6855 123.5C21.1855 118.5 16.1855 113.5 16.1855 113.5C16.1855 113.5 21.1855 108.5 24.6855 103.5C28.1855 98.5 31.1855 91 31.1855 91Z" fill="#FF5555"/>
<path d="M331.186 406C331.186 406 334.186 413.5 337.686 418.5C341.186 423.5 346.186 428.5 346.186 428.5C346.186 428.5 341.186 433.5 337.686 438.5C334.186 443.5 331.186 451 331.186 451C331.186 451 328.186 443.5 324.686 438.5C321.186 433.5 316.186 428.5 316.186 428.5C316.186 428.5 321.186 423.5 324.686 418.5C328.186 413.5 331.186 406 331.186 406Z" fill="#FF5555"/>
</svg>
