<svg width="362" height="542" viewBox="0 0 362 542" fill="none" xmlns="http://www.w3.org/2000/svg">
<path d="M330.741 1.5H31.63C15.0921 1.5 1.68555 14.9066 1.68555 31.4445V510.556C1.68555 527.093 15.0921 540.5 31.63 540.5H330.741C347.279 540.5 360.686 527.093 360.686 510.556V31.4445C360.686 14.9066 347.279 1.5 330.741 1.5Z" stroke="black" stroke-width="2.5"/>
<path d="M16.1855 31L11.1855 38V45L16.1855 38V81H21.1855V31H16.1855Z" fill="#FF5555"/>
<path d="M36.1855 31C30.6455 31 26.1855 35.46 26.1855 41V71C26.1855 76.54 30.6455 81 36.1855 81C41.7255 81 46.1855 76.54 46.1855 71V41C46.1855 35.46 41.7255 31 36.1855 31ZM36.1855 36C38.9555 36 41.1855 38.23 41.1855 41V71C41.1855 73.77 38.9555 76 36.1855 76C33.4155 76 31.1855 73.77 31.1855 71V41C31.1855 38.23 33.4155 36 36.1855 36Z" fill="#FF5555"/>
<path d="M346.186 511L351.186 504V497L346.186 504V461H341.186V511H346.186Z" fill="#FF5555"/>
<path d="M326.186 511C331.726 511 336.186 506.54 336.186 501V471C336.186 465.46 331.726 461 326.186 461C320.646 461 316.186 465.46 316.186 471V501C316.186 506.54 320.646 511 326.186 511ZM326.186 506C323.416 506 321.186 503.77 321.186 501V471C321.186 468.23 323.416 466 326.186 466C328.956 466 331.186 468.23 331.186 471V501C331.186 503.77 328.956 506 326.186 506Z" fill="#FF5555"/>
<path d="M30.6855 100C30.6855 94.4771 27.8277 91 23.6855 91C19.5434 91 16.1855 95.4771 16.1855 101C16.203 101.478 16.1946 101.946 16.1855 102.406C16.1855 106.055 17.524 109.595 18.6855 112.906C19.8801 116.312 21.6023 119.297 23.2168 122.344C25.7174 127.063 31.1855 136 31.1855 136C31.1855 136 36.6537 127.063 39.1543 122.344C40.7688 119.297 42.491 116.312 43.6855 112.906C44.8471 109.595 46.1855 106.055 46.1855 102.406C46.1713 101.919 46.1762 101.449 46.1855 101C46.1855 95.4771 42.8277 91 38.6855 91C34.5434 91 31.6855 94.4771 31.6855 100C31.6855 101 30.6855 101 30.6855 100Z" fill="#FF5555"/>
<path d="M330.686 442C330.686 447.523 327.828 451 323.686 451C319.543 451 316.186 446.523 316.186 441C316.203 440.522 316.195 440.054 316.186 439.594C316.186 435.945 317.524 432.405 318.686 429.094C319.88 425.688 321.602 422.703 323.217 419.656C325.717 414.937 331.186 406 331.186 406C331.186 406 336.654 414.937 339.154 419.656C340.769 422.703 342.491 425.688 343.686 429.094C344.847 432.405 346.186 435.945 346.186 439.594C346.171 440.081 346.177 440.551 346.186 441C346.186 446.523 342.828 451 338.686 451C334.543 451 331.686 447.523 331.686 442C331.686 441 330.686 441 330.686 442Z" fill="#FF5555"/>
<path d="M90.1855 64C90.1855 52.9543 84.4698 46 76.1855 46C67.9013 46 61.1855 54.9543 61.1855 66C61.2204 66.9556 61.2037 67.8912 61.1855 68.8125C61.1855 76.111 63.8624 83.1893 66.1855 89.8125C68.5746 96.6235 72.0191 102.593 75.248 108.688C80.2493 118.127 91.1855 136 91.1855 136C91.1855 136 102.122 118.127 107.123 108.688C110.352 102.593 113.797 96.6235 116.186 89.8125C118.509 83.1893 121.186 76.111 121.186 68.8125C121.157 67.8381 121.167 66.8979 121.186 66C121.186 54.9543 114.47 46 106.186 46C97.9013 46 92.1855 52.9543 92.1855 64C92.1855 66 90.1855 66 90.1855 64Z" fill="#FF5555"/>
<path d="M270.186 64C270.186 52.9543 264.47 46 256.186 46C247.901 46 241.186 54.9543 241.186 66C241.22 66.9556 241.204 67.8912 241.186 68.8125C241.186 76.111 243.862 83.1893 246.186 89.8125C248.575 96.6235 252.019 102.593 255.248 108.688C260.249 118.127 271.186 136 271.186 136C271.186 136 282.122 118.127 287.123 108.688C290.352 102.593 293.797 96.6235 296.186 89.8125C298.509 83.1893 301.186 76.111 301.186 68.8125C301.157 67.8381 301.167 66.8979 301.186 66C301.186 54.9543 294.47 46 286.186 46C277.901 46 272.186 52.9543 272.186 64C272.186 66 270.186 66 270.186 64Z" fill="#FF5555"/>
<path d="M180.186 124C180.186 112.954 174.47 106 166.186 106C157.901 106 151.186 114.954 151.186 126C151.22 126.956 151.204 127.891 151.186 128.812C151.186 136.111 153.862 143.189 156.186 149.812C158.575 156.623 162.019 162.593 165.248 168.688C170.249 178.127 181.186 196 181.186 196C181.186 196 192.122 178.127 197.123 168.688C200.352 162.593 203.797 156.623 206.186 149.812C208.509 143.189 211.186 136.111 211.186 128.812C211.157 127.838 211.167 126.898 211.186 126C211.186 114.954 204.47 106 196.186 106C187.901 106 182.186 112.954 182.186 124C182.186 126 180.186 126 180.186 124Z" fill="#FF5555"/>
<path d="M90.1855 184C90.1855 172.954 84.4698 166 76.1855 166C67.9013 166 61.1855 174.954 61.1855 186C61.2204 186.956 61.2037 187.891 61.1855 188.812C61.1855 196.111 63.8624 203.189 66.1855 209.812C68.5746 216.623 72.0191 222.593 75.248 228.688C80.2493 238.127 91.1855 256 91.1855 256C91.1855 256 102.122 238.127 107.123 228.688C110.352 222.593 113.797 216.623 116.186 209.812C118.509 203.189 121.186 196.111 121.186 188.812C121.157 187.838 121.167 186.898 121.186 186C121.186 174.954 114.47 166 106.186 166C97.9013 166 92.1855 172.954 92.1855 184C92.1855 186 90.1855 186 90.1855 184Z" fill="#FF5555"/>
<path d="M270.186 184C270.186 172.954 264.47 166 256.186 166C247.901 166 241.186 174.954 241.186 186C241.22 186.956 241.204 187.891 241.186 188.812C241.186 196.111 243.862 203.189 246.186 209.812C248.575 216.623 252.019 222.593 255.248 228.688C260.249 238.127 271.186 256 271.186 256C271.186 256 282.122 238.127 287.123 228.688C290.352 222.593 293.797 216.623 296.186 209.812C298.509 203.189 301.186 196.111 301.186 188.812C301.157 187.838 301.167 186.898 301.186 186C301.186 174.954 294.47 166 286.186 166C277.901 166 272.186 172.954 272.186 184C272.186 186 270.186 186 270.186 184Z" fill="#FF5555"/>
<path d="M90.1855 358C90.1855 369.046 84.4698 376 76.1855 376C67.9013 376 61.1855 367.046 61.1855 356C61.2204 355.044 61.2037 354.109 61.1855 353.188C61.1855 345.889 63.8624 338.811 66.1855 332.188C68.5746 325.377 72.0191 319.407 75.248 313.312C80.2493 303.873 91.1855 286 91.1855 286C91.1855 286 102.122 303.873 107.123 313.312C110.352 319.407 113.797 325.377 116.186 332.188C118.509 338.811 121.186 345.889 121.186 353.188C121.157 354.162 121.167 355.102 121.186 356C121.186 367.046 114.47 376 106.186 376C97.9013 376 92.1855 369.046 92.1855 358C92.1855 356 90.1855 356 90.1855 358Z" fill="#FF5555"/>
<path d="M270.186 358C270.186 369.046 264.47 376 256.186 376C247.901 376 241.186 367.046 241.186 356C241.22 355.044 241.204 354.109 241.186 353.188C241.186 345.889 243.862 338.811 246.186 332.188C248.575 325.377 252.019 319.407 255.248 313.312C260.249 303.873 271.186 286 271.186 286C271.186 286 282.122 303.873 287.123 313.312C290.352 319.407 293.797 325.377 296.186 332.188C298.509 338.811 301.186 345.889 301.186 353.188C301.157 354.162 301.167 355.102 301.186 356C301.186 367.046 294.47 376 286.186 376C277.901 376 272.186 369.046 272.186 358C272.186 356 270.186 356 270.186 358Z" fill="#FF5555"/>
<path d="M180.186 418C180.186 429.046 174.47 436 166.186 436C157.901 436 151.186 427.046 151.186 416C151.22 415.044 151.204 414.109 151.186 413.188C151.186 405.889 153.862 398.811 156.186 392.188C158.575 385.377 162.019 379.407 165.248 373.312C170.249 363.873 181.186 346 181.186 346C181.186 346 192.122 363.873 197.123 373.312C200.352 379.407 203.797 385.377 206.186 392.188C208.509 398.811 211.186 405.889 211.186 413.188C211.157 414.162 211.167 415.102 211.186 416C211.186 427.046 204.47 436 196.186 436C187.901 436 182.186 429.046 182.186 418C182.186 416 180.186 416 180.186 418Z" fill="#FF5555"/>
<path d="M90.1855 478C90.1855 489.046 84.4698 496 76.1855 496C67.9013 496 61.1855 487.046 61.1855 476C61.2204 475.044 61.2037 474.109 61.1855 473.188C61.1855 465.889 63.8624 458.811 66.1855 452.188C68.5746 445.377 72.0191 439.407 75.248 433.312C80.2493 423.873 91.1855 406 91.1855 406C91.1855 406 102.122 423.873 107.123 433.312C110.352 439.407 113.797 445.377 116.186 452.188C118.509 458.811 121.186 465.889 121.186 473.188C121.157 474.162 121.167 475.102 121.186 476C121.186 487.046 114.47 496 106.186 496C97.9013 496 92.1855 489.046 92.1855 478C92.1855 476 90.1855 476 90.1855 478Z" fill="#FF5555"/>
<path d="M270.186 478C270.186 489.046 264.47 496 256.186 496C247.901 496 241.186 487.046 241.186 476C241.22 475.044 241.204 474.109 241.186 473.188C241.186 465.889 243.862 458.811 246.186 452.188C248.575 445.377 252.019 439.407 255.248 433.312C260.249 423.873 271.186 406 271.186 406C271.186 406 282.122 423.873 287.123 433.312C290.352 439.407 293.797 445.377 296.186 452.188C298.509 458.811 301.186 465.889 301.186 473.188C301.157 474.162 301.167 475.102 301.186 476C301.186 487.046 294.47 496 286.186 496C277.901 496 272.186 489.046 272.186 478C272.186 476 270.186 476 270.186 478Z" fill="#FF5555"/>
</svg>
