<svg width="362" height="542" viewBox="0 0 362 542" fill="none" xmlns="http://www.w3.org/2000/svg">
<path d="M330.741 1.5H31.63C15.0921 1.5 1.68555 14.9066 1.68555 31.4445V510.556C1.68555 527.093 15.0921 540.5 31.63 540.5H330.741C347.279 540.5 360.686 527.093 360.686 510.556V31.4445C360.686 14.9066 347.279 1.5 330.741 1.5Z" stroke="black" stroke-width="2.5"/>
<path d="M16.1855 31L11.1855 38V45L16.1855 38V81H21.1855V31H16.1855Z" fill="black"/>
<path d="M36.1855 31C30.6455 31 26.1855 35.46 26.1855 41V71C26.1855 76.54 30.6455 81 36.1855 81C41.7255 81 46.1855 76.54 46.1855 71V41C46.1855 35.46 41.7255 31 36.1855 31ZM36.1855 36C38.9555 36 41.1855 38.23 41.1855 41V71C41.1855 73.77 38.9555 76 36.1855 76C33.4155 76 31.1855 73.77 31.1855 71V41C31.1855 38.23 33.4155 36 36.1855 36Z" fill="black"/>
<path d="M346.186 511L351.186 504V497L346.186 504V461H341.186V511H346.186Z" fill="black"/>
<path d="M326.186 511C331.726 511 336.186 506.54 336.186 501V471C336.186 465.46 331.726 461 326.186 461C320.646 461 316.186 465.46 316.186 471V501C316.186 506.54 320.646 511 326.186 511ZM326.186 506C323.416 506 321.186 503.77 321.186 501V471C321.186 468.23 323.416 466 326.186 466C328.956 466 331.186 468.23 331.186 471V501C331.186 503.77 328.956 506 326.186 506Z" fill="black"/>
<path d="M33.6855 119C34.1855 121 36.1855 126 39.6855 126C44.1855 126 46.1855 122 46.1855 117C46.1855 113.5 44.8961 111.194 43.6855 108.5C42.3966 105.632 40.4959 103.071 38.6855 100.5C36.3629 97.201 31.1855 91 31.1855 91C31.1855 91 26.0082 97.201 23.6855 100.5C21.8752 103.071 19.9745 105.632 18.6855 108.5C17.475 111.194 16.1855 113.5 16.1855 117C16.1855 122 18.1855 126 22.6855 126C26.1855 126 28.1855 121 28.6855 119C29.1855 118.5 29.1855 119 29.1855 119.5C28.6855 123.5 28.6855 124.5 28.1855 127.5C27.6855 130.5 26.1855 136 26.1855 136C28.6855 135 33.6855 135 36.1855 136C36.1855 136 34.6855 130.5 34.1855 127.5C33.6855 124.5 33.6855 123.5 33.1855 119.5C33.1855 119 33.1855 118.5 33.6855 119Z" fill="black"/>
<path d="M333.686 423C334.186 421 336.186 416 339.686 416C344.186 416 346.186 420 346.186 425C346.186 428.5 344.896 430.806 343.686 433.5C342.397 436.368 340.496 438.929 338.686 441.5C336.363 444.799 331.186 451 331.186 451C331.186 451 326.008 444.799 323.686 441.5C321.875 438.929 319.974 436.368 318.686 433.5C317.475 430.806 316.186 428.5 316.186 425C316.186 420 318.186 416 322.686 416C326.186 416 328.186 421 328.686 423C329.186 423.5 329.186 423 329.186 422.5C328.686 418.5 328.686 417.5 328.186 414.5C327.686 411.5 326.186 406 326.186 406C328.686 407 333.686 407 336.186 406C336.186 406 334.686 411.5 334.186 414.5C333.686 417.5 333.686 418.5 333.186 422.5C333.186 423 333.186 423.5 333.686 423Z" fill="black"/>
<path d="M96.1855 102C97.1855 106 101.186 116 108.186 116C117.186 116 121.186 108 121.186 98C121.186 91 118.607 86.3877 116.186 81C113.608 75.2633 109.806 70.1426 106.186 65C101.54 58.4021 91.1855 46 91.1855 46C91.1855 46 80.8308 58.4021 76.1855 65C72.5649 70.1426 68.7634 75.2633 66.1855 81C63.7645 86.3877 61.1855 91 61.1855 98C61.1855 108 65.1855 116 74.1855 116C81.1855 116 85.1855 106 86.1855 102C87.1855 101 87.1855 102 87.1855 103C86.1855 111 86.1855 113 85.1855 119C84.1855 125 81.1855 136 81.1855 136C86.1855 134 96.1855 134 101.186 136C101.186 136 98.1855 125 97.1855 119C96.1855 113 96.1855 111 95.1855 103C95.1855 102 95.1855 101 96.1855 102Z" fill="black"/>
<path d="M276.186 102C277.186 106 281.186 116 288.186 116C297.186 116 301.186 108 301.186 98C301.186 91 298.607 86.3877 296.186 81C293.608 75.2633 289.806 70.1426 286.186 65C281.54 58.4021 271.186 46 271.186 46C271.186 46 260.831 58.4021 256.186 65C252.565 70.1426 248.763 75.2633 246.186 81C243.764 86.3877 241.186 91 241.186 98C241.186 108 245.186 116 254.186 116C261.186 116 265.186 106 266.186 102C267.186 101 267.186 102 267.186 103C266.186 111 266.186 113 265.186 119C264.186 125 261.186 136 261.186 136C266.186 134 276.186 134 281.186 136C281.186 136 278.186 125 277.186 119C276.186 113 276.186 111 275.186 103C275.186 102 275.186 101 276.186 102Z" fill="black"/>
<path d="M186.186 162C187.186 166 191.186 176 198.186 176C207.186 176 211.186 168 211.186 158C211.186 151 208.607 146.388 206.186 141C203.608 135.263 199.806 130.143 196.186 125C191.54 118.402 181.186 106 181.186 106C181.186 106 170.831 118.402 166.186 125C162.565 130.143 158.763 135.263 156.186 141C153.764 146.388 151.186 151 151.186 158C151.186 168 155.186 176 164.186 176C171.186 176 175.186 166 176.186 162C177.186 161 177.186 162 177.186 163C176.186 171 176.186 173 175.186 179C174.186 185 171.186 196 171.186 196C176.186 194 186.186 194 191.186 196C191.186 196 188.186 185 187.186 179C186.186 173 186.186 171 185.186 163C185.186 162 185.186 161 186.186 162Z" fill="black"/>
<path d="M96.1855 222C97.1855 226 101.186 236 108.186 236C117.186 236 121.186 228 121.186 218C121.186 211 118.607 206.388 116.186 201C113.608 195.263 109.806 190.143 106.186 185C101.54 178.402 91.1855 166 91.1855 166C91.1855 166 80.8308 178.402 76.1855 185C72.5649 190.143 68.7634 195.263 66.1855 201C63.7645 206.388 61.1855 211 61.1855 218C61.1855 228 65.1855 236 74.1855 236C81.1855 236 85.1855 226 86.1855 222C87.1855 221 87.1855 222 87.1855 223C86.1855 231 86.1855 233 85.1855 239C84.1855 245 81.1855 256 81.1855 256C86.1855 254 96.1855 254 101.186 256C101.186 256 98.1855 245 97.1855 239C96.1855 233 96.1855 231 95.1855 223C95.1855 222 95.1855 221 96.1855 222Z" fill="black"/>
<path d="M276.186 222C277.186 226 281.186 236 288.186 236C297.186 236 301.186 228 301.186 218C301.186 211 298.607 206.388 296.186 201C293.608 195.263 289.806 190.143 286.186 185C281.54 178.402 271.186 166 271.186 166C271.186 166 260.831 178.402 256.186 185C252.565 190.143 248.763 195.263 246.186 201C243.764 206.388 241.186 211 241.186 218C241.186 228 245.186 236 254.186 236C261.186 236 265.186 226 266.186 222C267.186 221 267.186 222 267.186 223C266.186 231 266.186 233 265.186 239C264.186 245 261.186 256 261.186 256C266.186 254 276.186 254 281.186 256C281.186 256 278.186 245 277.186 239C276.186 233 276.186 231 275.186 223C275.186 222 275.186 221 276.186 222Z" fill="black"/>
<path d="M96.1855 320C97.1855 316 101.186 306 108.186 306C117.186 306 121.186 314 121.186 324C121.186 331 118.607 335.612 116.186 341C113.608 346.737 109.806 351.857 106.186 357C101.54 363.598 91.1855 376 91.1855 376C91.1855 376 80.8308 363.598 76.1855 357C72.5649 351.857 68.7634 346.737 66.1855 341C63.7645 335.612 61.1855 331 61.1855 324C61.1855 314 65.1855 306 74.1855 306C81.1855 306 85.1855 316 86.1855 320C87.1855 321 87.1855 320 87.1855 319C86.1855 311 86.1855 309 85.1855 303C84.1855 297 81.1855 286 81.1855 286C86.1855 288 96.1855 288 101.186 286C101.186 286 98.1855 297 97.1855 303C96.1855 309 96.1855 311 95.1855 319C95.1855 320 95.1855 321 96.1855 320Z" fill="black"/>
<path d="M276.186 320C277.186 316 281.186 306 288.186 306C297.186 306 301.186 314 301.186 324C301.186 331 298.607 335.612 296.186 341C293.608 346.737 289.806 351.857 286.186 357C281.54 363.598 271.186 376 271.186 376C271.186 376 260.831 363.598 256.186 357C252.565 351.857 248.763 346.737 246.186 341C243.764 335.612 241.186 331 241.186 324C241.186 314 245.186 306 254.186 306C261.186 306 265.186 316 266.186 320C267.186 321 267.186 320 267.186 319C266.186 311 266.186 309 265.186 303C264.186 297 261.186 286 261.186 286C266.186 288 276.186 288 281.186 286C281.186 286 278.186 297 277.186 303C276.186 309 276.186 311 275.186 319C275.186 320 275.186 321 276.186 320Z" fill="black"/>
<path d="M186.186 380C187.186 376 191.186 366 198.186 366C207.186 366 211.186 374 211.186 384C211.186 391 208.607 395.612 206.186 401C203.608 406.737 199.806 411.857 196.186 417C191.54 423.598 181.186 436 181.186 436C181.186 436 170.831 423.598 166.186 417C162.565 411.857 158.763 406.737 156.186 401C153.764 395.612 151.186 391 151.186 384C151.186 374 155.186 366 164.186 366C171.186 366 175.186 376 176.186 380C177.186 381 177.186 380 177.186 379C176.186 371 176.186 369 175.186 363C174.186 357 171.186 346 171.186 346C176.186 348 186.186 348 191.186 346C191.186 346 188.186 357 187.186 363C186.186 369 186.186 371 185.186 379C185.186 380 185.186 381 186.186 380Z" fill="black"/>
<path d="M96.1855 440C97.1855 436 101.186 426 108.186 426C117.186 426 121.186 434 121.186 444C121.186 451 118.607 455.612 116.186 461C113.608 466.737 109.806 471.857 106.186 477C101.54 483.598 91.1855 496 91.1855 496C91.1855 496 80.8308 483.598 76.1855 477C72.5649 471.857 68.7634 466.737 66.1855 461C63.7645 455.612 61.1855 451 61.1855 444C61.1855 434 65.1855 426 74.1855 426C81.1855 426 85.1855 436 86.1855 440C87.1855 441 87.1855 440 87.1855 439C86.1855 431 86.1855 429 85.1855 423C84.1855 417 81.1855 406 81.1855 406C86.1855 408 96.1855 408 101.186 406C101.186 406 98.1855 417 97.1855 423C96.1855 429 96.1855 431 95.1855 439C95.1855 440 95.1855 441 96.1855 440Z" fill="black"/>
<path d="M276.186 440C277.186 436 281.186 426 288.186 426C297.186 426 301.186 434 301.186 444C301.186 451 298.607 455.612 296.186 461C293.608 466.737 289.806 471.857 286.186 477C281.54 483.598 271.186 496 271.186 496C271.186 496 260.831 483.598 256.186 477C252.565 471.857 248.763 466.737 246.186 461C243.764 455.612 241.186 451 241.186 444C241.186 434 245.186 426 254.186 426C261.186 426 265.186 436 266.186 440C267.186 441 267.186 440 267.186 439C266.186 431 266.186 429 265.186 423C264.186 417 261.186 406 261.186 406C266.186 408 276.186 408 281.186 406C281.186 406 278.186 417 277.186 423C276.186 429 276.186 431 275.186 439C275.186 440 275.186 441 276.186 440Z" fill="black"/>
</svg>
